<?xml version="1.0" standalone="no"?>
<!DOCTYPE svg PUBLIC "-//W3C//DTD SVG 1.1//EN" "http://www.w3.org/Graphics/SVG/1.1/DTD/svg11.dtd" >
<svg xmlns="http://www.w3.org/2000/svg">
<metadata></metadata>
<defs>
<font id="theinhardtblack" horiz-adv-x="1208" >
<font-face units-per-em="2048" ascent="1393" descent="-655" />
<missing-glyph horiz-adv-x="471" />
<glyph unicode="&#xfb01;" horiz-adv-x="1376" d="M-16 702v273h151v88q0 157 62 237q46 59 129 85t211 28q108 0 204 -14v-287q-40 4 -71 4q-72 0 -105 -26q-28 -25 -28 -89v-26h204v-273h-204v-702h-402v702h-151zM858 0v975h402v-975h-402zM858 1092v301h402v-301h-402z" />
<glyph unicode="&#xfb02;" horiz-adv-x="1359" d="M-16 702v273h151v88q0 157 62 237q46 59 129 85t211 28q108 0 204 -14v-287q-40 4 -71 4q-72 0 -105 -26q-28 -25 -28 -89v-26h204v-273h-204v-702h-402v702h-151zM858 0v1393h402v-1393h-402z" />
<glyph horiz-adv-x="0" />
<glyph horiz-adv-x="682" />
<glyph unicode=" "  horiz-adv-x="471" />
<glyph unicode="&#x09;" horiz-adv-x="471" />
<glyph unicode="&#xa0;" horiz-adv-x="471" />
<glyph unicode="!" horiz-adv-x="628" d="M113 0v317h403v-317h-403zM113 772v621h403v-621l-31 -381h-338z" />
<glyph unicode="&#x22;" horiz-adv-x="1075" d="M82 1188v205h405v-205l-59 -447h-295zM588 1188v205h405v-205l-59 -447h-295z" />
<glyph unicode="#" d="M-88 299v295h270l21 147h-234v297h281l59 353h359l-60 -353h140l61 353h356l-59 -353h211v-297h-260l-21 -147h224v-295h-273q-7 -57 -24 -165.5t-21 -133.5h-360l47 299h-140l-47 -299h-358l45 299h-217zM535 594h143l27 147h-144z" />
<glyph unicode="$" d="M-59 283l252 219q80 -96 189 -148.5t230 -52.5q99 0 154 28.5t55 82.5q0 20 -9 35.5t-20.5 24.5t-38 17t-45 12t-57.5 11l-180 33q-463 81 -463 430q0 162 111 273t303 143v176h352v-187q138 -29 241.5 -90.5t153.5 -120.5l-231 -223q-74 71 -170 110.5t-197 39.5 q-76 0 -122 -25.5t-46 -71.5q0 -45 38.5 -68.5t125.5 -39.5l205 -39q104 -19 180 -49t135 -77.5t89 -118t30 -163.5q0 -188 -115.5 -299t-316.5 -143v-190h-352v194q-174 32 -298.5 112.5t-182.5 164.5z" />
<glyph unicode="%" horiz-adv-x="1943" d="M41 958q0 70 11 133t37.5 122.5t66.5 102.5t103 69t142 26q82 0 146 -27.5t102.5 -71.5t63.5 -105.5t34 -121.5t9 -127q0 -118 -38 -211.5t-120.5 -152.5t-200.5 -59q-91 0 -161 34t-112 93.5t-62.5 134t-20.5 161.5zM319 973q0 -193 80 -193q84 0 84 193q0 192 -84 192 q-43 0 -61.5 -48t-18.5 -144zM436 0l733 1393h334l-723 -1393h-344zM1186 403q0 70 11 133t37.5 122.5t66.5 102.5t103 69t142 26q82 0 146 -27.5t102.5 -71.5t63.5 -105.5t34 -121.5t9 -127q0 -118 -38 -211.5t-120.5 -152.5t-200.5 -59q-91 0 -161 34t-112 93.5t-62.5 134 t-20.5 161.5zM1464 418q0 -193 80 -193q84 0 84 193q0 192 -84 192q-43 0 -61.5 -48t-18.5 -144z" />
<glyph unicode="&#x26;" horiz-adv-x="1325" d="M16 373q0 78 23.5 144t66 114.5t92 83.5t109.5 61q-36 36 -56.5 60.5t-44 61.5t-34 81t-10.5 98q0 67 26 127t76.5 107.5t132.5 75.5t185 28q201 0 305 -87.5t104 -229.5q0 -104 -63 -196t-176 -165q94 -106 94 -108q18 80 24 121l326 -72q-23 -170 -96 -346l276 -332 h-424l-65 82q-144 -105 -381 -105q-224 0 -357 101t-133 295zM387 410q0 -66 39.5 -107t108.5 -41q39 0 81 17.5t66 44.5l-201 237q-94 -49 -94 -151zM500 1083q0 -40 18.5 -71.5t61.5 -73.5q38 30 58.5 69.5t20.5 77.5t-21.5 59t-57.5 21q-35 0 -57.5 -22.5t-22.5 -59.5z " />
<glyph unicode="'" horiz-adv-x="569" d="M82 1188v205h405v-205l-59 -447h-295z" />
<glyph unicode="(" horiz-adv-x="772" d="M111 543q0 221 62 425.5t196 424.5h383q-234 -416 -234 -850q0 -432 230 -867h-381q-256 405 -256 867z" />
<glyph unicode=")" horiz-adv-x="772" d="M20 1393h383q134 -220 196.5 -424.5t62.5 -425.5q0 -462 -256 -867h-381q229 433 229 867t-234 850z" />
<glyph unicode="*" horiz-adv-x="960" d="M31 958l90 279l213 -70v226h295v-228l213 72l88 -279l-217 -69q122 -160 135 -178l-236 -174l-133 180l-129 -180l-237 172l133 180z" />
<glyph unicode="+" horiz-adv-x="1583" d="M176 420v364h432v430h367v-430h430v-364h-430v-420h-367v420h-432z" />
<glyph unicode="," horiz-adv-x="651" d="M113 0v410h426v-232q0 -195 -27 -297q-35 -125 -124.5 -184t-266.5 -59h-8v229q72 3 102.5 31.5t30.5 101.5h-133z" />
<glyph unicode="-" horiz-adv-x="733" d="M82 381v334h569v-334h-569z" />
<glyph unicode="." horiz-adv-x="651" d="M113 0v410h426v-410h-426z" />
<glyph unicode="/" d="M31 0l735 1393h414l-734 -1393h-415z" />
<glyph unicode="0" d="M37 688q0 106 17.5 205.5t59.5 196t105.5 168t163 115.5t223.5 44q125 0 225 -44t163.5 -115t105.5 -168t59 -196t17 -206q-3 -92 -15.5 -173t-38 -164t-69 -149t-103.5 -118t-148 -80.5t-196 -28.5q-121 0 -219.5 42.5t-162.5 112.5t-107 164t-61.5 192t-18.5 202z M461 688q0 -74 4.5 -125t18.5 -103t44.5 -79t77.5 -27q32 0 57 12.5t40.5 37.5t25.5 53.5t15 70t6.5 77t1.5 83.5q0 60 -2.5 104t-11.5 93.5t-24 80.5t-42.5 51.5t-65.5 20.5t-66 -20.5t-43 -51.5t-23.5 -80.5t-10.5 -93t-2 -104.5z" />
<glyph unicode="1" d="M141 782v332h103q134 0 196 47q72 53 82 232h377v-1393h-410v782h-348z" />
<glyph unicode="2" d="M70 963q0 198 149.5 326t390.5 128q232 0 375 -121t143 -315q0 -86 -28 -169.5t-72 -149.5t-106 -129t-122.5 -109t-129.5 -88v-2q133 6 248 6h198v-340h-1040v270q102 72 238 183t233 211q77 80 117.5 147t40.5 139q0 59 -29.5 92t-89.5 33q-61 0 -92 -43t-31 -108 q0 -71 26 -140l-399 33q-20 83 -20 146z" />
<glyph unicode="3" d="M25 436l387 43q9 -85 50 -128.5t124 -43.5q151 0 151 137q0 65 -45 96t-141 31h-145v281h126q67 0 97 10q42 11 62 44.5t20 78.5q0 52 -35 82.5t-94 30.5q-68 0 -104 -41t-36 -117l-387 37q2 91 39 170.5t104.5 139.5t171.5 95t232 35q243 0 378.5 -107t135.5 -276 q0 -188 -160 -286q87 -46 143 -127.5t56 -202.5q0 -94 -34 -173.5t-101.5 -140t-176.5 -95t-249 -34.5q-539 0 -569 461z" />
<glyph unicode="4" d="M18 285v262l603 846h378v-787h189v-321h-189v-285h-381v285h-600zM399 604q89 2 136 2h83v176l5 150h-2q-39 -72 -78 -127l-58 -84l-86 -115v-2z" />
<glyph unicode="5" d="M45 383l399 70q26 -148 142 -148q66 0 102.5 51.5t36.5 130.5q0 77 -36 124.5t-105 47.5q-50 0 -84.5 -29t-46.5 -81l-377 49l88 795h917l-22 -336h-561l-15 -121q83 27 168 27q95 0 179.5 -28t153 -83t109 -145t40.5 -205q0 -240 -144 -383.5t-405 -143.5 q-117 0 -212.5 31.5t-160.5 88t-106.5 129t-59.5 159.5z" />
<glyph unicode="6" d="M74 674q0 353 142 548t431 195q99 0 180 -25.5t134 -66t91 -95.5t57 -109t26 -111l-367 -43q-33 133 -133 133q-70 0 -111.5 -61.5t-44.5 -170.5q95 64 230 64q71 0 135 -17t121 -53.5t98.5 -89t65.5 -128.5t24 -167q0 -97 -31.5 -184.5t-93.5 -159.5t-165.5 -115 t-235.5 -43q-553 0 -553 699zM481 539q0 -42 7.5 -80t23 -73t46 -56t71.5 -21q66 0 100.5 43t34.5 123q0 79 -37.5 119.5t-95.5 40.5q-83 0 -150 -70v-26z" />
<glyph unicode="7" d="M80 879v514h1091v-291q-113 -138 -192 -281q-97 -175 -160.5 -388t-83.5 -433h-436q34 302 140.5 562.5t283.5 506.5h-266v-190h-377z" />
<glyph unicode="8" d="M43 395q0 110 57 193t142 131q-70 43 -117 123.5t-47 181.5q0 173 143.5 283t382.5 110t382.5 -110t143.5 -283q0 -101 -46.5 -181.5t-116.5 -123.5q85 -48 141.5 -131t56.5 -193q0 -84 -28 -153.5t-78 -118.5t-120 -82.5t-154 -49.5t-181 -16q-123 0 -224 25.5 t-177 76.5t-118 132t-42 186zM440 442q0 -64 45 -101.5t119 -37.5t119 37.5t45 101.5q0 61 -43.5 98.5t-120.5 37.5t-120.5 -37.5t-43.5 -98.5zM457 973q0 -56 37.5 -91.5t109.5 -35.5t110 36t38 91q0 54 -37 89.5t-111 35.5q-72 0 -109.5 -36t-37.5 -89z" />
<glyph unicode="9" d="M57 915q0 97 32 184.5t94 159.5t165.5 115t235.5 43q553 0 553 -698q0 -353 -142.5 -548.5t-431.5 -195.5q-99 0 -180 26t-133.5 67t-90.5 96.5t-57 109.5t-26 111l366 43q33 -131 133 -131q71 0 112 60t44 169q-94 -63 -229 -63q-71 0 -135 16.5t-121 52.5t-99 88 t-66 128t-24 167zM446 920q0 -79 38 -119.5t96 -40.5q83 0 149 69v27q0 42 -7 80t-23 73t-46 55.5t-71 20.5q-66 0 -101 -42.5t-35 -122.5z" />
<glyph unicode=":" horiz-adv-x="651" d="M113 0v401h426v-401h-426zM113 575v402h426v-402h-426z" />
<glyph unicode=";" horiz-adv-x="651" d="M113 0v410h426v-232q0 -195 -27 -297q-35 -125 -124.5 -184t-266.5 -59h-8v229q72 3 102.5 31.5t30.5 101.5h-133zM113 575v402h426v-402h-426z" />
<glyph unicode="&#x3c;" horiz-adv-x="1583" d="M68 561v250l1413 635v-406l-834 -348l834 -360v-410z" />
<glyph unicode="=" horiz-adv-x="1583" d="M78 182v336h1429v-336h-1429zM78 641v336h1429v-336h-1429z" />
<glyph unicode="&#x3e;" horiz-adv-x="1583" d="M100 -78v410l834 360l-834 348v406l1413 -635v-250z" />
<glyph unicode="?" horiz-adv-x="1034" d="M20 999q0 190 130.5 304t361.5 114q105 0 190.5 -23.5t141.5 -63t94.5 -93t55 -111.5t16.5 -122q0 -119 -49.5 -206t-141.5 -163l-80 -66q-40 -32 -55.5 -61.5t-15.5 -77.5v-61h-377v98q0 89 35.5 152t122.5 131l55 43q106 82 106 196q0 53 -29.5 86t-76.5 33 q-52 0 -81.5 -38.5t-29.5 -108.5q0 -42 25 -136l-375 23q-23 79 -23 151zM287 0v319h385v-319h-385z" />
<glyph unicode="@" horiz-adv-x="1710" d="M57 614q0 121 32.5 235.5t101.5 218.5t167.5 181.5t240 123.5t308.5 46q153 0 280 -39t213 -104.5t145.5 -153.5t86.5 -185t27 -200q0 -259 -116 -400.5t-335 -141.5q-155 0 -215 63q-73 -65 -223 -65q-144 0 -231.5 70.5t-87.5 203.5q0 62 22.5 108.5t66 77t95.5 48.5 t121 30l170 29q23 4 32 11.5t9 21.5v12q0 72 -93 72q-102 0 -102 -103l-301 6q-1 83 33 143.5t96 94.5t136.5 49.5t164.5 15.5q192 0 289.5 -62.5t97.5 -219.5v-336q0 -29 3.5 -43t17.5 -14q37 0 70.5 82t33.5 210q0 73 -16 140.5t-53.5 133t-94 113.5t-144.5 77.5 t-198 29.5q-114 0 -210.5 -32t-163.5 -86.5t-114 -128t-69 -157t-22 -172.5q0 -136 45.5 -247.5t125.5 -185.5t187.5 -114t231.5 -40q318 0 532 196l98 -198q-265 -215 -655 -215q-257 0 -446.5 98.5t-289.5 279.5t-100 422zM770 473q0 -35 23.5 -55.5t66.5 -20.5 q48 0 77.5 24t29.5 73v86q-57 -15 -86 -23q-24 -6 -36.5 -9.5t-29.5 -11t-25 -15t-14 -20t-6 -28.5z" />
<glyph unicode="A" horiz-adv-x="1372" d="M-29 0l467 1393h500l463 -1393h-436l-70 233h-422l-70 -233h-432zM567 569h232l-80 283l-33 135h-2q-4 -15 -17 -65t-18 -70z" />
<glyph unicode="B" horiz-adv-x="1394" d="M127 0v1393h670q118 0 192 -12.5t133 -41.5q83 -41 130.5 -118t47.5 -179q0 -121 -62 -199t-159 -110q264 -82 264 -342q0 -203 -155 -311q-68 -48 -154.5 -64t-199.5 -16h-707zM541 313h178q92 0 129 15q76 29 76 116q0 89 -74 117q-35 14 -129 14h-180v-262zM541 860 h157h21h25t23 1t26 3.5t21.5 6.5t21.5 10q51 30 51 96t-51 96q-37 19 -131 19h-164v-232z" />
<glyph unicode="C" horiz-adv-x="1374" d="M55 696q0 324 189.5 522.5t511.5 198.5q119 0 222.5 -32t176 -86.5t122 -118.5t77.5 -136l-363 -174q-56 215 -241 215q-132 0 -200.5 -102.5t-68.5 -286.5q0 -183 68.5 -283t200.5 -100q171 0 233 174l379 -135q-77 -176 -231 -276.5t-383 -100.5q-162 0 -293.5 53 t-218.5 148t-134 227.5t-47 292.5z" />
<glyph unicode="D" horiz-adv-x="1492" d="M127 0v1393h549q85 0 128.5 -1t108 -6t105 -15t87 -29t87.5 -48q116 -83 181 -236.5t65 -357.5q0 -176 -49.5 -319t-145.5 -236q-36 -36 -73.5 -61t-84 -41t-83 -25t-100.5 -13t-104.5 -4.5t-123.5 -0.5h-547zM545 326h90q78 0 120.5 2.5t91.5 17.5t79 45q40 40 62 119.5 t22 183.5q0 227 -92 307q-47 39 -112 51.5t-183 12.5h-78v-739z" />
<glyph unicode="E" horiz-adv-x="1304" d="M127 0v1393h1069v-334h-655v-187h596v-329h-596v-207h692v-336h-1106z" />
<glyph unicode="F" horiz-adv-x="1224" d="M127 0v1393h1057v-334h-639v-195h581v-336h-581v-528h-418z" />
<glyph unicode="G" horiz-adv-x="1482" d="M55 696q0 213 85 376t244.5 254t371.5 91q119 0 222.5 -32t176 -86.5t122 -118.5t77.5 -136l-348 -172q-59 218 -256 218q-135 0 -206 -104t-71 -290q0 -409 289 -409q116 0 179.5 55t72.5 150h-305v321h675v-813h-360v92q-137 -117 -354 -117q-133 0 -245.5 48 t-194.5 138t-128.5 227.5t-46.5 307.5z" />
<glyph unicode="H" horiz-adv-x="1488" d="M127 0v1393h418v-496h401v496h420v-1393h-420v532h-401v-532h-418z" />
<glyph unicode="I" horiz-adv-x="671" d="M127 0v1393h418v-1393h-418z" />
<glyph unicode="J" horiz-adv-x="870" d="M41 -12v334q51 -11 111 -11q108 0 145 43q24 27 33.5 74.5t9.5 136.5v828h418v-957q0 -208 -64 -311q-107 -150 -407 -150q-153 0 -246 13z" />
<glyph unicode="K" horiz-adv-x="1435" d="M127 0v1393h418v-469l407 469h506l-516 -562l514 -831h-483l-316 522l-112 -125v-397h-418z" />
<glyph unicode="L" horiz-adv-x="1128" d="M127 0v1393h418v-1055h553v-338h-971z" />
<glyph unicode="M" horiz-adv-x="1916" d="M127 0v1393h668l98 -516l68 -340h2q34 184 69 340l105 516h653v-1393h-393v315q0 142 6.5 386.5t11.5 310.5q-47 -230 -84 -371l-162 -641h-438l-145 674l-74 344q3 -55 6.5 -302t3.5 -390v-326h-395z" />
<glyph unicode="N" horiz-adv-x="1515" d="M127 0v1393h403l254 -404q59 -88 107 -162.5t66 -105.5l18 -31h2q-6 172 -6 381v322h418v-1393h-404l-272 444q-41 63 -85 135.5t-68 114.5l-23 41h-2q10 -176 10 -399v-336h-418z" />
<glyph unicode="O" horiz-adv-x="1499" d="M55 696q0 327 190 524t505 197t504.5 -197t189.5 -524q0 -330 -184 -525.5t-510 -195.5q-324 0 -509.5 196t-185.5 525zM479 696q0 -183 69 -283t202 -100q132 0 200 100t68 283t-70 286t-198 103q-132 0 -201.5 -102.5t-69.5 -286.5z" />
<glyph unicode="P" horiz-adv-x="1372" d="M137 0v1393h611q215 0 333 -45q123 -49 195 -156.5t72 -259.5q0 -134 -47 -222.5t-148 -150.5q-79 -47 -175 -62.5t-245 -15.5h-178v-481h-418zM555 799h209q80 0 119 26q53 33 53 113t-53 113q-39 26 -119 26h-209v-278z" />
<glyph unicode="Q" horiz-adv-x="1501" d="M55 696q0 327 190 524t505 197t504.5 -197t189.5 -524q0 -181 -66 -336l183 -170l-279 -270l-139 156q-162 -101 -393 -101q-324 0 -509.5 196t-185.5 525zM479 696q0 -183 69 -283t202 -100q132 0 200 100t68 283t-70 286t-198 103q-132 0 -201.5 -102.5t-69.5 -286.5z " />
<glyph unicode="R" horiz-adv-x="1411" d="M137 0v1393h606q216 0 334 -45q124 -49 195 -155t71 -257q0 -134 -46.5 -221.5t-147.5 -149.5q-24 -16 -59 -30l313 -535h-447l-272 487h-129v-487h-418zM555 801h209q80 0 119 26q53 33 53 111q0 80 -53 113q-39 26 -119 26h-209v-276z" />
<glyph unicode="S" horiz-adv-x="1351" d="M0 274l256 224q83 -98 194.5 -152.5t233.5 -54.5q102 0 157.5 28.5t55.5 83.5q0 21 -9 36.5t-21 25.5t-37.5 18t-45.5 12t-59 11l-184 33q-82 15 -150 37t-129.5 58.5t-103 84t-66 114t-24.5 148.5q0 193 159 314.5t416 121.5q94 0 183 -16.5t154 -42t122 -58.5t92 -62.5 t59 -57.5l-235 -228q-76 72 -175 113t-200 41q-78 0 -125 -26t-47 -74q0 -47 39.5 -71t128.5 -40l209 -39q84 -16 150 -38t122 -56t92.5 -79t57 -106.5t20.5 -138.5q0 -117 -46 -206.5t-129.5 -145t-194.5 -83.5t-246 -28q-106 0 -204 20.5t-170.5 52t-134.5 72.5t-101 79 t-64 75z" />
<glyph unicode="T" horiz-adv-x="1171" d="M27 1057v336h1118v-336h-348v-1057h-418v1057h-352z" />
<glyph unicode="U" horiz-adv-x="1470" d="M106 569v824h418v-832q0 -141 47 -196q49 -58 164 -58t164 58q47 55 47 196v832h418v-824q0 -144 -17 -227.5t-59 -155.5q-44 -73 -137 -123t-197.5 -70t-218.5 -20t-218.5 20t-197.5 70t-137 123q-42 72 -59 155.5t-17 227.5z" />
<glyph unicode="V" horiz-adv-x="1224" d="M-72 1393h437l194 -731l49 -209h2q24 111 49 209l193 731h444l-422 -1393h-532z" />
<glyph unicode="W" horiz-adv-x="1873" d="M-31 1393h432l52 -256q19 -88 43 -225.5t38 -230.5l15 -93h2q41 222 115 512l73 293h387l82 -322q28 -110 58 -236t46 -197l15 -71h4q38 286 99 578l49 248h426l-332 -1393h-457l-90 375q-26 108 -48 213.5t-31 157.5l-9 51h-2q-24 -130 -92 -412l-92 -385h-451z" />
<glyph unicode="X" horiz-adv-x="1398" d="M-51 0l497 700l-487 693h494l249 -387l246 387h482l-482 -662l512 -731h-495l-271 410l-270 -410h-475z" />
<glyph unicode="Y" horiz-adv-x="1277" d="M-41 1393h449l231 -478l238 478h442l-483 -875v-518h-418v514z" />
<glyph unicode="Z" horiz-adv-x="1271" d="M61 0v264l609 795h-588v334h1126v-242l-616 -815h618v-336h-1149z" />
<glyph unicode="[" horiz-adv-x="739" d="M117 -324v1717h581v-273h-188v-1169h188v-275h-581z" />
<glyph unicode="\" d="M31 1393h411l736 -1393h-414z" />
<glyph unicode="]" horiz-adv-x="739" d="M41 -49h188v1169h-188v273h582v-1717h-582v275z" />
<glyph unicode="^" horiz-adv-x="1583" d="M246 625l387 768h336l368 -768h-419l-123 266l-121 -266h-428z" />
<glyph unicode="_" horiz-adv-x="1060" d="M-8 -37h1077v-332h-1077v332z" />
<glyph unicode="`" horiz-adv-x="1024" d="M184 1393h475l140 -297h-361z" />
<glyph unicode="a" horiz-adv-x="1114" d="M37 285q0 133 94 205t272 102l189 31q47 9 47 41v12q0 76 -109 76q-55 0 -85.5 -27.5t-30.5 -71.5v-18l-351 4q1 120 66.5 201.5t174.5 118.5t257 36q107 0 186 -15t140 -49t92 -95t31 -148v-412q0 -47 8.5 -64t34.5 -17h14v-203q-84 -15 -188 -15q-95 0 -149.5 18.5 t-72.5 63.5h-2q-70 -84 -262 -84q-171 0 -263.5 80t-92.5 230zM414 295q0 -40 25.5 -63t74.5 -23q55 0 88 30t33 91v88q-7 -4 -105 -29q-62 -16 -89 -36t-27 -58z" />
<glyph unicode="b" horiz-adv-x="1239" d="M117 0v1393h401v-492q37 43 101.5 71.5t144.5 28.5q187 0 303.5 -138t116.5 -378q0 -237 -115.5 -373.5t-308.5 -136.5q-80 0 -142.5 27.5t-99.5 67.5v-70h-401zM514 489q0 -42 5.5 -78.5t18 -69.5t36 -52t55.5 -19q116 0 116 219q0 222 -116 222q-33 0 -56.5 -19.5 t-35.5 -53t-17.5 -70t-5.5 -79.5z" />
<glyph unicode="c" horiz-adv-x="1116" d="M55 479q0 239 146 380.5t401 141.5q109 0 197.5 -30t146.5 -81t93 -114.5t46 -136.5l-372 -68q-15 144 -111 144q-113 0 -113 -226q0 -223 113 -223q84 0 107 115l383 -68q-10 -46 -31.5 -91t-62 -90.5t-94 -79.5t-133 -55.5t-173.5 -21.5q-251 0 -397 133.5t-146 370.5z " />
<glyph unicode="d" horiz-adv-x="1239" d="M55 487q0 240 116.5 377t303.5 137q80 0 144.5 -28.5t101.5 -71.5v492h401v-1393h-401v70q-37 -40 -99.5 -67.5t-142.5 -27.5q-192 0 -308 137.5t-116 374.5zM494 492q0 -222 116 -222q32 0 55.5 19.5t36 53t18 70.5t5.5 79q0 43 -5.5 79t-17.5 69t-35.5 52t-56.5 19 q-116 0 -116 -219z" />
<glyph unicode="e" horiz-adv-x="1173" d="M55 498q0 233 147.5 368t399.5 135q132 0 232.5 -40.5t162 -114t92.5 -170t31 -213.5q0 -37 -2 -60h-653q4 -59 50 -87.5t108 -28.5q114 0 168 92l325 -166q-25 -38 -64 -75t-100.5 -76t-152 -63t-195.5 -24q-252 0 -400.5 139t-148.5 384zM463 623h262q-2 61 -34 97 t-93 36t-96.5 -36.5t-38.5 -96.5z" />
<glyph unicode="f" horiz-adv-x="745" d="M-16 702v273h151v88q0 157 62 237q46 59 129 85t211 28q108 0 204 -14v-287q-40 4 -71 4q-72 0 -105 -26q-28 -25 -28 -89v-26h204v-273h-204v-702h-402v702h-151z" />
<glyph unicode="g" horiz-adv-x="1230" d="M57 508q0 228 116.5 360.5t303.5 132.5q80 0 143.5 -28.5t100.5 -71.5v74h401v-903q0 -136 -29.5 -225t-97 -142.5t-166.5 -75.5t-249 -22q-249 0 -366 92t-128 264l406 21q6 -111 114 -111q57 0 86 31.5t29 111.5v99q-36 -40 -98.5 -66t-145.5 -26q-190 0 -305 129.5 t-115 355.5zM494 504q0 -205 116 -205q60 0 87.5 58.5t27.5 146.5q0 89 -27 147t-88 58q-116 0 -116 -205z" />
<glyph unicode="h" horiz-adv-x="1243" d="M117 0v1393h401v-508q39 51 114.5 82.5t164.5 31.5q169 0 254 -94q48 -55 67 -127t19 -227v-551h-402v518q0 79 -21 119.5t-81 40.5q-115 0 -115 -156v-522h-401z" />
<glyph unicode="i" horiz-adv-x="634" d="M117 0v975h401v-975h-401zM117 1092v301h401v-301h-401z" />
<glyph unicode="j" horiz-adv-x="630" d="M-31 -98h19q47 0 74.5 10t41.5 37q15 30 15 92v934h401v-1026q0 -111 -26 -176q-33 -85 -125 -116.5t-242 -31.5q-60 0 -158 4v273zM119 1092v301h401v-301h-401z" />
<glyph unicode="k" horiz-adv-x="1230" d="M117 0v1393h401v-676l242 258h500l-408 -393l420 -582h-475l-215 319l-64 -61v-258h-401z" />
<glyph unicode="l" horiz-adv-x="634" d="M117 0v1393h401v-1393h-401z" />
<glyph unicode="m" horiz-adv-x="1861" d="M117 0v975h397v-94q39 53 115 85.5t168 32.5q196 0 282 -131q118 131 330 131q175 0 260 -94q48 -55 67 -127t19 -227v-551h-401v518q0 79 -21.5 119.5t-81.5 40.5q-114 0 -114 -156v-522h-402v518q0 79 -21 119.5t-81 40.5q-115 0 -115 -156v-522h-401z" />
<glyph unicode="n" horiz-adv-x="1243" d="M117 0v975h397v-94q39 53 115 85.5t168 32.5q169 0 254 -94q48 -55 67 -127t19 -227v-551h-402v518q0 79 -21 119.5t-81 40.5q-115 0 -115 -156v-522h-401z" />
<glyph unicode="o" horiz-adv-x="1214" d="M55 485q0 238 148 377t403 139t404 -139t149 -377q0 -239 -147.5 -374.5t-405.5 -135.5t-404.5 135.5t-146.5 374.5zM492 489q0 -223 114 -223q117 0 117 223q0 224 -117 224q-114 0 -114 -224z" />
<glyph unicode="p" horiz-adv-x="1239" d="M117 -369v1344h401v-74q37 43 101.5 71.5t144.5 28.5q187 0 303.5 -138t116.5 -378q0 -237 -115.5 -373.5t-308.5 -136.5q-80 0 -142.5 27.5t-99.5 67.5v-439h-401zM514 489q0 -42 5.5 -78.5t18 -69.5t36 -52t55.5 -19q116 0 116 219q0 220 -116 220q-33 0 -56.5 -19 t-35.5 -52.5t-17.5 -69.5t-5.5 -79z" />
<glyph unicode="q" horiz-adv-x="1239" d="M55 485q0 240 116.5 378t303.5 138q80 0 144.5 -28.5t101.5 -71.5v74h401v-1344h-401v439q-37 -40 -99.5 -67.5t-142.5 -27.5q-193 0 -308.5 136.5t-115.5 373.5zM494 489q0 -219 116 -219q32 0 55.5 19t36 52t18 69.5t5.5 78.5q0 43 -5.5 79t-17.5 69.5t-35.5 52.5 t-56.5 19q-116 0 -116 -220z" />
<glyph unicode="r" horiz-adv-x="827" d="M117 0v975h397v-131q22 60 99 106.5t175 46.5q23 0 35 -2v-358q-41 10 -96 10q-157 0 -195 -137q-14 -52 -14 -131v-379h-401z" />
<glyph unicode="s" horiz-adv-x="1040" d="M-14 172l219 199q55 -59 147 -99.5t195 -40.5q112 0 112 52q0 24 -18 33t-63 18l-177 33q-55 11 -99 23.5t-96 37t-86 56t-57.5 81t-23.5 111.5q0 69 28 125t73.5 92.5t107.5 61.5t127 35.5t135 10.5q154 0 274.5 -43.5t194.5 -109.5l-188 -201q-52 43 -133 74t-156 31 q-90 0 -90 -45q0 -15 5.5 -24.5t21.5 -16.5t31 -11t48 -10l170 -35q60 -13 105 -27t89 -37t72 -52t45 -72.5t17 -97.5q0 -88 -37 -155.5t-103 -109.5t-152.5 -63t-191.5 -21q-174 0 -317.5 52t-228.5 145z" />
<glyph unicode="t" horiz-adv-x="804" d="M-31 702v273h187v330l399 61v-391h211v-273h-211v-311q0 -75 25 -100q25 -29 106 -29q46 0 82 6v-270q-91 -14 -240 -14q-258 0 -323 88q-30 40 -39.5 83t-9.5 119v428h-187z" />
<glyph unicode="u" horiz-adv-x="1236" d="M102 424v551h402v-518q0 -80 20 -120t80 -40q115 0 115 156v522h401v-975h-397v94q-39 -54 -114 -86.5t-167 -32.5q-168 0 -254 95q-48 55 -67 127t-19 227z" />
<glyph unicode="v" horiz-adv-x="1089" d="M-10 975h418l106 -430l33 -148h2q21 103 31 148l104 430h416l-330 -975h-457z" />
<glyph unicode="w" horiz-adv-x="1603" d="M-12 975h401l53 -334l41 -256h2q29 141 54 258l67 332h393l70 -332l55 -258h2q25 137 45 260l54 330h391l-260 -975h-447l-73 356l-35 199h-2q-21 -111 -39 -197l-76 -358h-446z" />
<glyph unicode="x" horiz-adv-x="1107" d="M-31 0l355 485l-332 490h432l137 -238l146 238h405l-336 -486l363 -489h-426l-164 248l-160 -248h-420z" />
<glyph unicode="y" horiz-adv-x="1071" d="M-18 975h415l95 -414q31 -139 45 -227h2q20 122 43 225l90 416h418l-359 -1067q-55 -164 -115 -219q-44 -39 -124 -56.5t-230 -17.5q-80 0 -209 12v297q47 -2 76 -2q115 0 141 33q17 20 17 53q0 35 -25 115z" />
<glyph unicode="z" horiz-adv-x="1112" d="M86 0v254l428 424h-416v297h910v-252l-420 -430h438v-293h-940z" />
<glyph unicode="{" horiz-adv-x="765" d="M61 428v234q30 9 50.5 18t33.5 23.5t20 25.5t10.5 34.5t4 39.5t0.5 51v227q0 50 8 90t20.5 71t35.5 54.5t46 39.5t60 27t68.5 17.5t81 9.5t88.5 4t98 1h49v-273h-14q-88 0 -115.5 -38.5t-27.5 -139.5v-131q0 -91 -10.5 -139t-32.5 -74t-72 -55v-4q49 -28 71.5 -54.5 t33 -75t10.5 -139.5v-147q0 -101 27.5 -139.5t115.5 -38.5h14v-273h-49q-59 0 -98 1t-88.5 4t-81 9.5t-68.5 17.5t-60 27t-46 39.5t-35.5 54.5t-20.5 71t-8 90v248q0 35 -0.5 51t-4 39.5t-10.5 34.5t-20 25.5t-33.5 23.5t-50.5 18z" />
<glyph unicode="|" horiz-adv-x="634" d="M117 -324v1717h401v-1717h-401z" />
<glyph unicode="}" horiz-adv-x="765" d="M31 -51h14q88 0 115.5 38.5t27.5 139.5v145q0 91 10.5 139.5t33 75t71.5 54.5v4q-50 29 -72 55t-32.5 74t-10.5 139v131q0 101 -27.5 139.5t-115.5 38.5h-14v273h49q59 0 98 -1t88.5 -4t81 -9.5t68.5 -17.5t60 -27t46 -39.5t35.5 -54.5t20.5 -71t8 -90v-227 q0 -35 0.5 -51t4 -39.5t10.5 -34.5t20 -25.5t33.5 -23.5t50.5 -18v-234q-30 -9 -50.5 -18t-33.5 -23.5t-20 -25.5t-10.5 -34.5t-4 -39.5t-0.5 -51v-248q0 -50 -8 -90t-20.5 -71t-35.5 -54.5t-46 -39.5t-60 -27t-68.5 -17.5t-81 -9.5t-88.5 -4t-98 -1h-49v275z" />
<glyph unicode="~" horiz-adv-x="1583" d="M246 639q47 73 141 138t205 65q64 0 119 -20t129 -60q33 -18 49 -26t40 -14.5t48 -6.5q100 0 207 129l153 -299q-74 -86 -166 -138.5t-184 -52.5q-61 0 -109.5 15t-111.5 47q-4 2 -23.5 12t-27.5 14.5t-27 12.5t-31 11.5t-28.5 7t-30.5 3.5q-43 0 -94.5 -30.5 t-100.5 -96.5z" />
<glyph unicode="&#xa1;" horiz-adv-x="628" d="M113 203l34 381h338l31 -381v-621h-403v621zM113 657v318h403v-318h-403z" />
<glyph unicode="&#xa2;" horiz-adv-x="1122" d="M55 479q0 196 99.5 327.5t281.5 174.5v207h326v-207q141 -36 222 -129t101 -215l-372 -68q-15 144 -111 144q-113 0 -113 -224q0 -223 113 -223q84 0 107 115l383 -68q-22 -103 -104 -192.5t-226 -124.5v-227h-326v223q-180 39 -280.5 165t-100.5 322z" />
<glyph unicode="&#xa3;" d="M68 0v276q103 6 142.5 49.5t39.5 172.5q0 26 -2 51h-172v285h149q-6 56 -6 124q0 97 25.5 177t79 143.5t145 99t215.5 35.5q237 0 349 -109t118 -321l-360 -59q0 192 -97 192q-92 0 -92 -174q0 -27 6 -108h277v-285h-258v-14q0 -87 -10 -140t-35 -90h540v-305h-1054z" />
<glyph unicode="&#xa4;" horiz-adv-x="1193" d="M82 862l223 225l123 -124q72 34 170 34q101 0 178 -32l117 118l219 -219l-121 -116q35 -77 35 -181q0 -95 -33 -174q77 -69 119 -117l-219 -219l-115 115q-88 -31 -180 -31q-102 0 -176 31l-119 -117l-219 219l119 119q-31 76 -31 174q0 105 35 176zM500 567 q0 -41 29 -71.5t69 -30.5q44 0 73 30t29 72q0 44 -28 73.5t-74 29.5q-41 0 -69.5 -29t-28.5 -74z" />
<glyph unicode="&#xa5;" d="M-43 1393h444l199 -465l205 465h444l-272 -504h129v-295h-289v-92h289v-297h-289v-205h-459v205h-280v297h280v92h-280v295h129z" />
<glyph unicode="&#xa6;" horiz-adv-x="634" d="M117 -324v658h401v-658h-401zM117 735v658h401v-658h-401z" />
<glyph unicode="&#xa7;" horiz-adv-x="1085" d="M0 25l219 198q55 -59 147 -99t195 -40q113 0 113 55q0 13 -7 23.5t-28.5 22.5t-36 18.5t-55.5 23.5l-121 52q-43 18 -58.5 25t-56 25.5t-58 29.5t-51 32.5t-49.5 39t-38.5 44t-33 52.5t-18.5 59.5t-8 70.5q0 138 113 236q-92 78 -92 199q0 69 27.5 125t73 92.5t107 61.5 t127 35.5t134.5 10.5q151 0 272.5 -44t196.5 -109l-189 -201q-52 43 -133 73.5t-153 30.5q-93 0 -93 -49q0 -14 7 -25t25 -22t31 -16.5t44 -18.5l178 -69q67 -26 116.5 -54t92 -67t64.5 -91t22 -116q0 -78 -37.5 -147t-79.5 -101q50 -31 84.5 -89t34.5 -134 q0 -112 -64.5 -190t-172 -114t-248.5 -36q-167 0 -312 53.5t-231 143.5zM410 678q0 -29 20 -51t76 -47l129 -54q41 16 41 64q0 61 -98 102l-129 56q-39 -22 -39 -70z" />
<glyph unicode="&#xa8;" horiz-adv-x="1024" d="M147 1104v280h312v-280h-312zM563 1104v280h311v-280h-311z" />
<glyph unicode="&#xa9;" horiz-adv-x="1585" d="M94 715q0 195 92 356t253 253.5t356 92.5q146 0 276.5 -54.5t223 -148t146.5 -223.5t54 -276q0 -195 -91.5 -356t-252.5 -254t-356 -93t-356 93t-253 254t-92 356zM311 715q0 -135 63 -248.5t174.5 -179.5t246.5 -66t246.5 66t174 179.5t62.5 248.5t-62.5 248t-174 179 t-246.5 66t-246.5 -66t-174.5 -179t-63 -248zM416 709q0 183 104 294t277 111q140 0 228 -74t122 -180l-244 -80q-21 107 -106 107q-58 0 -86.5 -46.5t-28.5 -129.5q0 -81 29.5 -126.5t85.5 -45.5q80 0 104 79l250 -77q-54 -107 -145.5 -168.5t-208.5 -61.5 q-174 0 -277.5 108.5t-103.5 289.5z" />
<glyph unicode="&#xaa;" horiz-adv-x="782" d="M33 938q0 90 59.5 136t173.5 65l137 22q24 4 30.5 9.5t6.5 19.5v8q0 49 -69 49q-76 0 -76 -69l-244 2q-3 64 23.5 111t75.5 74t109 39.5t132 12.5q50 0 91.5 -4.5t83 -18.5t69.5 -36t45.5 -60t17.5 -88v-274q0 -31 6 -43t23 -12h10v-138q-52 -10 -133 -10q-112 0 -145 45 q-71 -47 -180 -47t-177.5 56t-68.5 151zM291 950q0 -27 18 -42t51 -15q80 0 80 68v69q-19 -8 -69 -18q-46 -11 -63 -23t-17 -39z" />
<glyph unicode="&#xab;" horiz-adv-x="1112" d="M53 352v363l439 321l2 -407l-113 -76l111 -90v-406zM584 352v363l438 321l2 -407l-113 -76l111 -90v-406z" />
<glyph unicode="&#xac;" horiz-adv-x="1583" d="M217 635v340h1137v-682h-363v342h-774z" />
<glyph unicode="&#xad;" horiz-adv-x="733" d="M82 381v334h569v-334h-569z" />
<glyph unicode="&#xae;" horiz-adv-x="1589" d="M94 715q0 195 92 356t253 253.5t356 92.5q146 0 276.5 -54.5t223 -148t146.5 -223.5t54 -276q0 -195 -91.5 -356t-252.5 -254t-356 -93t-356 93t-253 254t-92 356zM311 715q0 -135 63 -248.5t174.5 -179.5t246.5 -66t246.5 66t174 179.5t62.5 248.5t-62.5 248t-174 179 t-246.5 66t-246.5 -66t-174.5 -179t-63 -248zM479 354v733h402q111 0 174 -47q90 -66 90 -198q0 -87 -46 -148.5t-120 -85.5l145 -254h-250l-124 232h-39v-232h-232zM711 762h104q41 0 62 8q41 14 41 66q0 51 -41 65q-21 8 -62 8h-104v-147z" />
<glyph unicode="&#xaf;" horiz-adv-x="1024" d="M180 1081v305h664v-305h-664z" />
<glyph unicode="&#xb0;" horiz-adv-x="942" d="M57 1004q0 172 121 292.5t293 120.5t293 -120.5t121 -292.5t-121 -293t-293 -121t-293 121t-121 293zM350 1004q0 -50 36 -85.5t85 -35.5q48 0 83.5 36t35.5 85q0 47 -36 82.5t-83 35.5q-49 0 -85 -35.5t-36 -82.5z" />
<glyph unicode="&#xb1;" horiz-adv-x="1583" d="M178 0v336h1229v-336h-1229zM178 612v336h426v277h379v-277h424v-336h-424v-221h-379v221h-426z" />
<glyph unicode="&#xb2;" horiz-adv-x="921" d="M104 1124q0 132 97.5 210.5t257.5 78.5q149 0 241.5 -75t92.5 -195q0 -60 -19.5 -115.5t-55 -102t-73.5 -82.5t-88 -73q29 2 121 2h113v-223h-678v176q43 23 138 98t155 135q45 45 68.5 83.5t23.5 80.5q0 30 -14.5 49t-41.5 19q-30 0 -43.5 -27t-13.5 -67q0 -46 10 -76 l-278 12q-13 50 -13 92z" />
<glyph unicode="&#xb3;" horiz-adv-x="921" d="M84 829l270 21q0 -48 22 -74t64 -26q37 0 54.5 20t17.5 51q0 68 -94 68h-92v182h88q47 0 65.5 18t18.5 52q0 27 -16 42t-44 15q-67 0 -67 -84l-269 14q2 123 94.5 204t254.5 81q153 0 241 -65t88 -168q0 -61 -26.5 -105t-65.5 -69q117 -65 117 -197q0 -121 -94.5 -197.5 t-266.5 -76.5q-344 0 -360 294z" />
<glyph unicode="&#xb4;" horiz-adv-x="1024" d="M229 1096l140 297h454l-254 -297h-340z" />
<glyph unicode="&#xb5;" horiz-adv-x="1253" d="M117 -369v1344h403v-518q0 -80 20.5 -120t80.5 -40q114 0 114 156v522h402v-975h-398v92q-66 -96 -204 -96h-15v-365h-403z" />
<glyph unicode="&#xb6;" horiz-adv-x="1703" d="M41 924q0 231 160 360q68 55 158 82t247 27h1047v-342h-158v-1313h-352v1313h-174v-1313h-351v717h-12q-160 0 -249 25t-156 81q-160 129 -160 363z" />
<glyph unicode="&#xb7;" horiz-adv-x="636" d="M113 428v410h426v-410h-426z" />
<glyph unicode="&#xb8;" horiz-adv-x="1024" d="M317 -74l107 88h192l-49 -55q66 -9 106 -52.5t40 -111.5q0 -94 -64.5 -144t-169.5 -50q-107 0 -153 28l14 127q43 -16 98 -16q68 0 68 45q0 41 -64 41q-24 0 -55.5 -6.5t-42.5 -12.5z" />
<glyph unicode="&#xb9;" horiz-adv-x="921" d="M162 999v207h51q97 0 137 43q34 36 37 144h260v-838h-280v444h-205z" />
<glyph unicode="&#xba;" horiz-adv-x="788" d="M25 1063q0 161 99.5 257.5t268.5 96.5q170 0 270.5 -97t100.5 -257t-99 -252t-272 -92q-172 0 -270 92t-98 252zM317 1067q0 -152 76 -152q78 0 78 152q0 158 -78 158q-76 0 -76 -158z" />
<glyph unicode="&#xbb;" horiz-adv-x="1112" d="M88 629l2 407l438 -321v-363l-438 -295v406l111 90zM618 629l3 407l438 -321v-363l-438 -295v406l110 90z" />
<glyph unicode="&#xbc;" horiz-adv-x="1683" d="M10 999v207h51q98 0 138 43q34 36 37 144h260v-838h-281v444h-205zM266 0l733 1393h334l-723 -1393h-344zM899 340l381 508h258v-469h115v-207h-115v-172h-258v172h-379zM1149 373q47 2 78 2h53v117l2 63h-2q-14 -28 -37 -57l-45 -62l-49 -61v-2z" />
<glyph unicode="&#xbd;" horiz-adv-x="1785" d="M10 999v207h51q98 0 138 43q34 36 37 144h260v-838h-281v444h-205zM266 0l733 1393h334l-723 -1393h-344zM1047 575q0 132 97 210.5t257 78.5q149 0 241.5 -75t92.5 -195q0 -60 -19.5 -115.5t-55 -102t-73.5 -82.5t-88 -73q29 2 121 2h113v-223h-678v176 q42 23 137.5 98.5t155.5 135.5q45 45 68.5 83t23.5 80q0 30 -14.5 49t-41.5 19q-30 0 -43.5 -27t-13.5 -67q0 -46 10 -76l-278 12q-12 47 -12 92z" />
<glyph unicode="&#xbe;" horiz-adv-x="1871" d="M10 829l271 21q0 -48 22 -74t64 -26q37 0 54 20t17 51q0 68 -94 68h-92v182h88q47 0 65.5 18t18.5 52q0 57 -59 57q-32 0 -50 -21t-18 -63l-268 14q2 123 94 204t254 81q153 0 241.5 -65.5t88.5 -167.5q0 -114 -93 -174q117 -65 117 -197q0 -121 -94 -197.5t-266 -76.5 q-177 0 -265 77t-96 217zM442 0l734 1393h344l-723 -1393h-355zM1087 340l381 508h258v-469h115v-207h-115v-172h-258v172h-378zM1337 373q47 2 78 2h53v117l2 63h-2q-13 -28 -36 -57l-46 -62l-49 -61v-2z" />
<glyph unicode="&#xbf;" horiz-adv-x="1067" d="M31 -29q0 119 49 206t141 163l80 66q40 32 56 61.5t16 77.5v61h377v-98q0 -89 -35.5 -152t-122.5 -131l-55 -43q-107 -82 -107 -196q0 -53 30 -86t77 -33q51 0 80.5 38.5t29.5 108.5q0 46 -24 136l374 -23q23 -79 23 -152q0 -190 -130 -303.5t-362 -113.5 q-105 0 -190 23.5t-141.5 62.5t-94.5 93t-54.5 112t-16.5 122zM369 655v320h385v-320h-385z" />
<glyph unicode="&#xc0;" horiz-adv-x="1372" d="M-29 0l467 1393h500l463 -1393h-436l-70 233h-422l-70 -233h-432zM291 1862h454l140 -297h-340zM567 569h232l-80 283l-33 135h-2q-4 -15 -17 -65t-18 -70z" />
<glyph unicode="&#xc1;" horiz-adv-x="1372" d="M-29 0l467 1393h500l463 -1393h-436l-70 233h-422l-70 -233h-432zM465 1565l139 297h455l-254 -297h-340zM567 569h232l-80 283l-33 135h-2q-4 -15 -17 -65t-18 -70z" />
<glyph unicode="&#xc2;" horiz-adv-x="1372" d="M-29 0l467 1393h500l463 -1393h-436l-70 233h-422l-70 -233h-432zM285 1565l239 297h307l254 -297h-331l-74 90l-72 -90h-323zM567 569h232l-80 283l-33 135h-2q-4 -15 -17 -65t-18 -70z" />
<glyph unicode="&#xc3;" horiz-adv-x="1372" d="M-29 0l467 1393h500l463 -1393h-436l-70 233h-422l-70 -233h-432zM276 1657q5 24 17.5 52t35 59t50.5 56t68 41.5t85 16.5q63 0 146 -37q8 -3 30 -13t32 -14t26.5 -8t30.5 -4q59 0 90 80l233 -119q-19 -48 -40.5 -85t-53 -71t-75.5 -52.5t-99 -18.5q-74 0 -150 31 q-19 8 -45.5 21.5t-42.5 19.5t-30 6q-53 0 -80 -76zM567 569h232l-80 283l-33 135h-2q-4 -15 -17 -65t-18 -70z" />
<glyph unicode="&#xc4;" horiz-adv-x="1372" d="M-29 0l467 1393h500l463 -1393h-436l-70 233h-422l-70 -233h-432zM336 1569v289h311v-289h-311zM567 569h232l-80 283l-33 135h-2q-4 -15 -17 -65t-18 -70zM752 1569v289h311v-289h-311z" />
<glyph unicode="&#xc5;" horiz-adv-x="1372" d="M-29 0l467 1393h500l463 -1393h-436l-70 233h-422l-70 -233h-432zM426 1708q0 115 77.5 191.5t194.5 76.5q116 0 193.5 -76.5t77.5 -191.5q0 -116 -77.5 -192t-193.5 -76q-117 0 -194.5 75.5t-77.5 192.5zM567 569h232l-80 283l-33 135h-2q-4 -15 -17 -65t-18 -70z M623 1708q0 -34 20.5 -54t52.5 -20q33 0 53.5 20.5t20.5 53.5t-20.5 53.5t-53.5 20.5q-32 0 -52.5 -20t-20.5 -54z" />
<glyph unicode="&#xc6;" horiz-adv-x="1988" d="M-82 0l772 1393h1190v-334h-612v-187h553v-329h-553v-207h649v-336h-1079v223h-359l-119 -223h-442zM647 551h191v207l4 186h-2q-39 -92 -76 -162z" />
<glyph unicode="&#xc7;" horiz-adv-x="1374" d="M55 696q0 324 189.5 522.5t511.5 198.5q119 0 222.5 -32t176 -86.5t122 -118.5t77.5 -136l-363 -174q-56 215 -241 215q-132 0 -200.5 -102.5t-68.5 -286.5q0 -183 68.5 -283t200.5 -100q171 0 233 174l379 -135q-70 -158 -201 -255t-323 -117l-21 -21q66 -9 106 -52.5 t40 -111.5q0 -94 -64.5 -144t-169.5 -50q-108 0 -154 28l15 127q43 -16 98 -16q68 0 68 45q0 41 -64 41q-24 0 -55.5 -6.5t-42.5 -12.5l-27 119l82 56q-280 29 -437 222t-157 492z" />
<glyph unicode="&#xc8;" horiz-adv-x="1304" d="M127 0v1393h1069v-334h-655v-187h596v-329h-596v-207h692v-336h-1106zM285 1862h454l140 -297h-340z" />
<glyph unicode="&#xc9;" horiz-adv-x="1304" d="M127 0v1393h1069v-334h-655v-187h596v-329h-596v-207h692v-336h-1106zM453 1565l139 297h455l-254 -297h-340z" />
<glyph unicode="&#xca;" horiz-adv-x="1304" d="M127 0v1393h1069v-334h-655v-187h596v-329h-596v-207h692v-336h-1106zM279 1565l239 297h307l254 -297h-331l-74 90l-72 -90h-323z" />
<glyph unicode="&#xcb;" horiz-adv-x="1304" d="M127 0v1393h1069v-334h-655v-187h596v-329h-596v-207h692v-336h-1106zM313 1569v289h312v-289h-312zM729 1569v289h311v-289h-311z" />
<glyph unicode="&#xcc;" horiz-adv-x="671" d="M-78 1862h455l139 -297h-340zM127 0v1393h418v-1393h-418z" />
<glyph unicode="&#xcd;" horiz-adv-x="671" d="M127 0h418v1393h-418v-1393zM158 1565l139 297h455l-254 -297h-340z" />
<glyph unicode="&#xce;" horiz-adv-x="671" d="M-57 1565l239 297h307l254 -297h-331l-74 90l-72 -90h-323zM127 0h418v1393h-418v-1393z" />
<glyph unicode="&#xcf;" horiz-adv-x="671" d="M-29 1569v289h312v-289h-312zM127 0h418v1393h-418v-1393zM387 1569v289h311v-289h-311z" />
<glyph unicode="&#xd0;" horiz-adv-x="1492" d="M-25 532v328h152v533h549q85 0 128.5 -1t108 -6t105 -15t87 -29t87.5 -48q116 -83 181 -236.5t65 -357.5q0 -176 -49.5 -319t-145.5 -236q-36 -36 -73.5 -61t-84 -41t-83 -25t-100.5 -13t-104.5 -4.5t-123.5 -0.5h-547v532h-152zM545 326h90q78 0 120.5 2.5t91.5 17.5 t79 45q40 40 62 119.5t22 183.5q0 227 -92 307q-47 39 -112 51.5t-183 12.5h-78v-205h260v-328h-260v-206z" />
<glyph unicode="&#xd1;" horiz-adv-x="1515" d="M127 0v1393h403l254 -404q59 -88 107 -162.5t66 -105.5l18 -31h2q-6 172 -6 381v322h418v-1393h-404l-272 444q-41 63 -85 135.5t-68 114.5l-23 41h-2q10 -176 10 -399v-336h-418zM358 1657q5 24 17.5 52t35 59t50.5 56t68 41.5t85 16.5q63 0 146 -37q8 -3 30 -13t32 -14 t26.5 -8t30.5 -4q59 0 90 80l227 -119q-19 -48 -40.5 -85t-53 -71t-75.5 -52.5t-99 -18.5q-74 0 -150 31q-19 8 -46 21.5t-43 19.5t-30 6q-52 0 -79 -76z" />
<glyph unicode="&#xd2;" horiz-adv-x="1499" d="M55 696q0 327 190 524t505 197t504.5 -197t189.5 -524q0 -330 -184 -525.5t-510 -195.5q-324 0 -509.5 196t-185.5 525zM369 1862h454l140 -297h-340zM479 696q0 -183 69 -283t202 -100q132 0 200 100t68 283t-70 286t-198 103q-132 0 -201.5 -102.5t-69.5 -286.5z" />
<glyph unicode="&#xd3;" horiz-adv-x="1499" d="M55 696q0 327 190 524t505 197t504.5 -197t189.5 -524q0 -330 -184 -525.5t-510 -195.5q-324 0 -509.5 196t-185.5 525zM479 696q0 -183 69 -283t202 -100q132 0 200 100t68 283t-70 286t-198 103q-132 0 -201.5 -102.5t-69.5 -286.5zM526 1565l140 297h454l-254 -297 h-340z" />
<glyph unicode="&#xd4;" horiz-adv-x="1499" d="M55 696q0 327 190 524t505 197t504.5 -197t189.5 -524q0 -330 -184 -525.5t-510 -195.5q-324 0 -509.5 196t-185.5 525zM356 1565l240 297h307l254 -297h-332l-73 90l-72 -90h-324zM479 696q0 -183 69 -283t202 -100q132 0 200 100t68 283t-70 286t-198 103 q-132 0 -201.5 -102.5t-69.5 -286.5z" />
<glyph unicode="&#xd5;" horiz-adv-x="1499" d="M55 696q0 327 190 524t505 197t504.5 -197t189.5 -524q0 -330 -184 -525.5t-510 -195.5q-324 0 -509.5 196t-185.5 525zM317 1657q5 24 17.5 52t35 59t50.5 56t68 41.5t85 16.5q63 0 146 -37q8 -3 30 -13t32 -14t26.5 -8t30.5 -4q59 0 90 80l233 -119q-19 -48 -40.5 -85 t-53 -71t-75.5 -52.5t-99 -18.5q-74 0 -150 31q-19 8 -45.5 21.5t-42.5 19.5t-30 6q-53 0 -80 -76zM479 696q0 -183 69 -283t202 -100q132 0 200 100t68 283t-70 286t-198 103q-132 0 -201.5 -102.5t-69.5 -286.5z" />
<glyph unicode="&#xd6;" horiz-adv-x="1499" d="M55 696q0 327 190 524t505 197t504.5 -197t189.5 -524q0 -330 -184 -525.5t-510 -195.5q-324 0 -509.5 196t-185.5 525zM391 1569v289h311v-289h-311zM479 696q0 -183 69 -283t202 -100q132 0 200 100t68 283t-70 286t-198 103q-132 0 -201.5 -102.5t-69.5 -286.5z M807 1569v289h311v-289h-311z" />
<glyph unicode="&#xd7;" horiz-adv-x="1583" d="M164 967l264 260l365 -365l364 365l258 -260l-362 -363l368 -368l-264 -261l-364 365l-365 -365l-258 261l362 362z" />
<glyph unicode="&#xd8;" horiz-adv-x="1499" d="M4 141l141 158q-90 169 -90 397q0 327 190 524t505 197q180 0 331 -74l179 199l276 -256l-182 -203q90 -172 90 -387q0 -330 -184 -525.5t-510 -195.5q-183 0 -328 68l-135 -152zM479 672l357 397q-43 16 -86 16q-132 0 -201.5 -102.5t-69.5 -286.5v-24zM672 324 q34 -11 78 -11q132 0 200 100t68 283v13z" />
<glyph unicode="&#xd9;" horiz-adv-x="1470" d="M106 569v824h418v-832q0 -141 47 -196q49 -58 164 -58t164 58q47 55 47 196v832h418v-824q0 -144 -17 -227.5t-59 -155.5q-44 -73 -137 -123t-197.5 -70t-218.5 -20t-218.5 20t-197.5 70t-137 123q-42 72 -59 155.5t-17 227.5zM348 1862h455l139 -297h-340z" />
<glyph unicode="&#xda;" horiz-adv-x="1470" d="M106 569v824h418v-832q0 -141 47 -196q49 -58 164 -58t164 58q47 55 47 196v832h418v-824q0 -144 -17 -227.5t-59 -155.5q-44 -73 -137 -123t-197.5 -70t-218.5 -20t-218.5 20t-197.5 70t-137 123q-42 72 -59 155.5t-17 227.5zM547 1565l139 297h455l-254 -297h-340z" />
<glyph unicode="&#xdb;" horiz-adv-x="1470" d="M106 569v824h418v-832q0 -141 47 -196q49 -58 164 -58t164 58q47 55 47 196v832h418v-824q0 -144 -17 -227.5t-59 -155.5q-44 -73 -137 -123t-197.5 -70t-218.5 -20t-218.5 20t-197.5 70t-137 123q-42 72 -59 155.5t-17 227.5zM342 1565l240 297h307l254 -297h-332 l-74 90l-71 -90h-324z" />
<glyph unicode="&#xdc;" horiz-adv-x="1470" d="M106 569v824h418v-832q0 -141 47 -196q49 -58 164 -58t164 58q47 55 47 196v832h418v-824q0 -144 -17 -227.5t-59 -155.5q-44 -73 -137 -123t-197.5 -70t-218.5 -20t-218.5 20t-197.5 70t-137 123q-42 72 -59 155.5t-17 227.5zM375 1569v289h311v-289h-311zM791 1569v289 h311v-289h-311z" />
<glyph unicode="&#xdd;" horiz-adv-x="1277" d="M-41 1393h449l231 -478l238 478h442l-483 -875v-518h-418v514zM453 1565l139 297h475l-254 -297h-360z" />
<glyph unicode="&#xde;" horiz-adv-x="1361" d="M127 0v1395h418v-158h192q216 0 334 -45q123 -48 194.5 -156t71.5 -260q0 -134 -46.5 -222.5t-147.5 -150.5q-78 -47 -174 -62t-246 -15h-178v-326h-418zM545 643h209q77 0 118 27q54 34 54 112q0 79 -54 113q-41 27 -118 27h-209v-279z" />
<glyph unicode="&#xdf;" horiz-adv-x="1200" d="M113 0v961q0 140 28 217q43 117 167 178t300 61q229 0 350 -83.5t121 -243.5q0 -92 -38.5 -157.5t-94.5 -96.5q187 -82 187 -379q0 -253 -104.5 -359t-340.5 -106q-48 0 -119 6v272h11q93 0 128 47t35 136q0 91 -35.5 137.5t-127.5 46.5h-11v254q131 0 131 131 q0 113 -92 113q-52 0 -73 -37q-21 -35 -21 -131v-967h-401z" />
<glyph unicode="&#xe0;" horiz-adv-x="1114" d="M37 285q0 133 94 205t272 102l189 31q47 9 47 41v12q0 76 -109 76q-55 0 -85.5 -27.5t-30.5 -71.5v-18l-351 4q1 120 66.5 201.5t174.5 118t257 36.5q107 0 186 -15t140 -49t92 -95t31 -148v-412q0 -47 8.5 -64t34.5 -17h14v-203q-84 -15 -188 -15q-95 0 -149.5 18.5 t-72.5 63.5h-2q-70 -84 -262 -84q-171 0 -263.5 80t-92.5 230zM195 1393h454l139 -297h-339zM414 295q0 -40 25.5 -63t74.5 -23q55 0 88 30t33 91v88q-7 -4 -105 -29q-62 -16 -89 -36t-27 -58z" />
<glyph unicode="&#xe1;" horiz-adv-x="1114" d="M37 285q0 133 94 205t272 102l189 31q47 9 47 41v12q0 76 -109 76q-55 0 -85.5 -27.5t-30.5 -71.5v-18l-351 4q1 120 66.5 201.5t174.5 118t257 36.5q107 0 186 -15t140 -49t92 -95t31 -148v-412q0 -47 8.5 -64t34.5 -17h14v-203q-84 -15 -188 -15q-95 0 -149.5 18.5 t-72.5 63.5h-2q-70 -84 -262 -84q-171 0 -263.5 80t-92.5 230zM352 1096l140 297h454l-254 -297h-340zM414 295q0 -40 25.5 -63t74.5 -23q55 0 88 30t33 91v88q-7 -4 -105 -29q-62 -16 -89 -36t-27 -58z" />
<glyph unicode="&#xe2;" horiz-adv-x="1114" d="M37 285q0 133 94 205t272 102l189 31q47 9 47 41v12q0 76 -109 76q-55 0 -85.5 -27.5t-30.5 -71.5v-18l-351 4q1 120 66.5 201.5t174.5 118t257 36.5q107 0 186 -15t140 -49t92 -95t31 -148v-412q0 -47 8.5 -64t34.5 -17h14v-203q-84 -15 -188 -15q-95 0 -149.5 18.5 t-72.5 63.5h-2q-70 -84 -262 -84q-171 0 -263.5 80t-92.5 230zM166 1096l240 297h307l254 -297h-332l-74 90l-72 -90h-323zM414 295q0 -40 25.5 -63t74.5 -23q55 0 88 30t33 91v88q-7 -4 -105 -29q-62 -16 -89 -36t-27 -58z" />
<glyph unicode="&#xe3;" horiz-adv-x="1114" d="M37 285q0 133 94 205t272 102l189 31q47 9 47 41v12q0 76 -109 76q-55 0 -85.5 -27.5t-30.5 -71.5v-18l-351 4q1 120 66.5 201.5t174.5 118t257 36.5q107 0 186 -15t140 -49t92 -95t31 -148v-412q0 -47 8.5 -64t34.5 -17h14v-203q-84 -15 -188 -15q-95 0 -149.5 18.5 t-72.5 63.5h-2q-70 -84 -262 -84q-171 0 -263.5 80t-92.5 230zM147 1188q5 24 17.5 52t35 59t50.5 56t68 41.5t85 16.5q63 0 146 -37q8 -3 30 -13t32 -14t26.5 -8t30.5 -4q59 0 90 80l233 -119q-19 -48 -40.5 -85t-53 -71t-75.5 -52.5t-99 -18.5q-74 0 -150 31 q-19 8 -45.5 21.5t-42.5 19.5t-30 6q-53 0 -80 -76zM414 295q0 -40 25.5 -63t74.5 -23q55 0 88 30t33 91v88q-7 -4 -105 -29q-62 -16 -89 -36t-27 -58z" />
<glyph unicode="&#xe4;" horiz-adv-x="1114" d="M37 285q0 133 94 205t272 102l189 31q47 9 47 41v12q0 76 -109 76q-55 0 -85.5 -27.5t-30.5 -71.5v-18l-351 4q1 120 66.5 201.5t174.5 118t257 36.5q107 0 186 -15t140 -49t92 -95t31 -148v-412q0 -47 8.5 -64t34.5 -17h14v-203q-84 -15 -188 -15q-95 0 -149.5 18.5 t-72.5 63.5h-2q-70 -84 -262 -84q-171 0 -263.5 80t-92.5 230zM197 1104v280h311v-280h-311zM414 295q0 -40 25.5 -63t74.5 -23q55 0 88 30t33 91v88q-7 -4 -105 -29q-62 -16 -89 -36t-27 -58zM612 1104v280h312v-280h-312z" />
<glyph unicode="&#xe5;" horiz-adv-x="1114" d="M37 285q0 133 94 205t272 102l189 31q47 9 47 41v12q0 76 -109 76q-55 0 -85.5 -27.5t-30.5 -71.5v-18l-351 4q1 120 66.5 201.5t174.5 118t257 36.5q107 0 186 -15t140 -49t92 -95t31 -148v-412q0 -47 8.5 -64t34.5 -17h14v-203q-84 -15 -188 -15q-95 0 -149.5 18.5 t-72.5 63.5h-2q-70 -84 -262 -84q-171 0 -263.5 80t-92.5 230zM313 1286q0 104 72 175t176 71t176 -71t72 -175t-72 -175t-176 -71t-176 71t-72 175zM414 295q0 -40 25.5 -63t74.5 -23q55 0 88 30t33 91v88q-7 -4 -105 -29q-62 -16 -89 -36t-27 -58zM492 1286 q0 -30 18.5 -48.5t48.5 -18.5t49 18.5t19 48.5t-19 49t-49 19q-29 0 -48 -19t-19 -49z" />
<glyph unicode="&#xe6;" horiz-adv-x="1746" d="M37 285q0 134 93.5 205.5t272.5 101.5l189 31q47 9 47 41v12q0 76 -109 76q-55 0 -85.5 -27.5t-30.5 -71.5v-18l-351 6q1 93 38 162t104.5 110.5t156 61.5t199.5 20q216 0 326 -69q130 73 289 73q132 0 232.5 -40.5t162 -114t92.5 -170t31 -213.5q0 -37 -2 -60h-656 q4 -58 50.5 -86t109.5 -28q114 0 168 92l326 -166q-25 -38 -64 -75t-100.5 -76t-152 -63t-195.5 -24q-231 0 -375 113q-44 -40 -144.5 -76.5t-234.5 -36.5q-387 0 -387 310zM414 295q0 -86 100 -86q55 0 88 30t33 91v88q-7 -4 -105 -29q-62 -16 -89 -36t-27 -58zM1034 614 h271q-3 60 -37 95.5t-94 35.5q-61 0 -99 -36t-41 -95z" />
<glyph unicode="&#xe7;" horiz-adv-x="1116" d="M55 481q0 239 146 379.5t401 140.5q109 0 197.5 -30t146.5 -81t93 -114.5t46 -136.5l-372 -68q-15 144 -111 144q-113 0 -113 -223q0 -226 113 -226q84 0 107 115l383 -68q-13 -57 -43.5 -110t-82 -103.5t-135 -83.5t-188.5 -39l-14 -18q66 -9 105.5 -52.5t39.5 -111.5 q0 -94 -64 -144t-169 -50q-108 0 -154 28l14 127q43 -16 99 -16q67 0 67 45q0 41 -63 41q-24 0 -55.5 -6.5t-42.5 -12.5l-27 119l82 62q-191 33 -298.5 161t-107.5 332z" />
<glyph unicode="&#xe8;" horiz-adv-x="1173" d="M55 498q0 233 147.5 368t399.5 135q132 0 232.5 -40.5t162 -114t92.5 -170t31 -213.5q0 -37 -2 -60h-653q4 -59 50 -87.5t108 -28.5q114 0 168 92l325 -166q-25 -38 -64 -75t-100.5 -76t-152 -63t-195.5 -24q-252 0 -400.5 139t-148.5 384zM211 1393h455l139 -297h-340z M463 623h262q-2 61 -34 97t-93 36t-96.5 -36.5t-38.5 -96.5z" />
<glyph unicode="&#xe9;" horiz-adv-x="1173" d="M55 498q0 233 147.5 368t399.5 135q132 0 232.5 -40.5t162 -114t92.5 -170t31 -213.5q0 -37 -2 -60h-653q4 -59 50 -87.5t108 -28.5q114 0 168 92l325 -166q-25 -38 -64 -75t-100.5 -76t-152 -63t-195.5 -24q-252 0 -400.5 139t-148.5 384zM393 1096l139 297h455 l-254 -297h-340zM463 623h262q-2 61 -34 97t-93 36t-96.5 -36.5t-38.5 -96.5z" />
<glyph unicode="&#xea;" horiz-adv-x="1173" d="M55 498q0 233 147.5 368t399.5 135q132 0 232.5 -40.5t162 -114t92.5 -170t31 -213.5q0 -37 -2 -60h-653q4 -59 50 -87.5t108 -28.5q114 0 168 92l325 -166q-25 -38 -64 -75t-100.5 -76t-152 -63t-195.5 -24q-252 0 -400.5 139t-148.5 384zM213 1096l240 297h307 l254 -297h-332l-74 90l-71 -90h-324zM463 623h262q-2 61 -34 97t-93 36t-96.5 -36.5t-38.5 -96.5z" />
<glyph unicode="&#xeb;" horiz-adv-x="1173" d="M55 498q0 233 147.5 368t399.5 135q132 0 232.5 -40.5t162 -114t92.5 -170t31 -213.5q0 -37 -2 -60h-653q4 -59 50 -87.5t108 -28.5q114 0 168 92l325 -166q-25 -38 -64 -75t-100.5 -76t-152 -63t-195.5 -24q-252 0 -400.5 139t-148.5 384zM238 1104v280h311v-280h-311z M463 623h262q-2 61 -34 97t-93 36t-96.5 -36.5t-38.5 -96.5zM653 1104v280h312v-280h-312z" />
<glyph unicode="&#xec;" horiz-adv-x="634" d="M-76 1393h455l139 -297h-340zM117 0v975h401v-975h-401z" />
<glyph unicode="&#xed;" horiz-adv-x="634" d="M117 0v975h401v-975h-401zM133 1096l139 297h455l-254 -297h-340z" />
<glyph unicode="&#xee;" horiz-adv-x="634" d="M-84 1096l240 297h307l254 -297h-332l-74 90l-71 -90h-324zM117 0v975h401v-975h-401z" />
<glyph unicode="&#xef;" horiz-adv-x="634" d="M-45 1104v280h311v-280h-311zM117 0v975h401v-975h-401zM371 1104v280h311v-280h-311z" />
<glyph unicode="&#xf0;" horiz-adv-x="1218" d="M55 483q0 244 150 380t403 136h41q-16 35 -43 78l-264 -78l-74 236l158 47q-72 57 -74 59l348 152q64 -57 103 -98l246 73l71 -235l-155 -47q200 -317 200 -658q0 -91 -18 -170.5t-59.5 -150.5t-104.5 -122t-158.5 -80.5t-216.5 -29.5q-254 0 -403.5 132.5t-149.5 375.5z M492 489q0 -223 114 -223q117 0 117 223q0 224 -117 224q-114 0 -114 -224z" />
<glyph unicode="&#xf1;" horiz-adv-x="1243" d="M117 0v975h397v-94q39 53 115 85.5t168 32.5q169 0 254 -94q48 -55 67 -127t19 -227v-551h-402v518q0 79 -21 119.5t-81 40.5q-115 0 -115 -156v-522h-401zM244 1188q5 24 17.5 52t35 59t50.5 56t68 41.5t85 16.5q62 0 145 -37q8 -3 30 -13t32 -14t26.5 -8t30.5 -4 q59 0 90 80l233 -119q-19 -48 -40.5 -85t-53 -71t-75.5 -52.5t-99 -18.5q-73 0 -149 31q-19 8 -46 21.5t-43 19.5t-30 6q-53 0 -80 -76z" />
<glyph unicode="&#xf2;" horiz-adv-x="1214" d="M55 485q0 238 148 377t403 139t404 -139t149 -377q0 -239 -147.5 -374.5t-405.5 -135.5t-404.5 135.5t-146.5 374.5zM242 1393h454l140 -297h-340zM492 489q0 -223 114 -223q117 0 117 223q0 224 -117 224q-114 0 -114 -224z" />
<glyph unicode="&#xf3;" horiz-adv-x="1214" d="M55 485q0 238 148 377t403 139t404 -139t149 -377q0 -239 -147.5 -374.5t-405.5 -135.5t-404.5 135.5t-146.5 374.5zM401 1096l140 297h454l-254 -297h-340zM492 489q0 -223 114 -223q117 0 117 223q0 224 -117 224q-114 0 -114 -224z" />
<glyph unicode="&#xf4;" horiz-adv-x="1214" d="M55 485q0 238 148 377t403 139t404 -139t149 -377q0 -239 -147.5 -374.5t-405.5 -135.5t-404.5 135.5t-146.5 374.5zM213 1096l240 297h307l254 -297h-332l-74 90l-71 -90h-324zM492 489q0 -223 114 -223q117 0 117 223q0 224 -117 224q-114 0 -114 -224z" />
<glyph unicode="&#xf5;" horiz-adv-x="1214" d="M55 485q0 238 148 377t403 139t404 -139t149 -377q0 -239 -147.5 -374.5t-405.5 -135.5t-404.5 135.5t-146.5 374.5zM190 1188q5 24 17.5 52t35 59t50.5 56t68 41.5t85 16.5q63 0 146 -37q8 -3 30 -13t32 -14t26.5 -8t30.5 -4q59 0 90 80l233 -119q-19 -48 -40.5 -85 t-53 -71t-75.5 -52.5t-99 -18.5q-74 0 -150 31q-19 8 -45.5 21.5t-42.5 19.5t-30 6q-53 0 -80 -76zM492 489q0 -223 114 -223q117 0 117 223q0 224 -117 224q-114 0 -114 -224z" />
<glyph unicode="&#xf6;" horiz-adv-x="1214" d="M55 485q0 238 148 377t403 139t404 -139t149 -377q0 -239 -147.5 -374.5t-405.5 -135.5t-404.5 135.5t-146.5 374.5zM240 1104v280h311v-280h-311zM492 489q0 -223 114 -223q117 0 117 223q0 224 -117 224q-114 0 -114 -224zM655 1104v280h312v-280h-312z" />
<glyph unicode="&#xf7;" horiz-adv-x="1583" d="M109 334v309h1368v-309h-1368zM584 0v281h417v-281h-417zM584 694v281h417v-281h-417z" />
<glyph unicode="&#xf8;" horiz-adv-x="1214" d="M35 98l86 113q-66 117 -66 274q0 238 148 377t403 139q114 0 209 -30l115 133l276 -234l-102 -133q55 -113 55 -252q0 -239 -147.5 -374.5t-405.5 -135.5q-86 0 -182 21l-113 -131zM492 489q0 -223 114 -223q117 0 117 223q0 224 -117 224q-114 0 -114 -224z" />
<glyph unicode="&#xf9;" horiz-adv-x="1236" d="M102 424v551h402v-518q0 -80 20 -120t80 -40q115 0 115 156v522h401v-975h-397v94q-39 -54 -114 -86.5t-167 -32.5q-168 0 -254 95q-48 55 -67 127t-19 227zM231 1393h455l139 -297h-340z" />
<glyph unicode="&#xfa;" horiz-adv-x="1236" d="M102 424v551h402v-518q0 -80 20 -120t80 -40q115 0 115 156v522h401v-975h-397v94q-39 -54 -114 -86.5t-167 -32.5q-168 0 -254 95q-48 55 -67 127t-19 227zM391 1096l139 297h455l-254 -297h-340z" />
<glyph unicode="&#xfb;" horiz-adv-x="1236" d="M102 424v551h402v-518q0 -80 20 -120t80 -40q115 0 115 156v522h401v-975h-397v94q-39 -54 -114 -86.5t-167 -32.5q-168 0 -254 95q-48 55 -67 127t-19 227zM209 1096l240 297h307l254 -297h-332l-74 90l-72 -90h-323z" />
<glyph unicode="&#xfc;" horiz-adv-x="1236" d="M102 424v551h402v-518q0 -80 20 -120t80 -40q115 0 115 156v522h401v-975h-397v94q-39 -54 -114 -86.5t-167 -32.5q-168 0 -254 95q-48 55 -67 127t-19 227zM254 1104v280h311v-280h-311zM670 1104v280h311v-280h-311z" />
<glyph unicode="&#xfd;" horiz-adv-x="1071" d="M-18 975h415l95 -414q31 -139 45 -227h2q20 122 43 225l90 416h418l-359 -1067q-55 -164 -115 -219q-44 -39 -124 -56.5t-230 -17.5q-80 0 -209 12v297q47 -2 76 -2q115 0 141 33q17 20 17 53q0 35 -25 115zM311 1096l140 297h475l-254 -297h-361z" />
<glyph unicode="&#xfe;" horiz-adv-x="1239" d="M117 -369v1762h401v-494q37 43 101.5 71.5t144.5 28.5q187 0 303.5 -137t116.5 -377q0 -237 -115.5 -373.5t-308.5 -136.5q-80 0 -142.5 27.5t-99.5 67.5v-439h-401zM514 489q0 -42 5.5 -78.5t18 -69.5t36 -52t55.5 -19q116 0 116 219q0 220 -116 220q-33 0 -56.5 -19 t-35.5 -52.5t-17.5 -69.5t-5.5 -79z" />
<glyph unicode="&#xff;" horiz-adv-x="1071" d="M-18 975h415l95 -414q31 -139 45 -227h2q20 122 43 225l90 416h418l-359 -1067q-55 -164 -115 -219q-44 -39 -124 -56.5t-230 -17.5q-80 0 -209 12v297q47 -2 76 -2q115 0 141 33q17 20 17 53q0 35 -25 115zM178 1104v280h311v-280h-311zM594 1104v280h311v-280h-311z " />
<glyph unicode="&#x152;" horiz-adv-x="2007" d="M55 692q0 334 200.5 527.5t543.5 193.5q137 0 225 -20h874v-334h-636v-187h577v-329h-577v-207h673v-336h-911q-88 -20 -227 -20q-342 0 -542 184.5t-200 527.5zM469 696q0 -203 91.5 -301t252.5 -98h35v793h-39q-340 0 -340 -394z" />
<glyph unicode="&#x153;" horiz-adv-x="1851" d="M55 485q0 238 148 377t403 139q196 0 338 -96q140 94 336 94q132 0 232.5 -40.5t162 -114t92.5 -170t31 -213.5q0 -37 -2 -60h-655q4 -58 50 -86t109 -28q114 0 168 92l326 -166q-25 -38 -64 -75t-100.5 -76t-152 -63t-195.5 -24q-189 0 -334 97q-148 -97 -342 -97 q-258 0 -404.5 135.5t-146.5 374.5zM492 489q0 -223 114 -223q117 0 117 223q0 224 -117 224q-114 0 -114 -224zM1143 621h262q-2 61 -34 97t-93 36t-96.5 -36.5t-38.5 -96.5z" />
<glyph unicode="&#x178;" horiz-adv-x="1277" d="M-41 1393h449l231 -478l238 478h442l-483 -875v-518h-418v514zM274 1569v289h312v-289h-312zM690 1569v289h311v-289h-311z" />
<glyph unicode="&#x2c6;" horiz-adv-x="1024" d="M109 1096l239 297h307l254 -297h-331l-74 90l-72 -90h-323z" />
<glyph unicode="&#x2dc;" horiz-adv-x="1024" d="M96 1188q5 24 17.5 52t35 59t50.5 56t68 41.5t85 16.5q63 0 146 -37q9 -4 30 -13.5t31.5 -13.5t26.5 -8t30 -4q60 0 91 80l233 -119q-19 -48 -40.5 -85t-53 -71t-75.5 -52.5t-99 -18.5q-74 0 -150 31q-19 8 -46 21.5t-43 19.5t-30 6q-52 0 -79 -76z" />
<glyph unicode="&#x2000;" horiz-adv-x="988" />
<glyph unicode="&#x2001;" horiz-adv-x="1976" />
<glyph unicode="&#x2002;" horiz-adv-x="988" />
<glyph unicode="&#x2003;" horiz-adv-x="1976" />
<glyph unicode="&#x2004;" horiz-adv-x="658" />
<glyph unicode="&#x2005;" horiz-adv-x="494" />
<glyph unicode="&#x2006;" horiz-adv-x="329" />
<glyph unicode="&#x2007;" horiz-adv-x="329" />
<glyph unicode="&#x2008;" horiz-adv-x="247" />
<glyph unicode="&#x2009;" horiz-adv-x="395" />
<glyph unicode="&#x200a;" horiz-adv-x="109" />
<glyph unicode="&#x2010;" horiz-adv-x="733" d="M82 381v334h569v-334h-569z" />
<glyph unicode="&#x2011;" horiz-adv-x="733" d="M82 381v334h569v-334h-569z" />
<glyph unicode="&#x2012;" horiz-adv-x="733" d="M82 381v334h569v-334h-569z" />
<glyph unicode="&#x2013;" horiz-adv-x="1329" d="M143 440v326h1045v-326h-1045z" />
<glyph unicode="&#x2014;" horiz-adv-x="1583" d="M76 440v326h1433v-326h-1433z" />
<glyph unicode="&#x2018;" horiz-adv-x="559" d="M61 641v231q0 195 27 297q35 125 124.5 184.5t266.5 59.5h8v-229q-72 -3 -102.5 -31.5t-30.5 -101.5h133v-410h-426z" />
<glyph unicode="&#x2019;" horiz-adv-x="559" d="M72 621v229q72 3 102.5 31.5t30.5 101.5h-133v410h426v-232q0 -195 -27 -297q-35 -125 -124.5 -184t-266.5 -59h-8z" />
<glyph unicode="&#x201a;" horiz-adv-x="1167" d="M113 0v410h426v-232q0 -195 -27 -297q-35 -125 -124.5 -184t-266.5 -59h-8v229q72 3 102.5 31.5t30.5 101.5h-133zM629 0v410h426v-232q0 -195 -27 -297q-35 -125 -124.5 -184t-266.5 -59h-8v229q72 3 102.5 31.5t30.5 101.5h-133z" />
<glyph unicode="&#x201c;" horiz-adv-x="1075" d="M61 641v231q0 195 27 297q35 125 124.5 184.5t266.5 59.5h8v-229q-72 -3 -102.5 -31.5t-30.5 -101.5h133v-410h-426zM578 641v231q0 199 26 297q35 125 124.5 184.5t266.5 59.5h9v-229q-72 -3 -103 -31.5t-31 -101.5h134v-410h-426z" />
<glyph unicode="&#x201d;" horiz-adv-x="1075" d="M72 621v229q72 3 102.5 31.5t30.5 101.5h-133v410h426v-232q0 -195 -27 -297q-35 -125 -124.5 -184t-266.5 -59h-8zM588 621v229q72 3 102.5 31.5t30.5 101.5h-133v410h426v-232q0 -195 -27 -297q-35 -125 -124.5 -184t-266.5 -59h-8z" />
<glyph unicode="&#x201e;" horiz-adv-x="651" d="M113 0v410h426v-232q0 -195 -27 -297q-35 -125 -124.5 -184t-266.5 -59h-8v229q72 3 102.5 31.5t30.5 101.5h-133z" />
<glyph unicode="&#x2022;" horiz-adv-x="921" d="M61 614q0 167 117 284.5t283 117.5q167 0 283 -117t116 -285q0 -166 -116 -282.5t-283 -116.5q-166 0 -283 116.5t-117 282.5z" />
<glyph unicode="&#x2026;" horiz-adv-x="2023" d="M113 0v410h426v-410h-426zM799 0v410h426v-410h-426zM1485 0v410h426v-410h-426z" />
<glyph unicode="&#x202f;" horiz-adv-x="395" />
<glyph unicode="&#x2039;" horiz-adv-x="581" d="M53 352v363l439 321l2 -407l-113 -76l111 -90v-406z" />
<glyph unicode="&#x203a;" horiz-adv-x="581" d="M88 629l2 407l438 -321v-363l-438 -295v406l111 90z" />
<glyph unicode="&#x205f;" horiz-adv-x="494" />
<glyph unicode="&#x20ac;" d="M-4 737l74 219h98q14 81 39.5 151.5t68.5 136t100 112t138.5 74.5t179.5 28q91 0 167.5 -22.5t130.5 -60.5t96 -91.5t67.5 -111t40.5 -123.5l-344 -111q-24 182 -154 182q-59 0 -98 -48.5t-47 -115.5h276l-73 -219h-224v-84h201l-74 -221h-96q32 -119 135 -119 q114 0 146 144l358 -78q-23 -89 -59 -158t-94.5 -126.5t-148 -88.5t-206.5 -31q-422 0 -520 457h-176l76 221h71v84h-149z" />
<glyph unicode="&#x2122;" horiz-adv-x="2084" d="M41 1108v285h756v-285h-213v-647h-330v647h-213zM895 461h299v436q19 -84 33 -137l82 -299h276l80 305l31 133v-438h297v932h-402l-86 -314q-19 -69 -33.5 -129.5t-19.5 -85.5l-4 -26q-19 87 -64 237l-96 318h-393v-932z" />
<glyph unicode="&#x25fc;" horiz-adv-x="972" d="M0 0v973h973v-973h-973z" />
</font>
</defs>
</svg>
