<?xml version="1.0" standalone="no"?>
<!DOCTYPE svg PUBLIC "-//W3C//DTD SVG 1.1//EN" "http://www.w3.org/Graphics/SVG/1.1/DTD/svg11.dtd" >
<svg xmlns="http://www.w3.org/2000/svg">
<metadata></metadata>
<defs>
<font id="theinhardthairline" horiz-adv-x="1208" >
<font-face units-per-em="2048" ascent="1393" descent="-655" />
<missing-glyph horiz-adv-x="532" />
<glyph unicode="&#xfb01;" horiz-adv-x="927" d="M-12 946v29h223v219q0 115 55 164q53 47 146 47q71 0 131 -29v-30q-58 30 -131 30q-87 0 -131 -47q-39 -42 -39 -147v-207h301v-29h-301v-946h-31v946h-223zM723 0v975h31v-975h-31zM723 1157v236h31v-236h-31z" />
<glyph unicode="&#xfb02;" horiz-adv-x="940" d="M-12 946v29h223v219q0 115 55 164q53 47 146 47q71 0 131 -29v-30q-58 30 -131 30q-87 0 -131 -47q-39 -42 -39 -147v-207h301v-29h-301v-946h-31v946h-223zM735 0v1393h31v-1393h-31z" />
<glyph horiz-adv-x="0" />
<glyph horiz-adv-x="682" />
<glyph unicode=" "  horiz-adv-x="532" />
<glyph unicode="&#x09;" horiz-adv-x="532" />
<glyph unicode="&#xa0;" horiz-adv-x="532" />
<glyph unicode="!" horiz-adv-x="378" d="M174 0v233h31v-233h-31zM174 690v703h31v-703l-6 -330h-19z" />
<glyph unicode="&#x22;" horiz-adv-x="497" d="M125 1065v328h31v-328l-9 -229h-14zM342 1065v328h31v-328l-8 -229h-15z" />
<glyph unicode="#" d="M-10 457v26h360l70 424h-377v29h381l74 457h30l-73 -457h391l74 457h30l-73 -457h356v-29h-361l-67 -424h375v-26h-379l-74 -457h-31l72 457h-389l-74 -457h-31l72 457h-356zM383 483h389l70 424h-391z" />
<glyph unicode="$" d="M102 262l21 31q55 -111 180.5 -188.5t288.5 -86.5v693l-39 10q-67 14 -117.5 29t-107 42t-92.5 61.5t-60 87.5t-24 120q0 157 119 248.5t315 93.5h6v194h29v-194q133 -6 240 -58t169 -124l-10 -35q-72 84 -174.5 133t-224.5 53v-641l90 -20q106 -26 175 -53.5t123 -67 t78.5 -94t24.5 -129.5q0 -165 -128.5 -270.5t-350.5 -106.5h-12v-189h-29v191q-174 7 -302.5 84.5t-187.5 185.5zM182 1061q0 -129 89.5 -198t267.5 -111l53 -13v635h-6q-177 -2 -290.5 -85t-113.5 -228zM621 18h12q211 1 328.5 97.5t119.5 251.5q1 132 -93.5 204 t-272.5 109l-94 22v-684z" />
<glyph unicode="%" horiz-adv-x="1853" d="M82 967q0 67 9 128t31.5 121t57 103.5t90.5 70.5t127 27t127 -27t91 -70.5t57.5 -103.5t31.5 -121t9 -128q0 -96 -16.5 -174t-52.5 -141.5t-98.5 -98.5t-148.5 -35q-69 0 -123 23.5t-90 64t-59 98.5t-33 122.5t-10 140.5zM113 965q0 -94 15.5 -168t48.5 -131t88.5 -88 t131.5 -31t131.5 31t89 88t49 131t15.5 168q0 123 -28 215.5t-93.5 150.5t-163.5 58q-144 0 -214 -117t-70 -307zM535 0l725 1393h34l-727 -1393h-32zM1130 422q0 67 9 128t31.5 121t57.5 103.5t91 70.5t127 27t127 -27t90.5 -70.5t57 -103.5t31.5 -121t9 -128 q0 -76 -10 -140.5t-33 -122.5t-59 -98.5t-90 -64t-123 -23.5q-86 0 -148.5 35t-98.5 98.5t-52.5 141.5t-16.5 174zM1161 420q0 -94 15.5 -168t49 -131t89 -88t131.5 -31t131.5 31t89 88t49 131t15.5 168q0 123 -28 215.5t-93.5 150.5t-163.5 58t-163.5 -58t-93.5 -150.5 t-28 -215.5z" />
<glyph unicode="&#x26;" horiz-adv-x="1173" d="M63 346q0 45 11.5 85.5t27.5 72.5t48.5 64.5t60 55.5t76 52.5t83 48t93.5 49.5l-57 68q-2 3 -36 42.5t-46 57.5t-35 56.5t-32 77t-9 81.5q0 108 76.5 182t205.5 74q140 0 212.5 -76t72.5 -184q0 -112 -72 -205t-237 -182l399 -481q66 150 105 311l22 -27 q-40 -165 -106 -307l221 -262h-39l-195 233q-158 -258 -442 -258q-109 0 -199.5 39t-149.5 125t-59 207zM94 346q0 -106 55.5 -185.5t141 -118t184.5 -38.5q126 0 238.5 65t177.5 187l-412 496l-22 -13q-153 -83 -209 -124q-143 -106 -153 -245q-1 -12 -1 -24zM279 1157 q0 -35 9.5 -70t18.5 -57t33.5 -57t33.5 -46t40 -48l75 -91q139 73 217 160.5t78 202.5q0 110 -74 171.5t-180 61.5q-109 0 -180 -64t-71 -163z" />
<glyph unicode="'" horiz-adv-x="280" d="M125 1065v328h31v-328l-9 -229h-14z" />
<glyph unicode="(" horiz-adv-x="464" d="M141 537q0 445 209 860l29 -6q-207 -408 -207 -854q0 -462 215 -859l-31 -8q-215 405 -215 867z" />
<glyph unicode=")" horiz-adv-x="464" d="M78 -322q215 397 215 859q0 446 -207 854l29 6q209 -415 209 -860q0 -462 -215 -867z" />
<glyph unicode="*" horiz-adv-x="716" d="M25 1135l10 28l315 -104v334h31v-334l315 102l9 -28l-318 -101l197 -270l-25 -17l-194 271l-195 -271l-25 19l197 268z" />
<glyph unicode="+" horiz-adv-x="1583" d="M205 590v28h577v590h29v-590h580v-28h-580v-590h-29v590h-577z" />
<glyph unicode="," horiz-adv-x="280" d="M78 -287q49 49 49 203v317h31v-292q0 -116 -16 -174.5t-64 -92.5v39z" />
<glyph unicode="-" horiz-adv-x="690" d="M61 535v28h568v-28h-568z" />
<glyph unicode="." horiz-adv-x="276" d="M123 0v233h31v-233h-31z" />
<glyph unicode="/" horiz-adv-x="802" d="M18 0l734 1393h32l-733 -1393h-33z" />
<glyph unicode="0" d="M115 694q0 156 30 285.5t89 228.5t153.5 154t216.5 55q123 0 218 -55t153.5 -154t88.5 -228.5t30 -285.5q0 -119 -15 -221.5t-51.5 -195.5t-91.5 -159t-139.5 -104.5t-192.5 -38.5q-107 0 -191.5 38.5t-139.5 104.5t-91 159t-51.5 195.5t-15.5 221.5zM145 694 q0 -112 14.5 -210t48.5 -187.5t85.5 -153t131 -101.5t179.5 -38q101 0 181 37t131.5 100.5t85 152.5t47.5 187t14 211q0 148 -28 272.5t-83 220.5t-144 150t-204 54q-114 0 -202.5 -54t-144 -149t-84 -220t-28.5 -272z" />
<glyph unicode="1" d="M291 1069v29q24 -2 47 -2q141 0 221 59q49 36 70 94t24 144h29v-1393h-31v1092l2 137h-2q-62 -162 -311 -162z" />
<glyph unicode="2" d="M154 0v29q314 213 536 409q70 63 117.5 114t93.5 118t69 144t23 163q0 189 -113.5 300.5t-293.5 111.5q-96 0 -173 -32t-125.5 -85.5t-74 -120.5t-25.5 -141q0 -114 48 -207l-41 12q-37 90 -37 195q0 172 114.5 289.5t313.5 117.5q107 0 192.5 -35.5t138.5 -96.5 t81 -139.5t28 -168.5q0 -81 -25 -159t-60 -137.5t-96.5 -127t-109 -111t-123.5 -106.5q-97 -82 -240 -186t-179 -123v-2q94 4 198 4h647v-29h-884z" />
<glyph unicode="3" d="M133 319l29 25q4 -73 30 -131.5t65.5 -96.5t93 -64t110 -37t117.5 -11q185 0 302 101.5t117 271.5q0 105 -46.5 183.5t-137.5 119.5q-67 29 -150.5 38t-205.5 9h-76v29h74q120 0 190 11t129 36q84 33 135.5 101.5t51.5 170.5q0 135 -102 224.5t-277 89.5 q-171 0 -277 -82.5t-117 -202.5l-24 18q1 34 15.5 71.5t47 78t79 72.5t118.5 52.5t158 20.5q195 0 302 -97.5t107 -244.5q0 -138 -88.5 -221.5t-251.5 -110.5v-2q178 -14 277.5 -103.5t99.5 -260.5q0 -178 -121.5 -290t-328.5 -112q-193 0 -311.5 91t-133.5 253z" />
<glyph unicode="4" d="M96 410v24l656 959h32v-955h334v-28h-334v-410h-30v410h-658zM133 438h621v643q0 243 2 271h-2q-20 -40 -174 -265z" />
<glyph unicode="5" d="M150 272l26 21q32 -122 138 -205.5t266 -83.5q192 0 312 125t120 330q0 88 -26.5 164.5t-77 135t-130 92.5t-178.5 34q-134 0 -236 -79t-139 -206l-20 8l43 785h723v-29h-695l-38 -670h2q15 35 41.5 69t69.5 70t110 58t147 22q188 0 311 -120.5t123 -331.5 q0 -214 -122 -350t-340 -136q-160 0 -272.5 79t-157.5 218z" />
<glyph unicode="6" d="M152 670q0 351 127 549t366 198q153 0 250.5 -74t134.5 -196l-24 -27q-10 37 -26 71t-45.5 71t-68 64.5t-96.5 45t-127 17.5q-147 0 -251.5 -89t-157 -250t-52.5 -380v-41q57 118 179.5 188t269.5 70q89 0 166.5 -27t139.5 -79.5t98 -139t36 -197.5q0 -130 -48.5 -234.5 t-149 -169.5t-238.5 -65q-108 0 -194.5 38.5t-152 119t-101 217t-35.5 320.5zM186 586q14 -282 127.5 -432t321.5 -150q179 0 292 121t113 319q0 102 -32.5 182.5t-89.5 130.5t-130 75.5t-157 25.5q-154 0 -275.5 -78.5t-169.5 -193.5z" />
<glyph unicode="7" d="M180 991v402h922v-25q-240 -348 -361 -643q-158 -398 -182 -725h-31q19 347 193 752q65 155 159 320.5t185 291.5h-854v-373h-31z" />
<glyph unicode="8" d="M131 367q0 107 50.5 189t129 125.5t174.5 53.5v2q-153 25 -235 113.5t-82 224.5q0 159 118.5 250.5t317.5 91.5t317.5 -91.5t118.5 -250.5q0 -136 -82 -224.5t-235 -113.5v-2q96 -10 174.5 -53.5t129 -125.5t50.5 -189q0 -134 -62.5 -223.5t-166.5 -129t-244 -39.5 t-244 39.5t-166.5 129t-62.5 223.5zM162 367q0 -170 115 -266.5t327 -96.5q213 0 328 96.5t115 266.5q0 164 -121.5 260t-321.5 96t-321 -96t-121 -260zM199 1075q0 -150 112 -237.5t293 -87.5t293.5 87.5t112.5 237.5q0 142 -108 228t-298 86t-297.5 -86t-107.5 -228z" />
<glyph unicode="9" d="M133 948q0 130 48.5 234.5t149 169.5t238.5 65q109 0 195 -38.5t152 -119t101.5 -216.5t35.5 -320q0 -351 -127.5 -549.5t-366.5 -198.5q-153 0 -250.5 74t-134.5 197l25 26q10 -37 25.5 -71t45.5 -71t68 -64t96 -44.5t127 -17.5q147 0 251.5 89t157 250t52.5 380v41 q-57 -118 -179.5 -188t-269.5 -70q-89 0 -166.5 27t-139.5 79t-98 138.5t-36 197.5zM164 948q0 -102 32.5 -182.5t89.5 -130t130 -75t157 -25.5q154 0 275.5 78.5t169.5 193.5q-14 282 -127.5 432t-321.5 150q-178 0 -291.5 -121.5t-113.5 -319.5z" />
<glyph unicode=":" horiz-adv-x="276" d="M123 0v233h31v-233h-31zM123 741v234h31v-234h-31z" />
<glyph unicode=";" horiz-adv-x="280" d="M78 -287q49 49 49 203v317h31v-292q0 -116 -16 -174.5t-64 -92.5v39zM127 741v234h31v-234h-31z" />
<glyph unicode="&#x3c;" horiz-adv-x="1583" d="M41 674v26l1489 705v-31l-1458 -686l1458 -688v-33z" />
<glyph unicode="=" horiz-adv-x="1583" d="M102 408v28h1379v-28h-1379zM102 766v29h1379v-29h-1379z" />
<glyph unicode="&#x3e;" horiz-adv-x="1583" d="M53 0l1458 688l-1458 686v31l1489 -705v-26l-1489 -707v33z" />
<glyph unicode="?" horiz-adv-x="905" d="M61 1055q0 158 101.5 260t275.5 102q180 0 282.5 -101t102.5 -255q0 -118 -46 -201.5t-138 -167.5l-53 -47q-59 -54 -83.5 -78.5t-46.5 -58.5t-27 -65t-5 -83v-38h-31v47q0 81 26 135t113 131l93 84q168 149 168 340q0 140 -97.5 235t-257.5 95q-163 0 -253.5 -96.5 t-90.5 -237.5q0 -68 27 -154l-37 8q-23 70 -23 146zM393 0v227h31v-227h-31z" />
<glyph unicode="@" horiz-adv-x="1740" d="M123 621q0 177 59.5 327t162.5 253t246 160.5t308 57.5q129 0 240.5 -38.5t191 -104t137 -152t85.5 -183.5t28 -198q0 -121 -29 -222.5t-77.5 -166.5t-110 -101t-127.5 -36q-71 0 -100 37.5t-29 110.5q0 40 2 67h-2q-22 -90 -98.5 -157.5t-202.5 -67.5t-199 65.5 t-73 178.5q0 105 65.5 154t200.5 75l239 45q25 5 36.5 9t21.5 16.5t10 33.5v39q0 113 -59.5 169.5t-192.5 56.5q-125 0 -193.5 -60.5t-70.5 -169.5l-29 12q-1 116 78.5 181t214.5 65q162 0 229 -78q54 -63 54 -200v-412q0 -72 21 -107.5t79 -35.5q124 0 217.5 141.5 t93.5 357.5q0 96 -27.5 189.5t-83.5 176.5t-132.5 146t-182 99.5t-225.5 36.5q-158 0 -295.5 -56t-237 -155.5t-156 -244t-56.5 -314.5q0 -227 98 -403t272 -272t394 -96q183 0 330.5 70.5t250.5 200.5l23 -27q-222 -272 -604 -272q-177 0 -325.5 58.5t-251.5 162.5 t-160.5 253t-57.5 325zM565 451q0 -99 68.5 -158.5t173.5 -59.5q145 0 223 101.5t78 261.5v123q-12 -12 -150 -37l-122 -23l-60 -12t-54.5 -13.5t-52.5 -18.5t-41 -25t-34.5 -34.5t-20 -45t-8.5 -59.5z" />
<glyph unicode="A" horiz-adv-x="1083" d="M10 0l516 1393h31l516 -1393h-33l-172 467h-655l-170 -467h-33zM223 496h635l-211 563q-71 192 -104 299h-2q-15 -50 -107 -297z" />
<glyph unicode="B" horiz-adv-x="1263" d="M178 0v1393h496q126 0 221 -27q227 -64 227 -311q0 -144 -85 -229t-230 -97v-2q175 -9 269.5 -104.5t94.5 -251.5q0 -255 -223 -334q-101 -37 -264 -37h-506zM209 31h461q203 0 315 59q152 81 152 281q0 171 -114 256.5t-325 85.5h-489v-682zM209 741h489q187 0 288 78.5 t101 235.5q0 200 -163 268q-101 41 -277 41h-438v-623z" />
<glyph unicode="C" horiz-adv-x="1294" d="M123 696q0 331 150 526t417 195q359 0 500 -340l-25 -28q-66 165 -181 252.5t-294 87.5q-252 0 -394 -187t-142 -506q0 -318 142.5 -505t393.5 -187q173 0 299.5 94t190.5 260l22 -24q-69 -171 -198.5 -265t-313.5 -94q-271 0 -419 194t-148 527z" />
<glyph unicode="D" horiz-adv-x="1325" d="M178 0v1393h285q188 0 292.5 -16.5t192.5 -78.5q119 -85 188.5 -239t69.5 -361q0 -179 -58 -337t-179 -250q-72 -55 -163.5 -83t-248.5 -28h-379zM209 29h360q160 0 258 39q118 45 197 144t113 220.5t34 265.5q0 366 -213 551q-83 73 -189 94t-304 21h-256v-1335z" />
<glyph unicode="E" horiz-adv-x="1120" d="M178 0v1393h826v-29h-795v-629h721v-28h-721v-678h838v-29h-869z" />
<glyph unicode="F" horiz-adv-x="1017" d="M178 0v1393h787v-29h-756v-629h682v-28h-682v-707h-31z" />
<glyph unicode="G" horiz-adv-x="1351" d="M123 696q0 331 150 526t417 195q359 0 500 -340l-25 -28q-66 165 -181 252.5t-294 87.5q-252 0 -394 -187t-142 -506q0 -318 142.5 -505t393.5 -187q149 0 258.5 58.5t167.5 170.5q49 96 49 234v176h-508v29h539v-672h-31v131l6 193h-2q-11 -68 -45.5 -128.5t-92 -111 t-145.5 -80t-196 -29.5q-271 0 -419 194t-148 527z" />
<glyph unicode="H" horiz-adv-x="1310" d="M178 0v1393h31v-658h895v658h29v-1393h-29v707h-895v-707h-31z" />
<glyph unicode="I" horiz-adv-x="387" d="M178 0v1393h31v-1393h-31z" />
<glyph unicode="J" horiz-adv-x="952" d="M41 336l31 14v-8q0 -168 81 -256t267 -88q257 0 325 207q27 92 27 235v953h31v-891q0 -138 -6 -191q-18 -196 -138 -280q-89 -62 -239 -62q-88 0 -154.5 18t-118 59.5t-78.5 114t-28 175.5z" />
<glyph unicode="K" horiz-adv-x="1193" d="M178 0v1393h31v-867l868 867h41l-536 -535l596 -858h-39l-582 838l-348 -353v-485h-31z" />
<glyph unicode="L" horiz-adv-x="1038" d="M178 0v1393h31v-1364h801v-29h-832z" />
<glyph unicode="M" horiz-adv-x="1454" d="M178 0v1393h45l436 -1149q59 -149 78 -213h2q22 77 76 219l416 1143h45v-1393h-31v989q0 31 -1 129q-1 66 -1 114q1 24 1 45q0 61 3 87h-2q-15 -58 -106 -313l-383 -1051h-35l-379 993q-119 315 -135 371h-2q4 -42 4 -399v-965h-31z" />
<glyph unicode="N" horiz-adv-x="1286" d="M178 0v1393h41l748 -1172l110 -180h2q0 18 -1 82.5t-1 120.5v1149h31v-1393h-39l-747 1174l-115 186h-2q4 -122 4 -197v-1163h-31z" />
<glyph unicode="O" horiz-adv-x="1380" d="M123 696q0 331 150 526t417 195q268 0 417.5 -195t149.5 -526q0 -333 -147.5 -527t-419.5 -194q-271 0 -419 194t-148 527zM154 696q0 -319 141 -505.5t395 -186.5q255 0 396 186.5t141 505.5q0 318 -140.5 505.5t-396.5 187.5q-255 0 -395.5 -187.5t-140.5 -505.5z" />
<glyph unicode="P" horiz-adv-x="1165" d="M178 0v1393h438q135 0 222 -19q128 -27 203 -119t75 -235q0 -213 -164 -309q-58 -33 -135 -49.5t-203 -16.5h-405v-645h-31zM209 674h414q106 0 180 13t135 48q69 39 108 112.5t39 172.5q0 120 -59.5 202t-163.5 115q-80 27 -260 27h-393v-690z" />
<glyph unicode="Q" horiz-adv-x="1380" d="M123 696q0 331 150 526t417 195q268 0 417.5 -195t149.5 -526q0 -322 -137 -512l203 -190l-23 -25l-200 187q-149 -181 -410 -181q-271 0 -419 194t-148 527zM154 696q0 -319 141 -505.5t395 -186.5q255 0 396 186.5t141 505.5q0 318 -140.5 505.5t-396.5 187.5 q-255 0 -395.5 -187.5t-140.5 -505.5z" />
<glyph unicode="R" horiz-adv-x="1212" d="M178 0v1393h438q135 0 222 -19q128 -27 203 -117t75 -233q0 -209 -164 -305q-98 -56 -262 -64l461 -655h-37l-461 653h-444v-653h-31zM209 682h414q106 0 180 13t135 48q69 39 108 110.5t39 170.5q0 119 -59 199.5t-164 113.5q-80 27 -260 27h-393v-682z" />
<glyph unicode="S" horiz-adv-x="1116" d="M25 254l20 31q59 -122 195 -202q135 -79 311 -79h4q211 2 329 100q119 100 120 259q0 133 -94 205q-94 73 -273 112l-162 41q-48 10 -84.5 20t-80 26t-75.5 34t-64 44.5t-52 58t-32.5 73.5t-12.5 92q0 159 119 252.5t315 95.5h5q142 0 257 -53q117 -54 182 -133l-10 -35 q-77 92 -189 143q-110 50 -240 50h-5q-177 -2 -290.5 -87t-113.5 -233q0 -132 90 -202.5t267 -112.5l172 -43q105 -26 175 -54t123.5 -68.5t78 -96t24.5 -132.5q0 -168 -128.5 -276t-350.5 -109h-5q-186 1 -323 81q-139 82 -202 198z" />
<glyph unicode="T" horiz-adv-x="1040" d="M16 1364v29h1008v-29h-489v-1364h-31v1364h-488z" />
<glyph unicode="U" horiz-adv-x="1323" d="M164 516v877h31v-842q0 -128 13.5 -204t43.5 -138q102 -209 410 -209q307 0 409 209q30 62 43.5 138t13.5 204v842h31v-877q0 -196 -53 -313q-105 -232 -444 -232q-340 0 -445 232q-53 117 -53 313z" />
<glyph unicode="V" horiz-adv-x="1046" d="M16 1393h31l385 -1102q65 -189 84 -262q15 51 88 260l395 1104h31l-495 -1393h-37z" />
<glyph unicode="W" horiz-adv-x="1646" d="M31 1393h32l295 -1028q87 -298 93 -334h2q20 93 86 334l274 1028h41l279 -1031q60 -215 86 -331h2q19 85 88 327l276 1035h31l-375 -1393h-43l-242 895q-95 342 -122 467h-3q-33 -150 -120 -469l-238 -893h-43z" />
<glyph unicode="X" horiz-adv-x="1038" d="M-10 0l512 725l-469 668h35l450 -643l453 643h35l-469 -668l512 -725h-37l-494 700l-491 -700h-37z" />
<glyph unicode="Y" horiz-adv-x="1001" d="M-10 1393h33l475 -768l481 768h33l-502 -799l2 -594h-31v594z" />
<glyph unicode="Z" horiz-adv-x="1062" d="M31 0v25l837 1202l99 137v2q-55 -2 -131 -2h-775v29h943v-25l-838 -1202l-98 -137v-2q55 2 131 2h833v-29h-1001z" />
<glyph unicode="[" horiz-adv-x="505" d="M174 -324v1717h291v-29h-260v-1659h260v-29h-291z" />
<glyph unicode="\" horiz-adv-x="802" d="M18 1393h33l733 -1393h-32z" />
<glyph unicode="]" horiz-adv-x="514" d="M49 -295h260v1659h-260v29h291v-1717h-291v29z" />
<glyph unicode="^" horiz-adv-x="1583" d="M446 657l326 736h37l326 -736h-33l-311 709l-312 -709h-33z" />
<glyph unicode="_" horiz-adv-x="1058" d="M-10 -254h1079v-29h-1079v29z" />
<glyph unicode="`" horiz-adv-x="819" d="M274 1393h37l248 -279h-33z" />
<glyph unicode="a" horiz-adv-x="958" d="M98 260q0 114 70 178q41 36 96.5 58t151.5 39l252 45q49 8 66.5 21.5t17.5 51.5v49q0 131 -67 199t-222 68q-153 0 -234 -71.5t-84 -205.5l-28 17q3 138 95.5 213t250.5 75t238.5 -70t80.5 -231v-524q0 -98 31 -131q27 -27 84 -27q36 0 57 6v-28q-24 -6 -61 -6 q-80 0 -110.5 41t-30.5 125q0 52 6 116h-2q-8 -57 -33.5 -108t-68 -93t-108.5 -67t-147 -25q-143 0 -222 78.5t-79 206.5zM129 260q0 -118 75 -187t202 -69q165 0 255.5 111.5t90.5 292.5v170q-5 -4 -12.5 -7.5t-19 -6.5t-20.5 -5.5t-26 -6t-26.5 -5t-29.5 -5.5t-28 -5 l-144 -25q-95 -16 -156.5 -36.5t-101.5 -59.5q-59 -56 -59 -156z" />
<glyph unicode="b" horiz-adv-x="1071" d="M174 0v1393h31v-572l-4 -153h2q6 42 21.5 85t46 88t70 79.5t98 56.5t126.5 22q187 0 293.5 -136t106.5 -371q0 -237 -108.5 -377t-293.5 -140q-85 0 -153 31.5t-109.5 82.5t-65.5 105t-32 109h-2q4 -94 4 -153v-150h-31zM203 487q0 -225 98 -354t262 -129 q168 0 269.5 132t101.5 356q0 221 -100.5 350t-268.5 129q-164 0 -263 -131t-99 -353z" />
<glyph unicode="c" horiz-adv-x="972" d="M106 481q0 236 109 377t307 141q134 0 231 -66.5t142 -182.5l-25 -29q-41 118 -133.5 184t-214.5 66q-176 0 -280.5 -131.5t-104.5 -356.5q0 -222 107 -350.5t278 -128.5q120 0 208.5 61.5t133.5 170.5l27 -25q-52 -113 -146 -174.5t-223 -61.5q-196 0 -306 138t-110 368 z" />
<glyph unicode="d" horiz-adv-x="1071" d="M106 492q0 235 106 371t292 136q85 0 154.5 -32.5t111.5 -84.5t66.5 -106.5t31.5 -107.5h2q-4 94 -4 153v572h31v-1393h-31v150l4 153h-2q-8 -55 -32 -109t-65.5 -105t-109.5 -82.5t-153 -31.5q-185 0 -293.5 140t-108.5 377zM137 492q0 -224 101.5 -356t269.5 -132 q164 0 262 129t98 354q0 221 -100 352.5t-264 131.5q-167 0 -267 -129t-100 -350z" />
<glyph unicode="e" horiz-adv-x="1040" d="M106 496q0 225 114 364t302 139q189 0 302.5 -130t113.5 -357h-801v-12q0 -230 108 -363t296 -133q136 0 226 73t136 187l25 -24q-52 -116 -148.5 -190.5t-240.5 -74.5q-197 0 -315 138t-118 383zM137 541h768q-6 201 -112 315.5t-271 114.5q-162 0 -268 -119t-117 -311z " />
<glyph unicode="f" horiz-adv-x="532" d="M-12 946v29h223v219q0 115 55 164q53 47 146 47q71 0 131 -29v-30q-58 30 -131 30q-87 0 -131 -47q-39 -42 -39 -147v-207h301v-29h-301v-946h-31v946h-223z" />
<glyph unicode="g" horiz-adv-x="1071" d="M106 492q0 235 106 371t292 136q85 0 154.5 -32.5t111.5 -84.5t66.5 -106.5t31.5 -107.5h2q-4 98 -4 170v137h31v-932q0 -201 -59 -303q-85 -146 -328 -146q-103 0 -178.5 25t-117.5 69.5t-62 97.5t-21 116l29 14q3 -144 90.5 -218.5t259.5 -74.5q124 0 197 37t112 109 q47 89 47 278v80l4 176h-2q-8 -55 -32 -109t-65.5 -105t-109.5 -82.5t-153 -31.5q-185 0 -293.5 140t-108.5 377zM137 492q0 -224 101.5 -356t269.5 -132q164 0 262 129t98 354q0 221 -100 352.5t-264 131.5q-167 0 -267 -129t-100 -350z" />
<glyph unicode="h" horiz-adv-x="1058" d="M174 0v1393h31v-533l-4 -164h2q5 50 30.5 101.5t69 97.5t113 75t151.5 29q96 0 161.5 -30t101 -89.5t50.5 -135t15 -179.5v-565h-31v530q0 66 -3.5 115.5t-14 103t-31.5 91t-53 69t-82 47t-115 15.5q-167 0 -263.5 -119.5t-96.5 -302.5v-549h-31z" />
<glyph unicode="i" horiz-adv-x="378" d="M174 0v975h31v-975h-31zM174 1157v236h31v-236h-31z" />
<glyph unicode="j" horiz-adv-x="382" d="M-119 -344q59 -33 133 -33q97 0 131.5 57.5t34.5 182.5v1112h31v-1129q0 -127 -44.5 -189.5t-158.5 -62.5q-67 0 -127 29v33zM180 1157v236h31v-236h-31z" />
<glyph unicode="k" horiz-adv-x="901" d="M174 0v1393h31v-983l598 565h45l-379 -359l422 -616h-41l-406 596l-239 -227v-369h-31z" />
<glyph unicode="l" horiz-adv-x="378" d="M174 0v1393h31v-1393h-31z" />
<glyph unicode="m" horiz-adv-x="1728" d="M174 0v975h31v-115l-4 -164h2q4 39 19.5 80t45.5 81.5t70.5 71.5t98 50.5t124.5 19.5q296 0 313 -313h3q5 51 29 103t66 100.5t112.5 79t156.5 30.5q77 0 134 -20.5t93 -56.5t58 -91.5t30.5 -119t8.5 -146.5v-565h-31v530q0 57 -2 99.5t-9.5 90.5t-20 83t-35 68.5t-53 54 t-75 33t-100.5 12.5q-164 0 -259 -115t-95 -291v-565h-31v530q0 57 -2 99.5t-9.5 90.5t-20 83t-35 68.5t-53 54t-75 33t-100.5 12.5q-166 0 -260 -119t-94 -303v-549h-31z" />
<glyph unicode="n" horiz-adv-x="1058" d="M174 0v975h31v-115l-4 -164h2q5 50 30.5 101.5t69 97.5t113 75t151.5 29q96 0 161.5 -30t101 -89.5t50.5 -135t15 -179.5v-565h-31v530q0 66 -3.5 115.5t-14 103t-31.5 91t-53 69t-82 47t-115 15.5q-167 0 -263.5 -119.5t-96.5 -302.5v-549h-31z" />
<glyph unicode="o" horiz-adv-x="1046" d="M106 481q0 236 108.5 377t307.5 141q200 0 309 -141t109 -377q0 -230 -110 -368t-308 -138q-196 0 -306 138t-110 368zM137 483q0 -226 106.5 -352.5t278.5 -126.5q174 0 280.5 126t106.5 353q0 229 -105.5 358.5t-281.5 129.5q-173 0 -279 -130t-106 -358z" />
<glyph unicode="p" horiz-adv-x="1071" d="M174 -389v1364h31v-154l-4 -153h2q6 42 21.5 85t46 88t70 79.5t98 56.5t126.5 22q187 0 293.5 -136t106.5 -371q0 -237 -108.5 -377t-293.5 -140q-85 0 -153 31.5t-109.5 82.5t-65.5 105t-32 109h-2q4 -94 4 -153v-539h-31zM203 487q0 -225 98 -354t262 -129 q168 0 269.5 132t101.5 356q0 221 -100.5 350t-268.5 129q-164 0 -263 -131t-99 -353z" />
<glyph unicode="q" horiz-adv-x="1071" d="M106 492q0 235 106 371t292 136q85 0 154.5 -32.5t111.5 -84.5t66.5 -106.5t31.5 -107.5h2q-4 94 -4 153v154h31v-1364h-31v539l4 153h-2q-8 -55 -32 -109t-65.5 -105t-109.5 -82.5t-153 -31.5q-185 0 -293.5 140t-108.5 377zM137 492q0 -224 101.5 -356t269.5 -132 q164 0 262 129t98 354q0 221 -100 352.5t-264 131.5q-167 0 -267 -129t-100 -350z" />
<glyph unicode="r" horiz-adv-x="575" d="M174 0v975h31v-162l-4 -127h2q5 53 25.5 106t55.5 100t91 76t123 29q37 0 67 -10v-29q-38 11 -73 11q-69 0 -125.5 -37.5t-91 -98.5t-52.5 -132t-18 -144v-557h-31z" />
<glyph unicode="s" horiz-adv-x="839" d="M61 133l17 33q59 -75 149 -119q88 -43 198 -43h5q148 1 232 68q82 65 81 167q1 54 -19 94q-18 38 -56.5 63.5t-79.5 42t-103 32.5l-120 31q-70 18 -114.5 35.5t-85 45.5t-59 68.5t-18.5 96.5q0 119 91.5 185t223.5 66q202 0 318 -133l-14 -32q-47 58 -127 98 q-78 39 -174 39h-5q-123 -2 -202.5 -59t-79.5 -164q0 -89 63 -137.5t191 -80.5l116 -30q69 -17 116 -35.5t88 -47.5t61 -72t20 -101q0 -127 -96.5 -198t-247.5 -71q-239 0 -369 158z" />
<glyph unicode="t" horiz-adv-x="538" d="M6 946v29h197v383l30 8v-391h256v-29h-256v-768q0 -31 2 -53t9 -46t20 -38.5t36 -24.5t56 -10q81 0 146 47v-33q-64 -43 -150 -43q-77 0 -113 42t-36 135v792h-197z" />
<glyph unicode="u" horiz-adv-x="1040" d="M156 410v565h30v-531q0 -57 2 -99.5t9.5 -90.5t20 -82.5t35 -68t53 -54t75 -33t100.5 -12.5q166 0 260.5 119t94.5 303v549h30v-975h-30v115l4 164h-2q-4 -39 -19.5 -80t-46 -81.5t-70.5 -72t-98 -51t-125 -19.5q-96 0 -160.5 30t-99.5 90.5t-49 135t-14 179.5z" />
<glyph unicode="v" horiz-adv-x="780" d="M10 975h33l254 -699q69 -187 82 -235h2q11 42 88 238l270 696h31l-377 -975h-28z" />
<glyph unicode="w" horiz-adv-x="1202" d="M20 975h31l203 -653q72 -225 86 -277h2q41 167 74 285l172 645h33l180 -647q14 -50 28.5 -108.5t27 -109.5t15.5 -65h2q35 138 84 289l193 641h31l-293 -975h-33l-182 674q-70 254 -70 256h-2q-21 -103 -61 -248l-185 -682h-30z" />
<glyph unicode="x" horiz-adv-x="765" d="M10 0l357 502l-336 473h35l317 -449l317 449h35l-336 -473l357 -502h-35l-338 479l-338 -479h-35z" />
<glyph unicode="y" horiz-adv-x="790" d="M18 -352q30 -19 84 -19q81 0 129 60q34 42 76 147l72 184l-348 955h32l252 -692l80 -226h2q21 66 86 232l267 686h30l-424 -1094q-53 -136 -82 -184q-59 -96 -174 -96q-55 0 -82 16v31z" />
<glyph unicode="z" horiz-adv-x="790" d="M51 0v25l615 921h-605v29h644v-25l-617 -921h641v-29h-678z" />
<glyph unicode="{" horiz-adv-x="518" d="M68 514v43q34 10 58 24t40 36.5t25 44t13.5 59t5.5 69.5t1 87v235q0 157 60.5 219t217.5 62h9v-27q-151 0 -203.5 -57t-52.5 -207v-250q0 -157 -29 -218t-129 -97v-2q100 -36 129 -97.5t29 -218.5v-252q0 -150 52.5 -207t203.5 -57v-27h-9q-157 0 -217.5 62t-60.5 219 v238q0 55 -1 87t-5.5 69.5t-13.5 59t-25 43.5t-40 36t-58 24z" />
<glyph unicode="|" horiz-adv-x="378" d="M174 -324v1717h31v-1717h-31z" />
<glyph unicode="}" horiz-adv-x="518" d="M20 -297q151 0 203.5 57t52.5 207v252q0 157 29 218.5t129 97.5v2q-100 36 -129 97t-29 218v250q0 150 -52.5 207t-203.5 57v27h9q157 0 217.5 -62t60.5 -219v-235q0 -55 1 -87t5.5 -69.5t14 -59.5t25.5 -44t40 -36t58 -24v-43q-34 -10 -58 -24t-40 -36t-25.5 -43.5 t-14 -59t-5.5 -69.5t-1 -87v-238q0 -157 -60.5 -219t-217.5 -62h-9v27z" />
<glyph unicode="~" horiz-adv-x="1583" d="M297 561q39 53 98 94t133 41q50 0 101 -18t149 -64q97 -47 140.5 -62t82.5 -15q63 0 112.5 32.5t96.5 85.5l21 -18q-107 -129 -230 -129q-30 0 -66 10t-54.5 17t-70.5 31.5t-62 29.5q-8 4 -37.5 17t-39.5 17.5t-34 14t-38 13t-34 7t-37 3.5q-59 0 -108 -31t-101 -94z" />
<glyph unicode="&#xa1;" horiz-adv-x="378" d="M174 285l6 329h19l6 -329v-703h-31v703zM174 741v234h31v-234h-31z" />
<glyph unicode="&#xa2;" d="M201 481q0 230 103 370.5t294 147.5v189h31v-189q129 -3 222 -69.5t138 -179.5l-24 -29q-41 115 -130 181t-206 69v-967q115 3 199.5 63.5t129.5 168.5l27 -25q-105 -230 -356 -236v-206h-31v206q-189 7 -293 144t-104 362zM231 483q0 -216 101.5 -344.5t265.5 -134.5 v967q-168 -8 -267.5 -138.5t-99.5 -349.5z" />
<glyph unicode="&#xa3;" d="M125 694v29h233q-14 163 -14 244q0 452 356 452q155 0 250.5 -80t110.5 -217l-23 -16q-18 133 -106 209t-232 76q-79 0 -138 -24.5t-94 -63.5t-56.5 -96.5t-29 -114t-7.5 -125.5q0 -92 12 -244h344v-29h-342q14 -245 14 -274q0 -78 -7.5 -136t-26 -111t-55 -89t-91.5 -55 v-2q90 2 211 2h598v-29h-905v23q135 28 190.5 113.5t55.5 283.5q0 96 -13 274h-235z" />
<glyph unicode="&#xa4;" horiz-adv-x="1097" d="M111 182l151 152q-104 110 -104 268q0 153 102 266l-147 152l18 20l150 -151q112 106 268 106t268 -106l150 149l20 -20l-149 -150q104 -116 104 -266q0 -156 -106 -268l151 -150l-20 -20l-150 151q-113 -104 -268 -104q-153 0 -266 102l-152 -149zM186 602 q0 -153 105.5 -259.5t257.5 -106.5t258 107t106 259q0 153 -106 261t-258 108t-257.5 -108t-105.5 -261z" />
<glyph unicode="&#xa5;" d="M96 1393h33l475 -768l481 768h33l-485 -770h448v-29h-465v-236h465v-28h-465l2 -330h-30v330h-465v28h465v236h-465v29h448z" />
<glyph unicode="&#xa6;" horiz-adv-x="378" d="M174 -324v662h31v-662h-31zM174 731v662h31v-662h-31z" />
<glyph unicode="&#xa7;" horiz-adv-x="960" d="M82 680q0 59 27.5 109.5t71 83t92 52t96.5 25.5q-48 17 -81 34t-67 43.5t-51.5 65t-17.5 87.5q0 112 90 175.5t219 63.5q107 0 189 -37t134 -96l-14 -33q-48 59 -128.5 99t-180.5 39q-121 -2 -200 -57.5t-79 -153.5q0 -38 13 -69t33 -52t56.5 -41t69.5 -33t86 -31 l140 -47q64 -22 109 -44.5t83.5 -56t58 -80.5t19.5 -108q0 -64 -25 -117.5t-66 -88t-79.5 -55.5t-79.5 -35q49 -20 80.5 -37.5t63.5 -44.5t47.5 -65.5t15.5 -88.5q0 -124 -95.5 -194t-246.5 -70q-128 0 -221.5 45t-149.5 113l17 32q59 -75 150 -119t204 -43q148 1 230.5 66 t80.5 170q0 30 -7.5 55t-16.5 43t-30 35.5t-36 28t-47.5 25.5t-51 22t-59.5 22l-153 58q-52 19 -90 36.5t-79 44.5t-66 57t-41.5 73t-16.5 94zM115 680q0 -55 19 -98t59 -76.5t88 -58.5t120 -52l168 -61q109 33 179.5 106.5t70.5 177.5q0 99 -62 160.5t-190 104.5l-168 57 q-125 -25 -204.5 -91.5t-79.5 -168.5z" />
<glyph unicode="&#xa8;" horiz-adv-x="819" d="M207 1147v199h31v-199h-31zM582 1147v199h30v-199h-30z" />
<glyph unicode="&#xa9;" horiz-adv-x="1650" d="M125 717q0 146 54 275.5t147 223t223 147.5t276 54q195 0 356 -92t253 -252.5t92 -355.5t-92 -355.5t-253 -253t-356 -92.5t-356 92.5t-252.5 253t-91.5 355.5zM156 717q0 -182 88.5 -336.5t242.5 -245t338 -90.5t338.5 90.5t243 245t88.5 336.5t-88.5 336.5t-243 245 t-338.5 90.5t-338 -90.5t-242.5 -245t-88.5 -336.5zM461 721q0 198 100 317t266 119q107 0 183.5 -49t117.5 -135l-26 -19q-37 85 -107.5 129.5t-167.5 44.5q-144 0 -239.5 -111.5t-95.5 -295.5q0 -181 96.5 -290t238.5 -109q94 0 166.5 39t110.5 114l22 -18 q-90 -164 -299 -164q-166 0 -266 116.5t-100 311.5z" />
<glyph unicode="&#xaa;" horiz-adv-x="638" d="M51 961q0 43 13.5 73t43.5 48.5t62.5 29t85.5 21.5l162 30q15 2 22.5 5t13 13t5.5 29v17q0 88 -38.5 125t-133.5 37q-93 0 -142 -44t-49 -128l-28 12q0 90 59 139t160 49q102 0 152 -40.5t50 -145.5v-326q0 -27 3 -43.5t17.5 -31.5t41.5 -15q25 0 45 8v-28q-24 -9 -45 -9 q-56 0 -73.5 33t-14.5 111h-2q-15 -60 -70.5 -105t-140.5 -45q-98 0 -148.5 50t-50.5 131zM82 961q0 -71 44.5 -111.5t123.5 -40.5q101 0 155 64.5t54 164.5v109q-28 -9 -76 -17l-111 -20q-30 -6 -44.5 -9t-39 -9.5t-36.5 -13t-28 -17.5t-23.5 -24.5t-13 -32.5t-5.5 -43z " />
<glyph unicode="&#xab;" horiz-adv-x="686" d="M61 575v19l291 352v-43l-262 -315l262 -322v-43zM324 575v19l290 352v-43l-262 -315l262 -322v-43z" />
<glyph unicode="&#xac;" horiz-adv-x="1583" d="M373 893v29h811v-469h-31v440h-780z" />
<glyph unicode="&#xad;" horiz-adv-x="772" d="M102 535v28h568v-28h-568z" />
<glyph unicode="&#xae;" horiz-adv-x="1650" d="M125 717q0 146 54 275.5t147 223t223 147.5t276 54q195 0 356 -92t253 -252.5t92 -355.5t-92 -355.5t-253 -253t-356 -92.5t-356 92.5t-252.5 253t-91.5 355.5zM156 717q0 -182 88.5 -336.5t242.5 -245t338 -90.5t338.5 90.5t243 245t88.5 336.5t-88.5 336.5t-243 245 t-338.5 90.5t-338 -90.5t-242.5 -245t-88.5 -336.5zM559 303v836h326q74 0 118 -9.5t84 -39.5q74 -56 74 -170q0 -116 -78 -172q-66 -50 -209 -50l281 -395h-39l-280 395h-246v-395h-31zM590 727h305q106 0 162 35q76 49 76 158q0 103 -76 155q-52 35 -158 35h-309v-383z " />
<glyph unicode="&#xaf;" horiz-adv-x="962" d="M203 1167v29h555v-29h-555z" />
<glyph unicode="&#xb0;" horiz-adv-x="733" d="M82 1133q0 118 83 201t202 83t201.5 -82.5t82.5 -201.5t-83 -203t-201 -84t-201.5 84t-83.5 203zM113 1133q0 -109 73 -184t181 -75q107 0 180.5 75t73.5 184q0 107 -73.5 181.5t-180.5 74.5q-108 0 -181 -74t-73 -182z" />
<glyph unicode="&#xb1;" horiz-adv-x="1583" d="M193 0v29h1200v-29h-1200zM193 705v28h587v481h31v-481h582v-28h-582v-486h-31v486h-587z" />
<glyph unicode="&#xb2;" horiz-adv-x="737" d="M88 555v27q227 154 311 227q90 77 143.5 157.5t53.5 178.5q0 112 -66.5 178t-167.5 66q-111 0 -175 -63.5t-64 -158.5q0 -62 33 -133l-39 8q-25 67 -25 123q0 105 72.5 178.5t197.5 73.5t195 -77.5t70 -192.5q0 -59 -20.5 -115t-50.5 -100t-80 -91.5t-92 -80.5t-103 -76 q-118 -84 -152 -100v-2q80 2 193 2h311v-29h-545z" />
<glyph unicode="&#xb3;" horiz-adv-x="737" d="M76 741l30 19q3 -57 27.5 -99.5t63 -66.5t81 -35.5t87.5 -11.5q117 0 186.5 61.5t69.5 163.5q0 65 -33 113t-80 67q-40 17 -86 22t-139 5h-50v29h56q123 0 190 24q54 23 86.5 67.5t32.5 106.5q0 82 -61 132.5t-172 50.5q-107 0 -164.5 -53t-71.5 -130l-29 19q3 29 20 60 t47.5 61.5t82 50.5t115.5 20q133 0 198.5 -61t65.5 -148q0 -80 -47.5 -134.5t-139.5 -74.5v-4q93 -11 151 -70t58 -151q0 -117 -77 -186.5t-212 -69.5q-123 0 -200 59.5t-86 163.5z" />
<glyph unicode="&#xb4;" horiz-adv-x="962" d="M342 1114l248 279h37l-252 -279h-33z" />
<glyph unicode="&#xb5;" horiz-adv-x="1026" d="M174 -389v1364h31v-547q0 -84 6 -143.5t24 -115.5t49 -90t83 -54.5t125 -20.5q104 0 180 52t112.5 134.5t36.5 184.5v600h31v-975h-31v115q0 59 4 129h-2q-24 -115 -107.5 -192t-223.5 -77q-237 0 -287 189h-2q2 -64 2 -103v-450h-31z" />
<glyph unicode="&#xb6;" horiz-adv-x="1126" d="M102 1061q0 164 115 256q49 39 116.5 57.5t186.5 18.5h524v-29h-190v-1626h-31v1626h-303v-1626h-31v991q-180 3 -272 76q-115 92 -115 256zM133 1061q0 -149 103 -236q45 -34 101 -50t152 -17v606q-95 -1 -151.5 -17.5t-101.5 -50.5q-103 -87 -103 -235z" />
<glyph unicode="&#xb7;" horiz-adv-x="276" d="M123 539v233h31v-233h-31z" />
<glyph unicode="&#xb8;" horiz-adv-x="962" d="M322 -123l118 129h35l-104 -112l2 -3q36 9 61 9q65 0 111.5 -37.5t46.5 -106.5q0 -74 -50.5 -112.5t-127.5 -38.5q-49 0 -92 14l10 29q47 -15 82 -15q62 0 104.5 31.5t42.5 91.5q0 59 -40 87t-97 28q-46 0 -86 -16z" />
<glyph unicode="&#xb9;" horiz-adv-x="737" d="M156 1184v28h30q94 0 138 33q54 40 57 148h27v-861h-31v728q-27 -44 -79.5 -60t-133.5 -16h-8z" />
<glyph unicode="&#xba;" horiz-adv-x="724" d="M92 1096q0 147 72.5 232t197.5 85t198 -85t73 -232q0 -144 -72 -228t-199 -84q-126 0 -198 84t-72 228zM121 1096q0 -136 67 -210.5t174 -74.5t174.5 74.5t67.5 210.5q0 143 -65.5 216.5t-176.5 73.5t-176 -73.5t-65 -216.5z" />
<glyph unicode="&#xbb;" horiz-adv-x="686" d="M72 223v43l262 322l-262 315v43l290 -352v-19zM334 223v43l262 322l-262 315v43l291 -352v-19z" />
<glyph unicode="&#xbc;" horiz-adv-x="1492" d="M104 1184v28h31q93 0 137 33q55 41 58 148h26v-861h-30v728q-27 -44 -79.5 -60t-133.5 -16h-9zM303 0l725 1393h35l-727 -1393h-33zM772 231v25l404 604h26v-600h178v-29h-178v-231h-28v231h-402zM807 260h367v287q0 146 4 272h-2q-64 -104 -127 -198l-101 -152z" />
<glyph unicode="&#xbd;" horiz-adv-x="1599" d="M86 1184v28h31q93 0 137 33q54 40 57 148h27v-861h-31v728q-27 -44 -79.5 -60t-133.5 -16h-8zM285 0l725 1393h34l-727 -1393h-32zM918 0v27q227 154 311 227q89 76 142.5 156.5t53.5 179.5q0 113 -66 178.5t-167 65.5q-112 0 -176 -63.5t-64 -158.5q0 -62 33 -133l-39 8 q-24 65 -24 123q0 105 72.5 178.5t197.5 73.5t194.5 -77.5t69.5 -192.5q0 -59 -20.5 -115t-50.5 -100t-80 -91.5t-92 -80.5t-103 -76q-118 -84 -152 -100v-2q80 2 193 2h311v-29h-544z" />
<glyph unicode="&#xbe;" horiz-adv-x="1677" d="M70 741l30 19q3 -57 27.5 -99.5t62.5 -66.5t80.5 -35.5t87.5 -11.5q117 0 186.5 61.5t69.5 163.5q0 65 -33 113t-79 67q-40 17 -86.5 22t-139.5 5h-49v29h56q123 0 190 24q54 23 86.5 67.5t32.5 106.5q0 82 -61.5 132.5t-172.5 50.5q-106 0 -163.5 -53t-71.5 -130l-29 19 q3 29 20 60t47 61.5t81.5 50.5t115.5 20q133 0 199 -61t66 -148q0 -80 -47.5 -134.5t-139.5 -74.5v-4q93 -11 151 -70t58 -151q0 -117 -77 -186.5t-212 -69.5q-123 0 -200 59.5t-86 163.5zM514 0l725 1393h35l-727 -1393h-33zM983 231v25l403 604h27v-600h178v-29h-178v-231 h-29v231h-401zM1018 260h366v287q0 115 5 272h-3q-63 -104 -126 -198l-101 -152z" />
<glyph unicode="&#xbf;" horiz-adv-x="911" d="M78 -86q0 118 46 201.5t138 167.5l53 47q60 55 84 78.5t46 57.5t27 65t5 83v39h31v-47q0 -81 -26 -135t-113 -131l-93 -84q-167 -148 -167 -340q0 -141 97 -235.5t257 -94.5q163 0 253.5 96.5t90.5 237.5q0 68 -27 154l37 -8q23 -70 23 -146q0 -158 -101.5 -260 t-275.5 -102q-180 0 -282.5 101t-102.5 255zM477 748v227h31v-227h-31z" />
<glyph unicode="&#xc0;" horiz-adv-x="1083" d="M10 0h33l170 467h655l172 -467h33l-516 1393h-31zM223 496l211 565q92 247 107 297h2q33 -107 104 -299l211 -563h-635zM319 1821h37l248 -279h-33z" />
<glyph unicode="&#xc1;" horiz-adv-x="1083" d="M10 0l516 1393h31l516 -1393h-33l-172 467h-655l-170 -467h-33zM223 496h635l-211 563q-71 192 -104 299h-2q-15 -50 -107 -297zM483 1542l248 279h37l-252 -279h-33z" />
<glyph unicode="&#xc2;" horiz-adv-x="1083" d="M10 0l516 1393h31l516 -1393h-33l-172 467h-655l-170 -467h-33zM223 496h635l-211 563q-71 192 -104 299h-2q-15 -50 -107 -297zM309 1542l232 279h34l228 -279h-35l-211 258l-213 -258h-35z" />
<glyph unicode="&#xc3;" horiz-adv-x="1083" d="M10 0h33l170 467h655l172 -467h33l-516 1393h-31zM223 496l211 565q92 247 107 297h2q33 -107 104 -299l211 -563h-635zM258 1587q13 53 49 92t99 39q57 0 157 -51q96 -49 148 -49q85 0 125 96l24 -10q-41 -113 -149 -113q-62 0 -158 49q-44 21 -61.5 29t-41.5 15.5 t-44 7.5q-85 0 -119 -113z" />
<glyph unicode="&#xc4;" horiz-adv-x="1083" d="M10 0h33l170 467h655l172 -467h33l-516 1393h-31zM223 496l211 565q92 247 107 297h2q33 -107 104 -299l211 -563h-635zM332 1591v199h30v-199h-30zM721 1591v199h31v-199h-31z" />
<glyph unicode="&#xc5;" horiz-adv-x="1101" d="M10 0h33l170 467h655l172 -467h33l-516 1393h-31zM223 496l211 565q92 247 107 297h2q33 -107 104 -299l211 -563h-635zM385 1686q0 67 46 111t112 44q65 0 110 -44t45 -111t-45 -111.5t-110 -44.5t-111.5 44.5t-46.5 111.5zM414 1686q0 -54 38 -92t91 -38t90 38t37 92 t-37 91.5t-90 37.5t-91 -37.5t-38 -91.5z" />
<glyph unicode="&#xc6;" horiz-adv-x="1724" d="M-72 0l846 1393h825v-29h-782v-629h709v-28h-709v-678h825v-29h-856v473h-538l-287 -473h-33zM264 502h522v497l5 367h-3q-106 -178 -190 -317z" />
<glyph unicode="&#xc7;" horiz-adv-x="1294" d="M123 696q0 331 150 526t417 195q359 0 500 -340l-25 -28q-66 165 -181 252.5t-294 87.5q-252 0 -394 -187t-142 -506q0 -318 142.5 -505t393.5 -187q173 0 299.5 94t190.5 260l22 -24q-69 -169 -197 -262.5t-309 -96.5l-75 -81l2 -3q36 9 61 9q65 0 111.5 -37.5 t46.5 -106.5q0 -74 -50.5 -112.5t-127.5 -38.5q-50 0 -93 14l11 29q47 -15 82 -15q62 0 104.5 31.5t42.5 91.5q0 59 -40 87t-97 28q-46 0 -86 -16l-17 22l93 100q-259 9 -400 201.5t-141 517.5z" />
<glyph unicode="&#xc8;" horiz-adv-x="1120" d="M178 0v1393h826v-29h-795v-629h721v-28h-721v-678h838v-29h-869zM360 1821h37l248 -279h-33z" />
<glyph unicode="&#xc9;" horiz-adv-x="1120" d="M178 0v1393h826v-29h-795v-629h721v-28h-721v-678h838v-29h-869zM483 1542l248 279h37l-252 -279h-33z" />
<glyph unicode="&#xca;" horiz-adv-x="1120" d="M178 0v1393h826v-29h-795v-629h721v-28h-721v-678h838v-29h-869zM358 1542l232 279h35l227 -279h-35l-211 258l-213 -258h-35z" />
<glyph unicode="&#xcb;" horiz-adv-x="1120" d="M178 0v1393h826v-29h-795v-629h721v-28h-721v-678h838v-29h-869zM391 1591v199h31v-199h-31zM780 1591v199h31v-199h-31z" />
<glyph unicode="&#xcc;" horiz-adv-x="387" d="M-49 1821h37l248 -279h-33zM178 0v1393h31v-1393h-31z" />
<glyph unicode="&#xcd;" horiz-adv-x="387" d="M174 1542l248 279h37l-252 -279h-33zM178 0v1393h31v-1393h-31z" />
<glyph unicode="&#xce;" horiz-adv-x="387" d="M-51 1542l231 279h35l227 -279h-34l-211 258l-213 -258h-35zM178 0v1393h31v-1393h-31z" />
<glyph unicode="&#xcf;" horiz-adv-x="387" d="M-16 1591v199h30v-199h-30zM178 0v1393h31v-1393h-31zM373 1591v199h30v-199h-30z" />
<glyph unicode="&#xd0;" horiz-adv-x="1325" d="M4 715v28h174v650h285q188 0 292.5 -16.5t192.5 -78.5q119 -85 188.5 -239t69.5 -361q0 -179 -58 -337t-179 -250q-72 -55 -163.5 -83t-248.5 -28h-379v715h-174zM209 29h360q160 0 258 39q118 45 197 144t113 220.5t34 265.5q0 366 -213 551q-83 73 -189 94t-304 21 h-256v-621h549v-28h-549v-686z" />
<glyph unicode="&#xd1;" horiz-adv-x="1286" d="M178 0v1393h41l748 -1172l110 -180h2q0 18 -1 82.5t-1 120.5v1149h31v-1393h-39l-747 1174l-115 186h-2q4 -122 4 -197v-1163h-31zM356 1587q13 53 49 92t99 39q58 0 158 -51q96 -49 147 -49q85 0 125 96l24 -10q-41 -113 -149 -113q-62 0 -158 49q-44 21 -61.5 29 t-41.5 15.5t-44 7.5q-85 0 -119 -113z" />
<glyph unicode="&#xd2;" horiz-adv-x="1380" d="M123 696q0 331 150 526t417 195q268 0 417.5 -195t149.5 -526q0 -333 -147.5 -527t-419.5 -194q-271 0 -419 194t-148 527zM154 696q0 -319 141 -505.5t395 -186.5q255 0 396 186.5t141 505.5q0 318 -140.5 505.5t-396.5 187.5q-255 0 -395.5 -187.5t-140.5 -505.5z M504 1821h37l247 -279h-32z" />
<glyph unicode="&#xd3;" horiz-adv-x="1380" d="M123 696q0 331 150 526t417 195q268 0 417.5 -195t149.5 -526q0 -333 -147.5 -527t-419.5 -194q-271 0 -419 194t-148 527zM154 696q0 -319 141 -505.5t395 -186.5q255 0 396 186.5t141 505.5q0 318 -140.5 505.5t-396.5 187.5q-255 0 -395.5 -187.5t-140.5 -505.5z M602 1542l248 279h37l-252 -279h-33z" />
<glyph unicode="&#xd4;" horiz-adv-x="1380" d="M123 696q0 331 150 526t417 195q268 0 417.5 -195t149.5 -526q0 -333 -147.5 -527t-419.5 -194q-271 0 -419 194t-148 527zM154 696q0 -319 141 -505.5t395 -186.5q255 0 396 186.5t141 505.5q0 318 -140.5 505.5t-396.5 187.5q-255 0 -395.5 -187.5t-140.5 -505.5z M449 1542l231 279h35l227 -279h-35l-211 258l-213 -258h-34z" />
<glyph unicode="&#xd5;" horiz-adv-x="1380" d="M123 696q0 331 150 526t417 195q268 0 417.5 -195t149.5 -526q0 -333 -147.5 -527t-419.5 -194q-271 0 -419 194t-148 527zM154 696q0 -319 141 -505.5t395 -186.5q255 0 396 186.5t141 505.5q0 318 -140.5 505.5t-396.5 187.5q-255 0 -395.5 -187.5t-140.5 -505.5z M403 1587q13 53 49 92t99 39q58 0 158 -51q96 -49 147 -49q85 0 125 96l25 -10q-41 -113 -150 -113q-62 0 -158 49q-44 21 -61.5 29t-41.5 15.5t-44 7.5q-85 0 -119 -113z" />
<glyph unicode="&#xd6;" horiz-adv-x="1380" d="M123 696q0 331 150 526t417 195q268 0 417.5 -195t149.5 -526q0 -333 -147.5 -527t-419.5 -194q-271 0 -419 194t-148 527zM154 696q0 -319 141 -505.5t395 -186.5q255 0 396 186.5t141 505.5q0 318 -140.5 505.5t-396.5 187.5q-255 0 -395.5 -187.5t-140.5 -505.5z M485 1591v199h31v-199h-31zM874 1591v199h31v-199h-31z" />
<glyph unicode="&#xd7;" horiz-adv-x="1583" d="M293 133l485 485l-485 488l18 20l486 -489l487 489l21 -20l-488 -488l488 -487l-19 -18l-487 487l-488 -487z" />
<glyph unicode="&#xd8;" horiz-adv-x="1380" d="M51 -23l199 222q-127 186 -127 497q0 331 150 526t417 195q146 0 259 -60.5t186 -172.5l194 217l21 -19l-201 -223q108 -182 108 -463q0 -333 -147.5 -527t-419.5 -194q-276 0 -426 201l-192 -215zM154 696q0 -293 118 -473l842 938q-69 109 -176.5 168.5t-247.5 59.5 q-255 0 -395.5 -187.5t-140.5 -505.5zM287 201q145 -197 403 -197q255 0 396 186.5t141 505.5q0 257 -99 441z" />
<glyph unicode="&#xd9;" horiz-adv-x="1323" d="M164 516v877h31v-842q0 -128 13.5 -204t43.5 -138q102 -209 410 -209q307 0 409 209q30 62 43.5 138t13.5 204v842h31v-877q0 -196 -53 -313q-105 -232 -444 -232q-340 0 -445 232q-53 117 -53 313zM457 1821h37l247 -279h-32z" />
<glyph unicode="&#xda;" horiz-adv-x="1323" d="M164 516v877h31v-842q0 -128 13.5 -204t43.5 -138q102 -209 410 -209q307 0 409 209q30 62 43.5 138t13.5 204v842h31v-877q0 -196 -53 -313q-105 -232 -444 -232q-340 0 -445 232q-53 117 -53 313zM524 1542l248 279h37l-252 -279h-33z" />
<glyph unicode="&#xdb;" horiz-adv-x="1323" d="M164 516v877h31v-842q0 -128 13.5 -204t43.5 -138q102 -209 410 -209q307 0 409 209q30 62 43.5 138t13.5 204v842h31v-877q0 -196 -53 -313q-105 -232 -444 -232q-340 0 -445 232q-53 117 -53 313zM420 1542l231 279h35l227 -279h-34l-211 258l-213 -258h-35z" />
<glyph unicode="&#xdc;" horiz-adv-x="1323" d="M164 516v877h31v-842q0 -128 13.5 -204t43.5 -138q102 -209 410 -209q307 0 409 209q30 62 43.5 138t13.5 204v842h31v-877q0 -196 -53 -313q-105 -232 -444 -232q-340 0 -445 232q-53 117 -53 313zM455 1591v199h30v-199h-30zM844 1591v199h30v-199h-30z" />
<glyph unicode="&#xdd;" horiz-adv-x="1001" d="M-10 1393h33l475 -768l481 768h33l-502 -799l2 -594h-31v594zM465 1542l248 279h37l-252 -279h-33z" />
<glyph unicode="&#xde;" horiz-adv-x="1173" d="M178 0v1391h31v-203h407q135 0 222 -19q128 -27 203 -119t75 -235q0 -213 -164 -309q-58 -33 -135 -49.5t-203 -16.5h-405v-440h-31zM209 469h414q106 0 180 13t135 48q69 39 108 112.5t39 172.5q0 120 -59.5 202.5t-163.5 115.5q-77 26 -260 26h-393v-690z" />
<glyph unicode="&#xdf;" horiz-adv-x="987" d="M164 0v1012q0 195 67 291q78 112 265 112q160 0 242.5 -83t82.5 -220q0 -153 -71.5 -221t-198.5 -78v-2q53 -1 96.5 -10.5t88.5 -36t75.5 -69t50 -114.5t19.5 -167q0 -231 -71 -329.5t-218 -98.5q-142 0 -195 82q-25 41 -34 94t-9 160v20h31q0 -51 1 -80.5t5 -69.5 t12 -62.5t23.5 -48t37.5 -38.5t54.5 -22t75.5 -9q139 0 197.5 98t58.5 306q0 112 -25 187t-78 117.5t-124.5 59.5t-176.5 17h-84v28h80q179 0 264 64t85 223q0 128 -75.5 201t-219.5 73q-184 0 -250 -116q-24 -41 -36 -105t-13.5 -110.5t-1.5 -134.5v-920h-31z" />
<glyph unicode="&#xe0;" horiz-adv-x="958" d="M98 260q0 114 70 178q41 36 96.5 58t151.5 39l252 45q49 8 66.5 21.5t17.5 51.5v49q0 131 -67 199t-222 68q-153 0 -234 -71.5t-84 -205.5l-28 17q3 138 95.5 213t250.5 75t238.5 -70t80.5 -231v-524q0 -98 31 -131q27 -27 84 -27q36 0 57 6v-28q-24 -6 -61 -6 q-80 0 -110.5 41t-30.5 125q0 52 6 116h-2q-8 -57 -33.5 -108t-68 -93t-108.5 -67t-147 -25q-143 0 -222 78.5t-79 206.5zM129 260q0 -118 75 -187t202 -69q165 0 255.5 111.5t90.5 292.5v170q-5 -4 -12.5 -7.5t-19 -6.5t-20.5 -5.5t-26 -6t-26.5 -5t-29.5 -5.5t-28 -5 l-144 -25q-95 -16 -156.5 -36.5t-101.5 -59.5q-59 -56 -59 -156zM264 1393h37l248 -279h-33z" />
<glyph unicode="&#xe1;" horiz-adv-x="958" d="M98 260q0 114 70 178q41 36 96.5 58t151.5 39l252 45q49 8 66.5 21.5t17.5 51.5v49q0 131 -67 199t-222 68q-153 0 -234 -71.5t-84 -205.5l-28 17q3 138 95.5 213t250.5 75t238.5 -70t80.5 -231v-524q0 -98 31 -131q27 -27 84 -27q36 0 57 6v-28q-24 -6 -61 -6 q-80 0 -110.5 41t-30.5 125q0 52 6 116h-2q-8 -57 -33.5 -108t-68 -93t-108.5 -67t-147 -25q-143 0 -222 78.5t-79 206.5zM129 260q0 -118 75 -187t202 -69q165 0 255.5 111.5t90.5 292.5v170q-5 -4 -12.5 -7.5t-19 -6.5t-20.5 -5.5t-26 -6t-26.5 -5t-29.5 -5.5t-28 -5 l-144 -25q-95 -16 -156.5 -36.5t-101.5 -59.5q-59 -56 -59 -156zM383 1114l248 279h37l-252 -279h-33z" />
<glyph unicode="&#xe2;" horiz-adv-x="958" d="M98 260q0 114 70 178q41 36 96.5 58t151.5 39l252 45q49 8 66.5 21.5t17.5 51.5v49q0 131 -67 199t-222 68q-153 0 -234 -71.5t-84 -205.5l-28 17q3 138 95.5 213t250.5 75t238.5 -70t80.5 -231v-524q0 -98 31 -131q27 -27 84 -27q36 0 57 6v-28q-24 -6 -61 -6 q-80 0 -110.5 41t-30.5 125q0 52 6 116h-2q-8 -57 -33.5 -108t-68 -93t-108.5 -67t-147 -25q-143 0 -222 78.5t-79 206.5zM129 260q0 -118 75 -187t202 -69q165 0 255.5 111.5t90.5 292.5v170q-5 -4 -12.5 -7.5t-19 -6.5t-20.5 -5.5t-26 -6t-26.5 -5t-29.5 -5.5t-28 -5 l-144 -25q-95 -16 -156.5 -36.5t-101.5 -59.5q-59 -56 -59 -156zM223 1114l232 279h34l228 -279h-35l-211 258l-213 -258h-35z" />
<glyph unicode="&#xe3;" horiz-adv-x="958" d="M98 260q0 114 70 178q41 36 96.5 58t151.5 39l252 45q49 8 66.5 21.5t17.5 51.5v49q0 131 -67 199t-222 68q-153 0 -234 -71.5t-84 -205.5l-28 17q3 138 95.5 213t250.5 75t238.5 -70t80.5 -231v-524q0 -98 31 -131q27 -27 84 -27q36 0 57 6v-28q-24 -6 -61 -6 q-80 0 -110.5 41t-30.5 125q0 52 6 116h-2q-8 -57 -33.5 -108t-68 -93t-108.5 -67t-147 -25q-143 0 -222 78.5t-79 206.5zM129 260q0 -118 75 -187t202 -69q165 0 255.5 111.5t90.5 292.5v170q-5 -4 -12.5 -7.5t-19 -6.5t-20.5 -5.5t-26 -6t-26.5 -5t-29.5 -5.5t-28 -5 l-144 -25q-95 -16 -156.5 -36.5t-101.5 -59.5q-59 -56 -59 -156zM180 1155q13 53 49 92t99 39q57 0 157 -51q96 -49 148 -49q85 0 125 96l24 -10q-41 -113 -149 -113q-62 0 -158 49q-44 21 -61.5 29t-41.5 15.5t-44 7.5q-85 0 -119 -113z" />
<glyph unicode="&#xe4;" horiz-adv-x="958" d="M98 260q0 114 70 178q41 36 96.5 58t151.5 39l252 45q49 8 66.5 21.5t17.5 51.5v49q0 131 -67 199t-222 68q-153 0 -234 -71.5t-84 -205.5l-28 17q3 138 95.5 213t250.5 75t238.5 -70t80.5 -231v-524q0 -98 31 -131q27 -27 84 -27q36 0 57 6v-28q-24 -6 -61 -6 q-80 0 -110.5 41t-30.5 125q0 52 6 116h-2q-8 -57 -33.5 -108t-68 -93t-108.5 -67t-147 -25q-143 0 -222 78.5t-79 206.5zM129 260q0 -118 75 -187t202 -69q165 0 255.5 111.5t90.5 292.5v170q-5 -4 -12.5 -7.5t-19 -6.5t-20.5 -5.5t-26 -6t-26.5 -5t-29.5 -5.5t-28 -5 l-144 -25q-95 -16 -156.5 -36.5t-101.5 -59.5q-59 -56 -59 -156zM274 1147v199h31v-199h-31zM649 1147v199h31v-199h-31z" />
<glyph unicode="&#xe5;" horiz-adv-x="958" d="M98 260q0 114 70 178q41 36 96.5 58t151.5 39l252 45q49 8 66.5 21.5t17.5 51.5v49q0 131 -67 199t-222 68q-153 0 -234 -71.5t-84 -205.5l-28 17q3 138 95.5 213t250.5 75t238.5 -70t80.5 -231v-524q0 -98 31 -131q27 -27 84 -27q36 0 57 6v-28q-24 -6 -61 -6 q-80 0 -110.5 41t-30.5 125q0 52 6 116h-2q-8 -57 -33.5 -108t-68 -93t-108.5 -67t-147 -25q-143 0 -222 78.5t-79 206.5zM129 260q0 -118 75 -187t202 -69q165 0 255.5 111.5t90.5 292.5v170q-5 -4 -12.5 -7.5t-19 -6.5t-20.5 -5.5t-26 -6t-26.5 -5t-29.5 -5.5t-28 -5 l-144 -25q-95 -16 -156.5 -36.5t-101.5 -59.5q-59 -56 -59 -156zM313 1260q0 67 46 111t112 44q65 0 110.5 -44t45.5 -111t-45.5 -111.5t-110.5 -44.5t-111.5 44.5t-46.5 111.5zM342 1260q0 -54 38 -92t91 -38t90 38t37 92t-37 91.5t-90 37.5t-91 -37.5t-38 -91.5z" />
<glyph unicode="&#xe6;" horiz-adv-x="1658" d="M98 260q0 114 70 178q41 36 96.5 58t151.5 39l252 45q49 8 66.5 21.5t17.5 51.5v49q0 131 -67 199t-222 68q-153 0 -234 -71.5t-84 -205.5l-28 17q3 138 95.5 213t250.5 75t239.5 -71t75.5 -236h2q29 134 128 221.5t245 87.5q187 0 295 -129t108 -358h-778v-12 q0 -231 103 -363.5t290 -132.5q245 0 351 260l24 -24q-118 -265 -377 -265q-161 0 -262 90t-135 257h-2q-20 -157 -115 -252t-256 -95q-143 0 -222 78.5t-79 206.5zM129 260q0 -118 75 -187t202 -69q165 0 255.5 111.5t90.5 292.5v170q-5 -4 -12.5 -7.5t-19 -6.5t-20.5 -5.5 t-26 -6t-26.5 -5t-29.5 -5.5t-28 -5l-144 -25q-95 -16 -156.5 -36.5t-101.5 -59.5q-59 -56 -59 -156zM778 541h746q-6 203 -106.5 316.5t-264.5 113.5q-161 0 -262.5 -118t-112.5 -312z" />
<glyph unicode="&#xe7;" horiz-adv-x="972" d="M106 481q0 236 109 377t307 141q134 0 231 -66.5t142 -182.5l-25 -29q-41 118 -133.5 184t-214.5 66q-176 0 -280.5 -131.5t-104.5 -356.5q0 -222 107 -350.5t278 -128.5q120 0 208.5 61.5t133.5 170.5l27 -25q-52 -111 -144.5 -173t-218.5 -63l-75 -81l2 -3q36 9 61 9 q65 0 111.5 -37.5t46.5 -106.5q0 -74 -50.5 -112.5t-127.5 -38.5q-50 0 -93 14l11 29q47 -15 82 -15q62 0 104.5 31.5t42.5 91.5q0 59 -40 87t-97 28q-46 0 -86 -16l-17 22l91 98q-183 10 -285.5 147t-102.5 359z" />
<glyph unicode="&#xe8;" horiz-adv-x="1040" d="M106 496q0 225 114 364t302 139q189 0 302.5 -130t113.5 -357h-801v-12q0 -230 108 -363t296 -133q136 0 226 73t136 187l25 -24q-52 -116 -148.5 -190.5t-240.5 -74.5q-197 0 -315 138t-118 383zM137 541h768q-6 201 -112 315.5t-271 114.5q-162 0 -268 -119t-117 -311z M326 1393h36l248 -279h-32z" />
<glyph unicode="&#xe9;" horiz-adv-x="1040" d="M106 496q0 225 114 364t302 139q189 0 302.5 -130t113.5 -357h-801v-12q0 -230 108 -363t296 -133q136 0 226 73t136 187l25 -24q-52 -116 -148.5 -190.5t-240.5 -74.5q-197 0 -315 138t-118 383zM137 541h768q-6 201 -112 315.5t-271 114.5q-162 0 -268 -119t-117 -311z M424 1114l248 279h37l-252 -279h-33z" />
<glyph unicode="&#xea;" horiz-adv-x="1040" d="M106 496q0 225 114 364t302 139q189 0 302.5 -130t113.5 -357h-801v-12q0 -230 108 -363t296 -133q136 0 226 73t136 187l25 -24q-52 -116 -148.5 -190.5t-240.5 -74.5q-197 0 -315 138t-118 383zM137 541h768q-6 201 -112 315.5t-271 114.5q-162 0 -268 -119t-117 -311z M279 1114l231 279h35l227 -279h-35l-211 258l-213 -258h-34z" />
<glyph unicode="&#xeb;" horiz-adv-x="1040" d="M106 496q0 225 114 364t302 139q189 0 302.5 -130t113.5 -357h-801v-12q0 -230 108 -363t296 -133q136 0 226 73t136 187l25 -24q-52 -116 -148.5 -190.5t-240.5 -74.5q-197 0 -315 138t-118 383zM137 541h768q-6 201 -112 315.5t-271 114.5q-162 0 -268 -119t-117 -311z M319 1147v199h31v-199h-31zM694 1147v199h31v-199h-31z" />
<glyph unicode="&#xec;" horiz-adv-x="378" d="M-61 1393h36l248 -279h-33zM174 0v975h31v-975h-31z" />
<glyph unicode="&#xed;" horiz-adv-x="378" d="M160 1114l248 279h36l-251 -279h-33zM174 0v975h31v-975h-31z" />
<glyph unicode="&#xee;" horiz-adv-x="378" d="M-51 1114l231 279h35l227 -279h-34l-211 258l-213 -258h-35zM174 0v975h31v-975h-31z" />
<glyph unicode="&#xef;" horiz-adv-x="378" d="M-14 1147v199h30v-199h-30zM174 0v975h31v-975h-31zM360 1147v199h31v-199h-31z" />
<glyph unicode="&#xf0;" horiz-adv-x="1095" d="M123 481q0 236 108.5 377t307.5 141q291 0 383 -305l2 2q-51 335 -191 568l-393 -129l-10 26l389 127q-32 51 -88 125l26 17q54 -70 91 -132l200 66l10 -27l-194 -65q192 -335 192 -752q0 -263 -108 -404t-309 -141q-196 0 -306 138t-110 368zM154 483 q0 -226 106.5 -352.5t278.5 -126.5q174 0 280.5 126t106.5 353q0 229 -105.5 358.5t-281.5 129.5q-173 0 -279 -130t-106 -358z" />
<glyph unicode="&#xf1;" horiz-adv-x="1058" d="M174 0v975h31v-115l-4 -164h2q5 50 30.5 101.5t69 97.5t113 75t151.5 29q96 0 161.5 -30t101 -89.5t50.5 -135t15 -179.5v-565h-31v530q0 66 -3.5 115.5t-14 103t-31.5 91t-53 69t-82 47t-115 15.5q-167 0 -263.5 -119.5t-96.5 -302.5v-549h-31zM250 1155 q13 54 48.5 92.5t98.5 38.5q58 0 158 -51q96 -49 147 -49q85 0 125 96l25 -10q-41 -113 -150 -113q-61 0 -157 49q-42 21 -61.5 29.5t-43 15.5t-43.5 7q-50 0 -76.5 -31.5t-41.5 -81.5z" />
<glyph unicode="&#xf2;" horiz-adv-x="1046" d="M106 481q0 236 108.5 377t307.5 141q200 0 309 -141t109 -377q0 -230 -110 -368t-308 -138q-196 0 -306 138t-110 368zM137 483q0 -226 106.5 -352.5t278.5 -126.5q174 0 280.5 126t106.5 353q0 229 -105.5 358.5t-281.5 129.5q-173 0 -279 -130t-106 -358zM324 1393h36 l248 -279h-33z" />
<glyph unicode="&#xf3;" horiz-adv-x="1046" d="M106 481q0 236 108.5 377t307.5 141q200 0 309 -141t109 -377q0 -230 -110 -368t-308 -138q-196 0 -306 138t-110 368zM137 483q0 -226 106.5 -352.5t278.5 -126.5q174 0 280.5 126t106.5 353q0 229 -105.5 358.5t-281.5 129.5q-173 0 -279 -130t-106 -358zM408 1114 l247 279h37l-252 -279h-32z" />
<glyph unicode="&#xf4;" horiz-adv-x="1046" d="M106 481q0 236 108.5 377t307.5 141q200 0 309 -141t109 -377q0 -230 -110 -368t-308 -138q-196 0 -306 138t-110 368zM137 483q0 -226 106.5 -352.5t278.5 -126.5q174 0 280.5 126t106.5 353q0 229 -105.5 358.5t-281.5 129.5q-173 0 -279 -130t-106 -358zM276 1114 l232 279h35l227 -279h-35l-211 258l-213 -258h-35z" />
<glyph unicode="&#xf5;" horiz-adv-x="1046" d="M106 481q0 236 108.5 377t307.5 141q200 0 309 -141t109 -377q0 -230 -110 -368t-308 -138q-196 0 -306 138t-110 368zM137 483q0 -226 106.5 -352.5t278.5 -126.5q174 0 280.5 126t106.5 353q0 229 -105.5 358.5t-281.5 129.5q-173 0 -279 -130t-106 -358zM231 1155 q13 53 49 92t99 39q58 0 158 -51q96 -49 147 -49q85 0 125 96l25 -10q-41 -113 -150 -113q-62 0 -158 49q-44 21 -61.5 29t-41.5 15.5t-44 7.5q-85 0 -119 -113z" />
<glyph unicode="&#xf6;" horiz-adv-x="1046" d="M106 481q0 236 108.5 377t307.5 141q200 0 309 -141t109 -377q0 -230 -110 -368t-308 -138q-196 0 -306 138t-110 368zM137 483q0 -226 106.5 -352.5t278.5 -126.5q174 0 280.5 126t106.5 353q0 229 -105.5 358.5t-281.5 129.5q-173 0 -279 -130t-106 -358zM324 1147v199 h30v-199h-30zM698 1147v199h31v-199h-31z" />
<glyph unicode="&#xf7;" horiz-adv-x="1583" d="M102 479v29h1379v-29h-1379zM776 0v233h31v-233h-31zM776 741v234h31v-234h-31z" />
<glyph unicode="&#xf8;" horiz-adv-x="1046" d="M106 481q0 236 108.5 377t307.5 141q190 0 303 -135l107 140l22 -17l-112 -145q98 -134 98 -361q0 -230 -110 -368t-308 -138q-165 0 -272 101l-105 -137l-20 16l106 139q-125 134 -125 387zM137 483q0 -237 115 -364l553 721q-106 131 -283 131q-173 0 -279 -130 t-106 -358zM270 100q101 -96 252 -96q174 0 280.5 126t106.5 353q0 201 -88 332z" />
<glyph unicode="&#xf9;" horiz-adv-x="1040" d="M156 410v565h30v-531q0 -57 2 -99.5t9.5 -90.5t20 -82.5t35 -68t53 -54t75 -33t100.5 -12.5q166 0 260.5 119t94.5 303v549h30v-975h-30v115l4 164h-2q-4 -39 -19.5 -80t-46 -81.5t-70.5 -72t-98 -51t-125 -19.5q-96 0 -160.5 30t-99.5 90.5t-49 135t-14 179.5zM315 1393 h37l248 -279h-33z" />
<glyph unicode="&#xfa;" horiz-adv-x="1040" d="M156 410v565h30v-531q0 -57 2 -99.5t9.5 -90.5t20 -82.5t35 -68t53 -54t75 -33t100.5 -12.5q166 0 260.5 119t94.5 303v549h30v-975h-30v115l4 164h-2q-4 -39 -19.5 -80t-46 -81.5t-70.5 -72t-98 -51t-125 -19.5q-96 0 -160.5 30t-99.5 90.5t-49 135t-14 179.5zM387 1114 l248 279h37l-252 -279h-33z" />
<glyph unicode="&#xfb;" horiz-adv-x="1040" d="M156 410v565h30v-531q0 -57 2 -99.5t9.5 -90.5t20 -82.5t35 -68t53 -54t75 -33t100.5 -12.5q166 0 260.5 119t94.5 303v549h30v-975h-30v115l4 164h-2q-4 -39 -19.5 -80t-46 -81.5t-70.5 -72t-98 -51t-125 -19.5q-96 0 -160.5 30t-99.5 90.5t-49 135t-14 179.5zM266 1114 l232 279h34l228 -279h-35l-211 258l-213 -258h-35z" />
<glyph unicode="&#xfc;" horiz-adv-x="1040" d="M156 410v565h30v-531q0 -57 2 -99.5t9.5 -90.5t20 -82.5t35 -68t53 -54t75 -33t100.5 -12.5q166 0 260.5 119t94.5 303v549h30v-975h-30v115l4 164h-2q-4 -39 -19.5 -80t-46 -81.5t-70.5 -72t-98 -51t-125 -19.5q-96 0 -160.5 30t-99.5 90.5t-49 135t-14 179.5zM311 1147 v199h31v-199h-31zM686 1147v199h31v-199h-31z" />
<glyph unicode="&#xfd;" horiz-adv-x="790" d="M18 -352q30 -19 84 -19q81 0 129 60q34 42 76 147l72 184l-348 955h32l252 -692l80 -226h2q21 66 86 232l267 686h30l-424 -1094q-53 -136 -82 -184q-59 -96 -174 -96q-55 0 -82 16v31zM356 1114l248 279h37l-252 -279h-33z" />
<glyph unicode="&#xfe;" horiz-adv-x="1071" d="M174 -389v1782h31v-572l-4 -153h2q6 42 21.5 85t46 88t70 79.5t98 56.5t126.5 22q187 0 293.5 -136t106.5 -371q0 -237 -108.5 -377t-293.5 -140q-85 0 -153 31.5t-109.5 82.5t-65.5 105t-32 109h-2q4 -94 4 -153v-539h-31zM203 487q0 -225 98 -354t262 -129 q168 0 269.5 132t101.5 356q0 221 -100.5 350t-268.5 129q-164 0 -263 -131t-99 -353z" />
<glyph unicode="&#xff;" horiz-adv-x="790" d="M18 -352q30 -19 84 -19q81 0 129 60q34 42 76 147l72 184l-348 955h32l252 -692l80 -226h2q21 66 86 232l267 686h30l-424 -1094q-53 -136 -82 -184q-59 -96 -174 -96q-55 0 -82 16v31zM213 1147v199h31v-199h-31zM588 1147v199h30v-199h-30z" />
<glyph unicode="&#x152;" horiz-adv-x="2021" d="M123 692q0 185 56 326t156.5 227t231 129t287.5 43q105 0 225 -24h828v-29h-793v-629h719v-28h-719v-678h834v-29h-867q-128 -25 -233 -25q-122 0 -228.5 25t-198.5 80.5t-157.5 138t-103 203.5t-37.5 270zM154 692q0 -217 87 -373.5t241.5 -235.5t361.5 -79 q121 0 237 27v1329q-107 24 -229 24q-117 0 -219 -24.5t-191 -78.5t-152.5 -133.5t-99.5 -196t-36 -259.5z" />
<glyph unicode="&#x153;" horiz-adv-x="1818" d="M106 481q0 237 105.5 377.5t304.5 140.5q164 0 264.5 -96.5t130.5 -263.5q32 165 135 262.5t261 97.5q188 0 298.5 -129.5t110.5 -357.5h-790v-35q5 -221 110 -347t289 -126q135 0 222 72.5t134 187.5l25 -24q-52 -117 -146 -191t-237 -74q-164 0 -270.5 95.5 t-139.5 267.5q-30 -168 -130.5 -265.5t-266.5 -97.5q-196 0 -303 137.5t-107 368.5zM137 483q0 -227 104 -353t275 -126q176 0 278.5 125.5t102.5 353.5v13q-3 224 -105 349.5t-276 125.5q-176 0 -277.5 -129t-101.5 -359zM926 541h757q-6 202 -109 316t-267 114 q-162 0 -266 -118.5t-115 -311.5z" />
<glyph unicode="&#x178;" horiz-adv-x="1001" d="M-10 1393h33l475 -768l481 768h33l-502 -799l2 -594h-31v594zM289 1591v199h30v-199h-30zM678 1591v199h31v-199h-31z" />
<glyph unicode="&#x2c6;" horiz-adv-x="962" d="M240 1114l231 279h35l227 -279h-35l-211 258l-213 -258h-34z" />
<glyph unicode="&#x2dc;" horiz-adv-x="962" d="M188 1155q13 53 49 92t99 39q58 0 158 -51q96 -49 147 -49q85 0 125 96l25 -10q-41 -113 -150 -113q-62 0 -158 49q-44 21 -61.5 29t-41.5 15.5t-44 7.5q-85 0 -119 -113z" />
<glyph unicode="&#x2000;" horiz-adv-x="920" />
<glyph unicode="&#x2001;" horiz-adv-x="1841" />
<glyph unicode="&#x2002;" horiz-adv-x="920" />
<glyph unicode="&#x2003;" horiz-adv-x="1841" />
<glyph unicode="&#x2004;" horiz-adv-x="613" />
<glyph unicode="&#x2005;" horiz-adv-x="460" />
<glyph unicode="&#x2006;" horiz-adv-x="306" />
<glyph unicode="&#x2007;" horiz-adv-x="306" />
<glyph unicode="&#x2008;" horiz-adv-x="230" />
<glyph unicode="&#x2009;" horiz-adv-x="368" />
<glyph unicode="&#x200a;" horiz-adv-x="102" />
<glyph unicode="&#x2010;" horiz-adv-x="690" d="M61 535v28h568v-28h-568z" />
<glyph unicode="&#x2011;" horiz-adv-x="690" d="M61 535v28h568v-28h-568z" />
<glyph unicode="&#x2012;" horiz-adv-x="690" d="M61 535v28h568v-28h-568z" />
<glyph unicode="&#x2013;" horiz-adv-x="1327" d="M143 541v28h1041v-28h-1041z" />
<glyph unicode="&#x2014;" horiz-adv-x="1579" d="M74 541v28h1431v-28h-1431z" />
<glyph unicode="&#x2018;" horiz-adv-x="274" d="M113 854v293q0 116 15.5 174t64.5 92v-39q-50 -50 -50 -203v-317h-30z" />
<glyph unicode="&#x2019;" horiz-adv-x="274" d="M82 834v38q49 49 49 203v318h31v-293q0 -116 -15.5 -174t-64.5 -92z" />
<glyph unicode="&#x201a;" horiz-adv-x="487" d="M74 -287q49 49 49 203v317h31v-292q0 -116 -16 -174.5t-64 -92.5v39zM285 -287q49 49 49 203v317h31v-292q0 -116 -16 -174.5t-64 -92.5v39z" />
<glyph unicode="&#x201c;" horiz-adv-x="485" d="M113 854v293q0 116 15.5 174t64.5 92v-39q-50 -50 -50 -203v-317h-30zM324 854v293q0 117 15.5 175t63.5 91v-39q-49 -49 -49 -203v-317h-30z" />
<glyph unicode="&#x201d;" horiz-adv-x="485" d="M82 834v38q49 49 49 203v318h31v-293q0 -116 -15.5 -174t-64.5 -92zM293 834v38q49 49 49 203v318h31v-293q0 -116 -15.5 -174t-64.5 -92z" />
<glyph unicode="&#x201e;" horiz-adv-x="280" d="M78 -287q49 49 49 203v317h31v-292q0 -116 -16 -174.5t-64 -92.5v39z" />
<glyph unicode="&#x2022;" horiz-adv-x="323" d="M82 700q0 32 23 55t55 23q34 0 58 -23t24 -55q0 -33 -24 -56t-58 -23q-32 0 -55 22.5t-23 56.5z" />
<glyph unicode="&#x2026;" horiz-adv-x="1677" d="M123 0v233h31v-233h-31zM823 0v233h31v-233h-31zM1524 0v233h30v-233h-30z" />
<glyph unicode="&#x202f;" horiz-adv-x="368" />
<glyph unicode="&#x2039;" horiz-adv-x="423" d="M61 575v19l291 352v-43l-262 -315l262 -322v-43z" />
<glyph unicode="&#x203a;" horiz-adv-x="423" d="M72 223v43l262 322l-262 315v43l290 -352v-19z" />
<glyph unicode="&#x205f;" horiz-adv-x="460" />
<glyph unicode="&#x20ac;" d="M31 514l8 27h151q-6 68 -6 153q0 86 6 154h-155l8 26h152q16 121 52.5 219t94.5 171t142.5 113t189.5 40q302 0 420 -323l-27 -19q-52 150 -151 232t-242 82q-189 0 -305 -136.5t-144 -378.5h594l-10 -26h-588q-6 -64 -6 -154q0 -86 6 -153h490l-11 -27h-475 q34 -244 141.5 -377t307.5 -133q152 0 251 82t146 223l25 -18q-116 -316 -422 -316q-113 0 -200 41t-143 116.5t-88.5 169.5t-47.5 212h-164z" />
<glyph unicode="&#x2122;" horiz-adv-x="1681" d="M25 1364v29h641v-29h-306v-866h-30v866h-305zM864 498v895h47l228 -668l65 -199h2q29 101 62 199l211 668h49v-895h-31v653l2 209h-2q-22 -82 -47 -156l-225 -706h-41l-238 702l-53 160h-2q4 -153 4 -227v-635h-31z" />
<glyph unicode="&#x25fc;" horiz-adv-x="972" d="M0 0v973h973v-973h-973z" />
</font>
</defs>
</svg>
