<?xml version="1.0" standalone="no"?>
<!DOCTYPE svg PUBLIC "-//W3C//DTD SVG 1.1//EN" "http://www.w3.org/Graphics/SVG/1.1/DTD/svg11.dtd" >
<svg xmlns="http://www.w3.org/2000/svg">
<metadata></metadata>
<defs>
<font id="theinhardtbold_italic" horiz-adv-x="1208" >
<font-face units-per-em="2048" ascent="1393" descent="-655" />
<missing-glyph horiz-adv-x="563" />
<glyph unicode="&#xfb01;" horiz-adv-x="1275" d="M82 0l162 764h-162l47 211h162l24 121q24 119 62 180q80 133 334 133q98 0 188 -16l-47 -230q-50 8 -90 8q-85 0 -119 -36q-23 -23 -37 -88l-16 -72h221l-47 -211h-221l-162 -764h-299zM768 0l205 975h301l-207 -975h-299zM999 1100l64 293h301l-64 -293h-301z" />
<glyph unicode="&#xfb02;" horiz-adv-x="1273" d="M82 0l162 764h-162l47 211h162l24 121q24 119 62 180q80 133 334 133q98 0 188 -16l-47 -230q-50 8 -90 8q-85 0 -119 -36q-23 -23 -37 -88l-16 -72h221l-47 -211h-221l-162 -764h-299zM768 0l295 1393h299l-297 -1393h-297z" />
<glyph horiz-adv-x="0" />
<glyph horiz-adv-x="682" />
<glyph unicode=" "  horiz-adv-x="563" />
<glyph unicode="&#x09;" horiz-adv-x="563" />
<glyph unicode="&#xa0;" horiz-adv-x="563" />
<glyph unicode="!" horiz-adv-x="555" d="M51 0l68 324h299l-70 -324h-297zM174 436l55 400l119 557h295l-119 -557l-108 -400h-242z" />
<glyph unicode="&#x22;" horiz-adv-x="931" d="M236 748l43 448l40 197h304l-41 -197l-156 -448h-190zM647 748l43 448l41 197h303l-41 -197l-155 -448h-191z" />
<glyph unicode="#" d="M41 311l16 264h232l45 185h-205l16 262h248l88 371h262l-88 -371h176l87 371h264l-88 -371h190l-16 -262h-234l-45 -185h207l-16 -264h-250l-72 -311h-264l72 311h-174l-72 -311h-264l71 311h-186zM553 575h174l43 185h-174z" />
<glyph unicode="$" d="M12 315l230 177q57 -104 164.5 -172t238.5 -68q100 0 155.5 39t55.5 108q0 29 -12.5 51.5t-41.5 40.5t-51.5 28t-66.5 26l-192 65q-49 17 -88.5 35t-84.5 50t-75 70.5t-50 95.5t-20 126q0 183 145.5 298t364.5 118l35 164h274l-45 -205q198 -70 314 -221l-211 -193 q-68 91 -161.5 141t-197.5 50q-91 0 -145.5 -35t-54.5 -94q0 -57 41 -88.5t120 -57.5l162 -55q62 -21 108.5 -41.5t97.5 -52.5t83.5 -68.5t54 -88.5t21.5 -114q0 -195 -135 -321.5t-390 -132.5l-37 -178h-274l45 215q-134 42 -232 121.5t-145 166.5z" />
<glyph unicode="%" horiz-adv-x="2080" d="M174 881q0 81 16.5 158t51 145.5t83.5 120.5t118.5 82t150.5 30q41 0 80.5 -8.5t82 -31.5t74 -59t52 -97t20.5 -138q0 -79 -17 -157t-51.5 -148.5t-83 -124.5t-117 -86t-147.5 -32q-152 0 -232.5 93t-80.5 253zM412 885q0 -164 82 -164q50 0 88.5 55t57.5 136t19 169 q0 67 -20.5 108.5t-65.5 41.5q-51 0 -89.5 -58.5t-55 -135t-16.5 -152.5zM446 0l1022 1393h261l-1018 -1393h-265zM1294 322q0 81 16.5 158t51 145.5t83.5 120.5t118.5 82t150.5 30q41 0 80.5 -8.5t82 -31.5t74 -59t52 -97t20.5 -138q0 -100 -27.5 -196t-77.5 -175.5 t-131 -128.5t-179 -49q-152 0 -233 93.5t-81 253.5zM1532 326q0 -164 82 -164q50 0 89 54.5t58 136t19 169.5q0 67 -21 108.5t-65 41.5q-39 0 -71 -34t-51 -86.5t-29.5 -111.5t-10.5 -114z" />
<glyph unicode="&#x26;" horiz-adv-x="1343" d="M41 358q0 79 28.5 146t83 120.5t118.5 94.5t149 80q-66 141 -66 254q0 93 43.5 175t133 135.5t208.5 53.5q162 0 246 -82.5t84 -210.5q0 -126 -75.5 -217t-241.5 -182q50 -102 125 -213q61 109 112 244l209 -133q-70 -172 -170 -310q95 -133 254 -313h-348l-92 115 q-71 -60 -158 -99t-213 -39q-200 0 -315 105t-115 276zM328 379q0 -74 48 -120t120 -46q126 0 204 86q-90 121 -186 305q-39 -22 -58.5 -34t-49 -35t-43 -42.5t-24.5 -49t-11 -64.5zM616 1057q0 -93 39 -148q22 11 70 45q78 68 78 152q0 39 -22.5 63.5t-61.5 24.5 q-52 0 -77.5 -39.5t-25.5 -97.5z" />
<glyph unicode="'" horiz-adv-x="520" d="M236 748l43 448l40 197h304l-41 -197l-156 -448h-190z" />
<glyph unicode="(" horiz-adv-x="622" d="M111 285q0 306 117 575t347 533h273q-111 -147 -187 -268.5t-140 -263t-95 -293.5t-31 -320q0 -256 78 -572h-258q-104 328 -104 609z" />
<glyph unicode=")" horiz-adv-x="598" d="M-164 -324q111 147 187 268.5t140 263t95 293.5t31 320q0 272 -74 572h250q108 -341 108 -613q0 -306 -114 -573t-338 -531h-285z" />
<glyph unicode="*" horiz-adv-x="954" d="M41 979l76 221l250 -92l-7 285h234l-6 -285l250 92l75 -221l-254 -80l175 -205l-193 -147l-164 219l-164 -219l-192 147l174 205z" />
<glyph unicode="+" horiz-adv-x="1583" d="M184 467v283h465v475h285v-475h463v-283h-463v-467h-285v467h-465z" />
<glyph unicode="," horiz-adv-x="565" d="M-31 -309l33 157q79 5 120.5 37t59.5 115h-147l76 362h325l-51 -243q-11 -50 -18 -81t-19 -73.5t-23.5 -68t-29.5 -58t-38 -51.5t-48.5 -40t-61.5 -31.5t-76 -17.5t-94 -7h-8z" />
<glyph unicode="-" horiz-adv-x="772" d="M111 461l59 282h582l-60 -282h-581z" />
<glyph unicode="." horiz-adv-x="571" d="M35 0l76 365h325l-76 -365h-325z" />
<glyph unicode="/" horiz-adv-x="882" d="M-41 0l735 1393h312l-734 -1393h-313z" />
<glyph unicode="0" d="M113 522q0 129 26 256t80 242.5t130 203.5t184 140.5t233 52.5q68 0 129.5 -13.5t125 -51t109 -95.5t74.5 -154t29 -220q0 -126 -23.5 -250.5t-75.5 -244t-126 -211t-184.5 -147t-241.5 -55.5q-229 0 -349 146.5t-120 400.5zM424 535q3 -293 168 -293q75 0 138.5 56.5 t103.5 147t62.5 199t23.5 217.5q0 291 -164 291q-83 0 -149 -59.5t-104 -154.5t-58 -198.5t-21 -205.5z" />
<glyph unicode="1" d="M287 852l51 244h61q158 0 250 59q116 72 158 238h274l-297 -1393h-303l183 852h-377z" />
<glyph unicode="2" d="M12 0l41 231q209 113 522 342q62 45 108.5 85.5t93.5 93t72 111t25 118.5q0 80 -47.5 127t-134.5 47q-103 0 -154 -68.5t-51 -171.5q0 -61 15 -120l-291 51q-8 47 -8 110q0 196 136.5 328.5t362.5 132.5q223 0 350.5 -117t127.5 -299q0 -98 -40 -194.5t-101 -172.5 t-146.5 -149.5t-163.5 -125t-166 -99.5v-2q147 6 271 6h239l-57 -264h-1004z" />
<glyph unicode="3" d="M90 436l289 51q9 -247 227 -247q55 0 97.5 17t66.5 45.5t35.5 62t11.5 69.5q0 115 -98 154q-25 11 -63.5 16t-65.5 5.5t-94 0.5h-50l43 240h132q132 0 202 57q49 42 49 115q0 63 -43.5 101t-126.5 38q-91 0 -147 -48t-68 -142l-268 69q10 76 47 143t98 120t154 83.5 t207 30.5q113 0 202 -28.5t144 -78.5t83 -115t28 -140q0 -116 -58.5 -202.5t-154.5 -129.5q71 -49 112 -127t41 -174q0 -65 -18 -127.5t-58.5 -121t-100 -102t-149 -70t-198.5 -26.5q-235 0 -368 119t-140 342z" />
<glyph unicode="4" d="M63 303l41 215l789 875h311l-182 -844h190l-47 -246h-194l-64 -303h-291l64 303h-617zM442 549h291l49 221q12 53 23.5 102.5t20 83.5t10.5 45h-2q-68 -87 -129 -159l-93 -105q-36 -42 -78.5 -88.5t-67.5 -72.5l-24 -25v-2z" />
<glyph unicode="5" d="M117 354l289 64q15 -85 68 -132.5t138 -47.5q106 0 170 74t64 198q0 99 -56.5 155t-146.5 56q-89 0 -144 -47.5t-73 -110.5l-256 101l219 729h842l-64 -258h-561l-76 -215q30 18 86.5 33.5t120.5 15.5q79 0 150.5 -25.5t131 -76t95 -136.5t35.5 -196q0 -119 -34.5 -220 t-101.5 -177.5t-174 -119.5t-243 -43q-114 0 -201.5 30t-143 84.5t-87.5 119.5t-47 145z" />
<glyph unicode="6" d="M154 506q0 145 27 280t82 249.5t131.5 199.5t181.5 133.5t227 48.5q105 0 188 -32t134.5 -87t79.5 -123.5t30 -146.5l-268 -41q-34 166 -183 166q-97 0 -175.5 -80t-104.5 -186q94 78 244 78q80 0 153.5 -27t134 -79.5t97 -139.5t36.5 -197q0 -106 -36 -203.5 t-101.5 -174.5t-168.5 -123t-228 -46q-217 0 -349 141.5t-132 389.5zM446 510q0 -72 19 -130.5t66.5 -99t117.5 -40.5q107 0 166 77.5t59 180.5q0 106 -59.5 163.5t-148.5 57.5q-57 0 -113 -31t-98 -84v2q-9 -65 -9 -96z" />
<glyph unicode="7" d="M203 930l98 463h1065l-51 -240q-212 -202 -420 -524q-184 -284 -283 -629h-344q70 227 215 481q216 380 475 652h-413l-45 -203h-297z" />
<glyph unicode="8" d="M94 383q0 132 78 229t201 148q-125 94 -125 268q0 168 139.5 278.5t368.5 110.5q213 0 338 -96t125 -254q0 -122 -59.5 -207.5t-160.5 -130.5q166 -109 166 -309q0 -201 -143.5 -322t-411.5 -121q-246 0 -381 110t-135 296zM391 416q0 -83 61 -134t164 -51 q115 0 180.5 54.5t65.5 152.5q0 83 -59.5 130.5t-163.5 47.5q-119 0 -183.5 -57t-64.5 -143zM535 1012q0 -64 48.5 -109t137.5 -45q101 0 154 46.5t53 121.5q0 64 -51 103.5t-140 39.5q-97 0 -149.5 -46t-52.5 -111z" />
<glyph unicode="9" d="M106 365l269 43q34 -166 182 -166q97 0 176 79t105 185q-94 -78 -244 -78q-80 0 -153.5 27t-134.5 79t-97.5 139t-36.5 197q0 106 36 203.5t102 174.5t169 123t228 46q217 0 349 -141t132 -389q0 -145 -27 -280t-82 -250t-131.5 -200t-181.5 -133.5t-227 -48.5 q-105 0 -188 32t-135 87t-80 124t-30 147zM467 897q0 -106 59.5 -163.5t149.5 -57.5q57 0 113 31t98 84v-3q8 58 8 97q0 72 -19 130.5t-66.5 99t-117.5 40.5q-107 0 -166 -77.5t-59 -180.5z" />
<glyph unicode=":" horiz-adv-x="571" d="M35 0l78 365h325l-78 -365h-325zM164 610l78 365h325l-78 -365h-325z" />
<glyph unicode=";" horiz-adv-x="565" d="M-31 -309l33 157q79 5 120.5 37t59.5 115h-147l76 362h325l-51 -243q-11 -50 -18 -81t-19 -73.5t-23.5 -68t-29.5 -58t-38 -51.5t-48.5 -40t-61.5 -31.5t-76 -17.5t-94 -7h-8zM162 610l78 365h325l-78 -365h-325z" />
<glyph unicode="&#x3c;" horiz-adv-x="1583" d="M90 565v230l1391 614v-299l-1000 -426l1000 -438v-299z" />
<glyph unicode="=" horiz-adv-x="1583" d="M135 262v258h1381v-258h-1381zM135 680v258h1381v-258h-1381z" />
<glyph unicode="&#x3e;" horiz-adv-x="1583" d="M102 -53v299l1000 438l-1000 426v299l1391 -614v-230z" />
<glyph unicode="?" horiz-adv-x="976" d="M154 997q0 84 33 159.5t93.5 133t153.5 91.5t205 34q110 0 194.5 -29t135 -79.5t75.5 -114.5t25 -139q0 -230 -221 -396l-143 -110q-51 -41 -75 -79t-38 -120h-301q19 109 48 176.5t70.5 112.5t122.5 106l130 95q106 80 106 194q0 60 -39.5 98.5t-112.5 38.5 q-89 0 -134.5 -59t-45.5 -152q0 -56 15 -114l-285 51q-12 53 -12 102zM215 0l55 270h316l-54 -270h-317z" />
<glyph unicode="@" horiz-adv-x="1712" d="M131 520q0 171 52 319t139.5 252.5t202 179t241 110.5t254.5 36q139 0 251.5 -33.5t187.5 -91t126 -135.5t73.5 -164t22.5 -180q0 -93 -20 -182t-60 -168t-96 -139t-134 -94.5t-167 -34.5q-148 0 -192 79q-26 -23 -49.5 -37.5t-73 -28t-111.5 -13.5q-123 0 -207 62 t-84 177q0 132 88.5 199t260.5 90l202 29q11 1 16.5 2.5t9.5 6.5t7 15l4 21q4 20 4 26q0 66 -114 66q-144 0 -160 -123l-240 12q11 77 50.5 134t98.5 89.5t127.5 48t147.5 15.5q151 0 240.5 -54.5t89.5 -160.5q0 -42 -12 -92l-68 -297q-10 -42 -10 -60q0 -24 26 -24 q79 0 146 129.5t67 294.5q0 65 -14.5 123.5t-49 113t-86.5 93.5t-133.5 62.5t-183.5 23.5q-142 0 -264.5 -57t-205.5 -152t-130 -220t-47 -260q0 -132 43.5 -233t120 -162.5t174 -92t213.5 -30.5q179 0 321 55t236 138l45 -195q-104 -83 -268.5 -138.5t-368.5 -55.5 q-126 0 -235 25t-202.5 80t-160 136t-104 199.5t-37.5 265.5zM735 449q0 -41 30.5 -62.5t78.5 -21.5q58 0 104 31.5t56 80.5l22 109q-24 -10 -72 -19l-51 -8q-41 -6 -66.5 -12.5t-51 -18.5t-38 -31.5t-12.5 -47.5z" />
<glyph unicode="A" horiz-adv-x="1241" d="M-111 0l754 1393h383l164 -1393h-324l-24 266h-477l-142 -266h-334zM492 518h327l-26 356l-11 228h-2q-55 -127 -102 -219z" />
<glyph unicode="B" horiz-adv-x="1380" d="M57 0l295 1393h539q217 0 326 -56q82 -42 124.5 -120t42.5 -168q0 -101 -52.5 -191t-149.5 -143q61 -38 98 -109.5t37 -161.5q0 -127 -66 -234.5t-190 -162.5q-110 -47 -287 -47h-717zM416 246h313q145 0 205 45q76 51 76 172q0 85 -45 115q-34 22 -138 22h-333zM541 836 h284q91 0 131.5 9t67.5 38q51 51 51 153q0 62 -37 88q-36 25 -137 25h-291z" />
<glyph unicode="C" horiz-adv-x="1292" d="M139 586q0 130 31.5 253t94 227.5t148.5 183t203 123t250 44.5q95 0 176 -24t136 -61.5t98.5 -89.5t68 -100.5t41.5 -101.5l-247 -112q-28 100 -99 165.5t-184 65.5q-102 0 -181 -51t-125 -135t-69.5 -182t-23.5 -203q0 -350 276 -350q106 0 187 54.5t127 125.5l217 -156 q-24 -38 -54.5 -73.5t-80 -76t-107 -69.5t-138.5 -48.5t-171 -19.5q-277 0 -425.5 160.5t-148.5 450.5z" />
<glyph unicode="D" horiz-adv-x="1392" d="M57 0l295 1393h350q252 0 404 -62q287 -117 287 -464v-7q-3 -228 -99.5 -444.5t-267.5 -315.5q-107 -62 -208 -81t-269 -19h-492zM422 276h129q112 0 190.5 14.5t135.5 55.5q96 70 152 216t56 276q0 194 -139 252q-35 14 -85 21t-83 8t-106 1h-72z" />
<glyph unicode="E" horiz-adv-x="1222" d="M57 0l293 1393h971l-57 -273h-664l-57 -274h600l-58 -271h-600l-63 -299h711l-58 -276h-1018z" />
<glyph unicode="F" horiz-adv-x="1120" d="M57 0l293 1393h914l-58 -273h-604l-57 -274h577l-57 -271h-576l-124 -575h-308z" />
<glyph unicode="G" horiz-adv-x="1460" d="M139 586q0 130 31.5 253t94 227.5t148.5 183t203 123t250 44.5q97 0 178 -24t135.5 -61.5t98 -89.5t67.5 -100t41 -102l-247 -112q-28 100 -99 165.5t-184 65.5q-102 0 -181 -51t-125.5 -135.5t-70 -184t-24.5 -206.5q0 -166 71.5 -256t206.5 -90q124 0 208 77.5 t120 204.5h-391l49 266h690l-166 -784h-297l21 94q-49 -53 -133.5 -86t-182.5 -33q-81 0 -153.5 20t-139 66t-114.5 115t-76.5 174t-28.5 236z" />
<glyph unicode="H" horiz-adv-x="1423" d="M57 0l295 1393h310l-115 -537h534l115 537h309l-297 -1393h-309l123 578h-535l-122 -578h-308z" />
<glyph unicode="I" horiz-adv-x="579" d="M57 0l295 1393h310l-297 -1393h-308z" />
<glyph unicode="J" horiz-adv-x="757" d="M-72 -12l54 264q47 -8 116 -8q119 0 168 49q51 51 82 207l191 893h309l-225 -1061q-38 -173 -109 -250q-58 -62 -148.5 -87.5t-218.5 -25.5q-111 0 -219 19z" />
<glyph unicode="K" horiz-adv-x="1343" d="M57 0l293 1393h305l-110 -543l635 543h419l-708 -588l414 -805h-363l-295 602l-188 -156l-97 -446h-305z" />
<glyph unicode="L" horiz-adv-x="1036" d="M57 0l293 1393h309l-235 -1117h551l-60 -276h-858z" />
<glyph unicode="M" horiz-adv-x="1781" d="M57 0l295 1393h490l32 -703q4 -68 6 -153t2 -136l1 -51h2q72 194 166 389l315 654h498l-297 -1393h-307l100 473q28 132 86 358.5t82 313.5h-2q-83 -209 -176 -395l-375 -750h-340l-39 813q-3 58 -4.5 141.5t-1.5 137.5v55h-2q-71 -447 -125 -694l-98 -453h-308z" />
<glyph unicode="N" horiz-adv-x="1445" d="M57 0l295 1393h328l225 -566q32 -81 63 -165.5t46 -128.5l16 -44h2q47 254 82 418l105 486h309l-297 -1393h-326l-223 559q-32 80 -65 176t-49 151l-17 56h-2q-35 -238 -82 -461l-102 -481h-308z" />
<glyph unicode="O" horiz-adv-x="1478" d="M139 580q0 127 29 247.5t90 227.5t147.5 187.5t209.5 127.5t268 47q271 0 429 -162t158 -430q0 -127 -28 -247.5t-88.5 -230.5t-147.5 -192.5t-212.5 -131t-274.5 -48.5q-143 0 -254 44t-182 124.5t-107.5 191t-36.5 245.5zM457 578q0 -163 71 -254t205 -91q83 0 153 34 t118.5 91t82.5 133t50 158.5t16 167.5q0 161 -75.5 252.5t-211.5 91.5q-85 0 -155.5 -34.5t-116.5 -91.5t-77.5 -133.5t-45.5 -157.5t-14 -166z" />
<glyph unicode="P" horiz-adv-x="1265" d="M57 0l293 1393h471q163 0 273 -29q128 -37 196 -123t68 -235q0 -141 -65.5 -257.5t-186.5 -179.5q-63 -33 -143 -48t-226 -15h-266l-109 -506h-305zM524 774h234q153 0 215 43q76 56 76 176q0 74 -43 105q-36 26 -146 26h-258z" />
<glyph unicode="Q" horiz-adv-x="1458" d="M119 580q0 127 29 247.5t90 227.5t147 187.5t209 127.5t268 47q271 0 429.5 -162t158.5 -430q0 -283 -135 -508l160 -190l-256 -201l-125 160q-168 -111 -396 -111q-190 0 -322 77.5t-194.5 211.5t-62.5 316zM436 578q0 -163 71.5 -254t205.5 -91q83 0 153 34t118.5 91 t82.5 133t50 158.5t16 167.5q0 161 -75.5 252.5t-211.5 91.5q-85 0 -155.5 -34.5t-117 -91.5t-78 -133.5t-45.5 -157.5t-14 -166z" />
<glyph unicode="R" horiz-adv-x="1337" d="M57 0l293 1393h471q163 0 273 -29q128 -37 196 -123t68 -235q0 -163 -84.5 -285t-233.5 -176l220 -545h-330l-191 510h-268l-109 -510h-305zM526 774h232q153 0 215 43q76 56 76 176q0 74 -43 105q-38 26 -146 26h-260z" />
<glyph unicode="S" horiz-adv-x="1239" d="M20 307l230 180q57 -105 164.5 -174t238.5 -69q100 0 155.5 39.5t55.5 109.5q0 30 -12.5 53t-41.5 41t-51.5 28t-66.5 26l-192 67q-49 18 -88.5 36.5t-84.5 51.5t-75 72t-50 97t-20 128q0 125 69.5 222.5t187.5 149.5t263 52q103 0 195 -23t161.5 -63t121 -85t90.5 -97 l-211 -195q-68 92 -161.5 142.5t-197.5 50.5q-91 0 -145.5 -35.5t-54.5 -95.5q0 -31 12 -55t37 -41t50 -28t63 -24l161 -57q62 -21 108.5 -42t97.5 -53.5t83.5 -70t54 -91t21.5 -116.5q0 -98 -34 -181t-99.5 -146.5t-170.5 -99.5t-239 -36q-117 0 -223.5 30t-183.5 80 t-131.5 106t-86.5 116z" />
<glyph unicode="T" horiz-adv-x="1091" d="M164 1118l55 275h1077l-57 -275h-383l-238 -1118h-307l238 1118h-385z" />
<glyph unicode="U" horiz-adv-x="1374" d="M145 369q0 79 37 260l160 764h311l-176 -832q-20 -92 -20 -141q0 -90 52.5 -133t160.5 -43q134 0 207 65q32 30 54 86.5t44 161.5l178 836h307l-184 -871q-60 -282 -180 -405q-74 -74 -180.5 -108t-264.5 -34q-249 0 -377.5 102t-128.5 292z" />
<glyph unicode="V" horiz-adv-x="1193" d="M195 1393h319l45 -867l8 -215h2q46 113 95 213l413 869h342l-698 -1393h-428z" />
<glyph unicode="W" horiz-adv-x="2002" d="M229 1393h318l8 -621l-2 -420h2q121 304 260 600l205 441h356l27 -455l29 -563h4q118 302 243 596l179 422h333l-620 -1393h-410l-24 461q-5 100 -8.5 231t-4.5 212v81h-2q-98 -234 -229 -514l-221 -471h-404z" />
<glyph unicode="X" horiz-adv-x="1286" d="M-156 0l686 729l-340 664h336l224 -455l405 455h383l-653 -705l354 -688h-350l-225 473l-437 -473h-383z" />
<glyph unicode="Y" horiz-adv-x="1202" d="M154 1393h315l203 -545l426 545h370l-690 -834l-119 -559h-309l119 559z" />
<glyph unicode="Z" horiz-adv-x="1204" d="M-31 0l54 252l845 868h-639l58 273h1050l-51 -244l-848 -873h676l-59 -276h-1086z" />
<glyph unicode="[" horiz-adv-x="677" d="M-12 -324l364 1717h488l-47 -222h-193l-272 -1273h192l-47 -222h-485z" />
<glyph unicode="\" horiz-adv-x="954" d="M164 1393h291l438 -1393h-293z" />
<glyph unicode="]" horiz-adv-x="673" d="M-98 -324l47 222h192l273 1273h-193l47 222h486l-365 -1717h-487z" />
<glyph unicode="^" horiz-adv-x="1583" d="M217 627l547 766h231l207 -766h-321l-88 342l-232 -342h-344z" />
<glyph unicode="_" horiz-adv-x="1163" d="M-113 -352l58 282h1077l-59 -282h-1076z" />
<glyph unicode="`" horiz-adv-x="1024" d="M311 1393h363l135 -297h-256z" />
<glyph unicode="a" horiz-adv-x="1089" d="M41 258q0 154 103.5 232t306.5 106l239 33q19 3 26 7.5t11 20.5l6 25q4 24 4 33q0 76 -135 76q-167 0 -186 -144l-283 15q13 90 59.5 157.5t116 105.5t150.5 56t174 18q176 0 281.5 -64t105.5 -190q0 -40 -14 -108l-93 -408q-6 -27 -6 -39q0 -24 41 -24q19 0 31 2 l-37 -176q-51 -17 -133 -17q-152 0 -168 86q-41 -39 -98 -62.5t-156 -23.5q-96 0 -172.5 29.5t-125 95t-48.5 158.5zM332 272q0 -49 36 -73.5t93 -24.5q72 0 124 37t68 115l23 108q-37 -12 -84 -20l-62 -11q-47 -7 -78 -14.5t-61 -22t-44.5 -38t-14.5 -56.5z" />
<glyph unicode="b" horiz-adv-x="1198" d="M49 0l295 1393h297l-111 -519q41 55 111.5 90t161.5 35q68 0 128.5 -26.5t108 -76t75.5 -128.5t28 -176q0 -165 -63 -305.5t-181 -226t-266 -85.5q-91 0 -162 30.5t-104 82.5l-19 -88h-299zM432 397q0 -86 40 -139t116 -53q80 0 139.5 58.5t86 138.5t26.5 163 q0 93 -39.5 147t-118.5 54q-60 0 -109.5 -35.5t-79 -91t-45.5 -118.5t-16 -124z" />
<glyph unicode="c" horiz-adv-x="1052" d="M80 399q0 120 37.5 227t107.5 191t182 133t250 49q176 0 281 -83t135 -232l-289 -80q-8 77 -47 118.5t-108 41.5q-81 0 -141 -56t-86.5 -135t-26.5 -165q0 -92 45 -142.5t123 -50.5q138 0 202 141l254 -123q-28 -50 -67.5 -93t-97 -81.5t-138 -61t-174.5 -22.5 q-210 0 -326 113.5t-116 310.5z" />
<glyph unicode="d" horiz-adv-x="1175" d="M82 393q0 94 24 184.5t69.5 166t107.5 133t141.5 90t167.5 32.5q90 0 160.5 -30.5t103.5 -81.5l109 506h299l-297 -1393h-293l20 100q-39 -56 -109.5 -90.5t-164.5 -34.5q-145 0 -241.5 109t-96.5 309zM385 410q0 -93 39.5 -147t118.5 -54q60 0 109.5 35.5t79 91 t45.5 118.5t16 124q0 86 -40 139t-116 53q-80 0 -139.5 -58.5t-86 -138.5t-26.5 -163z" />
<glyph unicode="e" horiz-adv-x="1124" d="M82 408q0 111 36.5 215t104 188.5t176.5 136t242 51.5q111 0 195.5 -32.5t136 -91t77 -134.5t25.5 -168q0 -78 -18 -161h-692q0 -102 56 -153.5t152 -51.5q85 0 153.5 44t104.5 107l197 -141q-31 -46 -72.5 -85.5t-101 -76.5t-140.5 -58.5t-175 -21.5q-216 0 -336.5 112 t-120.5 321zM399 606h394q0 81 -41.5 131.5t-126.5 50.5q-90 0 -151 -53t-75 -129z" />
<glyph unicode="f" horiz-adv-x="714" d="M82 0l162 764h-162l47 211h162l24 121q24 119 62 180q80 133 334 133q98 0 188 -16l-47 -230q-50 8 -90 8q-85 0 -119 -36q-23 -23 -37 -88l-16 -72h221l-47 -211h-221l-162 -764h-299z" />
<glyph unicode="g" horiz-adv-x="1175" d="M6 -86q0 19 2 35l287 10v-8q0 -141 172 -141q96 0 140.5 48.5t64.5 151.5l18 92h-2q-38 -43 -102 -65.5t-133 -22.5q-165 0 -262 106.5t-97 315.5q0 114 36 216.5t99 179.5t156 122t201 45q88 0 163 -31t107 -81l21 88h299l-220 -1006q-20 -89 -54.5 -154t-77.5 -104.5 t-102.5 -63t-120.5 -32t-140 -8.5q-70 0 -131.5 8t-122.5 29.5t-104 55t-70 88.5t-27 126zM393 436q0 -93 41.5 -146.5t124.5 -53.5q59 0 106 35t73.5 90.5t40.5 115t14 115.5q0 86 -40 137t-116 51q-59 0 -107.5 -32.5t-77 -84t-44 -110.5t-15.5 -117z" />
<glyph unicode="h" horiz-adv-x="1173" d="M45 0l295 1393h295l-119 -545q47 63 130 107t190 44q140 0 208 -72.5t68 -193.5q0 -65 -27 -196l-114 -537h-297l104 492q21 103 21 143q0 54 -27 82t-90 28q-87 0 -150 -70t-86 -175l-104 -500h-297z" />
<glyph unicode="i" horiz-adv-x="559" d="M51 0l205 975h301l-207 -975h-299zM283 1100l63 293h301l-63 -293h-301z" />
<glyph unicode="j" horiz-adv-x="565" d="M-178 -385l49 235q23 -2 43 -2q60 0 92.5 24.5t46.5 94.5l213 1008h303l-223 -1065q-27 -133 -84 -203q-46 -55 -119 -77.5t-190 -22.5q-71 0 -131 8zM291 1100l61 293h303l-61 -293h-303z" />
<glyph unicode="k" horiz-adv-x="1146" d="M49 0l295 1393h297l-158 -736l387 318h390l-482 -381l303 -594h-333l-199 416l-137 -107l-66 -309h-297z" />
<glyph unicode="l" horiz-adv-x="555" d="M49 0l295 1393h299l-297 -1393h-297z" />
<glyph unicode="m" horiz-adv-x="1779" d="M51 0l205 975h295l-29 -127q46 63 127.5 107t181.5 44q197 0 252 -149q138 149 353 149q147 0 214.5 -71.5t67.5 -194.5q0 -70 -26 -196l-115 -537h-297l104 492q21 103 21 143q0 55 -25 82.5t-88 27.5q-84 0 -143 -69.5t-82 -175.5l-104 -500h-297l104 492 q21 103 21 143q0 55 -25 82.5t-88 27.5q-84 0 -143 -69.5t-82 -175.5l-105 -500h-297z" />
<glyph unicode="n" horiz-adv-x="1179" d="M51 0l205 975h295l-29 -127q47 63 130 107t190 44q140 0 208 -72.5t68 -193.5q0 -70 -26 -196l-115 -537h-297l104 492q21 103 21 143q0 54 -27 82t-90 28q-87 0 -149.5 -70t-85.5 -175l-105 -500h-297z" />
<glyph unicode="o" horiz-adv-x="1150" d="M80 399q0 120 37.5 227t107.5 191t182 133t250 49q210 0 324.5 -115.5t114.5 -312.5q0 -88 -21 -172t-67 -161.5t-112 -135.5t-162.5 -92.5t-211.5 -34.5q-210 0 -326 113.5t-116 310.5zM375 408q0 -92 45 -142.5t123 -50.5q63 0 113 31.5t79.5 83t44.5 112t15 125.5 q0 92 -44 144.5t-122 52.5q-81 0 -141 -56t-86.5 -135t-26.5 -165z" />
<glyph unicode="p" horiz-adv-x="1204" d="M-29 -369l287 1344h293l-21 -101q40 55 111.5 90t157.5 35q68 0 129 -25.5t109.5 -74t77 -128t28.5 -179.5q0 -163 -63 -303.5t-181 -227t-266 -86.5q-91 0 -161 30.5t-103 82.5l-99 -457h-299zM432 397q0 -86 40 -139t116 -53q80 0 139.5 58.5t86 138.5t26.5 163 q0 93 -39.5 147t-118.5 54q-60 0 -109.5 -35.5t-79 -91t-45.5 -118.5t-16 -124z" />
<glyph unicode="q" horiz-adv-x="1173" d="M80 387q0 160 63 299.5t181 226t266 86.5q91 0 162 -30.5t104 -81.5l18 88h300l-287 -1344h-297l100 469q-41 -56 -109.5 -90.5t-158.5 -34.5q-68 0 -129.5 26.5t-109 77t-75.5 130t-28 178.5zM383 410q0 -93 39.5 -147t118.5 -54q60 0 109.5 35.5t79 91t45.5 118.5 t16 124q0 86 -40 139t-116 53q-80 0 -139.5 -58.5t-86 -138.5t-26.5 -163z" />
<glyph unicode="r" horiz-adv-x="761" d="M53 0l203 975h297l-33 -135h2q35 63 119.5 110t187.5 47q23 0 35 -2l-61 -286q-46 12 -94 12q-155 0 -224 -137q-25 -51 -41 -131l-94 -453h-297z" />
<glyph unicode="s" horiz-adv-x="976" d="M8 209l199 156q51 -85 126.5 -123.5t153.5 -38.5q67 0 105.5 21.5t38.5 60.5q0 32 -29 50t-84 30l-119 28q-52 13 -96.5 33.5t-86.5 53.5t-66.5 83.5t-24.5 114.5q0 148 115 234.5t288 86.5q264 0 428 -182l-178 -166q-55 62 -126.5 92.5t-137.5 30.5q-51 0 -82 -18 t-31 -51t23 -49.5t72 -30.5l135 -35q60 -15 106 -35.5t87.5 -52.5t64 -80t22.5 -109q0 -161 -119.5 -249.5t-310.5 -88.5q-142 0 -269.5 59t-203.5 175z" />
<glyph unicode="t" horiz-adv-x="724" d="M59 764l45 211h191l76 350l305 41l-84 -391h213l-45 -211h-213l-86 -404q-12 -66 -12 -79q0 -72 108 -72q43 0 88 10l-47 -221q-74 -18 -186 -18q-144 0 -214.5 35.5t-70.5 129.5q0 39 16 121l105 498h-189z" />
<glyph unicode="u" horiz-adv-x="1155" d="M96 242q0 65 27 196l115 537h297l-105 -492q-20 -98 -20 -143q0 -55 25.5 -83t88.5 -28q86 0 145.5 69.5t82.5 176.5l104 500h297l-205 -975h-295l29 127q-48 -65 -126.5 -108.5t-184.5 -43.5q-140 0 -207.5 73t-67.5 194z" />
<glyph unicode="v" horiz-adv-x="987" d="M123 975h303l27 -504l10 -217h2q45 114 96 223l234 498h321l-514 -975h-383z" />
<glyph unicode="w" horiz-adv-x="1642" d="M160 975h305v-428l-4 -301h2q70 190 125 307l188 422h352l17 -426l10 -303h2q62 168 119 309l166 420h313l-444 -975h-406l-12 680h-2q-49 -142 -127 -318l-160 -362h-405z" />
<glyph unicode="x" horiz-adv-x="946" d="M-113 0l461 520l-221 455h311l109 -250l194 250h338l-420 -477l242 -498h-311l-127 293l-232 -293h-344z" />
<glyph unicode="y" horiz-adv-x="1007" d="M-98 -381l49 238q39 -2 90 -2q35 0 58 2t48 8.5t39.5 19t23.5 34t9 52.5q0 16 -4 56l-98 948h319l21 -506l6 -264h2q58 147 113 268l227 502h332l-553 -1065q-65 -124 -128.5 -187t-149.5 -88.5t-228 -25.5q-81 0 -176 10z" />
<glyph unicode="z" horiz-adv-x="1054" d="M0 0l43 211l592 520h-459l49 244h871l-45 -213l-584 -518h494l-52 -244h-909z" />
<glyph unicode="{" horiz-adv-x="663" d="M70 506l43 209q44 0 70 8t42.5 32.5t24.5 49.5t20 80l33 151q15 75 29.5 124.5t35.5 93t46.5 69t64.5 44t88.5 25.5t118.5 7q82 0 172 -8l-47 -224q-25 2 -63 2q-43 0 -69 -7t-41.5 -26.5t-22.5 -42t-15 -65.5l-43 -221q-16 -78 -37.5 -124.5t-40.5 -63.5t-55 -37 q43 -45 43 -138q0 -51 -25 -174l-43 -209q-18 -82 -18 -110q0 -36 34.5 -48t131.5 -12l-45 -215q-59 0 -97 1t-87 6.5t-80.5 14.5t-64.5 26.5t-52 42t-31 61.5t-12 84q0 55 33 215l43 203q16 90 16 100q0 33 -20 49.5t-80 26.5z" />
<glyph unicode="|" horiz-adv-x="540" d="M123 -324v1717h295v-1717h-295z" />
<glyph unicode="}" horiz-adv-x="661" d="M-113 -315l47 223q25 -2 64 -2q43 0 68.5 7t41 27.5t22 41.5t15.5 65l54 268q16 78 37.5 124.5t40.5 64t55 37.5q-43 45 -43 137q0 56 24 174l33 162q19 87 19 110q0 36 -34.5 48t-131.5 12l45 215q59 0 97 -1t87 -6.5t80.5 -14.5t64.5 -26.5t52 -42t31 -61.5t12 -84 q0 -55 -33 -215l-33 -155q-16 -90 -16 -101q0 -33 20 -49.5t80 -26.5l-43 -208q-44 0 -70 -8t-43 -32.5t-25 -50t-20 -79.5l-43 -199q-15 -74 -29.5 -124t-36 -93.5t-48 -69t-66 -44t-89 -25.5t-118.5 -7q-67 0 -168 9z" />
<glyph unicode="~" horiz-adv-x="1583" d="M236 623q47 73 141 137.5t205 64.5q64 0 118.5 -19.5t128.5 -60.5q47 -26 75 -36.5t61 -10.5q102 0 209 129l137 -237q-69 -88 -166.5 -138.5t-188.5 -50.5q-62 0 -108.5 14.5t-108.5 45.5q-3 2 -27.5 14.5t-35 17.5t-30.5 13.5t-36.5 12t-31.5 3.5q-39 0 -81.5 -27 t-111.5 -114z" />
<glyph unicode="&#xa1;" horiz-adv-x="516" d="M-66 -418l119 557l109 400h241l-55 -400l-119 -557h-295zM160 651l69 324h297l-67 -324h-299z" />
<glyph unicode="&#xa2;" d="M139 399q0 109 31.5 208t90.5 180t151.5 135.5t208.5 70.5l43 195h239l-45 -207q225 -57 275 -297l-289 -80q-8 76 -47.5 118t-108.5 42q-81 0 -141 -56t-86.5 -135t-26.5 -165q0 -92 45 -142.5t123 -50.5q139 0 203 141l254 -123q-52 -97 -155.5 -168t-256.5 -85 l-45 -207h-242l50 227q-130 40 -200.5 143.5t-70.5 255.5z" />
<glyph unicode="&#xa3;" d="M12 0l47 236q114 6 168.5 62t83.5 198l17 79h-201l55 248h187q8 66 16.5 117t26 115t40 111t59.5 95t83.5 79t113 50t146.5 19q191 0 288 -102t97 -297v-6l-272 -41q0 200 -125 200q-45 0 -78 -25t-53.5 -74t-32 -105.5t-19.5 -135.5h291l-53 -248h-268 q-36 -244 -119 -311v-2q180 2 319 2h256l-47 -264h-1026z" />
<glyph unicode="&#xa4;" horiz-adv-x="1175" d="M80 879l205 204l123 -125q79 39 182 39q106 0 188 -36l119 118l199 -198l-121 -119q41 -87 41 -191q0 -99 -39 -188q71 -64 119 -115l-199 -200l-117 116q-81 -37 -190 -37q-111 0 -189 37l-118 -118l-201 200l121 119q-37 78 -37 186q0 107 43 189l-33 28zM446 571 q0 -61 42 -104t102 -43q62 0 103.5 42.5t41.5 104.5q0 63 -40.5 105.5t-104.5 42.5q-60 0 -102 -42.5t-42 -105.5z" />
<glyph unicode="&#xa5;" d="M57 201l54 252h335l21 102h-332l53 252h191l-225 586h315l203 -545l426 545h370l-489 -586h207l-53 -252h-357l-20 -102h352l-53 -252h-353l-43 -201h-309l43 201h-336z" />
<glyph unicode="&#xa6;" horiz-adv-x="540" d="M123 -324v662h295v-662h-295zM123 731v662h295v-662h-295z" />
<glyph unicode="&#xa7;" horiz-adv-x="1081" d="M20 55l199 156q52 -86 127 -124t156 -38q141 0 141 80q0 30 -26.5 50.5t-96.5 56.5l-90 45q-71 35 -116.5 63.5t-91 70.5t-67.5 95.5t-22 120.5q0 109 64.5 191t158.5 106q-67 67 -67 172q0 99 55 172.5t146 110t204 36.5q262 0 428 -182l-178 -166q-55 62 -126.5 92.5 t-137.5 30.5q-51 0 -82 -18.5t-31 -51.5t29 -58t88 -50l88 -37q127 -53 198.5 -128t71.5 -192q0 -114 -61 -196t-145 -117q92 -81 92 -194q0 -160 -120 -245t-314 -85q-141 0 -269.5 59.5t-204.5 173.5zM424 666q0 -47 32.5 -78t92.5 -58l90 -38q54 13 86.5 43t32.5 75 q0 26 -10 46.5t-32.5 38t-40.5 28t-52 27.5l-64 30q-64 -4 -99.5 -35t-35.5 -79z" />
<glyph unicode="&#xa8;" horiz-adv-x="1024" d="M324 1128l51 238h239l-51 -238h-239zM702 1128l52 238h239l-51 -238h-240z" />
<glyph unicode="&#xa9;" horiz-adv-x="1605" d="M172 715q0 194 92 355t253 254t355 93q146 0 276 -55t223 -148.5t147.5 -223.5t54.5 -275t-54.5 -275t-147.5 -224t-223 -149t-276 -55t-276 55t-222.5 149t-147 224t-54.5 275zM354 715q0 -222 149 -375.5t369 -153.5q146 0 265.5 70.5t186.5 191.5t67 267 q0 109 -39.5 206.5t-108 168t-165.5 112t-206 41.5q-220 0 -369 -153t-149 -375zM512 713q0 187 99 299t266 112q75 0 135 -24t98 -64t60.5 -78.5t35.5 -80.5l-172 -70q-37 147 -157 147q-78 0 -123 -63.5t-45 -175.5q0 -111 46 -173.5t122 -62.5q110 0 161 129l168 -69 q-47 -108 -131.5 -169t-197.5 -61q-167 0 -266 109.5t-99 294.5z" />
<glyph unicode="&#xaa;" horiz-adv-x="735" d="M160 915q0 104 69.5 157t208.5 73l162 22q18 3 23 19q6 24 6 39q0 51 -88 51q-111 0 -125 -96l-195 8q18 119 111 174t229 55q120 0 191 -43.5t71 -128.5q0 -34 -8 -74l-59 -258q-8 -32 -8 -41q0 -18 28 -18q13 0 21 2l-25 -117q-35 -14 -96 -14q-95 0 -113 53 q-60 -53 -172 -53q-98 0 -164.5 49t-66.5 141zM360 926q0 -32 23.5 -49t60.5 -17q45 0 80.5 25.5t44.5 64.5l19 84q-14 -5 -56 -12l-40 -8q-34 -7 -52 -11.5t-39.5 -14.5t-31 -25t-9.5 -37z" />
<glyph unicode="&#xab;" horiz-adv-x="989" d="M63 442l60 256l444 316l-69 -332l-201 -129l143 -150l-63 -303zM512 442l57 256l445 316l-70 -332l-201 -129l144 -150l-64 -303z" />
<glyph unicode="&#xac;" horiz-adv-x="1583" d="M283 694v236h1063v-639h-254v403h-809z" />
<glyph unicode="&#xad;" horiz-adv-x="772" d="M111 461l59 282h582l-60 -282h-581z" />
<glyph unicode="&#xae;" horiz-adv-x="1605" d="M172 715q0 194 92 355t253 254t355 93q146 0 276 -55t223 -148.5t147.5 -223.5t54.5 -275t-54.5 -275t-147.5 -224t-223 -149t-276 -55t-276 55t-222.5 149t-147 224t-54.5 275zM354 715q0 -222 149 -375.5t369 -153.5q146 0 265.5 70.5t186.5 191.5t67 267 q0 109 -39.5 206.5t-108 168t-165.5 112t-206 41.5q-220 0 -369 -153t-149 -375zM549 348v748h323q120 0 183 -25q63 -28 100 -86.5t37 -134.5q0 -88 -42 -146.5t-118 -82.5l201 -273h-240l-178 260h-78v-260h-188zM737 770h127q74 0 105 14q30 22 30 66q0 49 -30 68 q-20 10 -105 10h-127v-158z" />
<glyph unicode="&#xaf;" horiz-adv-x="1024" d="M330 1128l55 252h627l-56 -252h-626z" />
<glyph unicode="&#xb0;" horiz-adv-x="942" d="M213 1020q0 166 115.5 281.5t281.5 115.5t282 -115.5t116 -281.5t-116 -281.5t-282 -115.5t-281.5 115.5t-115.5 281.5zM455 1020q0 -63 46 -109.5t109 -46.5t109.5 46.5t46.5 109.5t-46.5 109.5t-109.5 46.5t-109 -46.5t-46 -109.5z" />
<glyph unicode="&#xb1;" horiz-adv-x="1583" d="M184 0v258h1213v-258h-1213zM184 608v283h465v334h285v-334h463v-283h-463v-274h-285v274h-465z" />
<glyph unicode="&#xb2;" horiz-adv-x="913" d="M125 561l31 162q111 59 309 201q164 123 164 223q0 37 -22.5 60.5t-61.5 23.5q-49 0 -72.5 -35.5t-23.5 -87.5q0 -47 14 -82l-217 29q-6 35 -6 67q0 125 83.5 210t227.5 85q142 0 221.5 -72.5t79.5 -185.5q0 -225 -326 -407v-2q74 2 127 2h142l-39 -191h-631z" />
<glyph unicode="&#xb3;" horiz-adv-x="858" d="M125 821l192 31q13 -141 134 -141q53 0 82.5 27.5t29.5 80.5q0 99 -155 99h-39l26 145h60q143 0 143 104q0 39 -25.5 61.5t-64.5 22.5q-108 0 -115 -129l-184 47q8 104 89 176t226 72q138 0 210.5 -63.5t72.5 -159.5q0 -81 -39 -132.5t-100 -76.5q43 -19 74.5 -67.5 t31.5 -112.5q0 -123 -83 -194.5t-238 -71.5q-156 0 -239.5 78.5t-88.5 203.5z" />
<glyph unicode="&#xb4;" horiz-adv-x="1024" d="M416 1096l135 297h362l-241 -297h-256z" />
<glyph unicode="&#xb5;" horiz-adv-x="1175" d="M-27 -369l285 1344h297l-104 -492q-21 -103 -21 -143q0 -54 26 -82.5t89 -28.5q86 0 145 69.5t82 176.5l105 500h297l-205 -975h-293l26 121q-44 -63 -111.5 -96t-139.5 -33q-48 0 -101 16l-80 -377h-297z" />
<glyph unicode="&#xb6;" horiz-adv-x="1529" d="M180 924q0 214 137 336q81 72 198 102.5t339 30.5h817l-55 -267h-160l-295 -1388h-258l295 1388h-190l-297 -1388h-262l169 801h-16q-92 0 -168 23t-133.5 69t-89 121t-31.5 172z" />
<glyph unicode="&#xb7;" horiz-adv-x="550" d="M115 408l75 364h326l-76 -364h-325z" />
<glyph unicode="&#xb8;" horiz-adv-x="731" d="M109 -104l110 120h146l-70 -77q90 0 138 -46.5t48 -111.5q0 -84 -63.5 -132t-155.5 -48q-84 0 -151 34l49 127q28 -22 78 -22q28 0 46.5 12t18.5 37q0 23 -17 35t-44 12q-51 0 -80 -29z" />
<glyph unicode="&#xb9;" horiz-adv-x="788" d="M176 1032l37 166h27q97 0 161 39q79 51 103 156h211l-178 -832h-230l101 471h-232z" />
<glyph unicode="&#xba;" horiz-adv-x="806" d="M127 1016q0 108 42.5 197.5t132.5 146.5t214 57q141 0 218 -77.5t77 -211.5q0 -58 -14 -114.5t-45 -108.5t-75 -91.5t-109 -63t-142 -23.5q-143 0 -221 77.5t-78 211.5zM334 1022q0 -59 28 -91t76 -32q53 0 91.5 35.5t54.5 85.5t16 106q0 57 -27.5 90t-76.5 33 q-77 0 -119.5 -69.5t-42.5 -157.5z" />
<glyph unicode="&#xbb;" horiz-adv-x="1001" d="M33 100l71 334l201 129l-143 150l61 301l312 -342l-58 -256zM479 100l72 334l201 129l-144 150l62 301l313 -342l-59 -256z" />
<glyph unicode="&#xbc;" horiz-adv-x="1769" d="M143 1032l37 166h27q98 0 162 39q78 50 102 156h211l-178 -832h-230l101 471h-232zM236 0l1021 1393h261l-1018 -1393h-264zM936 186l31 127l501 537h185l-107 -508h131l-30 -156h-134l-38 -186h-209l39 186h-369zM1200 342h137l19 80l37 139q-50 -70 -86 -106l-45 -49 q-14 -14 -30 -30.5t-24 -24.5t-8 -9z" />
<glyph unicode="&#xbd;" horiz-adv-x="1871" d="M143 1032l37 166h27q98 0 162 39q78 50 102 156h211l-178 -832h-230l101 471h-232zM236 0l1021 1393h261l-1018 -1393h-264zM1065 0l31 162q117 62 309 200q164 123 164 224q0 37 -22.5 60.5t-61.5 23.5q-49 0 -72.5 -35t-23.5 -88q0 -47 14 -82l-217 29q-6 34 -6 67 q0 125 83.5 210t227.5 85q142 0 221.5 -72.5t79.5 -185.5q0 -65 -28 -127t-77 -113t-102.5 -91.5t-118.5 -76.5v-2q74 2 127 2h142l-39 -190h-631z" />
<glyph unicode="&#xbe;" horiz-adv-x="1933" d="M102 821l193 31q13 -141 133 -141q54 0 83.5 27.5t29.5 80.5q0 99 -156 99h-39l27 145h59q143 0 143 104q0 39 -25.5 61.5t-64.5 22.5q-107 0 -114 -129l-185 47q8 104 89.5 176t226.5 72q138 0 210 -63.5t72 -159.5q0 -81 -39 -132.5t-100 -76.5q43 -19 75 -67.5 t32 -112.5q0 -123 -83.5 -194.5t-238.5 -71.5q-156 0 -239.5 78.5t-88.5 203.5zM399 0l1022 1393h260l-1017 -1393h-265zM1100 186l30 127l502 537h185l-107 -508h131l-31 -156h-133l-39 -186h-208l38 186h-368zM1364 342h137l19 80l36 139q-50 -70 -86 -106l-45 -49 q-13 -14 -29.5 -30.5t-24 -24.5t-7.5 -9z" />
<glyph unicode="&#xbf;" horiz-adv-x="997" d="M-51 -78q0 229 221 395l143 111q51 41 75 79t38 120h301q-19 -109 -48.5 -177t-71 -113t-122.5 -106l-129 -94q-106 -80 -106 -194q0 -60 39 -99t112 -39q89 0 135 59t46 152q0 56 -15 115l285 -51q12 -52 12 -103q0 -84 -33 -159.5t-93.5 -133t-153.5 -91t-205 -33.5 q-110 0 -194.5 29t-135 79.5t-75.5 114.5t-25 139zM432 705l53 270h318l-55 -270h-316z" />
<glyph unicode="&#xc0;" horiz-adv-x="1241" d="M-111 0l754 1393h383l164 -1393h-324l-24 266h-477l-142 -266h-334zM483 1862h363l135 -297h-256zM492 518h327l-26 356l-11 228h-2q-55 -127 -102 -219z" />
<glyph unicode="&#xc1;" horiz-adv-x="1241" d="M-111 0l754 1393h383l164 -1393h-324l-24 266h-477l-142 -266h-334zM492 518h327l-26 356l-11 228h-2q-55 -127 -102 -219zM702 1565l136 297h362l-242 -297h-256z" />
<glyph unicode="&#xc2;" horiz-adv-x="1241" d="M-111 0l754 1393h383l164 -1393h-324l-24 266h-477l-142 -266h-334zM492 518h327l-26 356l-11 228h-2q-55 -127 -102 -219zM496 1565l317 297h209l158 -297h-219l-76 131l-135 -131h-254z" />
<glyph unicode="&#xc3;" horiz-adv-x="1241" d="M-111 0l754 1393h383l164 -1393h-324l-24 266h-477l-142 -266h-334zM477 1640q7 31 25.5 68t49 76t78.5 64.5t103 25.5q58 0 146 -45q70 -39 118 -39q60 0 90 76l173 -70q-16 -40 -30 -69.5t-37.5 -63t-49.5 -55t-64 -35.5t-82 -14q-71 0 -149 38q-8 4 -24.5 12.5 t-23.5 12t-19.5 9.5t-19.5 8t-15.5 4t-16.5 2q-53 0 -80 -76zM492 518h327l-26 356l-11 228h-2q-55 -127 -102 -219z" />
<glyph unicode="&#xc4;" horiz-adv-x="1241" d="M-111 0l754 1393h383l164 -1393h-324l-24 266h-477l-142 -266h-334zM492 518h327l-26 356l-11 228h-2q-55 -127 -102 -219zM561 1593l51 238h240l-51 -238h-240zM940 1593l51 238h240l-51 -238h-240z" />
<glyph unicode="&#xc5;" horiz-adv-x="1241" d="M-111 0l754 1393h383l164 -1393h-324l-24 266h-477l-142 -266h-334zM492 518h327l-26 356l-11 228h-2q-55 -127 -102 -219zM649 1731q0 98 66.5 163.5t165.5 65.5q98 0 164.5 -65.5t66.5 -163.5t-66.5 -164t-164.5 -66t-165 66t-67 164zM807 1731q0 -30 21 -51t51 -21 q29 0 50 20.5t21 51.5q0 30 -20.5 50.5t-50.5 20.5t-51 -20.5t-21 -50.5z" />
<glyph unicode="&#xc6;" horiz-adv-x="1839" d="M-164 0l1059 1393h1042l-57 -273h-629l-57 -274h565l-57 -271h-565l-64 -299h676l-57 -276h-979l65 311h-352l-233 -311h-357zM606 553h230l59 278l55 236h-2q-49 -88 -127 -201z" />
<glyph unicode="&#xc7;" horiz-adv-x="1292" d="M139 586q0 130 31.5 253t94 227.5t148.5 183t203 123t250 44.5q95 0 176 -24t136 -61.5t98.5 -89.5t68 -100.5t41.5 -101.5l-247 -112q-28 100 -99 165.5t-184 65.5q-102 0 -181 -51t-125 -135t-69.5 -182t-23.5 -203q0 -350 276 -350q106 0 187 54.5t127 125.5l217 -156 q-24 -38 -54.5 -73.5t-80 -76t-107 -69.5t-138.5 -48.5t-171 -19.5h-17l-45 -36q90 0 138.5 -46.5t48.5 -111.5q0 -84 -63.5 -132t-156.5 -48q-84 0 -151 34l49 127q28 -22 78 -22q28 0 46.5 12t18.5 37q0 23 -17 35t-44 12q-51 0 -80 -29l-53 89l108 92q-212 38 -323 192.5 t-111 405.5z" />
<glyph unicode="&#xc8;" horiz-adv-x="1222" d="M57 0l293 1393h971l-57 -273h-664l-57 -274h600l-58 -271h-600l-63 -299h711l-58 -276h-1018zM532 1862h363l135 -297h-256z" />
<glyph unicode="&#xc9;" horiz-adv-x="1222" d="M57 0l293 1393h971l-57 -273h-664l-57 -274h600l-58 -271h-600l-63 -299h711l-58 -276h-1018zM700 1565l136 297h362l-242 -297h-256z" />
<glyph unicode="&#xca;" horiz-adv-x="1222" d="M57 0l293 1393h971l-57 -273h-664l-57 -274h600l-58 -271h-600l-63 -299h711l-58 -276h-1018zM526 1565l318 297h209l157 -297h-219l-76 131l-135 -131h-254z" />
<glyph unicode="&#xcb;" horiz-adv-x="1222" d="M57 0l293 1393h971l-57 -273h-664l-57 -274h600l-58 -271h-600l-63 -299h711l-58 -276h-1018zM561 1593l51 238h240l-51 -238h-240zM940 1593l51 238h240l-51 -238h-240z" />
<glyph unicode="&#xcc;" horiz-adv-x="579" d="M57 0l295 1393h310l-297 -1393h-308zM180 1862h363l135 -297h-256z" />
<glyph unicode="&#xcd;" horiz-adv-x="579" d="M57 0h308l297 1393h-310zM399 1565l136 297h362l-242 -297h-256z" />
<glyph unicode="&#xce;" horiz-adv-x="579" d="M57 0l295 1393h310l-297 -1393h-308zM186 1565l318 297h209l157 -297h-219l-76 131l-135 -131h-254z" />
<glyph unicode="&#xcf;" horiz-adv-x="579" d="M57 0h308l297 1393h-310zM229 1593l52 238h239l-51 -238h-240zM608 1593l51 238h240l-51 -238h-240z" />
<glyph unicode="&#xd0;" horiz-adv-x="1392" d="M18 557l58 274h157l119 562h350q252 0 404 -62q287 -117 287 -471q0 -145 -40 -290.5t-125.5 -274t-201.5 -195.5q-107 -62 -208 -81t-269 -19h-492l117 557h-156zM422 276h129q112 0 190.5 14.5t135.5 55.5q96 70 152 216t56 276q0 194 -139 252q-35 14 -85 21t-83 8 t-106 1h-72l-61 -289h321l-59 -274h-320z" />
<glyph unicode="&#xd1;" horiz-adv-x="1445" d="M57 0l295 1393h328l225 -566q32 -81 63 -165.5t46 -128.5l16 -44h2q47 254 82 418l105 486h309l-297 -1393h-326l-223 559q-32 80 -65 176t-49 151l-17 56h-2q-35 -238 -82 -461l-102 -481h-308zM598 1640q7 31 25.5 68t49 76t78.5 64.5t103 25.5q57 0 145 -45 q70 -39 119 -39q60 0 90 76l172 -70q-20 -51 -39 -87t-50 -73.5t-74.5 -57t-98.5 -19.5q-71 0 -149 38q-8 4 -24.5 12.5t-23.5 12t-19.5 9.5t-19.5 8t-15.5 4t-16.5 2q-53 0 -80 -76z" />
<glyph unicode="&#xd2;" horiz-adv-x="1478" d="M139 580q0 127 29 247.5t90 227.5t147.5 187.5t209.5 127.5t268 47q271 0 429 -162t158 -430q0 -127 -28 -247.5t-88.5 -230.5t-147.5 -192.5t-212.5 -131t-274.5 -48.5q-143 0 -254 44t-182 124.5t-107.5 191t-36.5 245.5zM457 578q0 -163 71 -254t205 -91q83 0 153 34 t118.5 91t82.5 133t50 158.5t16 167.5q0 161 -75.5 252.5t-211.5 91.5q-85 0 -155.5 -34.5t-116.5 -91.5t-77.5 -133.5t-45.5 -157.5t-14 -166zM606 1862h363l135 -297h-256z" />
<glyph unicode="&#xd3;" horiz-adv-x="1478" d="M139 580q0 127 29 247.5t90 227.5t147.5 187.5t209.5 127.5t268 47q271 0 429 -162t158 -430q0 -127 -28 -247.5t-88.5 -230.5t-147.5 -192.5t-212.5 -131t-274.5 -48.5q-143 0 -254 44t-182 124.5t-107.5 191t-36.5 245.5zM457 578q0 -163 71 -254t205 -91q83 0 153 34 t118.5 91t82.5 133t50 158.5t16 167.5q0 161 -75.5 252.5t-211.5 91.5q-85 0 -155.5 -34.5t-116.5 -91.5t-77.5 -133.5t-45.5 -157.5t-14 -166zM772 1565l135 297h363l-242 -297h-256z" />
<glyph unicode="&#xd4;" horiz-adv-x="1478" d="M139 580q0 127 29 247.5t90 227.5t147.5 187.5t209.5 127.5t268 47q271 0 429 -162t158 -430q0 -127 -28 -247.5t-88.5 -230.5t-147.5 -192.5t-212.5 -131t-274.5 -48.5q-143 0 -254 44t-182 124.5t-107.5 191t-36.5 245.5zM457 578q0 -163 71 -254t205 -91q83 0 153 34 t118.5 91t82.5 133t50 158.5t16 167.5q0 161 -75.5 252.5t-211.5 91.5q-85 0 -155.5 -34.5t-116.5 -91.5t-77.5 -133.5t-45.5 -157.5t-14 -166zM596 1565l317 297h209l158 -297h-219l-76 131l-135 -131h-254z" />
<glyph unicode="&#xd5;" horiz-adv-x="1478" d="M139 580q0 127 29 247.5t90 227.5t147.5 187.5t209.5 127.5t268 47q271 0 429 -162t158 -430q0 -127 -28 -247.5t-88.5 -230.5t-147.5 -192.5t-212.5 -131t-274.5 -48.5q-143 0 -254 44t-182 124.5t-107.5 191t-36.5 245.5zM457 578q0 -163 71 -254t205 -91q83 0 153 34 t118.5 91t82.5 133t50 158.5t16 167.5q0 161 -75.5 252.5t-211.5 91.5q-85 0 -155.5 -34.5t-116.5 -91.5t-77.5 -133.5t-45.5 -157.5t-14 -166zM584 1640q7 31 25.5 68t49 76t78.5 64.5t103 25.5q57 0 145 -45q70 -39 119 -39q60 0 90 76l172 -70q-20 -51 -39 -87t-50 -73.5 t-74.5 -57t-98.5 -19.5q-72 0 -150 38q-8 4 -28.5 15t-28 14.5t-21 9t-22.5 7.5t-18 2q-53 0 -80 -76z" />
<glyph unicode="&#xd6;" horiz-adv-x="1478" d="M139 580q0 127 29 247.5t90 227.5t147.5 187.5t209.5 127.5t268 47q271 0 429 -162t158 -430q0 -127 -28 -247.5t-88.5 -230.5t-147.5 -192.5t-212.5 -131t-274.5 -48.5q-143 0 -254 44t-182 124.5t-107.5 191t-36.5 245.5zM457 578q0 -163 71 -254t205 -91q83 0 153 34 t118.5 91t82.5 133t50 158.5t16 167.5q0 161 -75.5 252.5t-211.5 91.5q-85 0 -155.5 -34.5t-116.5 -91.5t-77.5 -133.5t-45.5 -157.5t-14 -166zM647 1593l51 238h240l-51 -238h-240zM1026 1593l51 238h240l-51 -238h-240z" />
<glyph unicode="&#xd7;" horiz-adv-x="1583" d="M180 203l410 409l-408 406l201 203l410 -406l405 406l203 -203l-406 -406l406 -409l-203 -201l-405 408l-410 -410z" />
<glyph unicode="&#xd8;" horiz-adv-x="1478" d="M-41 266l197 144q-17 90 -17 170q0 127 29 247.5t90 227.5t147.5 187.5t209.5 127.5t268 47q268 0 430 -162l162 119l163 -227l-190 -139q22 -90 22 -183q0 -127 -28 -247.5t-88.5 -230.5t-147.5 -192.5t-212.5 -131t-274.5 -48.5q-289 0 -440 175l-152 -111zM459 631 l610 446q-74 84 -203 84q-99 0 -177 -45.5t-125.5 -123t-73 -168.5t-31.5 -193zM522 330q72 -97 211 -97q80 0 148 32t116 86t83 126t53 151.5t20 162.5z" />
<glyph unicode="&#xd9;" horiz-adv-x="1374" d="M145 369q0 79 37 260l160 764h311l-176 -832q-20 -106 -20 -141q0 -90 52.5 -133t160.5 -43q134 0 207 65q32 30 54 86.5t44 161.5l178 836h307l-184 -871q-60 -282 -180 -405q-74 -74 -180.5 -108t-264.5 -34q-249 0 -377.5 102t-128.5 292zM606 1862h363l135 -297h-256 z" />
<glyph unicode="&#xda;" horiz-adv-x="1374" d="M145 369q0 -190 128.5 -292t377.5 -102q158 0 264.5 34t180.5 108q120 123 180 405l184 871h-307l-178 -836q-22 -105 -44 -161.5t-54 -86.5q-73 -65 -207 -65q-108 0 -160.5 43t-52.5 133q0 35 20 141l176 832h-311l-160 -764q-37 -181 -37 -260zM805 1565l135 297h363 l-242 -297h-256z" />
<glyph unicode="&#xdb;" horiz-adv-x="1374" d="M145 369q0 79 37 260l160 764h311l-176 -832q-20 -106 -20 -141q0 -90 52.5 -133t160.5 -43q134 0 207 65q32 30 54 86.5t44 161.5l178 836h307l-184 -871q-60 -282 -180 -405q-74 -74 -180.5 -108t-264.5 -34q-249 0 -377.5 102t-128.5 292zM592 1565l317 297h209 l158 -297h-219l-76 131l-135 -131h-254z" />
<glyph unicode="&#xdc;" horiz-adv-x="1374" d="M145 369q0 -190 128.5 -292t377.5 -102q158 0 264.5 34t180.5 108q120 123 180 405l184 871h-307l-178 -836q-22 -105 -44 -161.5t-54 -86.5q-73 -65 -207 -65q-108 0 -160.5 43t-52.5 133q0 35 20 141l176 832h-311l-160 -764q-37 -181 -37 -260zM639 1593l51 238h240 l-51 -238h-240zM1018 1593l51 238h240l-52 -238h-239z" />
<glyph unicode="&#xdd;" horiz-adv-x="1202" d="M154 1393h315l203 -545l426 545h370l-690 -834l-119 -559h-309l119 559zM653 1565l135 297h363l-242 -297h-256z" />
<glyph unicode="&#xde;" horiz-adv-x="1282" d="M57 0l295 1393h307l-36 -166h163q163 0 273 -29q128 -37 196 -123t68 -235q0 -141 -65.5 -257.5t-186.5 -179.5q-63 -33 -143 -48t-226 -15h-266l-74 -340h-305zM489 608h234q153 0 215 43q76 56 76 176q0 74 -43 105q-36 26 -146 26h-258z" />
<glyph unicode="&#xdf;" horiz-adv-x="1107" d="M39 0l205 967q49 223 131 317q115 131 332 131q195 0 297 -78.5t102 -214.5q0 -95 -45 -178t-131 -127q117 -60 117 -223q0 -69 -21 -172q-27 -117 -60 -193t-88 -132.5t-136 -81.5t-197 -25l-96 2l45 223h45q37 0 65.5 12.5t46.5 30.5t34 53t24.5 65t21.5 81 q21 91 21 143q0 55 -31.5 76.5t-104.5 21.5h-18l45 222h19q67 0 106 42.5t39 110.5q0 48 -29.5 76.5t-81.5 28.5q-53 0 -90 -37q-17 -16 -30.5 -49t-18.5 -54t-14 -65l-207 -973h-297z" />
<glyph unicode="&#xe0;" horiz-adv-x="1089" d="M41 258q0 154 103.5 232t306.5 106l239 33q19 3 26 7.5t11 20.5l6 25q4 24 4 33q0 76 -135 76q-167 0 -186 -144l-283 15q13 90 59.5 157.5t116 105.5t150.5 56t174 18q176 0 281.5 -64t105.5 -190q0 -40 -14 -108l-93 -408q-6 -27 -6 -39q0 -24 41 -24q19 0 31 2 l-37 -176q-51 -17 -133 -17q-152 0 -168 86q-41 -39 -98 -62.5t-156 -23.5q-96 0 -172.5 29.5t-125 95t-48.5 158.5zM332 272q0 -49 36 -73.5t93 -24.5q72 0 124 37t68 115l23 108q-37 -12 -84 -20l-62 -11q-47 -7 -78 -14.5t-61 -22t-44.5 -38t-14.5 -56.5zM336 1393h362 l136 -297h-256z" />
<glyph unicode="&#xe1;" horiz-adv-x="1089" d="M41 258q0 154 103.5 232t306.5 106l239 33q19 3 26 7.5t11 20.5l6 25q4 24 4 33q0 76 -135 76q-167 0 -186 -144l-283 15q13 90 59.5 157.5t116 105.5t150.5 56t174 18q176 0 281.5 -64t105.5 -190q0 -40 -14 -108l-93 -408q-6 -27 -6 -39q0 -24 41 -24q19 0 31 2 l-37 -176q-51 -17 -133 -17q-152 0 -168 86q-41 -39 -98 -62.5t-156 -23.5q-96 0 -172.5 29.5t-125 95t-48.5 158.5zM332 272q0 -49 36 -73.5t93 -24.5q72 0 124 37t68 115l23 108q-37 -12 -84 -20l-62 -11q-47 -7 -78 -14.5t-61 -22t-44.5 -38t-14.5 -56.5zM516 1096 l135 297h363l-242 -297h-256z" />
<glyph unicode="&#xe2;" horiz-adv-x="1089" d="M41 258q0 154 103.5 232t306.5 106l239 33q19 3 26 7.5t11 20.5l6 25q4 24 4 33q0 76 -135 76q-167 0 -186 -144l-283 15q13 90 59.5 157.5t116 105.5t150.5 56t174 18q176 0 281.5 -64t105.5 -190q0 -40 -14 -108l-93 -408q-6 -27 -6 -39q0 -24 41 -24q19 0 31 2 l-37 -176q-51 -17 -133 -17q-152 0 -168 86q-41 -39 -98 -62.5t-156 -23.5q-96 0 -172.5 29.5t-125 95t-48.5 158.5zM313 1096l318 297h209l157 -297h-219l-76 131l-135 -131h-254zM332 272q0 -49 36 -73.5t93 -24.5q72 0 124 37t68 115l23 108q-37 -12 -84 -20l-62 -11 q-47 -7 -78 -14.5t-61 -22t-44.5 -38t-14.5 -56.5z" />
<glyph unicode="&#xe3;" horiz-adv-x="1089" d="M41 258q0 154 103.5 232t306.5 106l239 33q19 3 26 7.5t11 20.5l6 25q4 24 4 33q0 76 -135 76q-167 0 -186 -144l-283 15q13 90 59.5 157.5t116 105.5t150.5 56t174 18q176 0 281.5 -64t105.5 -190q0 -40 -14 -108l-93 -408q-6 -27 -6 -39q0 -24 41 -24q19 0 31 2 l-37 -176q-51 -17 -133 -17q-152 0 -168 86q-41 -39 -98 -62.5t-156 -23.5q-96 0 -172.5 29.5t-125 95t-48.5 158.5zM305 1171q7 31 25.5 68t49 76t78.5 64.5t103 25.5q58 0 146 -45q70 -39 118 -39q60 0 90 76l172 -70q-20 -51 -39 -87t-50 -73.5t-74.5 -57t-98.5 -19.5 q-71 0 -149 38q-8 4 -24.5 12.5t-23.5 12t-19.5 9.5t-19.5 8t-15.5 4t-16.5 2q-53 0 -80 -76zM332 272q0 -49 36 -73.5t93 -24.5q72 0 124 37t68 115l23 108q-37 -12 -84 -20l-62 -11q-47 -7 -78 -14.5t-61 -22t-44.5 -38t-14.5 -56.5z" />
<glyph unicode="&#xe4;" horiz-adv-x="1089" d="M41 258q0 154 103.5 232t306.5 106l239 33q19 3 26 7.5t11 20.5l6 25q4 24 4 33q0 76 -135 76q-167 0 -186 -144l-283 15q13 90 59.5 157.5t116 105.5t150.5 56t174 18q176 0 281.5 -64t105.5 -190q0 -40 -14 -108l-93 -408q-6 -27 -6 -39q0 -24 41 -24q19 0 31 2 l-37 -176q-51 -17 -133 -17q-152 0 -168 86q-41 -39 -98 -62.5t-156 -23.5q-96 0 -172.5 29.5t-125 95t-48.5 158.5zM332 272q0 -49 36 -73.5t93 -24.5q72 0 124 37t68 115l23 108q-37 -12 -84 -20l-62 -11q-47 -7 -78 -14.5t-61 -22t-44.5 -38t-14.5 -56.5zM362 1128 l52 238h239l-51 -238h-240zM741 1128l52 238h239l-51 -238h-240z" />
<glyph unicode="&#xe5;" horiz-adv-x="1089" d="M41 258q0 154 103.5 232t306.5 106l239 33q19 3 26 7.5t11 20.5l6 25q4 24 4 33q0 76 -135 76q-167 0 -186 -144l-283 15q13 90 59.5 157.5t116 105.5t150.5 56t174 18q176 0 281.5 -64t105.5 -190q0 -40 -14 -108l-93 -408q-6 -27 -6 -39q0 -24 41 -24q19 0 31 2 l-37 -176q-51 -17 -133 -17q-152 0 -168 86q-41 -39 -98 -62.5t-156 -23.5q-96 0 -172.5 29.5t-125 95t-48.5 158.5zM332 272q0 -49 36 -73.5t93 -24.5q72 0 124 37t68 115l23 108q-37 -12 -84 -20l-62 -11q-47 -7 -78 -14.5t-61 -22t-44.5 -38t-14.5 -56.5zM455 1290 q0 98 66.5 164t164.5 66t165 -66t67 -164t-66.5 -163.5t-165.5 -65.5q-98 0 -164.5 65.5t-66.5 163.5zM612 1290q0 -30 21 -50.5t51 -20.5t51 20.5t21 50.5t-21 51t-51 21t-51 -21t-21 -51z" />
<glyph unicode="&#xe6;" horiz-adv-x="1712" d="M41 256q0 156 103 234t307 106l239 33q19 3 26 7.5t11 20.5l6 25q4 24 4 33q0 76 -135 76q-167 0 -186 -144l-283 15q13 90 59.5 157.5t116 105.5t150.5 56t174 18q199 0 303 -79q129 79 293 79q111 0 195.5 -32.5t136 -91t77 -134.5t25.5 -168q0 -78 -18 -161h-693 q0 -102 56.5 -153.5t152.5 -51.5q85 0 153.5 44t104.5 107l197 -141q-31 -46 -73 -85.5t-101 -76.5t-140.5 -58.5t-175.5 -21.5q-231 0 -348 123q-147 -123 -375 -123q-160 0 -261 72t-101 209zM332 274q0 -100 129 -100q68 0 122 37.5t66 95.5l27 127q-37 -12 -84 -20 l-62 -11q-48 -7 -78 -14.5t-60.5 -21.5t-45 -37t-14.5 -56zM987 606h393q0 81 -41.5 131.5t-126.5 50.5q-90 0 -150.5 -53t-74.5 -129z" />
<glyph unicode="&#xe7;" horiz-adv-x="1052" d="M80 399q0 120 37.5 227t107.5 191t182 133t250 49q176 0 281 -83t135 -232l-289 -80q-8 77 -47 118.5t-108 41.5q-81 0 -141 -56t-86.5 -135t-26.5 -165q0 -92 45 -142.5t123 -50.5q138 0 202 141l254 -123q-58 -104 -168 -176.5t-278 -79.5l-55 -38q90 0 138 -46.5 t48 -111.5q0 -84 -63.5 -132t-155.5 -48q-85 0 -152 34l49 127q28 -22 78 -22q29 0 47.5 12t18.5 37q0 23 -17.5 35t-44.5 12q-50 0 -79 -29l-54 89l107 88q-162 26 -250 135t-88 280z" />
<glyph unicode="&#xe8;" horiz-adv-x="1124" d="M82 408q0 111 36.5 215t104 188.5t176.5 136t242 51.5q111 0 195.5 -32.5t136 -91t77 -134.5t25.5 -168q0 -78 -18 -161h-692q0 -102 56 -153.5t152 -51.5q85 0 153.5 44t104.5 107l197 -141q-31 -46 -72.5 -85.5t-101 -76.5t-140.5 -58.5t-175 -21.5q-216 0 -336.5 112 t-120.5 321zM328 1393h362l135 -297h-256zM399 606h394q0 81 -41.5 131.5t-126.5 50.5q-90 0 -151 -53t-75 -129z" />
<glyph unicode="&#xe9;" horiz-adv-x="1124" d="M82 408q0 111 36.5 215t104 188.5t176.5 136t242 51.5q111 0 195.5 -32.5t136 -91t77 -134.5t25.5 -168q0 -78 -18 -161h-692q0 -102 56 -153.5t152 -51.5q85 0 153.5 44t104.5 107l197 -141q-31 -46 -72.5 -85.5t-101 -76.5t-140.5 -58.5t-175 -21.5q-216 0 -336.5 112 t-120.5 321zM399 606h394q0 81 -41.5 131.5t-126.5 50.5q-90 0 -151 -53t-75 -129zM516 1096l135 297h363l-242 -297h-256z" />
<glyph unicode="&#xea;" horiz-adv-x="1124" d="M82 408q0 111 36.5 215t104 188.5t176.5 136t242 51.5q111 0 195.5 -32.5t136 -91t77 -134.5t25.5 -168q0 -78 -18 -161h-692q0 -102 56 -153.5t152 -51.5q85 0 153.5 44t104.5 107l197 -141q-31 -46 -72.5 -85.5t-101 -76.5t-140.5 -58.5t-175 -21.5q-216 0 -336.5 112 t-120.5 321zM311 1096l318 297h209l157 -297h-219l-76 131l-135 -131h-254zM399 606h394q0 81 -41.5 131.5t-126.5 50.5q-90 0 -151 -53t-75 -129z" />
<glyph unicode="&#xeb;" horiz-adv-x="1124" d="M82 408q0 111 36.5 215t104 188.5t176.5 136t242 51.5q111 0 195.5 -32.5t136 -91t77 -134.5t25.5 -168q0 -78 -18 -161h-692q0 -102 56 -153.5t152 -51.5q85 0 153.5 44t104.5 107l197 -141q-31 -46 -72.5 -85.5t-101 -76.5t-140.5 -58.5t-175 -21.5q-216 0 -336.5 112 t-120.5 321zM367 1128l51 238h239l-51 -238h-239zM399 606h394q0 81 -41.5 131.5t-126.5 50.5q-90 0 -151 -53t-75 -129zM745 1128l52 238h239l-51 -238h-240z" />
<glyph unicode="&#xec;" horiz-adv-x="559" d="M51 0l205 975h301l-207 -975h-299zM70 1393h362l135 -297h-256z" />
<glyph unicode="&#xed;" horiz-adv-x="559" d="M51 0l205 975h301l-207 -975h-299zM293 1096l135 297h363l-242 -297h-256z" />
<glyph unicode="&#xee;" horiz-adv-x="559" d="M51 0l205 975h301l-207 -975h-299zM76 1096l317 297h209l158 -297h-219l-76 131l-135 -131h-254z" />
<glyph unicode="&#xef;" horiz-adv-x="559" d="M51 0l205 975h301l-207 -975h-299zM129 1128l51 238h240l-51 -238h-240zM508 1128l51 238h240l-51 -238h-240z" />
<glyph unicode="&#xf0;" horiz-adv-x="1161" d="M33 399q0 130 43.5 243t116.5 190t172 121t208 44q128 0 207 -51q-14 57 -61 158l-195 -57l-57 176l160 49q-23 38 -49 71l249 109q47 -63 68 -98l205 61l55 -178l-170 -51q92 -218 92 -461q0 -117 -20.5 -223t-67 -203.5t-115 -168.5t-171 -113t-228.5 -42 q-210 0 -326 113.5t-116 310.5zM328 408q0 -92 45 -142.5t123 -50.5q63 0 113 31.5t79.5 83t44.5 112t15 125.5q0 92 -44 144.5t-122 52.5q-81 0 -141 -56t-86.5 -135t-26.5 -165z" />
<glyph unicode="&#xf1;" horiz-adv-x="1179" d="M51 0l205 975h295l-29 -127q47 63 130 107t190 44q140 0 208 -72.5t68 -193.5q0 -70 -26 -196l-115 -537h-297l104 492q21 103 21 143q0 54 -27 82t-90 28q-87 0 -149.5 -70t-85.5 -175l-105 -500h-297zM385 1171q7 31 25.5 68t49 76t78.5 64.5t103 25.5q57 0 145 -45 q70 -39 119 -39q60 0 90 76l172 -70q-20 -51 -39 -87t-50 -73.5t-74.5 -57t-98.5 -19.5q-71 0 -149 38q-8 4 -24.5 12.5t-23.5 12t-19.5 9.5t-19.5 8t-15.5 4t-16.5 2q-53 0 -80 -76z" />
<glyph unicode="&#xf2;" horiz-adv-x="1150" d="M80 399q0 120 37.5 227t107.5 191t182 133t250 49q210 0 324.5 -115.5t114.5 -312.5q0 -88 -21 -172t-67 -161.5t-112 -135.5t-162.5 -92.5t-211.5 -34.5q-210 0 -326 113.5t-116 310.5zM330 1393h362l135 -297h-256zM375 408q0 -92 45 -142.5t123 -50.5q63 0 113 31.5 t79.5 83t44.5 112t15 125.5q0 92 -44 144.5t-122 52.5q-81 0 -141 -56t-86.5 -135t-26.5 -165z" />
<glyph unicode="&#xf3;" horiz-adv-x="1150" d="M80 399q0 120 37.5 227t107.5 191t182 133t250 49q210 0 324.5 -115.5t114.5 -312.5q0 -88 -21 -172t-67 -161.5t-112 -135.5t-162.5 -92.5t-211.5 -34.5q-210 0 -326 113.5t-116 310.5zM375 408q0 -92 45 -142.5t123 -50.5q63 0 113 31.5t79.5 83t44.5 112t15 125.5 q0 92 -44 144.5t-122 52.5q-81 0 -141 -56t-86.5 -135t-26.5 -165zM539 1096l135 297h362l-241 -297h-256z" />
<glyph unicode="&#xf4;" horiz-adv-x="1150" d="M80 399q0 120 37.5 227t107.5 191t182 133t250 49q210 0 324.5 -115.5t114.5 -312.5q0 -88 -21 -172t-67 -161.5t-112 -135.5t-162.5 -92.5t-211.5 -34.5q-210 0 -326 113.5t-116 310.5zM334 1096l317 297h209l158 -297h-219l-76 131l-135 -131h-254zM375 408 q0 -92 45 -142.5t123 -50.5q63 0 113 31.5t79.5 83t44.5 112t15 125.5q0 92 -44 144.5t-122 52.5q-81 0 -141 -56t-86.5 -135t-26.5 -165z" />
<glyph unicode="&#xf5;" horiz-adv-x="1150" d="M80 399q0 120 37.5 227t107.5 191t182 133t250 49q210 0 324.5 -115.5t114.5 -312.5q0 -88 -21 -172t-67 -161.5t-112 -135.5t-162.5 -92.5t-211.5 -34.5q-210 0 -326 113.5t-116 310.5zM326 1171q7 31 25.5 68t49 76t78.5 64.5t103 25.5q57 0 145 -45q70 -39 119 -39 q60 0 90 76l172 -70q-20 -51 -39 -87t-50 -73.5t-74.5 -57t-98.5 -19.5q-72 0 -150 38q-8 4 -28.5 15t-28 14.5t-21 9t-22.5 7.5t-18 2q-53 0 -80 -76zM375 408q0 -92 45 -142.5t123 -50.5q63 0 113 31.5t79.5 83t44.5 112t15 125.5q0 92 -44 144.5t-122 52.5 q-81 0 -141 -56t-86.5 -135t-26.5 -165z" />
<glyph unicode="&#xf6;" horiz-adv-x="1150" d="M80 399q0 120 37.5 227t107.5 191t182 133t250 49q210 0 324.5 -115.5t114.5 -312.5q0 -88 -21 -172t-67 -161.5t-112 -135.5t-162.5 -92.5t-211.5 -34.5q-210 0 -326 113.5t-116 310.5zM375 408q0 -92 45 -142.5t123 -50.5q63 0 113 31.5t79.5 83t44.5 112t15 125.5 q0 92 -44 144.5t-122 52.5q-81 0 -141 -56t-86.5 -135t-26.5 -165zM391 1128l51 238h240l-51 -238h-240zM770 1128l51 238h240l-51 -238h-240z" />
<glyph unicode="&#xf7;" horiz-adv-x="1583" d="M102 356v267h1377v-267h-1377zM635 0v283h307v-283h-307zM635 690v283h307v-283h-307z" />
<glyph unicode="&#xf8;" horiz-adv-x="1150" d="M-16 166l112 96q-16 55 -16 137q0 120 37.5 227t107.5 191t182 133t250 49t242 -55l107 90l145 -176l-96 -82q41 -90 41 -205q0 -88 -21 -172t-67 -161.5t-112 -135.5t-162.5 -92.5t-211.5 -34.5q-185 0 -299 88l-88 -73zM381 492l309 262q-30 10 -61 10 q-100 0 -163.5 -78.5t-84.5 -193.5zM432 252q43 -37 111 -37q63 0 112.5 30.5t78.5 81.5t44.5 110.5t16.5 123.5z" />
<glyph unicode="&#xf9;" horiz-adv-x="1155" d="M96 242q0 65 27 196l115 537h297l-105 -492q-20 -98 -20 -143q0 -55 25.5 -83t88.5 -28q86 0 145.5 69.5t82.5 176.5l104 500h297l-205 -975h-295l29 127q-48 -65 -126.5 -108.5t-184.5 -43.5q-140 0 -207.5 73t-67.5 194zM375 1393h362l135 -297h-256z" />
<glyph unicode="&#xfa;" horiz-adv-x="1155" d="M96 242q0 65 27 196l115 537h297l-105 -492q-20 -98 -20 -143q0 -55 25.5 -83t88.5 -28q86 0 145.5 69.5t82.5 176.5l104 500h297l-205 -975h-295l29 127q-48 -65 -126.5 -108.5t-184.5 -43.5q-140 0 -207.5 73t-67.5 194zM559 1096l135 297h363l-242 -297h-256z" />
<glyph unicode="&#xfb;" horiz-adv-x="1155" d="M96 242q0 65 27 196l115 537h297l-105 -492q-20 -98 -20 -143q0 -55 25.5 -83t88.5 -28q86 0 145.5 69.5t82.5 176.5l104 500h297l-205 -975h-295l29 127q-48 -65 -126.5 -108.5t-184.5 -43.5q-140 0 -207.5 73t-67.5 194zM365 1096l317 297h209l158 -297h-220l-75 131 l-136 -131h-253z" />
<glyph unicode="&#xfc;" horiz-adv-x="1155" d="M96 242q0 65 27 196l115 537h297l-105 -492q-20 -98 -20 -143q0 -55 25.5 -83t88.5 -28q86 0 145.5 69.5t82.5 176.5l104 500h297l-205 -975h-295l29 127q-48 -65 -126.5 -108.5t-184.5 -43.5q-140 0 -207.5 73t-67.5 194zM418 1128l51 238h240l-52 -238h-239zM797 1128 l51 238h239l-51 -238h-239z" />
<glyph unicode="&#xfd;" horiz-adv-x="1007" d="M-98 -381l49 238q39 -2 90 -2q35 0 58 2t48 8.5t39.5 19t23.5 34t9 52.5q0 16 -4 56l-98 948h319l21 -506l6 -264h2q58 147 113 268l227 502h332l-553 -1065q-65 -124 -128.5 -187t-149.5 -88.5t-228 -25.5q-81 0 -176 10zM475 1096l135 297h363l-242 -297h-256z" />
<glyph unicode="&#xfe;" horiz-adv-x="1206" d="M-27 -369l375 1762h299l-112 -516q39 55 108 88.5t162 33.5q68 0 128.5 -26.5t108 -76t75.5 -128.5t28 -176q0 -163 -63 -303.5t-181 -227t-266 -86.5q-91 0 -161 30.5t-103 82.5l-99 -457h-299zM434 397q0 -86 40 -139t116 -53q80 0 139.5 58.5t86 138.5t26.5 163 q0 93 -39.5 147t-118.5 54q-60 0 -109.5 -35.5t-79 -91t-45.5 -118.5t-16 -124z" />
<glyph unicode="&#xff;" horiz-adv-x="1007" d="M-98 -381l49 238q39 -2 90 -2q35 0 58 2t48 8.5t39.5 19t23.5 34t9 52.5q0 16 -4 56l-98 948h319l21 -506l6 -264h2q58 147 113 268l227 502h332l-553 -1065q-65 -124 -128.5 -187t-149.5 -88.5t-228 -25.5q-81 0 -176 10zM346 1128l51 238h240l-51 -238h-240zM725 1128 l51 238h240l-51 -238h-240z" />
<glyph unicode="&#x152;" horiz-adv-x="1931" d="M139 584q0 234 93 425t253.5 298.5t352.5 107.5q152 0 254 -57l8 35h930l-58 -273h-622l-58 -274h559l-57 -271h-559l-64 -299h670l-57 -276h-977l4 25q-73 -27 -170 -27q-103 0 -192 34.5t-159 103.5t-110.5 184t-40.5 264zM446 580q0 -163 72.5 -253.5t208.5 -90.5 q70 0 135 26l176 840q-70 61 -180 61q-108 0 -190.5 -51.5t-129 -137.5t-69.5 -185.5t-23 -208.5z" />
<glyph unicode="&#x153;" horiz-adv-x="1818" d="M80 399q0 120 37.5 227t107.5 191t182 133t250 49q211 0 328 -120q143 120 350 120q111 0 195.5 -32.5t136 -91t77 -134.5t25.5 -168q0 -78 -18 -161h-692q0 -102 56.5 -153.5t152.5 -51.5q85 0 153.5 44t104.5 107l196 -141q-31 -46 -72.5 -85.5t-101 -76.5 t-140.5 -58.5t-175 -21.5q-227 0 -346 119q-145 -119 -365 -119q-210 0 -326 113.5t-116 310.5zM375 408q0 -92 45 -142.5t123 -50.5q63 0 113 31.5t79.5 83t44.5 112t15 125.5q0 92 -44 144.5t-122 52.5q-81 0 -141 -56t-86.5 -135t-26.5 -165zM1094 606h393 q0 81 -41.5 131.5t-126.5 50.5q-90 0 -150.5 -53t-74.5 -129z" />
<glyph unicode="&#x178;" horiz-adv-x="1202" d="M154 1393h315l203 -545l426 545h370l-690 -834l-119 -559h-309l119 559zM498 1593l51 238h239l-51 -238h-239zM877 1593l51 238h239l-51 -238h-239z" />
<glyph unicode="&#x2c6;" horiz-adv-x="993" d="M256 1096l317 297h209l158 -297h-219l-76 131l-135 -131h-254z" />
<glyph unicode="&#x2dc;" horiz-adv-x="1013" d="M270 1159q7 31 25.5 68t49 76t78.5 64.5t103 25.5q58 0 146 -45q70 -39 119 -39q61 0 90 75l172 -69q-20 -51 -39 -87t-50 -74t-74.5 -57.5t-98.5 -19.5q-70 0 -150 39l-19 9.5l-18 9t-15.5 8t-15.5 7.5t-13.5 5t-13.5 4.5t-11.5 2.5t-12.5 1q-53 0 -80 -76z" />
<glyph unicode="&#x2000;" horiz-adv-x="980" />
<glyph unicode="&#x2001;" horiz-adv-x="1960" />
<glyph unicode="&#x2002;" horiz-adv-x="980" />
<glyph unicode="&#x2003;" horiz-adv-x="1960" />
<glyph unicode="&#x2004;" horiz-adv-x="653" />
<glyph unicode="&#x2005;" horiz-adv-x="490" />
<glyph unicode="&#x2006;" horiz-adv-x="326" />
<glyph unicode="&#x2007;" horiz-adv-x="326" />
<glyph unicode="&#x2008;" horiz-adv-x="245" />
<glyph unicode="&#x2009;" horiz-adv-x="392" />
<glyph unicode="&#x200a;" horiz-adv-x="108" />
<glyph unicode="&#x2010;" horiz-adv-x="772" d="M111 461l59 282h582l-60 -282h-581z" />
<glyph unicode="&#x2011;" horiz-adv-x="772" d="M111 461l59 282h582l-60 -282h-581z" />
<glyph unicode="&#x2012;" horiz-adv-x="772" d="M111 461l59 282h582l-60 -282h-581z" />
<glyph unicode="&#x2013;" horiz-adv-x="1329" d="M164 465l59 274h1043l-60 -274h-1042z" />
<glyph unicode="&#x2014;" horiz-adv-x="1718" d="M164 465l59 274h1432l-60 -274h-1431z" />
<glyph unicode="&#x2018;" horiz-adv-x="512" d="M143 782l52 244q10 45 16 73t16.5 67t20.5 63t24 55t30.5 50t38 41t47.5 34.5t58 23.5t71 16t85 5h8l-32 -158q-79 -5 -121 -36.5t-60 -114.5h148l-76 -363h-326z" />
<glyph unicode="&#x2019;" horiz-adv-x="573" d="M188 721l33 158q79 5 120.5 36.5t59.5 114.5h-147l76 363h325l-51 -244q-10 -45 -16 -73t-16.5 -67t-20.5 -63t-24 -55t-30.5 -50t-38 -41t-47.5 -34.5t-58 -23.5t-71 -16t-85 -5h-9z" />
<glyph unicode="&#x201a;" horiz-adv-x="1021" d="M-31 -309l33 157q79 5 120.5 37t59.5 115h-147l76 362h325l-51 -243q-11 -50 -18 -81t-19 -73.5t-23.5 -68t-29.5 -58t-38 -51.5t-48.5 -40t-61.5 -31.5t-76 -17.5t-94 -7h-8zM426 -309l33 157q79 5 120.5 37t59.5 115h-147l75 362h326l-51 -243q-11 -50 -18 -81 t-19 -73.5t-23.5 -68t-29.5 -58t-38 -51.5t-48.5 -40t-61.5 -31.5t-76 -17.5t-94 -7h-8z" />
<glyph unicode="&#x201c;" horiz-adv-x="1009" d="M184 741l52 244q10 45 16 73t16.5 67t20.5 63t24 55t30.5 50t38 41t47.5 34.5t58 23.5t71 16t85 5h8l-33 -158q-79 -5 -120.5 -36.5t-59.5 -114.5h148l-76 -363h-326zM641 741l51 244q11 50 18 81t19 73.5t23.5 68t29.5 58t38 51.5t48.5 40t61.5 31.5t76 17.5t94 7h8 l-33 -158q-79 -5 -120.5 -36.5t-59.5 -114.5h147l-75 -363h-326z" />
<glyph unicode="&#x201d;" horiz-adv-x="1030" d="M188 721l33 158q79 5 120.5 36.5t59.5 114.5h-147l76 363h325l-51 -244q-10 -45 -16 -73t-16.5 -67t-20.5 -63t-24 -55t-30.5 -50t-38 -41t-47.5 -34.5t-58 -23.5t-71 -16t-85 -5h-9zM645 721l33 158q79 5 120.5 36.5t59.5 114.5h-147l75 363h326l-51 -244 q-11 -50 -18 -81t-19 -73.5t-23.5 -68t-29.5 -58t-38 -51.5t-48.5 -40t-61.5 -31.5t-76 -17.5t-94 -7h-8z" />
<glyph unicode="&#x201e;" horiz-adv-x="565" d="M-31 -309l33 157q79 5 120.5 37t59.5 115h-147l76 362h325l-51 -243q-11 -50 -18 -81t-19 -73.5t-23.5 -68t-29.5 -58t-38 -51.5t-48.5 -40t-61.5 -31.5t-76 -17.5t-94 -7h-8z" />
<glyph unicode="&#x2022;" horiz-adv-x="823" d="M137 684q0 138 96.5 235t233.5 97q138 0 234 -97t96 -235q0 -137 -96 -233.5t-234 -96.5q-137 0 -233.5 97t-96.5 233z" />
<glyph unicode="&#x2026;" horiz-adv-x="1970" d="M35 0l76 365h325l-76 -365h-325zM750 0l75 365h326l-76 -365h-325zM1434 0l75 365h326l-76 -365h-325z" />
<glyph unicode="&#x202f;" horiz-adv-x="392" />
<glyph unicode="&#x2039;" horiz-adv-x="542" d="M63 442l60 256l444 316l-69 -332l-201 -129l143 -150l-63 -303z" />
<glyph unicode="&#x203a;" horiz-adv-x="552" d="M33 100l71 334l201 129l-143 150l61 301l312 -342l-58 -256z" />
<glyph unicode="&#x205f;" horiz-adv-x="490" />
<glyph unicode="&#x20ac;" d="M18 424l113 225h94q1 8 11 78h-160l125 225h94q79 209 226.5 337t350.5 128q59 0 113 -10.5t109.5 -38.5t99 -71.5t77.5 -113.5t48 -161l-305 -88q-3 102 -44 160.5t-116 58.5q-145 0 -238 -201h340l-116 -225h-291q-4 -16 -7.5 -45t-4.5 -33h270l-119 -225h-149 q27 -182 159 -182q144 0 234 198l272 -118q-82 -160 -211.5 -253.5t-304.5 -93.5q-206 0 -324.5 119t-140.5 330h-205z" />
<glyph unicode="&#x2122;" horiz-adv-x="1843" d="M190 1169v224h728v-224h-244v-708h-240v708h-244zM989 461h230v436q18 -84 32 -137l82 -299h178l80 305l31 133v-438h227v932h-282l-86 -314q-19 -69 -33.5 -129.5t-19.5 -85.5l-5 -26q-18 87 -63 237l-96 318h-275v-932z" />
<glyph unicode="&#x25fc;" horiz-adv-x="972" d="M0 0v973h973v-973h-973z" />
</font>
</defs>
</svg>
