<?xml version="1.0" standalone="no"?>
<!DOCTYPE svg PUBLIC "-//W3C//DTD SVG 1.1//EN" "http://www.w3.org/Graphics/SVG/1.1/DTD/svg11.dtd" >
<svg xmlns="http://www.w3.org/2000/svg">
<metadata></metadata>
<defs>
<font id="theinhardtregular" horiz-adv-x="1208" >
<font-face units-per-em="2048" ascent="1393" descent="-655" />
<missing-glyph horiz-adv-x="552" />
<glyph unicode="&#xfb01;" horiz-adv-x="1077" d="M8 846v129h199v196q0 119 59.5 177.5t188.5 58.5q69 0 129 -12v-138q-56 7 -80 7q-82 0 -107 -37q-20 -31 -20 -101v-151h207v-129h-207v-846h-170v846h-199zM756 0v975h170v-975h-170zM756 1176v217h170v-217h-170z" />
<glyph unicode="&#xfb02;" horiz-adv-x="1077" d="M8 846v129h199v196q0 119 59.5 177.5t188.5 58.5q69 0 129 -12v-138q-56 7 -80 7q-82 0 -107 -37q-20 -31 -20 -101v-151h207v-129h-207v-846h-170v846h-199zM756 0v1393h170v-1393h-170z" />
<glyph horiz-adv-x="2048" />
<glyph horiz-adv-x="2048" />
<glyph unicode="&#xd;" horiz-adv-x="2048" />
<glyph unicode=" "  horiz-adv-x="552" />
<glyph unicode="&#x09;" horiz-adv-x="552" />
<glyph unicode="&#xa0;" horiz-adv-x="552" />
<glyph unicode="!" horiz-adv-x="477" d="M147 0v256h183v-256h-183zM154 698v695h170v-695l-25 -344h-119z" />
<glyph unicode="&#x22;" horiz-adv-x="714" d="M127 1243v150h176v-150l-43 -424h-94zM412 1243v150h176v-150l-43 -424h-94z" />
<glyph unicode="#" d="M6 362v154h301l51 305h-309l-2 156h334l68 414h155l-67 -414h204l68 414h156l-68 -414h297v-156h-320l-51 -305h330v-154h-354l-58 -362h-155l57 362h-205l-57 -362h-156l58 362h-277zM463 516h205l51 305h-205z" />
<glyph unicode="$" d="M47 272l146 103q42 -79 124.5 -137.5t194.5 -77.5v489l-35 10q-70 18 -116.5 33.5t-99.5 44t-84 63.5t-52 89.5t-21 124.5q0 109 55.5 193t146.5 130t206 56v200h158v-204q255 -35 397 -220l-131 -108q-102 140 -266 170v-447l39 -8q74 -19 128 -38t107.5 -50t87 -69.5 t54 -94.5t20.5 -127q0 -169 -120.5 -273.5t-315.5 -123.5v-188h-158v188q-159 17 -278.5 89.5t-186.5 182.5zM283 1030q0 -87 51.5 -131t177.5 -76v414q-104 -11 -166.5 -65.5t-62.5 -141.5zM670 158q115 13 184.5 71.5t69.5 157.5q0 89 -62.5 138.5t-191.5 84.5v-452z" />
<glyph unicode="%" horiz-adv-x="1873" d="M82 948q0 88 16.5 165.5t52 146t101.5 109t156 40.5q75 0 133 -28.5t92.5 -73.5t57 -107.5t30.5 -123.5t8 -128q0 -115 -33.5 -210t-109 -157.5t-183.5 -62.5q-84 0 -148 36.5t-100.5 98.5t-54.5 136.5t-18 158.5zM236 963q0 -87 15.5 -156t55 -115.5t99.5 -46.5 q47 0 82 24t54.5 67t28.5 95t9 115q0 155 -43.5 246.5t-130.5 91.5q-85 0 -127.5 -90t-42.5 -231zM489 0l725 1393h152l-723 -1393h-154zM1135 410q0 69 9.5 132t33 124t59.5 105.5t93.5 71.5t129.5 27q75 0 133 -28.5t93 -73.5t57.5 -107.5t30.5 -123t8 -127.5 q0 -115 -33.5 -210t-109 -157.5t-183.5 -62.5q-84 0 -148 36.5t-100.5 98.5t-54.5 136.5t-18 158.5zM1288 424q0 -87 15.5 -156t55 -115.5t99.5 -46.5q47 0 82 24t54.5 67.5t28.5 95.5t9 115q0 155 -43.5 246t-130.5 91q-85 0 -127.5 -90t-42.5 -231z" />
<glyph unicode="&#x26;" horiz-adv-x="1247" d="M57 371q0 80 24 145t72.5 115t101.5 86.5t130 75.5l-23 30q-69 90 -90 130q-41 79 -41 165q0 120 91 209.5t243 89.5q157 0 242.5 -82t85.5 -205q0 -225 -262 -374l250 -301q43 141 59 241l156 -39q-27 -181 -107 -340l279 -317h-224l-149 174q-153 -199 -412 -199 q-185 0 -305.5 106.5t-120.5 289.5zM231 377q0 -116 79.5 -183t191.5 -67q94 0 171.5 45t125.5 123l-322 385q-56 -31 -93.5 -56.5t-76 -62.5t-57.5 -83t-19 -101zM406 1116q0 -37 15.5 -76t32 -62t44.5 -58l39 -50q186 102 186 242q0 73 -45.5 116.5t-112.5 43.5 q-71 0 -115 -42.5t-44 -113.5z" />
<glyph unicode="'" horiz-adv-x="430" d="M127 1243v150h176v-150l-43 -424h-94z" />
<glyph unicode="(" horiz-adv-x="536" d="M119 526q0 235 67 462t195 421l141 -20q-119 -196 -180 -416t-61 -441q0 -212 65.5 -436t173.5 -405l-141 -27q-132 206 -196 415.5t-64 446.5z" />
<glyph unicode=")" horiz-adv-x="536" d="M10 1389l142 20q128 -194 195 -421t67 -462q0 -237 -64 -446.5t-196 -415.5l-142 27q108 181 174 405t66 436q0 220 -61.5 440.5t-180.5 416.5z" />
<glyph unicode="*" horiz-adv-x="763" d="M16 1073l45 139l248 -84v265h146l-2 -265l249 84l46 -139l-252 -80l157 -211l-118 -86l-154 213l-152 -213l-118 86l155 211z" />
<glyph unicode="+" horiz-adv-x="1583" d="M190 530v156h523v528h157v-528h521v-156h-521v-530h-157v530h-523z" />
<glyph unicode="," horiz-adv-x="395" d="M102 0v236h195v-154q0 -170 -18 -236q-38 -132 -177 -143v94q48 6 68 41q23 42 23 133v29h-91z" />
<glyph unicode="-" horiz-adv-x="692" d="M82 467v178h528v-178h-528z" />
<glyph unicode="." horiz-adv-x="391" d="M98 0v236h195v-236h-195z" />
<glyph unicode="/" horiz-adv-x="925" d="M12 0l736 1393h165l-733 -1393h-168z" />
<glyph unicode="0" d="M74 694q0 120 19.5 226t61 198t103 158t150 103.5t196.5 37.5t196.5 -37.5t150 -103t103.5 -157.5t61.5 -198t19.5 -227q0 -114 -16.5 -215.5t-56.5 -195t-99.5 -161t-151.5 -107.5t-207 -40q-116 0 -208 40t-151.5 107t-98.5 161t-55.5 195t-16.5 216zM260 698 q0 -96 10 -176.5t34.5 -155t62.5 -126t98.5 -82.5t138.5 -31q344 0 344 571q0 166 -35 291.5t-114 202t-195 76.5t-195 -76.5t-114 -202t-35 -291.5z" />
<glyph unicode="1" d="M227 958v138h45q158 0 238 59q100 73 106 238h152v-1393h-174v958h-367z" />
<glyph unicode="2" d="M139 989q0 86 31.5 163.5t89.5 136.5t146 93.5t194 34.5q117 0 206.5 -35.5t142.5 -98.5t79.5 -143t26.5 -175q0 -91 -28.5 -178t-73.5 -158t-111 -140.5t-130.5 -122t-142.5 -106.5q-60 -40 -168 -106h664v-154h-915v145q88 55 221 156.5t252 204.5q57 50 97.5 94 t77.5 100t56.5 120.5t19.5 135.5q0 145 -78.5 226.5t-205.5 81.5q-131 0 -201 -76.5t-70 -196.5q0 -105 46 -203l-195 17q-10 23 -20.5 77t-10.5 107z" />
<glyph unicode="3" d="M100 391l166 53q9 -159 93 -238t214 -79q144 0 227 74t83 200q0 167 -148 226q-81 32 -225 32h-127v144h115q145 0 231 39q117 52 117 198q0 104 -70 166t-196 62q-131 0 -203.5 -75t-87.5 -189l-156 49q3 43 19.5 90t53 96.5t87 88.5t127.5 64t168 25q214 0 327 -100 t113 -262q0 -116 -57 -196t-148 -118q104 -38 174 -126t70 -220q0 -187 -134 -303.5t-362 -116.5q-214 0 -337 112t-134 304z" />
<glyph unicode="4" d="M80 344v131l647 918h160v-893h233v-156h-233v-344h-174v344h-633zM274 500h439v444q0 93 8 203q-92 -153 -129 -205z" />
<glyph unicode="5" d="M109 315l172 64q29 -122 109.5 -187t195.5 -65q131 0 221 91t90 263q0 152 -87.5 235t-209.5 83q-112 0 -191.5 -61.5t-111.5 -178.5l-152 49l72 785h787l-11 -160h-622l-41 -387q123 106 295 106q202 0 328 -127.5t126 -347.5q0 -221 -134 -361.5t-363 -140.5 q-183 0 -306.5 89.5t-166.5 250.5z" />
<glyph unicode="6" d="M121 686q0 346 135 538.5t385 192.5q84 0 154 -23t116 -59.5t80 -84.5t51 -94t23 -93l-162 -41q-7 29 -16 55.5t-30.5 63.5t-49 63t-72.5 45t-100 19q-153 0 -237 -127.5t-93 -362.5q53 66 143.5 108t204.5 42q201 0 323 -128t122 -323q0 -100 -31 -190t-89 -160 t-148.5 -111t-202.5 -41q-243 0 -374.5 175.5t-131.5 535.5zM305 594q5 -213 90 -340t232 -127q131 0 212 93t81 247q0 145 -81.5 226t-211.5 81q-95 0 -184 -49t-138 -131z" />
<glyph unicode="7" d="M152 967v426h962v-133q-203 -306 -320.5 -609t-146.5 -651h-192q33 331 148.5 632t314.5 603h-601v-268h-165z" />
<glyph unicode="8" d="M109 393q0 242 239 350q-89 37 -145 116.5t-56 187.5q0 162 120 266t335 104t335 -104t120 -266q0 -102 -57 -184.5t-142 -121.5q240 -115 240 -348q0 -84 -30 -158t-88.5 -133t-155.5 -93t-222 -34t-222 34t-155 93t-87 132.5t-29 158.5zM293 395q0 -113 80.5 -190.5 t228.5 -77.5q149 0 230 77.5t81 190.5q0 122 -83.5 196.5t-227.5 74.5q-143 0 -226 -74.5t-83 -196.5zM322 1040q0 -98 74.5 -163.5t205.5 -65.5q130 0 205.5 65.5t75.5 163.5q0 101 -78 164.5t-203 63.5q-126 0 -203 -63t-77 -165z" />
<glyph unicode="9" d="M102 915q0 100 31 190t89 160t148.5 111t202.5 41q243 0 374.5 -175t131.5 -535q0 -346 -135 -539t-385 -193q-84 0 -154 23.5t-116 59.5t-80 84.5t-51 94.5t-23 93l162 43q7 -29 16 -55.5t30.5 -63.5t49 -63t72.5 -45t100 -19q153 0 237 126t93 361 q-53 -66 -143.5 -107.5t-204.5 -41.5q-134 0 -236 59.5t-155.5 161.5t-53.5 229zM281 928q0 -145 81 -226t211 -81q95 0 184 49t138 131q-5 213 -90 340t-232 127q-131 0 -211.5 -93t-80.5 -247z" />
<glyph unicode=":" horiz-adv-x="399" d="M102 0v236h195v-236h-195zM102 739v236h195v-236h-195z" />
<glyph unicode=";" horiz-adv-x="399" d="M102 0v236h195v-154q0 -170 -18 -236q-38 -132 -177 -143v94q48 6 68 41q23 42 23 133v29h-91zM102 739v236h195v-236h-195z" />
<glyph unicode="&#x3c;" horiz-adv-x="1583" d="M92 606v164l1389 649v-178l-1172 -551l1172 -553v-184z" />
<glyph unicode="=" horiz-adv-x="1583" d="M104 338v156h1377v-156h-1377zM104 694v156h1377v-156h-1377z" />
<glyph unicode="&#x3e;" horiz-adv-x="1583" d="M102 -47v184l1172 553l-1172 551v178l1389 -649v-164z" />
<glyph unicode="?" horiz-adv-x="956" d="M39 1026q0 163 118.5 273t309.5 110q200 0 310 -103t110 -262q0 -90 -31 -168t-71 -127t-105 -110l-53 -49q-60 -54 -83.5 -96.5t-23.5 -120.5v-64h-182v78q0 95 29 156t120 143l76 68q142 125 142 268q0 102 -64.5 168.5t-179.5 66.5q-113 0 -179.5 -68.5t-66.5 -170.5 q0 -45 10.5 -92.5t21.5 -71.5l11 -25l-186 27q-33 59 -33 170zM336 0v227h184v-227h-184z" />
<glyph unicode="@" horiz-adv-x="1693" d="M102 618q0 174 60.5 324t165.5 253.5t249.5 162.5t307.5 59t298 -54.5t223 -149t136.5 -219t48.5 -265.5q0 -291 -125 -432q-94 -107 -229 -107q-68 0 -115 27t-61 72q-78 -103 -258 -103q-133 0 -215 71t-82 198q0 66 22 112.5t67.5 75.5t96 45t125.5 29l164 28 q42 8 56 17t14 31v18q0 69 -38.5 106t-142.5 37q-101 0 -149.5 -47.5t-48.5 -128.5l-142 19q1 142 98.5 216t252.5 74q153 0 235 -61t82 -215v-403q0 -48 15.5 -70.5t50.5 -22.5q78 0 131 114t53 294q0 113 -37.5 214t-106.5 179.5t-177.5 125t-241.5 46.5 q-178 0 -321.5 -83.5t-226.5 -237t-83 -349.5q0 -300 178 -485.5t469 -185.5q175 0 321 72.5t255 207.5l82 -108q-118 -144 -288 -223.5t-374 -79.5q-187 0 -338 59t-250.5 165t-153 253.5t-53.5 324.5zM666 457q0 -68 48 -104t124 -36q93 0 153 47t60 148v127 q-26 -9 -109 -25l-94 -18q-32 -6 -53.5 -11t-48 -16t-42.5 -24.5t-27 -36t-11 -51.5z" />
<glyph unicode="A" horiz-adv-x="1200" d="M6 0l498 1393h201l489 -1393h-195l-139 401h-526l-139 -401h-189zM387 557h422l-158 459q-40 106 -53 164h-2q-25 -86 -53 -166z" />
<glyph unicode="B" horiz-adv-x="1296" d="M160 0v1393h545q114 0 182 -12.5t123 -39.5q182 -92 182 -311q0 -110 -57.5 -186.5t-153.5 -106.5q119 -36 188.5 -125.5t69.5 -216.5q0 -116 -49 -201t-141 -133q-58 -32 -131 -46.5t-199 -14.5h-559zM340 162h371q159 0 215 24q61 28 98 87t37 133q0 125 -103 194 q-46 28 -102 35.5t-145 7.5h-371v-481zM340 799h352q132 0 207 28q54 25 84.5 73t30.5 114t-30.5 115t-82.5 73q-67 27 -209 27h-352v-430z" />
<glyph unicode="C" horiz-adv-x="1335" d="M90 696q0 211 76.5 374t221.5 255t337 92q182 0 320 -83.5t217 -233.5l-154 -105q-54 128 -152 196.5t-231 68.5q-206 0 -326 -153t-120 -411q0 -257 120 -410t326 -153q133 0 231.5 69t153.5 197l164 -82q-76 -162 -218 -252t-331 -90q-138 0 -255 49t-201 140 t-131.5 227.5t-47.5 304.5z" />
<glyph unicode="D" horiz-adv-x="1359" d="M160 0v1393h340q200 0 307 -17t199 -84q116 -86 187 -242t71 -348q0 -172 -53.5 -315.5t-151.5 -241.5q-37 -36 -73.5 -61t-82.5 -41t-81 -25t-98.5 -13t-104 -4.5t-127.5 -0.5h-332zM340 160h192q81 0 120.5 1.5t95 9t95.5 26t77 49.5q73 60 118 179.5t45 268.5 q0 135 -45.5 257t-124.5 192q-68 57 -152 72.5t-255 15.5h-166v-1071z" />
<glyph unicode="E" horiz-adv-x="1212" d="M160 0v1393h932v-162h-752v-434h682v-162h-682v-473h790v-162h-970z" />
<glyph unicode="F" horiz-adv-x="1130" d="M160 0v1393h919v-160h-739v-434h668v-160h-668v-639h-180z" />
<glyph unicode="G" horiz-adv-x="1452" d="M90 696q0 211 76.5 374.5t221 255t335.5 91.5q185 0 323 -83.5t214 -233.5l-152 -103q-55 126 -153.5 194.5t-231.5 68.5q-205 0 -326 -153.5t-121 -410.5q0 -256 121 -410.5t326 -154.5q107 0 198 38t136 103q38 56 56.5 125.5t19.5 173.5h-480v162h647v-733h-170v178 q-56 -86 -161 -144.5t-250 -58.5q-138 0 -254 49t-199 140t-129.5 227.5t-46.5 304.5z" />
<glyph unicode="H" horiz-adv-x="1413" d="M160 0v1393h180v-590h733v590h180v-1393h-180v641h-733v-641h-180z" />
<glyph unicode="I" horiz-adv-x="499" d="M160 0v1393h180v-1393h-180z" />
<glyph unicode="J" horiz-adv-x="753" d="M53 -6v164q81 -25 152 -25q107 0 164 47q39 32 48 86t9 174v953h180v-1059q0 -143 -49 -219q-87 -140 -334 -140q-92 0 -170 19z" />
<glyph unicode="K" horiz-adv-x="1306" d="M160 0v1393h180v-723l700 723h242l-551 -555l586 -838h-227l-492 713l-258 -267v-446h-180z" />
<glyph unicode="L" horiz-adv-x="1081" d="M160 0v1393h182v-1231h688v-162h-870z" />
<glyph unicode="M" horiz-adv-x="1593" d="M160 0v1393h258l317 -947q20 -56 44.5 -133t25.5 -80q26 109 61 216l305 944h263v-1393h-174v909v295h-3q-38 -155 -65 -235l-305 -969h-170l-316 952q-12 35 -29 93t-28 99l-10 40h-2q2 -168 2 -291v-893h-174z" />
<glyph unicode="N" horiz-adv-x="1435" d="M160 0v1393h178l655 -936q78 -110 105 -158h2q-4 102 -4 225v869h180v-1393h-178l-652 938q-81 115 -108 168h-2q4 -90 4 -172v-934h-180z" />
<glyph unicode="O" horiz-adv-x="1443" d="M90 696q0 211 76.5 374.5t221 255t335.5 91.5q287 0 459 -200t172 -521q0 -212 -75.5 -374.5t-219.5 -254.5t-336 -92q-191 0 -335.5 91.5t-221 255t-76.5 374.5zM279 696q0 -257 119 -409t325 -152q204 0 323 152.5t119 408.5q0 257 -118 409t-324 152t-325 -151.5 t-119 -409.5z" />
<glyph unicode="P" horiz-adv-x="1239" d="M160 0v1393h518q183 0 283 -41q110 -49 171.5 -139.5t61.5 -219.5q0 -111 -47.5 -195.5t-132.5 -135.5q-70 -41 -150 -54.5t-209 -13.5h-313v-594h-182zM342 754h334q123 0 196 24q138 52 138 215t-138 215q-77 25 -196 25h-334v-479z" />
<glyph unicode="Q" horiz-adv-x="1443" d="M90 696q0 211 76.5 374.5t221 255t335.5 91.5q287 0 459 -200t172 -521q0 -288 -135 -477l145 -149l-131 -127l-139 147q-155 -115 -371 -115q-191 0 -335.5 91.5t-221 255t-76.5 374.5zM279 696q0 -257 119 -409t325 -152q204 0 323 152.5t119 408.5q0 257 -118 409 t-324 152t-325 -151.5t-119 -409.5z" />
<glyph unicode="R" horiz-adv-x="1269" d="M160 0v1393h524q179 0 287 -41q107 -43 167 -136t60 -223q0 -162 -96.5 -262.5t-255.5 -126.5l393 -604h-225l-381 596h-293v-596h-180zM340 756h313q159 0 240 35q119 56 119 204q0 72 -32 125.5t-91 79.5q-84 33 -238 33h-311v-477z" />
<glyph unicode="S" horiz-adv-x="1193" d="M37 260l147 105q53 -99 162 -163.5t256 -64.5q146 0 237 62.5t91 179.5q0 96 -69 147t-216 88l-170 43q-71 19 -118.5 35t-102 45.5t-86 65.5t-53 92.5t-21.5 128.5q0 123 66.5 213.5t173.5 135t237 44.5q179 0 305.5 -67t200.5 -166l-133 -113q-131 186 -375 186 q-130 0 -211.5 -57.5t-81.5 -159.5q0 -90 55.5 -135.5t190.5 -79.5l189 -47q76 -20 131 -39.5t109.5 -51.5t88.5 -71t55 -97t21 -130q0 -128 -69.5 -223t-187 -143t-267.5 -48q-189 0 -333.5 78t-221.5 207z" />
<glyph unicode="T" horiz-adv-x="1069" d="M16 1231v162h1037v-162h-428v-1231h-181v1231h-428z" />
<glyph unicode="U" horiz-adv-x="1351" d="M150 573v820h180v-818q0 -72 2 -115t14 -99t35 -93q38 -64 115.5 -99.5t179.5 -35.5t179.5 35.5t115.5 99.5q23 37 35 93t14 99t2 115v818h180v-820q0 -150 -16 -230.5t-56 -149.5q-130 -220 -454 -220q-325 0 -455 220q-40 68 -55.5 148.5t-15.5 231.5z" />
<glyph unicode="V" horiz-adv-x="1169" d="M0 1393h190l340 -994q28 -71 52 -149h2q19 68 51 149l350 994h184l-501 -1393h-181z" />
<glyph unicode="W" horiz-adv-x="1753" d="M25 1393h194l219 -770q16 -54 33 -117.5t31 -118.5t16 -61q77 291 80 301l213 766h139l226 -770q61 -206 79 -291q51 199 78 295l211 766h185l-400 -1393h-145l-246 842q-21 74 -55 211q-4 -15 -58 -215l-241 -838h-144z" />
<glyph unicode="X" horiz-adv-x="1263" d="M-6 0l532 739l-467 654h228l352 -510l352 510h223l-466 -643l522 -750h-219l-416 604l-430 -604h-211z" />
<glyph unicode="Y" horiz-adv-x="1173" d="M-20 1393h206l398 -652l407 652h203l-530 -824v-569h-181v569z" />
<glyph unicode="Z" horiz-adv-x="1107" d="M37 0v133l807 1098h-772v162h989v-142l-797 -1089h817v-162h-1044z" />
<glyph unicode="[" horiz-adv-x="575" d="M143 -326v1719h387v-133h-223v-1453h223v-133h-387z" />
<glyph unicode="\" horiz-adv-x="925" d="M12 1393h166l735 -1393h-168z" />
<glyph unicode="]" horiz-adv-x="575" d="M45 -190h223v1450h-223v133h387v-1717h-387v134z" />
<glyph unicode="^" horiz-adv-x="1583" d="M352 662l367 731h155l355 -731h-193l-243 528l-244 -528h-197z" />
<glyph unicode="_" horiz-adv-x="1060" d="M-8 -168h1077v-156h-1077v156z" />
<glyph unicode="`" horiz-adv-x="874" d="M211 1393h217l141 -263h-149z" />
<glyph unicode="a" horiz-adv-x="1028" d="M70 266q0 109 59 174q46 52 123.5 81t196.5 50l163 27q49 8 65.5 19t16.5 40v29q0 85 -43.5 127.5t-163.5 42.5q-231 0 -231 -205l-162 19q-1 80 30.5 143t87 102t127.5 59.5t155 20.5q88 0 151 -14t113 -47.5t75 -95t25 -150.5v-495q0 -50 19.5 -69.5t64.5 -19.5h23 v-118q-45 -9 -97 -9q-85 0 -121.5 33.5t-41.5 98.5h-3q-83 -136 -294 -136q-155 0 -246.5 75t-91.5 218zM246 276q0 -81 56 -125.5t147 -44.5q106 0 175.5 50.5t69.5 156.5v179q-16 -6 -217 -48q-47 -10 -72.5 -16t-60.5 -19.5t-53 -29.5t-31.5 -42t-13.5 -61z" />
<glyph unicode="b" horiz-adv-x="1150" d="M152 0v1393h170v-562q33 63 113.5 114.5t199.5 51.5q189 0 309.5 -136.5t120.5 -375.5q0 -236 -117.5 -373t-306.5 -137q-123 0 -204 52t-115 116v-143h-170zM305 489q0 -179 84.5 -274.5t218.5 -95.5q132 0 207.5 98t75.5 272q0 175 -78 272t-209 97 q-132 0 -215.5 -95.5t-83.5 -273.5z" />
<glyph unicode="c" horiz-adv-x="1009" d="M86 483q0 233 128.5 373.5t334.5 140.5q150 0 253.5 -68.5t153.5 -195.5l-141 -74q-70 197 -266 197q-132 0 -210.5 -99t-78.5 -272q0 -171 80.5 -269.5t208.5 -98.5q203 0 282 176l134 -68q-60 -122 -167 -186t-249 -64q-216 0 -339.5 137t-123.5 371z" />
<glyph unicode="d" horiz-adv-x="1150" d="M86 485q0 239 120.5 375.5t309.5 136.5q119 0 199.5 -51.5t113.5 -114.5v562h170v-1393h-170v143q-34 -64 -115 -116t-204 -52q-189 0 -306.5 137t-117.5 373zM260 489q0 -174 75.5 -272t207.5 -98q134 0 218.5 95.5t84.5 274.5q0 178 -83.5 273.5t-215.5 95.5 q-131 0 -209 -97t-78 -272z" />
<glyph unicode="e" horiz-adv-x="1073" d="M86 492q0 223 130.5 364t332.5 141q142 0 242.5 -68t148 -182t47.5 -262v-36h-729q2 -62 20.5 -118.5t54.5 -104t96.5 -75.5t137.5 -28q189 0 291 166l123 -88q-15 -23 -33.5 -46t-57.5 -57.5t-83.5 -60t-112.5 -44t-143 -18.5q-212 0 -338.5 137.5t-126.5 379.5z M264 584h547q-11 130 -79 203t-183 73q-114 0 -193 -75t-92 -201z" />
<glyph unicode="f" horiz-adv-x="604" d="M8 846v129h199v196q0 119 59.5 177.5t188.5 58.5q69 0 129 -12v-138q-56 7 -80 7q-82 0 -107 -37q-20 -31 -20 -101v-151h207v-129h-207v-846h-170v846h-199z" />
<glyph unicode="g" horiz-adv-x="1146" d="M86 494q0 228 121.5 365.5t310.5 137.5q105 0 187.5 -47.5t123.5 -118.5v144h170v-916q0 -168 -43 -266q-46 -106 -146.5 -152.5t-266.5 -46.5q-379 0 -426 338l159 27q35 -225 269 -225q87 0 143.5 20t87 64.5t42 103t11.5 148.5l2 98q-36 -76 -119.5 -123t-193.5 -47 q-195 0 -313.5 133t-118.5 363zM260 496q0 -164 75 -258.5t208 -94.5q136 0 219.5 88t83.5 263q0 177 -82.5 269.5t-216.5 92.5q-131 0 -209 -97.5t-78 -262.5z" />
<glyph unicode="h" horiz-adv-x="1112" d="M152 0v1393h170v-564q42 74 120.5 121t192.5 47q193 0 274 -125q62 -95 62 -262v-610h-170v567q0 153 -54.5 217t-166.5 64q-119 0 -188.5 -82.5t-69.5 -202.5v-563h-170z" />
<glyph unicode="i" horiz-adv-x="473" d="M152 0v975h170v-975h-170zM152 1176v217h170v-217h-170z" />
<glyph unicode="j" horiz-adv-x="464" d="M-23 -266q24 -4 60 -4q73 0 94 37q16 27 16 100v1108h170v-1143q0 -80 -14 -121q-23 -66 -78.5 -95.5t-154.5 -29.5q-52 0 -93 6v142zM147 1176v217h170v-217h-170z" />
<glyph unicode="k" horiz-adv-x="985" d="M152 0v1393h170v-852l444 434h213l-399 -381l436 -594h-213l-346 479l-135 -133v-346h-170z" />
<glyph unicode="l" horiz-adv-x="473" d="M152 0v1393h170v-1393h-170z" />
<glyph unicode="m" horiz-adv-x="1662" d="M152 0v975h170v-146q33 72 114.5 120t177.5 48q218 0 279 -184q39 77 124.5 130.5t199.5 53.5q104 0 177.5 -49.5t104.5 -150.5q23 -77 23 -179v-618h-170v555q0 113 -23 180q-43 115 -174 115q-98 0 -165.5 -82t-67.5 -201v-567h-170v555q0 113 -23 180 q-43 115 -174 115q-98 0 -165.5 -82t-67.5 -201v-567h-170z" />
<glyph unicode="n" horiz-adv-x="1112" d="M152 0v975h170v-146q42 74 120.5 121t192.5 47q193 0 274 -125q62 -95 62 -262v-610h-170v567q0 153 -54.5 217t-166.5 64q-119 0 -188.5 -82.5t-69.5 -202.5v-563h-170z" />
<glyph unicode="o" horiz-adv-x="1101" d="M86 483q0 233 129 373.5t336 140.5t336 -140.5t129 -373.5q0 -232 -127.5 -370t-337.5 -138t-337.5 138t-127.5 370zM260 485q0 -172 80 -270t211 -98t211 98.5t80 269.5q0 175 -79 274t-212 99t-212 -100t-79 -273z" />
<glyph unicode="p" horiz-adv-x="1150" d="M152 -389v1364h170v-144q33 63 113.5 114.5t199.5 51.5q189 0 309.5 -136.5t120.5 -375.5q0 -236 -117.5 -373t-306.5 -137q-123 0 -204 52t-115 116v-532h-170zM305 489q0 -179 84.5 -274.5t218.5 -95.5q132 0 207.5 98t75.5 272q0 175 -78 272t-209 97 q-132 0 -215.5 -95.5t-83.5 -273.5z" />
<glyph unicode="q" horiz-adv-x="1150" d="M86 485q0 239 120.5 375.5t309.5 136.5q119 0 199.5 -51.5t113.5 -114.5v144h170v-1364h-170v532q-34 -64 -115 -116t-204 -52q-189 0 -306.5 137t-117.5 373zM260 489q0 -174 75.5 -272t207.5 -98q134 0 218.5 95.5t84.5 274.5q0 178 -83.5 273.5t-215.5 95.5 q-131 0 -209 -97t-78 -272z" />
<glyph unicode="r" horiz-adv-x="684" d="M152 0v975h170v-184q17 85 104.5 146.5t189.5 61.5q35 0 56 -6v-162q-35 7 -64 7q-88 0 -155 -48.5t-99 -122t-32 -157.5v-510h-170z" />
<glyph unicode="s" horiz-adv-x="940" d="M41 168l111 115q59 -76 140 -121t177 -45q102 0 162.5 40.5t60.5 112.5q0 63 -41.5 89t-128.5 42l-133 27q-68 13 -119.5 32.5t-96 50.5t-68 79t-23.5 110q0 75 32.5 134t87 93.5t119 52t134.5 17.5q125 0 221.5 -45t150.5 -108l-110 -111q-110 123 -271 123 q-85 0 -138.5 -35t-53.5 -98q0 -64 49 -93t170 -55l113 -22q132 -28 206 -89t74 -179q0 -145 -113.5 -227.5t-293.5 -82.5q-131 0 -242.5 55.5t-175.5 137.5z" />
<glyph unicode="t" horiz-adv-x="593" d="M-10 846v129h188v352l170 37v-389h215v-129h-215v-604q0 -69 14 -92q17 -33 89 -33q46 0 112 12v-133q-86 -21 -170 -21q-164 0 -203 103q-12 34 -12 94v674h-188z" />
<glyph unicode="u" horiz-adv-x="1101" d="M143 420v555h170v-561q0 -135 33 -197q47 -92 189 -92q118 0 182.5 83t64.5 208v559h170v-975h-170v143q-95 -168 -311 -168q-160 0 -244 93q-48 55 -66 126.5t-18 225.5z" />
<glyph unicode="v" horiz-adv-x="888" d="M12 975h178l203 -592q26 -70 56 -172h2q36 118 57 178l201 586h168l-355 -975h-162z" />
<glyph unicode="w" horiz-adv-x="1476" d="M18 975h181l178 -535q32 -91 63 -209h2q26 101 62 211l174 533h147l160 -535q42 -131 62 -209h2q36 135 63 215l170 529h176l-338 -975h-153l-170 555q-38 116 -54 182h-2q-18 -75 -53 -184l-176 -553h-160z" />
<glyph unicode="x" horiz-adv-x="903" d="M16 0l340 506l-313 469h207l213 -342l215 342h188l-313 -459l334 -516h-205l-233 391l-246 -391h-187z" />
<glyph unicode="y" horiz-adv-x="874" d="M12 975h181l190 -590l53 -170h2q29 96 60 182l198 578h170l-428 -1174q-43 -120 -112.5 -163.5t-182.5 -43.5q-51 0 -123 13v137q68 -10 111 -10q84 0 123 39q31 31 53 98l43 125z" />
<glyph unicode="z" horiz-adv-x="849" d="M45 0v135l549 699h-522v141h735v-131l-561 -703h567v-141h-768z" />
<glyph unicode="{" horiz-adv-x="489" d="M41 481v121q23 7 40 14.5t30 19.5t21.5 21.5t14.5 28t9 31t4.5 39t1.5 43v51.5v250q0 164 58 228.5t204 64.5h35v-127q-80 0 -106.5 -34t-26.5 -136v-240q0 -76 -4.5 -122t-18.5 -87.5t-42 -65.5t-73 -38v-2q45 -14 73 -38t42 -66t18.5 -88t4.5 -122v-254 q0 -102 26.5 -136t106.5 -34v-127h-35q-146 0 -204 64.5t-58 228.5v264v51.5t-1.5 43t-4.5 39t-9 31t-14.5 28t-21.5 21.5t-30 19.5t-40 14.5z" />
<glyph unicode="|" horiz-adv-x="456" d="M147 -324v1717h162v-1717h-162z" />
<glyph unicode="}" horiz-adv-x="489" d="M31 -197q80 0 106.5 34t26.5 136v254q0 151 25.5 219.5t111.5 94.5v2q-86 26 -111.5 94t-25.5 219v240q0 102 -26.5 136t-106.5 34v127h35q146 0 204 -64.5t58 -228.5v-250v-51.5t1.5 -43t4.5 -39t9 -31t14.5 -28t21.5 -21.5t30 -19.5t40 -14.5v-121q-23 -7 -40 -14.5 t-30 -19.5t-21.5 -21.5t-14.5 -28t-9 -31t-4.5 -39t-1.5 -43v-51.5v-264q0 -164 -58 -228.5t-204 -64.5h-35v127z" />
<glyph unicode="~" horiz-adv-x="1583" d="M293 569q16 24 28.5 42t40 47t54 48t66 33.5t81.5 14.5q41 0 87.5 -12.5t76 -25.5t84.5 -40q5 -2 26 -12.5l27 -13.5t23.5 -11t26 -10.5t22 -7t24 -6t21.5 -1.5q28 0 56 12.5t55 37.5t43.5 43.5t40.5 48.5l81 -140q-65 -81 -132 -127.5t-150 -46.5q-54 0 -106.5 18.5 t-131.5 61.5q-106 58 -176 58q-47 0 -82.5 -30.5t-99.5 -113.5z" />
<glyph unicode="&#xa1;" horiz-adv-x="477" d="M147 719v256h183v-256h-183zM154 276l26 345h119l25 -345v-694h-170v694z" />
<glyph unicode="&#xa2;" d="M168 483q0 210 106 346.5t283 161.5v197h148v-195q244 -30 333 -260l-143 -86q-53 167 -190 201v-725q141 27 206 186l136 -84q-52 -105 -139.5 -167.5t-202.5 -77.5v-211h-148v213q-184 23 -286.5 155.5t-102.5 345.5zM342 485q0 -145 58 -238t157 -120v719 q-101 -27 -158 -120.5t-57 -240.5z" />
<glyph unicode="&#xa3;" d="M84 0v150q84 5 129.5 33t66.5 92.5t21 183.5q0 49 -6 157h-211v160h201q-6 177 -6 197q0 93 20 169t63.5 138.5t120 97.5t181.5 35q86 0 154.5 -23.5t111.5 -60.5t71.5 -87t40 -100t11.5 -102l-166 -45q-3 267 -225 267q-110 0 -163 -76t-53 -205q0 -18 11 -205h305v-160 h-293q0 -25 2 -79.5t2 -75.5q0 -110 -21 -186t-85 -117q35 2 219 2h436v-160h-938z" />
<glyph unicode="&#xa4;" horiz-adv-x="1091" d="M82 231l125 125q-64 100 -64 224q0 126 66 227q-24 25 -69.5 69t-57.5 56l117 117l125 -127q92 63 223 63q136 0 225 -63l123 122l115 -114l-121 -123q63 -101 63 -227q0 -134 -61 -228l119 -119l-115 -114l-121 123q-97 -66 -227 -66q-137 0 -228 64l-122 -123zM289 580 q0 -108 76 -187.5t182 -79.5q109 0 184.5 79t75.5 188q0 110 -74.5 189t-185.5 79q-107 0 -182.5 -78.5t-75.5 -189.5z" />
<glyph unicode="&#xa5;" d="M49 1391h201l360 -641l340 641h205l-375 -646h295v-149h-381v-127h381v-150h-381v-319h-182v319h-383v150h383v127h-383v149h297z" />
<glyph unicode="&#xa6;" horiz-adv-x="462" d="M147 274h168v-661h-168v661zM147 729v662h168v-662h-168z" />
<glyph unicode="&#xa7;" horiz-adv-x="1015" d="M53 10l111 115q128 -166 319 -166q98 0 160 40t62 112q0 16 -4 30.5t-13 27.5t-18 24t-25.5 22t-27.5 18.5t-32 18t-32 15.5t-34.5 15.5t-31.5 14.5l-102 47q-48 20 -79 35.5t-67.5 37t-59 44.5t-43 52.5t-29.5 67.5t-9 83q0 94 57 163.5t128 94.5q-24 17 -39.5 30.5 t-39 41t-36 64.5t-12.5 81q0 91 55 156.5t136.5 95.5t176.5 30q125 0 223 -45t152 -108l-111 -111q-110 123 -270 123q-82 0 -136 -34.5t-54 -92.5q0 -33 12.5 -57.5t39.5 -43.5t56.5 -33.5t74.5 -33.5q3 -1 4 -1.5t3.5 -1.5t4 -1.5t3.5 -1.5l119 -49q57 -24 98.5 -49 t80 -61t59 -84.5t20.5 -108.5q0 -183 -164 -277q27 -17 46 -33t43.5 -42.5t37.5 -63.5t13 -80q0 -146 -114 -229.5t-292 -83.5q-136 0 -246.5 54.5t-173.5 137.5zM272 682q0 -35 12.5 -62t41 -50.5t58 -40t81.5 -40.5l131 -61q137 44 137 172q0 69 -52 117t-153 88l-102 39 q-71 -15 -112.5 -59t-41.5 -103z" />
<glyph unicode="&#xa8;" horiz-adv-x="993" d="M225 1151v221h174v-221h-174zM594 1151v221h174v-221h-174z" />
<glyph unicode="&#xa9;" horiz-adv-x="1597" d="M102 715q0 145 54 274.5t146.5 223t222.5 148t276 54.5q194 0 353.5 -92.5t250 -253t90.5 -354.5q0 -195 -90.5 -355.5t-250 -253t-353.5 -92.5q-195 0 -355.5 92.5t-252 253t-91.5 355.5zM250 715q0 -152 71.5 -281.5t199 -206.5t280.5 -77q152 0 278.5 77t197.5 206.5 t71 281.5t-71 281t-197.5 205.5t-278.5 76.5q-153 0 -280.5 -76.5t-199 -205.5t-71.5 -281zM436 713q0 189 99.5 297t263.5 108q114 0 197.5 -60t125.5 -169l-123 -74q-60 174 -200 174q-101 0 -159 -70t-58 -204q0 -133 59.5 -205t157.5 -72q140 0 207 158l116 -76 q-47 -99 -131 -155t-192 -56q-165 0 -264 107.5t-99 296.5z" />
<glyph unicode="&#xaa;" horiz-adv-x="645" d="M25 948q0 49 16 83t50 55t70.5 32.5t94.5 22.5l123 22q20 4 27 6t13.5 9.5t6.5 21.5v10q0 50 -28 78.5t-101 28.5q-145 0 -145 -133l-111 14q0 104 72.5 160.5t189.5 56.5q119 0 178.5 -44.5t59.5 -160.5v-315q0 -29 11 -40t38 -11h22v-88q-28 -4 -65 -4q-98 0 -113 69 q-59 -73 -186 -73q-101 0 -162 52t-61 148zM150 948q0 -50 33.5 -75t90.5 -25q65 0 108.5 33.5t43.5 107.5v90q-12 -3 -74 -14l-69 -14q-26 -5 -40 -9t-34.5 -12t-31.5 -18t-19 -26.5t-8 -37.5z" />
<glyph unicode="&#xab;" horiz-adv-x="958" d="M102 518v213l310 258v-196l-201 -158l201 -174v-191zM516 518v213l309 258v-196l-200 -158l200 -174v-191z" />
<glyph unicode="&#xac;" horiz-adv-x="1583" d="M287 795v135h934v-565h-154v430h-780z" />
<glyph unicode="&#xad;" horiz-adv-x="692" d="M82 467v178h528v-178h-528z" />
<glyph unicode="&#xae;" horiz-adv-x="1597" d="M102 715q0 145 54 274.5t146.5 223t222.5 148t276 54.5q194 0 353.5 -92.5t250 -253t90.5 -354.5q0 -195 -90.5 -355.5t-250 -253t-353.5 -92.5q-195 0 -355.5 92.5t-252 253t-91.5 355.5zM250 715q0 -152 71.5 -281.5t199 -206.5t280.5 -77q152 0 278.5 77t197.5 206.5 t71 281.5t-71 281t-197.5 205.5t-278.5 76.5q-153 0 -280.5 -76.5t-199 -205.5t-71.5 -281zM485 309v811h332q109 0 168 -26q60 -26 99.5 -79.5t39.5 -133.5q0 -88 -55 -150.5t-141 -81.5l237 -340h-170l-229 332h-143v-332h-138zM623 768h178q96 0 125 14q57 26 57 99 q0 77 -57 100q-29 14 -125 14h-178v-227z" />
<glyph unicode="&#xaf;" horiz-adv-x="964" d="M205 1192v137h555v-137h-555z" />
<glyph unicode="&#xb0;" horiz-adv-x="755" d="M74 1118q0 126 88 212.5t217 86.5t216 -86.5t87 -212.5t-87 -213.5t-216 -87.5t-217 87.5t-88 213.5zM225 1118q0 -65 45 -110t109 -45t108.5 45t44.5 110t-44.5 110.5t-108.5 45.5t-109 -45.5t-45 -110.5z" />
<glyph unicode="&#xb1;" horiz-adv-x="1583" d="M190 0v156h1201v-156h-1201zM190 639v156h523v426h157v-426h521v-156h-521v-428h-157v428h-523z" />
<glyph unicode="&#xb2;" horiz-adv-x="737" d="M59 1137q0 112 82.5 193t216.5 81q142 0 218.5 -80t76.5 -205q0 -46 -12.5 -90.5t-30 -80t-49.5 -73.5t-58 -63.5t-70 -59.5t-71 -52.5t-73 -49.5v-4l198 4h5h157v-120h-577v112q54 32 135 92t151 121q70 63 109 122.5t39 135.5q0 80 -42 123t-112 43t-109.5 -43 t-39.5 -104q0 -64 35 -135l-150 12q-29 54 -29 121z" />
<glyph unicode="&#xb3;" horiz-adv-x="737" d="M51 795l144 32q3 -95 47.5 -137.5t115.5 -42.5q77 0 121.5 38t44.5 108q0 137 -196 137h-62v121h51q42 0 72.5 4.5t58 17t42 37t14.5 61.5q0 57 -36.5 89t-107.5 32q-74 0 -112 -42.5t-43 -110.5l-129 30q0 27 10 58.5t33 64.5t56 60t83.5 44t110.5 17q129 0 203.5 -60.5 t74.5 -158.5q0 -72 -35 -121t-86 -72q59 -26 100.5 -79t41.5 -134q0 -119 -85 -192.5t-229 -73.5q-134 0 -214.5 74t-88.5 199z" />
<glyph unicode="&#xb4;" horiz-adv-x="915" d="M350 1130l142 263h217l-209 -263h-150z" />
<glyph unicode="&#xb5;" horiz-adv-x="1114" d="M152 -389v1364h172v-561q0 -137 32 -197q47 -92 189 -92q118 0 183 83t65 208v559h170v-975h-170v143q-43 -76 -117 -122t-176 -46q-55 0 -105 19t-67 39v-422h-176z" />
<glyph unicode="&#xb6;" horiz-adv-x="1474" d="M123 987q0 203 137 313q60 48 136.5 70.5t213.5 22.5h701v-133h-162v-1522h-145v1522h-228v-1522h-147v844h-19q-137 0 -213.5 22t-136.5 70q-137 110 -137 313z" />
<glyph unicode="&#xb7;" horiz-adv-x="350" d="M78 539v233h194v-233h-194z" />
<glyph unicode="&#xb8;" horiz-adv-x="735" d="M205 -117l96 131h113l-60 -84h6q74 0 122 -38.5t48 -110.5q0 -88 -58.5 -132t-143.5 -44q-56 0 -111 20l25 78q30 -12 71 -12q42 0 69.5 18t27.5 55q0 36 -25.5 54t-62.5 18q-46 0 -76 -18z" />
<glyph unicode="&#xb9;" horiz-adv-x="737" d="M109 1110v113h49q89 0 127 32q48 38 51 138h123v-856h-142v573h-208z" />
<glyph unicode="&#xba;" horiz-adv-x="714" d="M63 1104q0 152 80.5 243t214.5 91t213.5 -91t79.5 -243q0 -155 -79 -244.5t-214 -89.5q-136 0 -215.5 89.5t-79.5 244.5zM186 1104q0 -105 48.5 -166t123.5 -61q74 0 122 61.5t48 165.5t-47 165.5t-123 61.5t-124 -62t-48 -165z" />
<glyph unicode="&#xbb;" horiz-adv-x="958" d="M133 270v191l201 174l-201 158v196l309 -258v-213zM547 270v191l201 174l-201 158v196l309 -258v-213z" />
<glyph unicode="&#xbc;" horiz-adv-x="1593" d="M66 1110v113h49q89 0 127 32q48 38 51 138h123v-856h-142v573h-208zM309 0l725 1393h152l-723 -1393h-154zM815 217v94l395 553h131v-526h158v-121h-158v-217h-139v217h-387zM977 338h225v151q0 75 8 191h-2q-12 -30 -43 -78l-82 -123q-22 -34 -48.5 -69t-42.5 -54z" />
<glyph unicode="&#xbd;" horiz-adv-x="1685" d="M66 1110v113h49q89 0 127 32q48 38 51 138h123v-856h-142v573h-208zM307 0l725 1393h152l-723 -1393h-154zM965 600q0 112 82.5 193t216.5 81q142 0 218.5 -80t76.5 -204q0 -46 -12.5 -90.5t-30 -80t-50 -73.5t-58.5 -63.5t-70 -59.5t-70.5 -52.5t-73.5 -49.5v-4l198 4h5 h157v-121h-577v113q55 32 136 92t151 121q70 63 108.5 122.5t38.5 135.5q0 80 -42 123t-112 43t-109.5 -43.5t-39.5 -104.5q0 -64 35 -135l-150 12q-28 52 -28 121z" />
<glyph unicode="&#xbe;" horiz-adv-x="1794" d="M82 795l143 32q3 -95 48 -137.5t116 -42.5q77 0 121.5 38t44.5 108q0 137 -197 137h-61v121h51q42 0 72.5 4.5t58 17t42 37t14.5 61.5q0 57 -36.5 89t-107.5 32q-74 0 -112 -42.5t-43 -110.5l-130 30q0 27 10 58.5t33 64.5t56 60t83.5 44t110.5 17q129 0 204 -60.5 t75 -158.5q0 -72 -35 -121t-86 -72q59 -26 100 -79t41 -134q0 -120 -85 -193t-228 -73q-134 0 -214.5 74t-88.5 199zM510 0l725 1393h151l-722 -1393h-154zM1016 217v94l395 553h131v-526h158v-121h-158v-217h-139v217h-387zM1178 338h225v151q0 75 8 191h-2 q-12 -30 -43 -78l-82 -123q-22 -34 -48.5 -69t-41.5 -54z" />
<glyph unicode="&#xbf;" horiz-adv-x="935" d="M39 -68q0 68 15.5 127.5t47 109.5t64 87t80.5 82l53 49q60 54 83.5 96.5t23.5 120.5v64h182v-78q0 -95 -29.5 -155.5t-120.5 -143.5l-76 -68q-141 -124 -141 -268q0 -102 64.5 -169t179.5 -67q113 0 179.5 69t66.5 171q0 45 -10.5 92t-21.5 71l-11 25l186 -26 q33 -59 33 -170q0 -163 -118.5 -273t-309.5 -110q-200 0 -310 102.5t-110 261.5zM406 750v227h184v-227h-184z" />
<glyph unicode="&#xc0;" horiz-adv-x="1200" d="M6 0l498 1393h201l489 -1393h-195l-139 401h-526l-139 -401h-189zM285 1821h250l215 -297h-175zM387 557h422l-158 459q-40 106 -53 164h-2q-25 -86 -53 -166z" />
<glyph unicode="&#xc1;" horiz-adv-x="1200" d="M6 0l498 1393h201l489 -1393h-195l-139 401h-526l-139 -401h-189zM387 557h422l-158 459q-40 106 -53 164h-2q-25 -86 -53 -166zM487 1524l215 297h250l-290 -297h-175z" />
<glyph unicode="&#xc2;" horiz-adv-x="1200" d="M6 0l498 1393h201l489 -1393h-195l-139 401h-526l-139 -401h-189zM305 1524l219 299h158l217 -299h-170l-127 170l-123 -170h-174zM387 557h422l-158 459q-40 106 -53 164h-2q-25 -86 -53 -166z" />
<glyph unicode="&#xc3;" horiz-adv-x="1200" d="M6 0l498 1393h201l489 -1393h-195l-139 401h-526l-139 -401h-189zM266 1571q79 209 219 209q64 0 138 -43q6 -3 22 -12t24.5 -13.5t21.5 -10.5t24 -8.5t22 -2.5q53 0 84 96l135 -35q-16 -37 -27.5 -59.5t-32 -54t-41 -49t-50.5 -31t-64 -13.5q-63 0 -159 51q-5 2 -29 16 t-41.5 20.5t-34.5 6.5q-29 0 -48.5 -31t-25.5 -65zM387 557h422l-158 459q-40 106 -53 164h-2q-25 -86 -53 -166z" />
<glyph unicode="&#xc4;" horiz-adv-x="1200" d="M6 0l498 1393h201l489 -1393h-195l-139 401h-526l-139 -401h-189zM336 1538v221h174v-221h-174zM387 557h422l-158 459q-40 106 -53 164h-2q-25 -86 -53 -166zM705 1538v221h174v-221h-174z" />
<glyph unicode="&#xc5;" horiz-adv-x="1200" d="M6 0l498 1393h201l489 -1393h-195l-139 401h-526l-139 -401h-189zM387 557h422l-158 459q-40 106 -53 164h-2q-25 -86 -53 -166zM395 1651q0 84 59 142t144 58t144 -58t59 -142q0 -85 -59 -143t-144 -58t-144 58t-59 143zM516 1651q0 -33 23.5 -56.5t56.5 -23.5 t56.5 23.5t23.5 56.5t-23.5 56.5t-56.5 23.5t-56.5 -23.5t-23.5 -56.5z" />
<glyph unicode="&#xc6;" horiz-adv-x="1898" d="M-82 0l830 1393h1028v-160h-752v-434h682v-162h-682v-475h793v-162h-973v371h-502l-215 -371h-209zM432 532h412v435q0 204 4 282h-4q-13 -21 -48 -87.5t-48 -88.5z" />
<glyph unicode="&#xc7;" horiz-adv-x="1335" d="M90 696q0 211 76.5 374t221.5 255t337 92q182 0 320 -83.5t217 -233.5l-154 -105q-54 128 -152 196.5t-231 68.5q-206 0 -326 -153t-120 -411q0 -257 120 -410t326 -153q133 0 231.5 69t153.5 197l164 -82q-73 -153 -203.5 -242t-304.5 -98l-27 -47h6q74 0 122 -38.5 t48 -110.5q0 -88 -58.5 -132t-143.5 -44q-56 0 -111 20l25 78q30 -12 71 -12q42 0 69.5 18t27.5 55q0 36 -25.5 54t-62.5 18q-46 0 -76 -18l-41 65l69 97q-256 22 -412.5 211.5t-156.5 504.5z" />
<glyph unicode="&#xc8;" horiz-adv-x="1212" d="M160 0v1393h932v-162h-752v-434h682v-162h-682v-473h790v-162h-970zM309 1821h250l215 -297h-174z" />
<glyph unicode="&#xc9;" horiz-adv-x="1212" d="M160 0v1393h932v-162h-752v-434h682v-162h-682v-473h790v-162h-970zM487 1524l215 297h250l-290 -297h-175z" />
<glyph unicode="&#xca;" horiz-adv-x="1212" d="M160 0v1393h932v-162h-752v-434h682v-162h-682v-473h790v-162h-970zM338 1524l219 299h158l217 -299h-170l-127 170l-123 -170h-174z" />
<glyph unicode="&#xcb;" horiz-adv-x="1212" d="M160 0v1393h932v-162h-752v-434h682v-162h-682v-473h790v-162h-970zM356 1538v221h174v-221h-174zM725 1538v221h174v-221h-174z" />
<glyph unicode="&#xcc;" horiz-adv-x="499" d="M-119 1821h250l215 -297h-174zM160 0v1393h180v-1393h-180z" />
<glyph unicode="&#xcd;" horiz-adv-x="499" d="M156 1524l215 297h250l-291 -297h-174zM160 0v1393h180v-1393h-180z" />
<glyph unicode="&#xce;" horiz-adv-x="499" d="M-47 1524l219 299h158l217 -299h-170l-127 170l-123 -170h-174zM160 0v1393h180v-1393h-180z" />
<glyph unicode="&#xcf;" horiz-adv-x="499" d="M-20 1538v221h174v-221h-174zM160 0v1393h180v-1393h-180zM348 1538v221h174v-221h-174z" />
<glyph unicode="&#xd0;" horiz-adv-x="1359" d="M31 659v158h129v574h340q200 0 307 -17t199 -84q116 -86 187 -242t71 -348q0 -171 -53.5 -314t-151.5 -241q-37 -36 -73.5 -61t-82.5 -41t-81 -25t-98.5 -13t-104 -4.5t-127.5 -0.5h-332v659h-129zM340 160h192q81 0 120.5 1.5t95 9t95.5 26t77 49.5q73 61 118 179 t45 267q0 135 -45.5 257t-124.5 192q-68 57 -152 72.5t-255 15.5h-166v-412h455v-158h-455v-499z" />
<glyph unicode="&#xd1;" horiz-adv-x="1435" d="M160 0v1393h178l655 -936q78 -110 105 -158h2q-4 102 -4 225v869h180v-1393h-178l-652 938q-81 115 -108 168h-2q4 -90 4 -172v-934h-180zM389 1571q79 209 219 209q63 0 137 -43q5 -3 22 -12.5t25 -13.5t21.5 -10t24.5 -8.5t22 -2.5q53 0 84 96l135 -35 q-16 -37 -27.5 -59.5t-32 -54t-41 -49t-50.5 -31t-64 -13.5q-63 0 -159 51q-5 2 -29 16t-41.5 20.5t-34.5 6.5q-29 0 -48.5 -31t-25.5 -65z" />
<glyph unicode="&#xd2;" horiz-adv-x="1443" d="M90 696q0 211 76.5 374.5t221 255t335.5 91.5q287 0 459 -200t172 -521q0 -212 -75.5 -374.5t-219.5 -254.5t-336 -92q-191 0 -335.5 91.5t-221 255t-76.5 374.5zM279 696q0 -257 119 -409t325 -152q204 0 323 152.5t119 408.5q0 257 -118 409t-324 152t-325 -151.5 t-119 -409.5zM408 1821h249l215 -297h-174z" />
<glyph unicode="&#xd3;" horiz-adv-x="1443" d="M90 696q0 211 76.5 374.5t221 255t335.5 91.5q287 0 459 -200t172 -521q0 -212 -75.5 -374.5t-219.5 -254.5t-336 -92q-191 0 -335.5 91.5t-221 255t-76.5 374.5zM279 696q0 -257 119 -409t325 -152q204 0 323 152.5t119 408.5q0 257 -118 409t-324 152t-325 -151.5 t-119 -409.5zM573 1524l215 297h250l-290 -297h-175z" />
<glyph unicode="&#xd4;" horiz-adv-x="1443" d="M90 696q0 211 76.5 374.5t221 255t335.5 91.5q287 0 459 -200t172 -521q0 -212 -75.5 -374.5t-219.5 -254.5t-336 -92q-191 0 -335.5 91.5t-221 255t-76.5 374.5zM279 696q0 -257 119 -409t325 -152q204 0 323 152.5t119 408.5q0 257 -118 409t-324 152t-325 -151.5 t-119 -409.5zM430 1524l219 299h158l217 -299h-170l-127 170l-123 -170h-174z" />
<glyph unicode="&#xd5;" horiz-adv-x="1411" d="M90 676q0 312 168 506t449 194q186 0 326 -89t214 -247.5t74 -363.5q0 -206 -73.5 -364t-213.5 -247.5t-327 -89.5q-281 0 -449 194.5t-168 506.5zM276 676q0 -249 115.5 -396t315.5 -147q198 0 313 147t115 396t-114 396t-314 147t-315.5 -146.5t-115.5 -396.5z M373 1571q79 209 219 209q63 0 137 -43q5 -3 22 -12.5t25 -13.5t21.5 -10t24.5 -8.5t22 -2.5q53 0 84 96l135 -35q-16 -37 -27.5 -59.5t-32 -54t-41 -49t-50.5 -31t-64 -13.5q-64 0 -160 51q-6 3 -29 16t-40.5 20t-34.5 7q-29 0 -48.5 -31t-25.5 -65z" />
<glyph unicode="&#xd6;" horiz-adv-x="1443" d="M90 696q0 211 76.5 374.5t221 255t335.5 91.5q287 0 459 -200t172 -521q0 -212 -75.5 -374.5t-219.5 -254.5t-336 -92q-191 0 -335.5 91.5t-221 255t-76.5 374.5zM279 696q0 -257 119 -409t325 -152q204 0 323 152.5t119 408.5q0 257 -118 409t-324 152t-325 -151.5 t-119 -409.5zM457 1538v221h174v-221h-174zM825 1538v221h174v-221h-174z" />
<glyph unicode="&#xd7;" horiz-adv-x="1583" d="M225 150l453 452l-451 453l111 110l450 -452l455 454l113 -112l-455 -455l453 -450l-111 -111l-452 450l-453 -452z" />
<glyph unicode="&#xd8;" horiz-adv-x="1443" d="M41 70l164 182q-115 185 -115 444q0 211 76.5 374.5t221 255t335.5 91.5q233 0 397 -139l164 184l119 -102l-178 -199q129 -189 129 -465q0 -212 -75.5 -374.5t-219.5 -254.5t-336 -92q-255 0 -420 156l-145 -164zM279 696q0 -174 55 -299l672 754q-112 106 -283 106 q-206 0 -325 -151.5t-119 -409.5zM420 260q116 -125 303 -125q204 0 323 152.5t119 408.5q0 191 -65 324z" />
<glyph unicode="&#xd9;" horiz-adv-x="1351" d="M150 573v820h180v-818q0 -72 2 -115t14 -99t35 -93q38 -64 115.5 -99.5t179.5 -35.5t179.5 35.5t115.5 99.5q23 37 35 93t14 99t2 115v818h180v-820q0 -150 -16 -230.5t-56 -149.5q-130 -220 -454 -220q-325 0 -455 220q-40 68 -55.5 148.5t-15.5 231.5zM362 1821h250 l215 -297h-174z" />
<glyph unicode="&#xda;" horiz-adv-x="1351" d="M150 573v820h180v-818q0 -72 2 -115t14 -99t35 -93q38 -64 115.5 -99.5t179.5 -35.5t179.5 35.5t115.5 99.5q23 37 35 93t14 99t2 115v818h180v-820q0 -150 -16 -230.5t-56 -149.5q-130 -220 -454 -220q-325 0 -455 220q-40 68 -55.5 148.5t-15.5 231.5zM532 1524 l216 297h249l-290 -297h-175z" />
<glyph unicode="&#xdb;" horiz-adv-x="1351" d="M150 573v820h180v-818q0 -72 2 -115t14 -99t35 -93q38 -64 115.5 -99.5t179.5 -35.5t179.5 35.5t115.5 99.5q23 37 35 93t14 99t2 115v818h180v-820q0 -150 -16 -230.5t-56 -149.5q-130 -220 -454 -220q-325 0 -455 220q-40 68 -55.5 148.5t-15.5 231.5zM383 1524 l219 299h158l217 -299h-170l-127 170l-123 -170h-174z" />
<glyph unicode="&#xdc;" horiz-adv-x="1331" d="M150 573v820h180v-818q0 -72 2 -115t14 -99t35 -93q38 -64 115.5 -99.5t179.5 -35.5t179.5 35.5t115.5 99.5q23 37 35 93t14 99t2 115v818h180v-820q0 -150 -16 -230.5t-56 -149.5q-130 -220 -454 -220q-325 0 -455 220q-40 68 -55.5 148.5t-15.5 231.5zM410 1538v221 h174v-221h-174zM778 1538v221h174v-221h-174z" />
<glyph unicode="&#xdd;" horiz-adv-x="1173" d="M-20 1393h206l398 -652l407 652h203l-530 -824v-569h-181v569zM459 1524l215 297h250l-291 -297h-174z" />
<glyph unicode="&#xde;" horiz-adv-x="1204" d="M160 0v1393h180v-226h332q178 0 274 -41q108 -47 168 -135t60 -213q0 -108 -46.5 -190t-130.5 -133q-67 -40 -144.5 -53t-203.5 -13h-309v-389h-180zM340 547h326q120 0 190 24q135 49 135 207t-135 207q-73 25 -190 25h-326v-463z" />
<glyph unicode="&#xdf;" horiz-adv-x="999" d="M135 0v932q0 135 10 202t35 115q86 168 320 168q177 0 265.5 -87.5t88.5 -231.5q0 -99 -37.5 -164.5t-99.5 -97.5q39 -17 68.5 -42.5t58 -70t44 -118.5t15.5 -173q0 -236 -77 -340t-228 -104q-127 0 -182 71q-58 73 -58 248v68h125v-39q0 -98 17 -150q12 -31 32.5 -48 t59.5 -17q80 0 110.5 74.5t30.5 238.5q0 103 -16.5 168t-59.5 100q-56 43 -204 43h-47v136h32q112 0 160 20q82 36 82 182q0 89 -46.5 142t-131.5 53q-63 0 -108 -28t-64 -76q-25 -70 -25 -250v-924h-170z" />
<glyph unicode="&#xe0;" horiz-adv-x="1028" d="M70 266q0 109 59 174q46 52 123.5 81t196.5 50l163 27q49 8 65.5 19t16.5 40v29q0 85 -43.5 127.5t-163.5 42.5q-231 0 -231 -205l-162 19q-1 80 30.5 143t87 102t127.5 59.5t155 20.5q88 0 151 -14t113 -47.5t75 -95t25 -150.5v-495q0 -50 19.5 -69.5t64.5 -19.5h23 v-118q-45 -9 -97 -9q-85 0 -121.5 33.5t-41.5 98.5h-3q-83 -136 -294 -136q-155 0 -246.5 75t-91.5 218zM246 276q0 -81 56 -125.5t147 -44.5q106 0 175.5 50.5t69.5 156.5v179q-16 -6 -217 -48q-47 -10 -72.5 -16t-60.5 -19.5t-53 -29.5t-31.5 -42t-13.5 -61zM281 1393h217 l141 -263h-150z" />
<glyph unicode="&#xe1;" horiz-adv-x="1028" d="M70 266q0 109 59 174q46 52 123.5 81t196.5 50l163 27q49 8 65.5 19t16.5 40v29q0 85 -43.5 127.5t-163.5 42.5q-231 0 -231 -205l-162 19q-1 80 30.5 143t87 102t127.5 59.5t155 20.5q88 0 151 -14t113 -47.5t75 -95t25 -150.5v-495q0 -50 19.5 -69.5t64.5 -19.5h23 v-118q-45 -9 -97 -9q-85 0 -121.5 33.5t-41.5 98.5h-3q-83 -136 -294 -136q-155 0 -246.5 75t-91.5 218zM246 276q0 -81 56 -125.5t147 -44.5q106 0 175.5 50.5t69.5 156.5v179q-16 -6 -217 -48q-47 -10 -72.5 -16t-60.5 -19.5t-53 -29.5t-31.5 -42t-13.5 -61zM385 1130 l141 263h217l-208 -263h-150z" />
<glyph unicode="&#xe2;" horiz-adv-x="1028" d="M70 266q0 109 59 174q46 52 123.5 81t196.5 50l163 27q49 8 65.5 19t16.5 40v29q0 85 -43.5 127.5t-163.5 42.5q-231 0 -231 -205l-162 19q-1 80 30.5 143t87 102t127.5 59.5t155 20.5q88 0 151 -14t113 -47.5t75 -95t25 -150.5v-495q0 -50 19.5 -69.5t64.5 -19.5h23 v-118q-45 -9 -97 -9q-85 0 -121.5 33.5t-41.5 98.5h-3q-83 -136 -294 -136q-155 0 -246.5 75t-91.5 218zM213 1130l201 263h161l203 -263h-153l-131 136l-123 -136h-158zM246 276q0 -81 56 -125.5t147 -44.5q106 0 175.5 50.5t69.5 156.5v179q-16 -6 -217 -48 q-47 -10 -72.5 -16t-60.5 -19.5t-53 -29.5t-31.5 -42t-13.5 -61z" />
<glyph unicode="&#xe3;" horiz-adv-x="1028" d="M70 266q0 109 59 174q46 52 123.5 81t196.5 50l163 27q49 8 65.5 19t16.5 40v29q0 85 -43.5 127.5t-163.5 42.5q-231 0 -231 -205l-162 19q-1 80 30.5 143t87 102t127.5 59.5t155 20.5q88 0 151 -14t113 -47.5t75 -95t25 -150.5v-495q0 -50 19.5 -69.5t64.5 -19.5h23 v-118q-45 -9 -97 -9q-85 0 -121.5 33.5t-41.5 98.5h-3q-83 -136 -294 -136q-155 0 -246.5 75t-91.5 218zM164 1180q79 209 219 209q63 0 137 -43q4 -2 27 -15t32 -17.5t26 -10t30 -5.5q52 0 84 97l135 -35q-16 -37 -27.5 -59.5t-32 -54t-41 -49t-50.5 -31t-64 -13.5 q-64 0 -160 51q-6 3 -29 16t-40.5 20t-34.5 7q-29 0 -48.5 -31t-25.5 -65zM246 276q0 -81 56 -125.5t147 -44.5q106 0 175.5 50.5t69.5 156.5v179q-16 -6 -217 -48q-47 -10 -72.5 -16t-60.5 -19.5t-53 -29.5t-31.5 -42t-13.5 -61z" />
<glyph unicode="&#xe4;" horiz-adv-x="1028" d="M70 266q0 109 59 174q46 52 123.5 81t196.5 50l163 27q49 8 65.5 19t16.5 40v29q0 85 -43.5 127.5t-163.5 42.5q-231 0 -231 -205l-162 19q-1 80 30.5 143t87 102t127.5 59.5t155 20.5q88 0 151 -14t113 -47.5t75 -95t25 -150.5v-495q0 -50 19.5 -69.5t64.5 -19.5h23 v-118q-45 -9 -97 -9q-85 0 -121.5 33.5t-41.5 98.5h-3q-83 -136 -294 -136q-155 0 -246.5 75t-91.5 218zM242 1151v221h174v-221h-174zM246 276q0 -81 56 -125.5t147 -44.5q106 0 175.5 50.5t69.5 156.5v179q-16 -6 -217 -48q-47 -10 -72.5 -16t-60.5 -19.5t-53 -29.5 t-31.5 -42t-13.5 -61zM610 1151v221h174v-221h-174z" />
<glyph unicode="&#xe5;" horiz-adv-x="1028" d="M70 266q0 109 59 174q46 52 123.5 81t196.5 50l163 27q49 8 65.5 19t16.5 40v29q0 85 -43.5 127.5t-163.5 42.5q-231 0 -231 -205l-162 19q-1 80 30.5 143t87 102t127.5 59.5t155 20.5q88 0 151 -14t113 -47.5t75 -95t25 -150.5v-495q0 -50 19.5 -69.5t64.5 -19.5h23 v-118q-45 -9 -97 -9q-85 0 -121.5 33.5t-41.5 98.5h-3q-83 -136 -294 -136q-155 0 -246.5 75t-91.5 218zM246 276q0 -81 56 -125.5t147 -44.5q106 0 175.5 50.5t69.5 156.5v179q-16 -6 -217 -48q-47 -10 -72.5 -16t-60.5 -19.5t-53 -29.5t-31.5 -42t-13.5 -61zM291 1249 q0 85 59 143t144 58t143.5 -58t58.5 -143t-58.5 -142.5t-143.5 -57.5t-144 58t-59 142zM412 1249q0 -33 23.5 -56.5t56.5 -23.5q32 0 55.5 23.5t23.5 56.5t-23.5 56.5t-55.5 23.5q-33 0 -56.5 -23.5t-23.5 -56.5z" />
<glyph unicode="&#xe6;" horiz-adv-x="1658" d="M70 272q0 73 27.5 125.5t83 86t117.5 53t151 34.5l163 27q49 8 65.5 19t16.5 40v29q0 85 -43.5 127.5t-163.5 42.5q-233 0 -233 -205l-158 19q-1 80 30 143t86.5 102t127 59.5t154.5 20.5q244 0 319 -127v2q130 127 322 127q142 0 242.5 -68.5t148 -182.5t47.5 -263v-34 h-729q2 -61 19.5 -116.5t52.5 -103.5t95 -77t138 -29q191 0 297 172l123 -92q-16 -24 -34.5 -47t-58 -58t-84 -60.5t-112.5 -44t-143 -18.5q-234 0 -363 164q-18 -26 -42.5 -49.5t-67 -52.5t-107 -46.5t-141.5 -17.5q-156 0 -251 77.5t-95 221.5zM246 276q0 -81 56 -125.5 t147 -44.5q106 0 175.5 50.5t69.5 156.5v179q-16 -6 -217 -48q-47 -10 -72.5 -16t-60.5 -19.5t-53 -29.5t-31.5 -42t-13.5 -61zM850 584h547q-11 130 -79 203t-183 73q-114 0 -193 -75t-92 -201z" />
<glyph unicode="&#xe7;" horiz-adv-x="1009" d="M86 483q0 233 128.5 373.5t334.5 140.5q150 0 253.5 -68.5t153.5 -195.5l-141 -74q-70 197 -266 197q-132 0 -210.5 -99t-78.5 -272q0 -171 80.5 -269.5t208.5 -98.5q203 0 282 176l134 -68q-55 -114 -151.5 -177t-225.5 -71l-29 -47h6q74 0 122 -38.5t48 -110.5 q0 -88 -59 -132t-144 -44q-55 0 -110 20l24 78q30 -12 72 -12t69 18t27 55q0 36 -25.5 54t-62.5 18q-45 0 -75 -18l-41 65l73 97q-187 20 -292 153t-105 350z" />
<glyph unicode="&#xe8;" horiz-adv-x="1073" d="M86 492q0 223 130.5 364t332.5 141q142 0 242.5 -68t148 -182t47.5 -262v-36h-729q2 -62 20.5 -118.5t54.5 -104t96.5 -75.5t137.5 -28q189 0 291 166l123 -88q-15 -23 -33.5 -46t-57.5 -57.5t-83.5 -60t-112.5 -44t-143 -18.5q-212 0 -338.5 137.5t-126.5 379.5z M264 584h547q-11 130 -79 203t-183 73q-114 0 -193 -75t-92 -201zM307 1393h217l142 -263h-150z" />
<glyph unicode="&#xe9;" horiz-adv-x="1073" d="M86 492q0 223 130.5 364t332.5 141q142 0 242.5 -68t148 -182t47.5 -262v-36h-729q2 -62 20.5 -118.5t54.5 -104t96.5 -75.5t137.5 -28q189 0 291 166l123 -88q-15 -23 -33.5 -46t-57.5 -57.5t-83.5 -60t-112.5 -44t-143 -18.5q-212 0 -338.5 137.5t-126.5 379.5z M264 584h547q-11 130 -79 203t-183 73q-114 0 -193 -75t-92 -201zM446 1130l142 263h217l-209 -263h-150z" />
<glyph unicode="&#xea;" horiz-adv-x="1073" d="M86 492q0 223 130.5 364t332.5 141q142 0 242.5 -68t148 -182t47.5 -262v-36h-729q2 -62 20.5 -118.5t54.5 -104t96.5 -75.5t137.5 -28q189 0 291 166l123 -88q-15 -23 -33.5 -46t-57.5 -57.5t-83.5 -60t-112.5 -44t-143 -18.5q-212 0 -338.5 137.5t-126.5 379.5z M264 584h547q-11 130 -79 203t-183 73q-114 0 -193 -75t-92 -201zM274 1130l201 263h162l203 -263h-154l-131 136l-123 -136h-158z" />
<glyph unicode="&#xeb;" horiz-adv-x="1073" d="M86 492q0 223 130.5 364t332.5 141q142 0 242.5 -68t148 -182t47.5 -262v-36h-729q2 -62 20.5 -118.5t54.5 -104t96.5 -75.5t137.5 -28q189 0 291 166l123 -88q-15 -23 -33.5 -46t-57.5 -57.5t-83.5 -60t-112.5 -44t-143 -18.5q-212 0 -338.5 137.5t-126.5 379.5z M264 584h547q-11 130 -79 203t-183 73q-114 0 -193 -75t-92 -201zM287 1151v221h174v-221h-174zM655 1151v221h174v-221h-174z" />
<glyph unicode="&#xec;" horiz-adv-x="473" d="M-33 1393h217l142 -263h-150zM152 0v975h170v-975h-170z" />
<glyph unicode="&#xed;" horiz-adv-x="473" d="M152 0v975h170v-975h-170zM156 1130l141 263h217l-209 -263h-149z" />
<glyph unicode="&#xee;" horiz-adv-x="473" d="M-45 1130l201 263h161l203 -263h-153l-131 136l-123 -136h-158zM152 0v975h170v-975h-170z" />
<glyph unicode="&#xef;" horiz-adv-x="473" d="M-37 1151v221h174v-221h-174zM152 0v975h170v-975h-170zM332 1151v221h174v-221h-174z" />
<glyph unicode="&#xf0;" horiz-adv-x="1081" d="M86 492q0 233 123.5 368t325.5 135q53 0 116.5 -18.5t112.5 -50.5q-53 145 -96 209q-34 -11 -148.5 -49t-171.5 -56l-43 119l289 90q-61 80 -150 164l131 76q112 -122 166 -193l211 70l43 -117l-182 -57q178 -299 178 -656q0 -118 -27 -216t-80.5 -174t-142 -118.5 t-204.5 -42.5q-206 0 -328.5 140.5t-122.5 376.5zM256 494q0 -170 77 -269.5t204 -99.5q128 0 205 99t77 270q0 172 -75.5 264t-206.5 92t-206 -92.5t-75 -263.5z" />
<glyph unicode="&#xf1;" horiz-adv-x="1112" d="M152 0v975h170v-146q42 74 120.5 121t192.5 47q193 0 274 -125q62 -95 62 -262v-610h-170v567q0 153 -54.5 217t-166.5 64q-119 0 -188.5 -82.5t-69.5 -202.5v-563h-170zM240 1180q79 209 219 209q63 0 137 -43q4 -2 27 -15t32 -17.5t26 -10t30 -5.5q52 0 84 97l135 -35 q-16 -37 -27.5 -59.5t-32 -54t-41 -49t-50.5 -31t-64 -13.5q-64 0 -160 51q-6 3 -29 16t-40.5 20t-34.5 7q-29 0 -48.5 -31t-25.5 -65z" />
<glyph unicode="&#xf2;" horiz-adv-x="1101" d="M86 483q0 233 129 373.5t336 140.5t336 -140.5t129 -373.5q0 -232 -127.5 -370t-337.5 -138t-337.5 138t-127.5 370zM260 485q0 -172 80 -270t211 -98t211 98.5t80 269.5q0 175 -79 274t-212 99t-212 -100t-79 -273zM324 1393h217l141 -263h-150z" />
<glyph unicode="&#xf3;" horiz-adv-x="1101" d="M86 483q0 233 129 373.5t336 140.5t336 -140.5t129 -373.5q0 -232 -127.5 -370t-337.5 -138t-337.5 138t-127.5 370zM260 485q0 -172 80 -270t211 -98t211 98.5t80 269.5q0 175 -79 274t-212 99t-212 -100t-79 -273zM444 1130l142 263h217l-209 -263h-150z" />
<glyph unicode="&#xf4;" horiz-adv-x="1101" d="M86 483q0 233 129 373.5t336 140.5t336 -140.5t129 -373.5q0 -232 -127.5 -370t-337.5 -138t-337.5 138t-127.5 370zM260 485q0 -172 80 -270t211 -98t211 98.5t80 269.5q0 175 -79 274t-212 99t-212 -100t-79 -273zM272 1130l201 263h162l203 -263h-154l-131 136 l-123 -136h-158z" />
<glyph unicode="&#xf5;" horiz-adv-x="1101" d="M86 483q0 233 129 373.5t336 140.5t336 -140.5t129 -373.5q0 -232 -127.5 -370t-337.5 -138t-337.5 138t-127.5 370zM213 1180q79 209 219 209q63 0 137 -43q4 -2 27 -15t32 -17.5t26 -10t30 -5.5q52 0 84 97l135 -35q-16 -37 -27.5 -59.5t-32 -54t-41 -49t-50.5 -31 t-64 -13.5q-64 0 -160 51q-6 3 -29 16t-40.5 20t-34.5 7q-29 0 -48.5 -31t-25.5 -65zM260 485q0 -172 80 -270t211 -98t211 98.5t80 269.5q0 175 -79 274t-212 99t-212 -100t-79 -273z" />
<glyph unicode="&#xf6;" horiz-adv-x="1101" d="M86 483q0 233 129 373.5t336 140.5t336 -140.5t129 -373.5q0 -232 -127.5 -370t-337.5 -138t-337.5 138t-127.5 370zM260 485q0 -172 80 -270t211 -98t211 98.5t80 269.5q0 175 -79 274t-212 99t-212 -100t-79 -273zM283 1151v221h174v-221h-174zM651 1151v221h174v-221 h-174z" />
<glyph unicode="&#xf7;" horiz-adv-x="1583" d="M102 410v155h1379v-155h-1379zM694 0v223h195v-223h-195zM694 752v223h195v-223h-195z" />
<glyph unicode="&#xf8;" horiz-adv-x="1101" d="M86 12l100 131q-100 137 -100 340q0 233 129 373.5t336 140.5q138 0 244 -65l98 127l125 -90l-109 -142q107 -135 107 -344q0 -232 -127.5 -370t-337.5 -138q-139 0 -248 64l-94 -125zM260 485q0 -120 37 -198l408 526q-67 45 -154 45q-133 0 -212 -100t-79 -273z M397 162q67 -45 154 -45q131 0 211 98.5t80 269.5q0 119 -39 205z" />
<glyph unicode="&#xf9;" horiz-adv-x="1101" d="M143 420v555h170v-561q0 -135 33 -197q47 -92 189 -92q118 0 182.5 83t64.5 208v559h170v-975h-170v143q-95 -168 -311 -168q-160 0 -244 93q-48 55 -66 126.5t-18 225.5zM317 1393h218l141 -263h-150z" />
<glyph unicode="&#xfa;" horiz-adv-x="1101" d="M143 420v555h170v-561q0 -135 33 -197q47 -92 189 -92q118 0 182.5 83t64.5 208v559h170v-975h-170v143q-95 -168 -311 -168q-160 0 -244 93q-48 55 -66 126.5t-18 225.5zM440 1130l142 263h217l-209 -263h-150z" />
<glyph unicode="&#xfb;" horiz-adv-x="1101" d="M143 420v555h170v-561q0 -135 33 -197q47 -92 189 -92q118 0 182.5 83t64.5 208v559h170v-975h-170v143q-95 -168 -311 -168q-160 0 -244 93q-48 55 -66 126.5t-18 225.5zM268 1130l201 263h162l203 -263h-154l-131 136l-123 -136h-158z" />
<glyph unicode="&#xfc;" horiz-adv-x="1101" d="M143 420v555h170v-561q0 -135 33 -197q47 -92 189 -92q118 0 182.5 83t64.5 208v559h170v-975h-170v143q-95 -168 -311 -168q-160 0 -244 93q-48 55 -66 126.5t-18 225.5zM283 1151v221h174v-221h-174zM651 1151v221h174v-221h-174z" />
<glyph unicode="&#xfd;" horiz-adv-x="874" d="M12 975h181l190 -590l53 -170h2q29 96 60 182l198 578h170l-428 -1174q-43 -120 -112.5 -163.5t-182.5 -43.5q-51 0 -123 13v137q68 -10 111 -10q84 0 123 39q31 31 53 98l43 125zM344 1130l141 263h217l-208 -263h-150z" />
<glyph unicode="&#xfe;" horiz-adv-x="1103" d="M152 -389v1782h170v-562q42 70 126 118t193 48q191 0 310.5 -135.5t119.5 -376.5q0 -235 -120 -372.5t-312 -137.5q-109 0 -192.5 46t-124.5 122v-532h-170zM315 487q0 -175 83.5 -272.5t215.5 -97.5t207.5 98t75.5 272q0 175 -78 272t-209 97q-130 0 -212.5 -97 t-82.5 -272z" />
<glyph unicode="&#xff;" horiz-adv-x="874" d="M12 975h181l190 -590l53 -170h2q29 96 60 182l198 578h170l-428 -1174q-43 -120 -112.5 -163.5t-182.5 -43.5q-51 0 -123 13v137q68 -10 111 -10q84 0 123 39q31 31 53 98l43 125zM176 1151v221h174v-221h-174zM545 1151v221h174v-221h-174z" />
<glyph unicode="&#x152;" horiz-adv-x="2015" d="M90 692q0 337 186.5 530t511.5 193q98 0 232 -24h874v-162h-743v-428h674v-162h-674v-477h782v-162h-913q-136 -25 -234 -25q-324 0 -510 185.5t-186 531.5zM276 692q0 -109 26 -200.5t72.5 -157.5t110.5 -112t140.5 -68.5t162.5 -22.5q114 0 181 19v1085q-81 16 -183 16 q-238 0 -374 -141t-136 -418z" />
<glyph unicode="&#x153;" horiz-adv-x="1814" d="M86 483q0 233 129 373.5t336 140.5q117 0 213 -48.5t158 -137.5q62 89 157 137.5t211 48.5q142 0 243 -68t148.5 -182t47.5 -262v-36h-730q2 -62 20.5 -118.5t54.5 -104t97 -75.5t138 -28q188 0 290 166l123 -88q-15 -23 -33.5 -46t-57.5 -57.5t-83.5 -60t-112.5 -44 t-143 -18.5q-245 0 -370 179q-62 -86 -157 -132.5t-214 -46.5q-210 0 -337.5 138t-127.5 370zM260 485q0 -172 80 -270t211 -98t211 98.5t80 269.5q0 175 -79 274t-212 99t-212 -100t-79 -273zM1006 584h546q-11 130 -79 203t-183 73q-114 0 -192.5 -75t-91.5 -201z" />
<glyph unicode="&#x178;" horiz-adv-x="1173" d="M-20 1393h206l398 -652l407 652h203l-530 -824v-569h-181v569zM330 1538v221h174v-221h-174zM698 1538v221h174v-221h-174z" />
<glyph unicode="&#x2c6;" horiz-adv-x="1038" d="M236 1130l200 263h162l203 -263h-154l-131 136l-123 -136h-157z" />
<glyph unicode="&#x2dc;" horiz-adv-x="1099" d="M205 1180q79 209 219 209q63 0 137 -43q4 -2 27 -15t32 -17.5t26 -10t30 -5.5q52 0 84 97l135 -35q-16 -37 -27.5 -59.5t-32 -54t-41 -49t-50.5 -31t-64 -13.5q-64 0 -160 51q-6 3 -29 16t-40.5 20t-34.5 7q-29 0 -48.5 -31t-25.5 -65z" />
<glyph unicode="&#x2000;" horiz-adv-x="925" />
<glyph unicode="&#x2001;" horiz-adv-x="1851" />
<glyph unicode="&#x2002;" horiz-adv-x="925" />
<glyph unicode="&#x2003;" horiz-adv-x="1851" />
<glyph unicode="&#x2004;" horiz-adv-x="617" />
<glyph unicode="&#x2005;" horiz-adv-x="462" />
<glyph unicode="&#x2006;" horiz-adv-x="308" />
<glyph unicode="&#x2007;" horiz-adv-x="308" />
<glyph unicode="&#x2008;" horiz-adv-x="231" />
<glyph unicode="&#x2009;" horiz-adv-x="370" />
<glyph unicode="&#x200a;" horiz-adv-x="102" />
<glyph unicode="&#x2010;" horiz-adv-x="692" d="M82 467v178h528v-178h-528z" />
<glyph unicode="&#x2011;" horiz-adv-x="692" d="M82 467v178h528v-178h-528z" />
<glyph unicode="&#x2012;" horiz-adv-x="692" d="M82 467v178h528v-178h-528z" />
<glyph unicode="&#x2013;" horiz-adv-x="1284" d="M123 479v156h1038v-156h-1038z" />
<glyph unicode="&#x2014;" horiz-adv-x="1554" d="M61 479v156h1432v-156h-1432z" />
<glyph unicode="&#x2018;" horiz-adv-x="348" d="M78 885v153q0 170 18 236q38 132 176 143v-94q-47 -6 -67 -41q-23 -42 -23 -133v-29h90v-235h-194z" />
<glyph unicode="&#x2019;" horiz-adv-x="348" d="M78 860v94q47 6 67 41q23 42 23 133v29h-90v236h194v-154q0 -169 -18 -235q-38 -133 -176 -144z" />
<glyph unicode="&#x201a;" horiz-adv-x="632" d="M78 0v236h194v-154q0 -170 -18 -236q-38 -132 -176 -143v94q47 6 67 41q23 42 23 133v29h-90zM371 0v236h194v-154q0 -170 -18 -236q-38 -132 -176 -143v94q47 6 67 41q23 42 23 133v29h-90z" />
<glyph unicode="&#x201c;" horiz-adv-x="641" d="M78 885v153q0 170 18 236q38 132 176 143v-94q-47 -6 -67 -41q-23 -42 -23 -133v-29h90v-235h-194zM371 885v153q0 170 18 236q38 132 176 143v-94q-47 -6 -67 -41q-23 -42 -23 -133v-29h90v-235h-194z" />
<glyph unicode="&#x201d;" horiz-adv-x="641" d="M78 860v94q47 6 67 41q23 42 23 133v29h-90v236h194v-154q0 -169 -18 -235q-38 -133 -176 -144zM371 860v94q47 6 67 41q23 42 23 133v29h-90v236h194v-154q0 -169 -18 -235q-38 -133 -176 -144z" />
<glyph unicode="&#x201e;" horiz-adv-x="339" d="M78 0v236h194v-154q0 -170 -18 -236q-38 -132 -176 -143v94q47 6 67 41q23 42 23 133v29h-90z" />
<glyph unicode="&#x2022;" horiz-adv-x="737" d="M82 702q0 120 83.5 203.5t203.5 83.5t203 -83.5t83 -203.5t-83 -203t-203 -83t-203.5 83t-83.5 203z" />
<glyph unicode="&#x2026;" horiz-adv-x="2023" d="M227 0v233h195v-233h-195zM913 0v233h195v-233h-195zM1599 0v233h195v-233h-195z" />
<glyph unicode="&#x202f;" horiz-adv-x="370" />
<glyph unicode="&#x2039;" horiz-adv-x="544" d="M102 518v213l310 258v-196l-193 -158l193 -174v-191z" />
<glyph unicode="&#x203a;" horiz-adv-x="544" d="M133 270v191l193 174l-193 158v196l309 -258v-213z" />
<glyph unicode="&#x205f;" horiz-adv-x="462" />
<glyph unicode="&#x20ac;" d="M33 453l51 145h90q-2 14 -2 94q0 54 2 66h-141l51 145h104q36 236 159 375t331 139q322 0 434 -332l-141 -84q-77 269 -293 269q-130 0 -208.5 -99.5t-102.5 -267.5h501l-49 -145h-467q-2 -16 -2 -76q0 -72 2 -84h430l-49 -145h-364q53 -328 309 -328q221 0 293 252 l143 -70q-104 -332 -436 -332q-112 0 -201 39.5t-146 108.5t-91.5 151t-49.5 179h-157z" />
<glyph unicode="&#x2122;" horiz-adv-x="1761" d="M20 1251v142h695v-142h-273v-772h-149v772h-273zM801 477h145v457q0 54 -3 114t-6 93l-3 33h4q23 -122 63 -234l160 -463h121l150 465q27 89 63 248h4q-10 -98 -10 -258v-455h145v916h-194l-137 -441q-17 -50 -78 -274h-4q-37 144 -80 274l-150 441h-190v-916z" />
</font>
</defs>
</svg>
