<?xml version="1.0" standalone="no"?>
<!DOCTYPE svg PUBLIC "-//W3C//DTD SVG 1.1//EN" "http://www.w3.org/Graphics/SVG/1.1/DTD/svg11.dtd" >
<svg xmlns="http://www.w3.org/2000/svg">
<metadata></metadata>
<defs>
<font id="theinhardtheavy" horiz-adv-x="1208" >
<font-face units-per-em="2048" ascent="1393" descent="-655" />
<missing-glyph horiz-adv-x="471" />
<glyph unicode="&#xfb01;" horiz-adv-x="1359" d="M18 721v254h152v90q0 171 72 252q46 53 126.5 73.5t196.5 20.5q113 0 183 -12v-266q-40 4 -72 4q-71 0 -105 -27q-28 -25 -28 -88v-47h205v-254h-205v-721h-373v721h-152zM868 0v975h375v-975h-375zM868 1081v312h375v-312h-375z" />
<glyph unicode="&#xfb02;" horiz-adv-x="1359" d="M18 721v254h152v90q0 171 72 252q46 53 126.5 73.5t196.5 20.5q113 0 183 -12v-266q-40 4 -72 4q-71 0 -105 -27q-28 -25 -28 -88v-47h205v-254h-205v-721h-373v721h-152zM868 0v1393h375v-1393h-375z" />
<glyph horiz-adv-x="0" />
<glyph horiz-adv-x="682" />
<glyph unicode=" "  horiz-adv-x="471" />
<glyph unicode="&#x09;" horiz-adv-x="471" />
<glyph unicode="&#xa0;" horiz-adv-x="471" />
<glyph unicode="!" horiz-adv-x="608" d="M117 0v317h375v-317h-375zM117 772v621h375v-621l-31 -381h-309z" />
<glyph unicode="&#x22;" horiz-adv-x="1044" d="M90 1188v205h377v-205l-59 -447h-267zM578 1188v205h376v-205l-59 -447h-266z" />
<glyph unicode="#" d="M-82 301v285h272l25 166h-240v284h287l57 357h338l-59 -357h170l59 357h336l-57 -357h215v-284h-262l-25 -166h230v-285h-277l-47 -301h-340l49 301h-168l-49 -301h-338l47 301h-223zM526 586h170l27 166h-170z" />
<glyph unicode="$" d="M-55 291l241 198q79 -98 189.5 -152t236.5 -54q102 0 162 33.5t60 93.5q0 23 -10 41t-25.5 29.5t-41 21t-48 14t-56.5 10.5l-182 31q-101 18 -179.5 47.5t-144 78t-100.5 123t-35 171.5q0 162 120 275.5t323 142.5v172h286v-178q146 -26 256 -89.5t162 -125.5l-225 -211 q-74 71 -168.5 112t-194.5 41q-81 0 -131.5 -29t-50.5 -81q0 -51 40 -79.5t116 -43.5l227 -41q103 -20 178.5 -49.5t134 -76t88 -114.5t29.5 -158q0 -187 -125.5 -301t-335.5 -143v-188h-286v188q-186 28 -317 113.5t-193 177.5z" />
<glyph unicode="%" horiz-adv-x="1961" d="M61 958q0 71 10 133.5t35.5 122t64.5 102.5t101.5 69t141.5 26q83 0 146 -28t100 -71.5t60.5 -105.5t31.5 -121t8 -127q0 -88 -20.5 -163t-61.5 -134t-110 -92.5t-158 -33.5q-92 0 -161 34t-109 94t-59.5 133.5t-19.5 161.5zM319 971q0 -209 93 -209q98 0 98 194 q0 109 -25.5 168.5t-72.5 59.5q-45 0 -69 -57.5t-24 -155.5zM453 0l733 1393h313l-723 -1393h-323zM1198 403q0 71 10 133.5t35.5 122t64 102.5t101 69t141.5 26q83 0 146 -28t100 -71.5t60.5 -105.5t31.5 -121t8 -127q0 -88 -20.5 -163t-61.5 -134t-110 -92.5t-158 -33.5 q-92 0 -161 34t-109 94t-59 133.5t-19 161.5zM1456 416q0 -209 92 -209q99 0 99 194q0 109 -26 168.5t-73 59.5q-45 0 -68.5 -57.5t-23.5 -155.5z" />
<glyph unicode="&#x26;" horiz-adv-x="1347" d="M41 391q0 130 81 229.5t206 159.5l-21 27q-30 37 -44 56t-34.5 55.5t-29.5 77t-9 89.5q0 63 25.5 121t74.5 105.5t128.5 75.5t179.5 28q188 0 290.5 -90t102.5 -229q0 -195 -237 -351q118 -147 118 -149q21 76 31 145l299 -65q-24 -183 -96 -346l280 -330h-399l-82 90 q-81 -58 -170 -85.5t-211 -27.5q-225 0 -354 109t-129 305zM385 406q0 -66 43 -111t121 -45q104 0 160 74l-215 254q-53 -30 -81 -76t-28 -96zM502 1087q0 -38 17 -68t59 -79l12 -14q98 70 98 161q0 41 -27 66t-65 25q-42 0 -68 -25t-26 -66z" />
<glyph unicode="'" horiz-adv-x="557" d="M90 1188v205h377v-205l-59 -447h-267z" />
<glyph unicode="(" horiz-adv-x="747" d="M115 543q0 221 62 425.5t196 424.5h350q-234 -416 -234 -850q0 -432 230 -867h-344q-260 412 -260 867z" />
<glyph unicode=")" horiz-adv-x="747" d="M25 1393h350q134 -220 196 -424.5t62 -425.5q0 -455 -260 -867h-344q229 433 229 867q0 436 -233 850z" />
<glyph unicode="*" horiz-adv-x="950" d="M31 971l84 258l225 -74v238h270v-240l226 76l84 -258l-228 -74l142 -190l-220 -160l-141 190l-137 -190l-219 160l139 190z" />
<glyph unicode="+" horiz-adv-x="1583" d="M176 434v336h447v444h338v-444h444v-336h-444v-434h-338v434h-447z" />
<glyph unicode="," horiz-adv-x="636" d="M123 0v406h391v-240q0 -183 -27 -285q-34 -122 -120.5 -181t-243.5 -62v184q184 13 184 178h-184z" />
<glyph unicode="-" horiz-adv-x="733" d="M82 395v305h569v-305h-569z" />
<glyph unicode="." horiz-adv-x="636" d="M123 0v406h391v-406h-391z" />
<glyph unicode="/" d="M37 0l737 1393h381l-735 -1393h-383z" />
<glyph unicode="0" d="M55 686q0 87 11 168.5t34.5 166t66 154.5t101.5 125t145.5 86t192.5 31q92 0 169.5 -23.5t133.5 -63.5t99.5 -97t71 -120.5t45.5 -137.5t25 -144t7 -145q-2 -78 -9.5 -145t-24.5 -141.5t-43.5 -134t-69 -115t-98 -93t-133.5 -60t-173 -22.5q-89 0 -165 22.5t-131.5 62 t-100 94.5t-73 117t-47 133.5t-26.5 140.5t-8 141zM440 686q0 -59 3 -106t13.5 -99t27.5 -86.5t48.5 -57t73.5 -22.5t73.5 22.5t48.5 56.5t27.5 86t13.5 99t3 107q0 62 -3 111t-13.5 104t-27.5 91.5t-48.5 60.5t-73.5 24q-36 0 -64 -16t-45.5 -46t-29.5 -65t-17.5 -83 t-7.5 -89t-2 -92z" />
<glyph unicode="1" d="M158 801v313h102q135 0 197 47q72 53 82 232h340v-1393h-373v801h-348z" />
<glyph unicode="2" d="M86 965q0 197 147 324.5t383 127.5q228 0 368 -121t140 -315q0 -92 -33 -180t-81.5 -153.5t-121 -130.5t-133.5 -107.5t-137 -87.5v-3q176 7 297 7h197v-326h-1020v264q113 78 244 182.5t231 208.5q83 86 126.5 156t43.5 141q0 64 -37 102t-106 38q-75 0 -113.5 -47.5 t-38.5 -126.5q0 -55 15 -121l-351 26q-20 90 -20 142z" />
<glyph unicode="3" d="M41 428l354 39q20 -180 197 -180q91 0 133.5 43t42.5 108q0 74 -51.5 110t-159.5 36h-149v262h129q74 0 104 10q51 13 74.5 49.5t23.5 85.5q0 58 -40 91.5t-109 33.5q-75 0 -119.5 -42t-48.5 -118l-348 33q2 117 66.5 214t187 155.5t280.5 58.5q232 0 367 -106t135 -271 q0 -185 -168 -292q209 -98 209 -332q0 -92 -36 -172t-103.5 -140t-173.5 -94.5t-238 -34.5q-266 0 -405.5 119.5t-153.5 333.5z" />
<glyph unicode="4" d="M33 291v258l608 844h352v-795h193v-307h-193v-291h-348v291h-612zM397 594q74 4 129 4h119v227l2 136h-2q-39 -68 -76 -123l-88 -125l-84 -117v-2z" />
<glyph unicode="5" d="M61 375l367 71q23 -155 164 -155q79 0 120.5 53t41.5 139q0 83 -42.5 137t-121.5 54q-57 0 -96 -29.5t-54 -81.5l-346 45l92 785h889l-22 -322h-572l-18 -145q103 39 201 39q90 0 172.5 -29.5t148.5 -85t105.5 -145.5t39.5 -203q0 -240 -141.5 -383.5t-398.5 -143.5 q-115 0 -208.5 31t-157 86t-104.5 126t-59 157z" />
<glyph unicode="6" d="M84 676q0 354 140 547.5t423 193.5q97 0 175.5 -25t129 -64.5t87 -93t54.5 -106t25 -108.5l-325 -49q-12 66 -52 103.5t-106 37.5q-86 0 -133.5 -68t-46.5 -198q101 84 256 84q86 0 162.5 -27.5t137.5 -81.5t96.5 -142.5t35.5 -201.5q0 -75 -19.5 -146.5t-61 -136.5 t-100.5 -113.5t-145.5 -77t-189.5 -28.5q-543 0 -543 701zM457 565q-3 -48 3.5 -92.5t24 -86.5t55 -67.5t89.5 -25.5q77 0 119.5 46.5t42.5 131.5q0 86 -46 130t-114 44q-48 0 -96 -22t-78 -58z" />
<glyph unicode="7" d="M82 889v504h1073v-285q-109 -130 -194 -285q-211 -378 -252 -823h-392q35 305 133 554t277 529h-303v-194h-342z" />
<glyph unicode="8" d="M59 389q0 114 60 200.5t145 131.5q-74 43 -122 120t-48 185q0 172 141 281.5t369 109.5t369 -109.5t141 -281.5q0 -108 -48 -185t-122 -120q85 -45 145 -131.5t60 -200.5q0 -106 -42.5 -187t-118 -129.5t-172.5 -73t-212 -24.5t-212 24.5t-172.5 73t-118 129.5t-42.5 187 zM422 428q0 -69 49 -110.5t133 -41.5t133 41.5t49 110.5t-47 112.5t-135 43.5t-135 -43.5t-47 -112.5zM440 981q0 -59 41 -101t123 -42t123 42t41 101q0 57 -42 99t-122 42t-122 -42t-42 -99z" />
<glyph unicode="9" d="M72 915q0 75 19.5 146.5t61 136.5t100.5 113.5t145.5 77t189.5 28.5q268 0 405 -171.5t137 -528.5q0 -355 -139.5 -548.5t-423.5 -193.5q-97 0 -175.5 25t-129 64.5t-87 93.5t-54.5 106.5t-25 108.5l326 49q12 -66 52 -103.5t106 -37.5q86 0 133.5 68t46.5 198 q-101 -84 -256 -84q-86 0 -162.5 27.5t-137.5 81t-96.5 142t-35.5 201.5zM424 924q0 -86 46 -130t114 -44q48 0 96 21.5t78 57.5q3 48 -3.5 93t-24 87t-55 67.5t-89.5 25.5q-77 0 -119.5 -46.5t-42.5 -131.5z" />
<glyph unicode=":" horiz-adv-x="636" d="M123 0v379h391v-379h-391zM123 596v379h391v-379h-391z" />
<glyph unicode=";" horiz-adv-x="643" d="M127 0v379h391v-213q0 -187 -26 -285q-34 -122 -121 -181t-244 -62v184q184 13 184 178h-184zM129 596v379h391v-379h-391z" />
<glyph unicode="&#x3c;" horiz-adv-x="1583" d="M68 545v250l1413 618v-369l-908 -368l908 -381v-373z" />
<glyph unicode="=" horiz-adv-x="1583" d="M78 213v307h1429v-307h-1429zM78 657v308h1429v-308h-1429z" />
<glyph unicode="&#x3e;" horiz-adv-x="1583" d="M102 -78v373l908 381l-908 368v369l1414 -618v-250z" />
<glyph unicode="?" horiz-adv-x="1036" d="M25 1008q0 185 129 297t358 112q130 0 228 -34t154.5 -93t84 -131t27.5 -155q0 -97 -46.5 -191t-142.5 -170l-82 -65q-46 -36 -62 -65.5t-16 -82.5v-55h-358v59q0 96 35.5 168.5t130.5 151.5l76 63q84 73 84 178q0 64 -31 101t-86 37q-61 0 -95 -42.5t-34 -127.5 q0 -56 18 -123l-352 22q-20 73 -20 146zM295 0v309h367v-309h-367z" />
<glyph unicode="@" horiz-adv-x="1767" d="M82 616q0 121 32.5 236t102 218t168.5 180.5t241.5 123t311.5 45.5q152 0 278 -39t211.5 -105t145 -154.5t86.5 -186t27 -201.5q0 -259 -114.5 -401t-332.5 -142q-159 0 -215 70q-76 -72 -229 -72q-142 0 -228 69.5t-86 201.5q0 61 22.5 107t65 75.5t94 47.5t119.5 30 l172 29q33 6 42.5 13.5t9.5 26.5v15q0 80 -105 80q-117 0 -117 -105l-282 6q-1 80 32.5 138.5t95 91.5t135.5 48t163 15q93 0 158.5 -11.5t118 -40t78.5 -82t26 -132.5v-354q0 -68 28 -68q46 0 84.5 85.5t38.5 221.5q0 75 -16.5 145.5t-55.5 137.5t-97.5 116.5t-150.5 80 t-206 30.5q-119 0 -219 -32t-169.5 -87t-118.5 -130t-72 -159.5t-23 -176.5q0 -140 47.5 -255.5t130.5 -192t194.5 -118t239.5 -41.5q326 0 537 193l90 -182q-134 -110 -301 -162.5t-344 -52.5q-395 0 -619.5 218t-224.5 588zM782 465q0 -41 27 -63.5t78 -22.5q55 0 87 27.5 t32 82.5v99q-22 -11 -101 -29q-35 -8 -52.5 -13.5t-36.5 -16t-26.5 -26t-7.5 -38.5z" />
<glyph unicode="A" horiz-adv-x="1351" d="M-10 0l467 1393h442l463 -1393h-397l-72 244h-438l-72 -244h-393zM543 545h260l-90 325q-25 93 -37 152h-2q-2 -9 -9.5 -37.5t-15 -58.5t-14.5 -56z" />
<glyph unicode="B" horiz-adv-x="1392" d="M127 0v1393h668q118 0 192 -12.5t133 -41.5q83 -41 130.5 -118t47.5 -179q0 -121 -62 -199t-159 -110q264 -82 264 -342q0 -203 -155 -311q-68 -48 -155 -64t-200 -16h-704zM502 289h229q98 0 139 14q84 29 84 129t-84 129q-41 14 -139 14h-229v-286zM502 852h219 q71 0 103 6t57 27q37 34 37 100q0 68 -48 98q-39 25 -147 25h-221v-256z" />
<glyph unicode="C" horiz-adv-x="1359" d="M76 696q0 324 185 522.5t497 198.5q119 0 220 -32t170 -86.5t116 -117t75 -132.5l-303 -158q-32 108 -102.5 164.5t-175.5 56.5q-147 0 -224 -109.5t-77 -306.5q0 -195 76 -301t225 -106q197 0 268 180l317 -125q-76 -174 -226 -271.5t-367 -97.5q-210 0 -363.5 91.5 t-232 253.5t-78.5 376z" />
<glyph unicode="D" horiz-adv-x="1462" d="M127 0v1393h491q140 0 209.5 -3.5t155.5 -26t152 -69.5q116 -83 180.5 -236.5t64.5 -357.5q0 -177 -49 -319.5t-145 -235.5q-36 -36 -73.5 -61t-84.5 -41t-83.5 -25t-100.5 -13t-104.5 -4.5t-123.5 -0.5h-489zM506 307h94q83 0 127.5 3t96 19t83.5 48q42 42 65 124.5 t23 192.5q0 239 -98 322q-48 42 -116 55.5t-193 13.5h-82v-778z" />
<glyph unicode="E" horiz-adv-x="1267" d="M127 0v1393h1034v-314h-659v-217h600v-309h-600v-238h700v-315h-1075z" />
<glyph unicode="F" horiz-adv-x="1183" d="M127 0v1393h1016v-314h-639v-221h581v-315h-581v-543h-377z" />
<glyph unicode="G" horiz-adv-x="1484" d="M76 696q0 324 184 522.5t496 198.5q119 0 220 -32t170 -86.5t116 -117t75 -132.5l-303 -158q-32 108 -102.5 164.5t-175.5 56.5q-147 0 -224 -109.5t-77 -306.5q0 -199 77 -309.5t234 -110.5q121 0 191.5 65.5t80.5 164.5h-319v303h657v-809h-334v111 q-136 -136 -364 -136q-131 0 -241.5 48t-190.5 138t-125 227.5t-45 307.5z" />
<glyph unicode="H" horiz-adv-x="1466" d="M127 0v1393h377v-516h461v516h374v-1393h-374v553h-461v-553h-377z" />
<glyph unicode="I" horiz-adv-x="630" d="M127 0v1393h377v-1393h-377z" />
<glyph unicode="J" horiz-adv-x="841" d="M53 -12v315q46 -10 111 -10q108 0 145 43q24 27 33.5 74.5t9.5 136.5v846h377v-957q0 -210 -63 -311q-107 -150 -408 -150q-112 0 -205 13z" />
<glyph unicode="K" horiz-adv-x="1429" d="M127 0v1393h377v-498l483 498h473l-571 -572l565 -821h-446l-381 565l-123 -125v-440h-377z" />
<glyph unicode="L" horiz-adv-x="1081" d="M127 0v1393h379v-1076h545v-317h-924z" />
<glyph unicode="M" horiz-adv-x="1888" d="M127 0v1393h586l164 -678q16 -68 34.5 -153t28.5 -136l10 -51h2q37 186 76 340l166 678h567v-1393h-358v422q0 142 6.5 386t11.5 310q-47 -229 -84 -370l-196 -748h-406l-184 778l-74 334q3 -55 6.5 -303t3.5 -391v-418h-360z" />
<glyph unicode="N" horiz-adv-x="1495" d="M127 0v1393h383l287 -465q49 -80 99 -165.5t76 -130.5l25 -46h2q-8 215 -8 424v383h377v-1393h-383l-305 506q-35 57 -81 138t-75 133l-28 52h-2q10 -209 10 -432v-397h-377z" />
<glyph unicode="O" horiz-adv-x="1523" d="M76 696q0 213 83.5 376t239.5 254t363 91t363 -91t239.5 -254t83.5 -376q0 -214 -79 -375.5t-235 -253.5t-372 -92q-161 0 -291 53t-216 148t-132.5 227.5t-46.5 292.5zM455 696q0 -194 79 -300.5t228 -106.5q148 0 226.5 106.5t78.5 300.5q0 195 -80 304.5t-225 109.5 q-148 0 -227.5 -109.5t-79.5 -304.5z" />
<glyph unicode="P" horiz-adv-x="1349" d="M127 0v1393h592q216 0 334 -45q124 -49 195 -155t71 -257q0 -134 -47 -222.5t-148 -150.5q-79 -47 -174.5 -62.5t-244.5 -15.5h-199v-485h-379zM506 793h258q80 0 125 28q55 35 55 119t-55 119q-45 28 -125 28h-258v-294z" />
<glyph unicode="Q" horiz-adv-x="1525" d="M76 696q0 213 83.5 376t239.5 254t363 91t363 -91t239.5 -254t83.5 -376q0 -186 -64 -342l187 -174l-256 -254l-146 162q-171 -113 -407 -113q-161 0 -291 53t-216 148t-132.5 227.5t-46.5 292.5zM455 696q0 -194 79 -300.5t228 -106.5q148 0 226.5 106.5t78.5 300.5 q0 195 -80 304.5t-225 109.5q-148 0 -227.5 -109.5t-79.5 -304.5z" />
<glyph unicode="R" horiz-adv-x="1388" d="M127 0v1393h588q214 0 332 -45q126 -49 198 -154t72 -256q0 -132 -48.5 -219t-150.5 -150q-33 -20 -61 -32l321 -537h-413l-287 492h-174v-492h-377zM504 793h233q85 0 127 18q78 34 78 129t-78 129q-42 18 -127 18h-233v-294z" />
<glyph unicode="S" horiz-adv-x="1353" d="M10 283l246 202q81 -100 194 -155.5t240 -55.5q105 0 166.5 34t61.5 95q0 29 -14 50.5t-43 34.5t-57 20t-71 14l-186 33q-104 18 -184 48t-147 79.5t-102.5 125.5t-35.5 175q0 190 159 312t418 122q111 0 213.5 -24t176 -61.5t124.5 -75t80 -72.5l-229 -215 q-75 72 -172 113.5t-199 41.5q-83 0 -134.5 -29t-51.5 -83q0 -52 41 -81t119 -44l231 -43q216 -41 327 -133.5t111 -270.5q0 -150 -81 -256.5t-218 -157.5t-317 -51q-105 0 -202.5 21.5t-169 54t-132.5 75t-99 81t-63 76.5z" />
<glyph unicode="T" horiz-adv-x="1171" d="M27 1075v318h1118v-318h-369v-1075h-377v1075h-372z" />
<glyph unicode="U" horiz-adv-x="1433" d="M117 571v822h379v-799q0 -153 22 -201q19 -50 73.5 -76t127.5 -26q72 0 126 25.5t73 76.5q22 48 22 201v799h377v-822q0 -144 -17 -227.5t-59 -155.5q-65 -109 -206 -161t-316 -52q-176 0 -317.5 52t-208.5 161q-43 71 -59.5 154t-16.5 229z" />
<glyph unicode="V" horiz-adv-x="1253" d="M-16 1393h395l194 -731l50 -209h2q24 111 49 209l192 731h404l-422 -1393h-451z" />
<glyph unicode="W" horiz-adv-x="1902" d="M4 1393h391l51 -256q19 -88 48.5 -243t49.5 -266l19 -110h2q61 292 135 582l74 293h346l82 -322l139 -553h5q57 335 118 627l49 248h385l-331 -1393h-416l-90 375l-109 473h-2q-44 -181 -112 -463l-93 -385h-409z" />
<glyph unicode="X" horiz-adv-x="1435" d="M-16 0l512 721l-471 672h452l248 -387l242 387h446l-479 -656l518 -737h-455l-290 461l-299 -461h-424z" />
<glyph unicode="Y" horiz-adv-x="1327" d="M-16 1393h415l265 -478l270 478h409l-503 -822v-571h-377v567z" />
<glyph unicode="Z" horiz-adv-x="1241" d="M51 0v264l623 815h-602v314h1085v-242l-631 -836h633v-315h-1108z" />
<glyph unicode="[" horiz-adv-x="724" d="M127 -324v1717h553v-263h-188v-1189h188v-265h-553z" />
<glyph unicode="\" horiz-adv-x="1138" d="M10 1393h381l737 -1393h-383z" />
<glyph unicode="]" horiz-adv-x="724" d="M45 -59h188v1189h-188v263h553v-1717h-553v265z" />
<glyph unicode="^" horiz-adv-x="1583" d="M266 625l387 768h295l369 -768h-399l-123 266l-121 -266h-408z" />
<glyph unicode="_" horiz-adv-x="1060" d="M-8 -59h1077v-308h-1077v308z" />
<glyph unicode="`" horiz-adv-x="1024" d="M219 1393h434l140 -297h-320z" />
<glyph unicode="a" horiz-adv-x="1118" d="M51 283q0 71 24.5 123.5t73.5 86.5t109 55t143 36l199 30q35 6 43 14t8 31v21q0 90 -116 90q-129 0 -129 -125l-330 2v6q0 73 24 129q26 60 71 99t108 65t133.5 37.5t150.5 11.5q49 0 89.5 -2.5t86.5 -10.5t82 -21t70 -36t56.5 -54t36 -76t13.5 -101v-432q0 -48 9.5 -65 t40.5 -17h10v-188q-84 -15 -166 -15q-190 0 -217 84q-81 -86 -262 -86q-168 0 -264.5 78.5t-96.5 229.5zM401 289q0 -48 29.5 -75.5t87.5 -27.5q64 0 98.5 29.5t34.5 85.5v129q-45 -18 -110 -33q-75 -17 -107.5 -38.5t-32.5 -69.5z" />
<glyph unicode="b" horiz-adv-x="1253" d="M117 0v1393h375v-508q40 49 113 82.5t171 33.5q191 0 307.5 -137.5t116.5 -378.5q0 -237 -116.5 -373.5t-311.5 -136.5q-95 0 -166.5 34t-113.5 79v-88h-375zM485 489q0 -114 46 -181.5t128 -67.5q162 0 162 249q0 120 -40.5 186t-121.5 66q-82 0 -128 -68t-46 -184z" />
<glyph unicode="c" horiz-adv-x="1077" d="M53 481q0 238 142 379t380 141q201 0 319 -91t157 -234l-312 -88q-17 70 -52.5 109.5t-102.5 39.5q-162 0 -162 -256q0 -241 162 -241q62 0 95 31.5t54 93.5l320 -84q-15 -55 -48.5 -105.5t-89.5 -97.5t-145 -75t-199 -28q-237 0 -377.5 134.5t-140.5 371.5z" />
<glyph unicode="d" horiz-adv-x="1253" d="M53 487q0 240 116.5 377t307.5 137q98 0 171.5 -33.5t113.5 -82.5v508h375v-1393h-375v88q-42 -45 -113.5 -79t-167.5 -34q-195 0 -311.5 137.5t-116.5 374.5zM432 492q0 -252 162 -252q82 0 128 69t46 183q0 115 -46 182t-128 67q-162 0 -162 -249z" />
<glyph unicode="e" horiz-adv-x="1130" d="M53 498q0 230 145 366.5t373 136.5q163 0 279 -71t171.5 -191t55.5 -276q0 -37 -2 -60h-672q7 -81 61 -121t136 -40q141 0 213 116l248 -157q-28 -38 -66 -72.5t-97.5 -71.5t-144 -59.5t-182.5 -22.5q-236 0 -377 139t-141 384zM401 608h334q-3 80 -46 125t-118 45 q-77 0 -122 -45t-48 -125z" />
<glyph unicode="f" horiz-adv-x="751" d="M18 721v254h152v90q0 171 72 252q46 53 126.5 73.5t196.5 20.5q113 0 183 -12v-266q-40 4 -72 4q-71 0 -105 -27q-28 -25 -28 -88v-47h205v-254h-205v-721h-373v721h-152z" />
<glyph unicode="g" horiz-adv-x="1247" d="M53 508q0 221 117 357t309 136q173 0 283 -114v88h375v-887q0 -182 -54.5 -286t-172 -149.5t-320.5 -45.5q-258 0 -376.5 89.5t-129.5 262.5l342 16q12 -62 51 -89t117 -27q83 0 125.5 39t42.5 135v80q-100 -93 -287 -93q-204 0 -313 130.5t-109 357.5zM432 496 q0 -113 40.5 -177.5t121.5 -64.5t127.5 68t46.5 174q0 108 -46.5 175.5t-127.5 67.5t-121.5 -65t-40.5 -178z" />
<glyph unicode="h" horiz-adv-x="1234" d="M117 0v1393h375v-525q41 58 115.5 94.5t174.5 36.5q169 0 254 -94q48 -55 67 -127t19 -227v-551h-374l-3 553q0 40 -4 66t-16 50.5t-36 36t-62 11.5q-65 0 -100 -42t-35 -118v-557h-375z" />
<glyph unicode="i" horiz-adv-x="608" d="M117 0v975h372l5 -975h-377zM117 1081v312h372l5 -312h-377z" />
<glyph unicode="j" horiz-adv-x="606" d="M-31 -127h13q71 0 102 21q35 22 35 96v985h375v-1047q0 -109 -27 -176q-32 -79 -107.5 -112t-224.5 -33q-87 0 -166 6v260zM119 1081v312h375v-312h-375z" />
<glyph unicode="k" horiz-adv-x="1204" d="M117 0v1393h375v-680l241 262h469l-411 -400l428 -575h-449l-223 344l-55 -53v-291h-375z" />
<glyph unicode="l" horiz-adv-x="610" d="M117 0v1393h372l5 -1393h-377z" />
<glyph unicode="m" horiz-adv-x="1824" d="M117 0v975h370v-107q41 58 114 94.5t165 36.5q192 0 274 -127q122 127 322 127q179 0 264 -94q48 -55 67 -128.5t19 -225.5v-551h-375v553q0 82 -21.5 123t-88.5 41q-58 0 -91.5 -38t-33.5 -108v-571h-375v553q0 82 -22 123t-89 41q-60 0 -92 -41.5t-32 -118.5v-557h-375 z" />
<glyph unicode="n" horiz-adv-x="1232" d="M117 0v975h370v-107q41 58 117.5 94.5t175.5 36.5q169 0 254 -94q48 -55 67 -127t19 -227v-551h-375v553q0 40 -4 66t-16 50.5t-36 36t-62 11.5q-65 0 -100 -42t-35 -118v-557h-375z" />
<glyph unicode="o" horiz-adv-x="1169" d="M53 485q0 236 145 376t386 140t386.5 -140t145.5 -376q0 -238 -143.5 -374t-388.5 -136q-244 0 -387.5 136t-143.5 374zM424 489q0 -113 39 -181t121 -68t121.5 68t39.5 181t-39.5 181.5t-121.5 68.5t-121 -68.5t-39 -181.5z" />
<glyph unicode="p" horiz-adv-x="1253" d="M117 -369v1344h375v-92q40 49 113 82.5t171 33.5q191 0 307.5 -137t116.5 -377q0 -237 -116.5 -373.5t-311.5 -136.5q-97 0 -167.5 33.5t-112.5 79.5v-457h-375zM485 489q0 -114 46 -181.5t128 -67.5q162 0 162 249q0 120 -40.5 185t-121.5 65q-82 0 -128 -67.5 t-46 -182.5z" />
<glyph unicode="q" horiz-adv-x="1253" d="M53 485q0 240 116.5 377t307.5 137q98 0 171.5 -33.5t113.5 -82.5v92h375v-1344h-375v457q-42 -46 -113 -79.5t-168 -33.5q-195 0 -311.5 136.5t-116.5 373.5zM432 489q0 -249 162 -249q82 0 128 67.5t46 181.5q0 115 -46 182.5t-128 67.5q-81 0 -121.5 -65t-40.5 -185z " />
<glyph unicode="r" horiz-adv-x="847" d="M117 0v975h370v-129q22 59 99.5 105t175.5 46q23 0 35 -2v-321q-41 10 -97 10q-156 0 -194 -137q-14 -52 -14 -131v-416h-375z" />
<glyph unicode="s" horiz-adv-x="1040" d="M12 190l199 183q51 -67 136.5 -109.5t193.5 -42.5q139 0 139 64q0 16 -10 27.5t-35.5 20t-44 13t-60.5 12.5l-129 27q-42 9 -67 15.5t-65.5 19.5t-65.5 26.5t-55.5 36t-47.5 49t-29 64t-12 82.5q0 69 26.5 125t70 92t102 60.5t118.5 35t124 10.5q144 0 260.5 -46.5 t187.5 -114.5l-178 -185q-127 103 -283 103q-47 0 -79.5 -14.5t-32.5 -43.5q0 -16 8.5 -27.5t31.5 -19.5t41.5 -12t59.5 -12l143 -29q72 -15 124.5 -34.5t100.5 -52t73.5 -84.5t25.5 -122q0 -84 -35.5 -149t-99 -104t-144.5 -59t-178 -20q-164 0 -297 57t-217 158z" />
<glyph unicode="t" horiz-adv-x="772" d="M-37 721v254h187v325l372 66v-391h211v-254h-211v-354q0 -76 25 -101q24 -28 106 -28q46 0 82 6v-248q-104 -16 -219 -16q-252 0 -317 88q-30 40 -39.5 83t-9.5 119v451h-187z" />
<glyph unicode="u" horiz-adv-x="1220" d="M104 424v551h375v-551q0 -40 4 -66t15.5 -50.5t35.5 -36t62 -11.5q72 0 106 51q27 44 27 121v543h375v-975h-371v106q-39 -58 -114 -94.5t-175 -36.5q-168 0 -254 95q-48 55 -67 127t-19 227z" />
<glyph unicode="v" horiz-adv-x="1044" d="M-6 975h391l107 -430l32 -148h2q21 103 31 148l105 430h389l-330 -975h-404z" />
<glyph unicode="w" horiz-adv-x="1533" d="M6 975h375l53 -334l41 -256h2q28 141 53 258l68 332h340l70 -332l55 -258h2q25 137 45 260l53 330h365l-260 -975h-394l-73 356l-35 199h-2q-21 -111 -39 -197l-76 -358h-393z" />
<glyph unicode="x" horiz-adv-x="1097" d="M-10 0l360 494l-332 481h406l129 -238l137 238h381l-334 -477l367 -498h-397l-164 268l-160 -268h-393z" />
<glyph unicode="y" horiz-adv-x="1042" d="M-6 975h391l94 -414q25 -111 45 -233h2q20 125 43 231l90 416h390l-361 -1073q-55 -164 -115 -219q-43 -39 -109.5 -55.5t-180.5 -16.5q-90 0 -185 10v258q47 -4 84 -4q93 0 121 35q16 19 16 53q0 40 -22 107z" />
<glyph unicode="z" horiz-adv-x="1042" d="M57 0v227l455 482h-434v266h876v-225l-446 -482h465v-268h-916z" />
<glyph unicode="{" horiz-adv-x="722" d="M41 428v234q30 9 50.5 18t33.5 23.5t20 25.5t10.5 34.5t4 39.5t0.5 51v227q0 50 8 90t20.5 71t35.5 54.5t46 39.5t60 27t68.5 17.5t81 9.5t88.5 4t98 1h20v-256h-14q-88 0 -116 -38.5t-28 -139.5v-138q0 -133 -22 -185.5t-92 -92.5v-4q70 -40 92 -93t22 -186v-153 q0 -101 28 -140t116 -39h14v-256h-20q-59 0 -98 1t-88.5 4t-81 9.5t-68.5 17.5t-60 27t-46 39.5t-35.5 54.5t-20.5 71t-8 90v248q0 35 -0.5 51t-4 39.5t-10.5 34.5t-20 25.5t-33.5 23.5t-50.5 18z" />
<glyph unicode="|" horiz-adv-x="618" d="M127 -324v1717h365v-1717h-365z" />
<glyph unicode="}" horiz-adv-x="722" d="M37 -70h14q88 0 116 39t28 140v153q0 133 22 186t92 93v4q-70 40 -92 92.5t-22 185.5v138q0 101 -28 139.5t-116 38.5h-14v256h20q59 0 98 -1t88.5 -4t81 -9.5t68.5 -17.5t60 -27t46 -39.5t35.5 -54.5t20.5 -71t8 -90v-227q0 -35 0.5 -51t4 -39.5t10.5 -34.5t20 -25.5 t33.5 -23.5t50.5 -18v-234q-30 -9 -50.5 -18t-33.5 -23.5t-20 -25.5t-10.5 -34.5t-4 -39.5t-0.5 -51v-248q0 -50 -8 -90t-20.5 -71t-35.5 -54.5t-46 -39.5t-60 -27t-68.5 -17.5t-81 -9.5t-88.5 -4t-98 -1h-20v256z" />
<glyph unicode="~" horiz-adv-x="1583" d="M242 639q47 73 141 138t205 65q64 0 119 -20t129 -60q33 -18 49 -26t39.5 -14.5t46.5 -6.5q102 0 209 129l141 -271q-69 -87 -166 -137.5t-188 -50.5q-62 0 -109 14t-108 45q-5 2 -28 14.5t-34.5 18t-31.5 14t-36.5 12t-31.5 3.5q-39 0 -81.5 -27t-111.5 -114z" />
<glyph unicode="&#xa1;" horiz-adv-x="608" d="M117 203l35 381h309l31 -381v-621h-375v621zM117 657v318h375v-318h-375z" />
<glyph unicode="&#xa2;" d="M111 479q0 200 103 334.5t284 171.5v203h276v-203q137 -29 219.5 -112.5t114.5 -198.5l-311 -88q-36 149 -156 149q-162 0 -162 -256q0 -239 162 -239q62 0 96 31.5t54 93.5l319 -84q-27 -98 -110 -179.5t-226 -111.5v-221h-276v219q-181 34 -284 162t-103 329z" />
<glyph unicode="&#xa3;" d="M78 0v264q104 6 145 52.5t41 181.5q0 30 -2 59h-176v274h154q-9 88 -9 127q0 97 25 177t77.5 143.5t143 99t213.5 35.5q445 0 457 -424l-336 -55q0 192 -111 192q-55 0 -80.5 -46t-25.5 -119q0 -72 8 -130h281v-274h-262v-22q0 -95 -12.5 -149t-45.5 -93h561v-293h-1046z " />
<glyph unicode="&#xa4;" horiz-adv-x="1193" d="M82 862l223 225l123 -124q72 34 170 34q101 0 178 -32l117 118l219 -219l-121 -116q35 -77 35 -181q0 -95 -33 -174q77 -69 119 -117l-219 -219l-115 115q-88 -31 -180 -31q-102 0 -176 31l-119 -117l-219 219l119 119q-31 76 -31 174q0 105 35 176zM463 567 q0 -59 39 -99t96 -40q61 0 100 40t39 99q0 61 -38 101.5t-101 40.5q-58 0 -96.5 -40t-38.5 -102z" />
<glyph unicode="&#xa5;" d="M-2 1393h403l199 -465l205 465h403l-307 -588h205v-250h-330v-113h330v-252h-330v-190h-377v190h-321v252h321v113h-321v250h205z" />
<glyph unicode="&#xa6;" horiz-adv-x="618" d="M127 -324v658h365v-658h-365zM127 735v658h365v-658h-365z" />
<glyph unicode="&#xa7;" horiz-adv-x="1079" d="M31 41l198 178q51 -66 137 -108.5t191 -42.5q131 0 131 67q0 8 -2 15.5t-6.5 14t-9 12t-14.5 11.5t-16.5 10t-21 10.5t-23 10t-27 11.5t-29.5 12l-105 43q-69 28 -112.5 48.5t-97 55t-84 69.5t-51.5 86.5t-21 112.5q0 149 133 246q-82 82 -82 191q0 69 26.5 125t70 92 t102 60.5t118.5 35t123 10.5q140 0 259 -47.5t190 -114.5l-179 -180q-127 103 -274 103q-51 0 -81 -16.5t-30 -45.5q0 -31 36 -51q14 -8 110 -47l125 -49q64 -25 112 -53t91.5 -67.5t66.5 -93.5t23 -120q0 -158 -119 -258q112 -91 112 -221q0 -109 -63 -185.5t-163.5 -110.5 t-229.5 -34q-163 0 -296.5 57.5t-217.5 157.5zM401 684q0 -35 23 -62.5t88 -54.5l137 -57q51 28 51 84q0 36 -23.5 62.5t-86.5 52.5l-137 57q-24 -13 -38 -36t-14 -46z" />
<glyph unicode="&#xa8;" horiz-adv-x="1024" d="M168 1106v276h291v-276h-291zM563 1106v276h291v-276h-291z" />
<glyph unicode="&#xa9;" horiz-adv-x="1585" d="M94 717q0 145 54 275t147 223t222.5 147.5t275.5 54.5q194 0 354.5 -92.5t252 -253t91.5 -354.5q0 -145 -54 -275t-146.5 -223.5t-222 -148t-275.5 -54.5t-275.5 54.5t-222.5 148t-147 223.5t-54 275zM307 717q0 -135 63.5 -249t175.5 -180.5t247 -66.5t247 66.5 t175 180.5t63 249t-63 248.5t-175 180t-247 66.5t-247 -66.5t-175.5 -180t-63.5 -248.5zM426 713q0 183 100.5 293t270.5 110q137 0 221.5 -71.5t116.5 -174.5l-187 -65q-38 143 -151 143q-75 0 -118.5 -61.5t-43.5 -171.5q0 -108 44.5 -169t117.5 -61q53 0 88 27.5t59 85.5 l195 -61q-51 -103 -139 -161.5t-203 -58.5q-168 0 -269.5 108t-101.5 288z" />
<glyph unicode="&#xaa;" horiz-adv-x="782" d="M39 940q0 89 63 134t174 67l134 24q19 3 24.5 8.5t5.5 18.5v12q0 60 -71 60q-82 0 -82 -82l-232 4q-1 120 93 175.5t241 55.5q48 0 85 -3.5t79 -16t69.5 -33.5t45.5 -59.5t18 -90.5v-286q0 -31 7 -41t32 -10v-134q-41 -8 -117 -8q-118 0 -147 51q-59 -55 -174 -55 q-112 0 -180 54t-68 155zM285 946q0 -63 71 -63q84 0 84 82v69q-21 -9 -65 -18q-24 -7 -36 -11t-27 -12t-21 -19.5t-6 -27.5z" />
<glyph unicode="&#xab;" horiz-adv-x="1112" d="M72 381v305l417 342v-387l-131 -88l131 -104v-381zM559 381v305l418 342v-387l-131 -88l131 -104v-381z" />
<glyph unicode="&#xac;" horiz-adv-x="1583" d="M217 666v309h1137v-682h-334v373h-803z" />
<glyph unicode="&#xad;" horiz-adv-x="733" d="M82 395v305h569v-305h-569z" />
<glyph unicode="&#xae;" horiz-adv-x="1589" d="M94 715q0 195 92 356t253 253.5t356 92.5q146 0 276.5 -54.5t223 -148t146.5 -223.5t54 -276q0 -195 -91.5 -356t-252.5 -254t-356 -93t-356 93t-253 254t-92 356zM307 715q0 -102 37.5 -194t101.5 -159t155 -106t194 -39q137 0 249 66.5t175 180.5t63 251t-63 250.5 t-175 180t-249 66.5q-208 0 -348 -144.5t-140 -352.5zM496 354v733h366q111 0 174 -47q90 -66 90 -190q0 -90 -41 -147.5t-118 -77.5l153 -271h-243l-134 252h-49v-252h-198zM694 770h131q41 0 62 8q41 14 41 68q0 53 -41 67q-24 9 -62 9h-131v-152z" />
<glyph unicode="&#xaf;" horiz-adv-x="1024" d="M180 1112v281h664v-281h-664z" />
<glyph unicode="&#xb0;" horiz-adv-x="942" d="M57 1004q0 172 121 292.5t293 120.5t293 -120.5t121 -292.5t-121 -293t-293 -121t-293 121t-121 293zM324 1004q0 -60 43.5 -104t103.5 -44t103.5 44t43.5 104t-43.5 103.5t-103.5 43.5t-103.5 -43.5t-43.5 -103.5z" />
<glyph unicode="&#xb1;" horiz-adv-x="1583" d="M178 0v336h1229v-336h-1229zM178 612v336h447v277h338v-277h444v-336h-444v-221h-338v221h-447z" />
<glyph unicode="&#xb2;" horiz-adv-x="921" d="M129 1137q0 123 90.5 199.5t241.5 76.5q141 0 227 -73.5t86 -192.5q0 -223 -268 -393q35 2 160 2h102v-205h-633v164q206 150 289 235q100 104 100 180q0 36 -20 57t-58 21q-41 0 -62.5 -27.5t-21.5 -72.5q0 -26 9 -78l-230 17q0 6 -2 10q-10 40 -10 80z" />
<glyph unicode="&#xb3;" horiz-adv-x="921" d="M98 817l230 23q13 -109 110 -109q52 0 75.5 25t23.5 63q0 82 -121 82h-92v168h82q47 0 59 6q55 11 55 76q0 34 -22 53t-62 19t-64.5 -25.5t-27.5 -71.5l-227 19q3 114 94 191t238 77q146 0 228.5 -64.5t82.5 -166.5q0 -110 -98 -178q122 -60 122 -199q0 -118 -89.5 -194 t-252.5 -76q-164 0 -250 74.5t-94 207.5z" />
<glyph unicode="&#xb4;" horiz-adv-x="1024" d="M231 1096l140 297h434l-254 -297h-320z" />
<glyph unicode="&#xb5;" horiz-adv-x="1232" d="M117 -369v1344h375v-551q0 -83 22.5 -123.5t93.5 -40.5q73 0 107 51q26 42 26 121v543h375v-975h-371v115q-69 -123 -200 -123q-35 0 -53 4v-365h-375z" />
<glyph unicode="&#xb6;" horiz-adv-x="1593" d="M25 946q0 223 151 344q65 51 151.5 77t235.5 26h981v-314h-158v-1341h-319v1341h-174v-1341h-320v762h-10q-153 0 -238 24t-149 76q-151 123 -151 346z" />
<glyph unicode="&#xb7;" horiz-adv-x="636" d="M123 432v406h391v-406h-391z" />
<glyph unicode="&#xb8;" horiz-adv-x="1024" d="M338 -100l131 106h137l-67 -67q75 -2 122.5 -42t47.5 -114q0 -89 -68 -135.5t-162 -46.5q-63 0 -121 22l15 103q37 -15 76 -15q79 0 79 60q0 55 -71 55q-49 0 -80 -21z" />
<glyph unicode="&#xb9;" horiz-adv-x="921" d="M164 1010v194h59q106 0 148 45q40 42 43 144h223v-838h-242v455h-231z" />
<glyph unicode="&#xba;" horiz-adv-x="788" d="M51 1069q0 161 92 254.5t252 93.5q159 0 250.5 -94t91.5 -254q0 -163 -90.5 -256.5t-251.5 -93.5q-162 0 -253 93.5t-91 256.5zM270 1069q0 -87 33 -132.5t92 -45.5q56 0 88.5 47t32.5 131q0 85 -31.5 130.5t-89.5 45.5q-59 0 -92 -46.5t-33 -129.5z" />
<glyph unicode="&#xbb;" horiz-adv-x="1112" d="M135 68v381l131 104l-131 88v387l418 -342v-305zM623 68v381l131 104l-131 88v387l417 -342v-305z" />
<glyph unicode="&#xbc;" horiz-adv-x="1738" d="M25 1010v194h59q105 0 147 45q40 42 43 144h224v-838h-242v455h-231zM293 0l733 1393h313l-723 -1393h-323zM942 174v162l373 514h225v-481h117v-195h-117v-174h-227v174h-371zM1163 360q49 5 84 5h66v129l2 86h-2q-22 -45 -47 -78l-49 -68l-54 -72v-2z" />
<glyph unicode="&#xbd;" horiz-adv-x="1843" d="M25 1010v194h59q105 0 147 45q40 42 43 144h224v-838h-242v455h-231zM293 0l733 1393h313l-723 -1393h-323zM1106 586q0 123 90.5 199.5t241.5 76.5q141 0 227 -73.5t86 -192.5q0 -223 -268 -393q35 2 159 2h103v-205h-633v164q206 150 289 235q100 104 100 181 q0 36 -20 56.5t-58 20.5q-41 0 -62.5 -27.5t-21.5 -72.5q0 -26 9 -78l-230 17q0 6 -2 10q-10 40 -10 80z" />
<glyph unicode="&#xbe;" horiz-adv-x="1935" d="M72 817l229 23q13 -109 111 -109q51 0 74.5 25t23.5 63q0 82 -121 82h-92v168h82q47 0 59 6q56 11 56 76q0 34 -22 53t-62 19t-65 -26t-28 -71l-227 19q3 114 94 191t238 77q146 0 228.5 -64.5t82.5 -166.5q0 -110 -98 -178q123 -61 123 -199q0 -118 -89.5 -194 t-252.5 -76q-164 0 -250 74.5t-94 207.5zM489 0l734 1393h313l-723 -1393h-324zM1139 174v162l372 514h226v-481h116v-195h-116v-174h-228v174h-370zM1360 360q49 5 84 5h65v129l2 86h-2q-22 -45 -47 -78l-49 -68l-53 -72v-2z" />
<glyph unicode="&#xbf;" horiz-adv-x="1075" d="M45 -29q0 97 46 191t142 170l82 65q46 36 62 65.5t16 82.5v55h359v-59q0 -96 -35.5 -168.5t-130.5 -151.5l-76 -63q-84 -73 -84 -178q0 -64 31 -101t86 -37q61 0 95 42.5t34 127.5q0 53 -19 123l353 -22q20 -73 20 -146q0 -185 -129 -297t-358 -112q-130 0 -228 34 t-154.5 93t-84 131t-27.5 155zM389 666v309h367v-309h-367z" />
<glyph unicode="&#xc0;" horiz-adv-x="1351" d="M-10 0l467 1393h442l463 -1393h-397l-72 244h-438l-72 -244h-393zM326 1862h434l139 -297h-319zM543 545h260l-90 325q-25 93 -37 152h-2q-2 -9 -9.5 -37.5t-15 -58.5t-14.5 -56z" />
<glyph unicode="&#xc1;" horiz-adv-x="1351" d="M-10 0l467 1393h442l463 -1393h-397l-72 244h-438l-72 -244h-393zM471 1565l139 297h434l-253 -297h-320zM543 545h260l-90 325q-25 93 -37 152h-2q-2 -9 -9.5 -37.5t-15 -58.5t-14.5 -56z" />
<glyph unicode="&#xc2;" horiz-adv-x="1370" d="M-10 0l467 1393h442l463 -1393h-397l-72 244h-438l-72 -244h-393zM309 1565l240 297h266l254 -297h-311l-74 90l-72 -90h-303zM543 545h260l-90 325q-25 93 -37 152h-2q-2 -9 -9.5 -37.5t-15 -58.5t-14.5 -56z" />
<glyph unicode="&#xc3;" horiz-adv-x="1351" d="M-10 0l467 1393h442l463 -1393h-397l-72 244h-438l-72 -244h-393zM276 1636q7 31 25.5 67t49 73t78.5 61.5t103 24.5q63 0 146 -37q8 -3 30 -13t32 -14t26.5 -8t30.5 -4q59 0 90 80l223 -103q-19 -48 -40.5 -85t-53 -71t-75.5 -52.5t-99 -18.5q-74 0 -150 31 q-19 8 -46 21.5t-43 19.5t-30 6q-52 0 -79 -76zM543 545h260l-90 325q-25 93 -37 152h-2q-2 -9 -9.5 -37.5t-15 -58.5t-14.5 -56z" />
<glyph unicode="&#xc4;" horiz-adv-x="1351" d="M-10 0l467 1393h442l463 -1393h-397l-72 244h-438l-72 -244h-393zM344 1575v276h291v-276h-291zM543 545h260l-90 325q-25 93 -37 152h-2q-2 -9 -9.5 -37.5t-15 -58.5t-14.5 -56zM739 1575v276h291v-276h-291z" />
<glyph unicode="&#xc5;" horiz-adv-x="1351" d="M-10 0l467 1393h442l463 -1393h-397l-72 244h-438l-72 -244h-393zM455 1731q0 100 67.5 166.5t167.5 66.5t168 -67t68 -166q0 -100 -68 -167t-168 -67t-167.5 67t-67.5 167zM543 545h260l-90 325q-25 93 -37 152h-2q-2 -9 -9.5 -37.5t-15 -58.5t-14.5 -56zM621 1731 q0 -31 18.5 -49.5t48.5 -18.5t49 19t19 49t-19 48.5t-49 18.5t-48.5 -18.5t-18.5 -48.5z" />
<glyph unicode="&#xc6;" horiz-adv-x="1943" d="M-61 0l772 1393h1126v-314h-625v-217h566v-309h-566v-238h666v-315h-1042v246h-373l-131 -246h-393zM612 530h224v232l4 213h-2q-49 -100 -90 -180z" />
<glyph unicode="&#xc7;" horiz-adv-x="1392" d="M76 696q0 324 185 522.5t497 198.5q119 0 220 -32t170 -86.5t116 -117t75 -132.5l-303 -158q-32 108 -102.5 164.5t-175.5 56.5q-147 0 -224 -109.5t-77 -306.5q0 -195 76 -301t225 -106q197 0 268 180l317 -125q-71 -163 -206 -258.5t-330 -108.5l-39 -38 q75 -2 122.5 -42t47.5 -114q0 -89 -67.5 -135.5t-161.5 -46.5q-63 0 -121 22l14 103q38 -15 76 -15q80 0 80 60q0 55 -72 55q-48 0 -80 -21l-39 95l92 82q-184 18 -316 113t-199.5 249t-67.5 352z" />
<glyph unicode="&#xc8;" horiz-adv-x="1267" d="M127 0v1393h1034v-314h-659v-217h600v-309h-600v-238h700v-315h-1075zM281 1862h434l139 -297h-319z" />
<glyph unicode="&#xc9;" horiz-adv-x="1267" d="M127 0v1393h1034v-314h-659v-217h600v-309h-600v-238h700v-315h-1075zM463 1565l139 297h434l-254 -297h-319z" />
<glyph unicode="&#xca;" horiz-adv-x="1267" d="M127 0v1393h1034v-314h-659v-217h600v-309h-600v-238h700v-315h-1075zM281 1565l239 297h266l254 -297h-311l-74 90l-71 -90h-303z" />
<glyph unicode="&#xcb;" horiz-adv-x="1267" d="M127 0v1393h1034v-314h-659v-217h600v-309h-600v-238h700v-315h-1075zM315 1575v276h291v-276h-291zM711 1575v276h290v-276h-290z" />
<glyph unicode="&#xcc;" horiz-adv-x="630" d="M-74 1862h434l140 -297h-320zM127 0v1434h377v-1434h-377z" />
<glyph unicode="&#xcd;" horiz-adv-x="630" d="M127 0h377v1434h-377v-1434zM135 1565l139 297h435l-254 -297h-320z" />
<glyph unicode="&#xce;" horiz-adv-x="630" d="M-53 1565l239 297h267l254 -297h-312l-73 90l-72 -90h-303zM127 0h377v1434h-377v-1434z" />
<glyph unicode="&#xcf;" horiz-adv-x="630" d="M-18 1575v276h290v-276h-290zM127 0h377v1434h-377v-1434zM377 1575v276h291v-276h-291z" />
<glyph unicode="&#xd0;" horiz-adv-x="1462" d="M-14 537v319h141v537h491q140 0 209.5 -3.5t155.5 -26t152 -69.5q116 -83 180.5 -236.5t64.5 -357.5q0 -177 -49 -319.5t-145 -235.5q-36 -36 -73.5 -61t-84.5 -41t-83.5 -25t-100.5 -13t-104.5 -4.5t-123.5 -0.5h-489v537h-141zM506 307h94q83 0 127.5 3t96 19t83.5 48 q42 42 65 124.5t23 192.5q0 239 -98 322q-48 42 -116 55.5t-193 13.5h-82v-229h291v-319h-291v-230z" />
<glyph unicode="&#xd1;" horiz-adv-x="1495" d="M127 0v1393h383l287 -465q49 -80 99 -165.5t76 -130.5l25 -46h2q-8 215 -8 424v383h377v-1393h-383l-305 506q-35 57 -81 138t-75 133l-28 52h-2q10 -209 10 -432v-397h-377zM338 1636q7 31 25.5 67t49 73t78.5 61.5t103 24.5q62 0 145 -37q8 -3 30 -13t32 -14t26.5 -8 t30.5 -4q59 0 90 80l223 -103q-19 -48 -40.5 -85t-53 -71t-75.5 -52.5t-99 -18.5q-73 0 -149 31q-19 8 -46 21.5t-43 19.5t-30 6q-53 0 -80 -76z" />
<glyph unicode="&#xd2;" horiz-adv-x="1523" d="M76 696q0 213 83.5 376t239.5 254t363 91t363 -91t239.5 -254t83.5 -376q0 -214 -79 -375.5t-235 -253.5t-372 -92q-161 0 -291 53t-216 148t-132.5 227.5t-46.5 292.5zM395 1862h434l140 -297h-320zM455 696q0 -194 79 -300.5t228 -106.5q148 0 226.5 106.5t78.5 300.5 q0 195 -80 304.5t-225 109.5q-148 0 -227.5 -109.5t-79.5 -304.5z" />
<glyph unicode="&#xd3;" horiz-adv-x="1523" d="M76 696q0 213 83.5 376t239.5 254t363 91t363 -91t239.5 -254t83.5 -376q0 -214 -79 -375.5t-235 -253.5t-372 -92q-161 0 -291 53t-216 148t-132.5 227.5t-46.5 292.5zM455 696q0 -194 79 -300.5t228 -106.5q148 0 226.5 106.5t78.5 300.5q0 195 -80 304.5t-225 109.5 q-148 0 -227.5 -109.5t-79.5 -304.5zM555 1565l139 297h434l-254 -297h-319z" />
<glyph unicode="&#xd4;" horiz-adv-x="1542" d="M76 696q0 213 83.5 376t239.5 254t363 91t363 -91t239.5 -254t83.5 -376q0 -214 -79 -375.5t-235 -253.5t-372 -92q-161 0 -291 53t-216 148t-132.5 227.5t-46.5 292.5zM389 1565l240 297h266l254 -297h-311l-74 90l-72 -90h-303zM455 696q0 -194 79 -300.5t228 -106.5 q148 0 226.5 106.5t78.5 300.5q0 195 -80 304.5t-225 109.5q-148 0 -227.5 -109.5t-79.5 -304.5z" />
<glyph unicode="&#xd5;" horiz-adv-x="1523" d="M76 696q0 213 83.5 376t239.5 254t363 91t363 -91t239.5 -254t83.5 -376q0 -214 -79 -375.5t-235 -253.5t-372 -92q-161 0 -291 53t-216 148t-132.5 227.5t-46.5 292.5zM342 1636q7 31 25.5 67t49 73t78.5 61.5t103 24.5q62 0 145 -37q8 -3 30 -13t32 -14t26.5 -8 t30.5 -4q59 0 90 80l224 -103q-19 -48 -40.5 -85t-53 -71t-76 -52.5t-99.5 -18.5q-73 0 -149 31q-19 8 -46 21.5t-43 19.5t-30 6q-53 0 -80 -76zM455 696q0 -194 79 -300.5t228 -106.5q148 0 226.5 106.5t78.5 300.5q0 195 -80 304.5t-225 109.5q-148 0 -227.5 -109.5 t-79.5 -304.5z" />
<glyph unicode="&#xd6;" horiz-adv-x="1523" d="M76 696q0 213 83.5 376t239.5 254t363 91t363 -91t239.5 -254t83.5 -376q0 -214 -79 -375.5t-235 -253.5t-372 -92q-161 0 -291 53t-216 148t-132.5 227.5t-46.5 292.5zM422 1575v276h291v-276h-291zM455 696q0 -194 79 -300.5t228 -106.5q148 0 226.5 106.5t78.5 300.5 q0 195 -80 304.5t-225 109.5q-148 0 -227.5 -109.5t-79.5 -304.5zM817 1575v276h291v-276h-291z" />
<glyph unicode="&#xd7;" horiz-adv-x="1583" d="M176 977l242 240l375 -375l374 375l240 -240l-375 -375l377 -377l-242 -239l-374 374l-375 -374l-240 239l375 375z" />
<glyph unicode="&#xd8;" horiz-adv-x="1523" d="M23 141l143 160q-90 169 -90 395q0 213 83.5 376t239.5 254t363 91q187 0 336 -76l180 201l248 -227l-185 -205q107 -176 107 -414q0 -214 -79 -375.5t-235 -253.5t-372 -92q-208 0 -361 84l-125 -139zM455 696q0 -46 2 -69l415 463q-47 20 -110 20q-148 0 -227.5 -109.5 t-79.5 -304.5zM631 315q53 -26 131 -26q148 0 226.5 106.5t78.5 300.5q0 52 -6 99z" />
<glyph unicode="&#xd9;" horiz-adv-x="1433" d="M117 571v822h379v-799q0 -153 22 -201q19 -50 73.5 -76t127.5 -26q72 0 126 25.5t73 76.5q22 48 22 201v799h377v-822q0 -144 -17 -227.5t-59 -155.5q-65 -109 -206 -161t-316 -52q-176 0 -317.5 52t-208.5 161q-43 71 -59.5 154t-16.5 229zM350 1862h434l140 -297h-320z " />
<glyph unicode="&#xda;" horiz-adv-x="1433" d="M117 571q0 -146 16.5 -229t59.5 -154q67 -109 208.5 -161t317.5 -52q175 0 316 52t206 161q42 72 59 155.5t17 227.5v822h-377v-799q0 -153 -22 -201q-19 -51 -73 -76.5t-126 -25.5q-73 0 -127.5 26t-73.5 76q-22 48 -22 201v799h-379v-822zM500 1565l139 297h434 l-254 -297h-319z" />
<glyph unicode="&#xdb;" horiz-adv-x="1433" d="M117 571q0 -146 16.5 -229t59.5 -154q67 -109 208.5 -161t317.5 -52q175 0 316 52t206 161q42 72 59 155.5t17 227.5v822h-377v-799q0 -153 -22 -201q-19 -51 -73 -76.5t-126 -25.5q-73 0 -127.5 26t-73.5 76q-22 48 -22 201v799h-379v-822zM346 1565l240 297h266 l254 -297h-311l-74 90l-72 -90h-303z" />
<glyph unicode="&#xdc;" horiz-adv-x="1433" d="M117 571q0 -146 16.5 -229t59.5 -154q67 -109 208.5 -161t317.5 -52q175 0 316 52t206 161q42 72 59 155.5t17 227.5v822h-377v-799q0 -153 -22 -201q-19 -51 -73 -76.5t-126 -25.5q-73 0 -127.5 26t-73.5 76q-22 48 -22 201v799h-379v-822zM381 1575v276h291v-276h-291z M776 1575v276h291v-276h-291z" />
<glyph unicode="&#xdd;" horiz-adv-x="1327" d="M-16 1393h415l265 -478l270 478h409l-503 -822v-571h-377v567zM463 1565l139 297h434l-254 -297h-319z" />
<glyph unicode="&#xde;" horiz-adv-x="1392" d="M127 0v1395l379 -2v-156h203q227 0 348 -47q132 -53 208 -164.5t76 -269.5q0 -139 -51 -232t-157 -159q-81 -49 -182.5 -64.5t-256.5 -15.5h-188v-285h-379zM506 590h207q105 0 159 20q93 36 93 150q0 115 -93 151q-56 21 -159 21h-207v-342z" />
<glyph unicode="&#xdf;" horiz-adv-x="1183" d="M111 0v961q0 133 30 219q44 117 161 177t290 60q218 0 338.5 -80t120.5 -237q0 -97 -39 -162.5t-109 -97.5q201 -94 201 -381q0 -248 -101.5 -357.5t-326.5 -109.5q-76 0 -111 4v246q104 3 141 55t37 164q0 109 -35.5 157t-142.5 52v231q67 3 100 35.5t33 103.5 q0 123 -106 123q-60 0 -84 -41q-23 -37 -23 -137v-985h-374z" />
<glyph unicode="&#xe0;" horiz-adv-x="1118" d="M51 283q0 71 24.5 123.5t73.5 86.5t109 55t143 36l199 30q35 6 43 14t8 31v21q0 90 -116 90q-129 0 -129 -125l-330 2q-1 75 24.5 134.5t70.5 99t108 65.5t133.5 37.5t150.5 11.5q49 0 89.5 -2.5t86.5 -10.5t82 -21t70 -36t56.5 -54t36 -76t13.5 -101v-432q0 -48 9.5 -65 t40.5 -17h10v-188q-84 -15 -166 -15q-190 0 -217 84q-81 -86 -262 -86q-168 0 -264.5 78.5t-96.5 229.5zM193 1393h434l139 -297h-320zM401 289q0 -48 29.5 -75.5t87.5 -27.5q64 0 98.5 29.5t34.5 85.5v129q-45 -18 -110 -33q-75 -17 -107.5 -38.5t-32.5 -69.5z" />
<glyph unicode="&#xe1;" horiz-adv-x="1118" d="M51 283q0 71 24.5 123.5t73.5 86.5t109 55t143 36l199 30q35 6 43 14t8 31v21q0 90 -116 90q-129 0 -129 -125l-330 2q-1 75 24.5 134.5t70.5 99t108 65.5t133.5 37.5t150.5 11.5q49 0 89.5 -2.5t86.5 -10.5t82 -21t70 -36t56.5 -54t36 -76t13.5 -101v-432q0 -48 9.5 -65 t40.5 -17h10v-188q-84 -15 -166 -15q-190 0 -217 84q-81 -86 -262 -86q-168 0 -264.5 78.5t-96.5 229.5zM342 1096l139 297h434l-253 -297h-320zM401 289q0 -48 29.5 -75.5t87.5 -27.5q64 0 98.5 29.5t34.5 85.5v129q-45 -18 -110 -33q-75 -17 -107.5 -38.5t-32.5 -69.5z " />
<glyph unicode="&#xe2;" horiz-adv-x="1118" d="M51 283q0 71 24.5 123.5t73.5 86.5t109 55t143 36l199 30q35 6 43 14t8 31v21q0 90 -116 90q-129 0 -129 -125l-330 2q-1 75 24.5 134.5t70.5 99t108 65.5t133.5 37.5t150.5 11.5q49 0 89.5 -2.5t86.5 -10.5t82 -21t70 -36t56.5 -54t36 -76t13.5 -101v-432q0 -48 9.5 -65 t40.5 -17h10v-188q-84 -15 -166 -15q-190 0 -217 84q-81 -86 -262 -86q-168 0 -264.5 78.5t-96.5 229.5zM188 1096l240 297h266l254 -297h-311l-74 88l-71 -88h-304zM401 289q0 -48 29.5 -75.5t87.5 -27.5q64 0 98.5 29.5t34.5 85.5v129q-45 -18 -110 -33 q-75 -17 -107.5 -38.5t-32.5 -69.5z" />
<glyph unicode="&#xe3;" horiz-adv-x="1118" d="M51 283q0 71 24.5 123.5t73.5 86.5t109 55t143 36l199 30q35 6 43 14t8 31v21q0 90 -116 90q-129 0 -129 -125l-330 2q-1 75 24.5 134.5t70.5 99t108 65.5t133.5 37.5t150.5 11.5q49 0 89.5 -2.5t86.5 -10.5t82 -21t70 -36t56.5 -54t36 -76t13.5 -101v-432q0 -48 9.5 -65 t40.5 -17h10v-188q-84 -15 -166 -15q-190 0 -217 84q-81 -86 -262 -86q-168 0 -264.5 78.5t-96.5 229.5zM150 1180q5 24 17.5 52t35 59t50.5 56t68 41.5t85 16.5q62 0 145 -37q8 -3 30 -13t32 -14t26.5 -8t30.5 -4q59 0 90 80l223 -102q-19 -48 -40.5 -85t-53 -71.5 t-75.5 -53t-99 -18.5q-74 0 -150 31q-19 8 -46 21.5t-43 19.5t-30 6q-52 0 -79 -76zM401 289q0 -48 29.5 -75.5t87.5 -27.5q64 0 98.5 29.5t34.5 85.5v129q-45 -18 -110 -33q-75 -17 -107.5 -38.5t-32.5 -69.5z" />
<glyph unicode="&#xe4;" horiz-adv-x="1118" d="M51 283q0 71 24.5 123.5t73.5 86.5t109 55t143 36l199 30q35 6 43 14t8 31v21q0 90 -116 90q-129 0 -129 -125l-330 2q-1 75 24.5 134.5t70.5 99t108 65.5t133.5 37.5t150.5 11.5q49 0 89.5 -2.5t86.5 -10.5t82 -21t70 -36t56.5 -54t36 -76t13.5 -101v-432q0 -48 9.5 -65 t40.5 -17h10v-188q-84 -15 -166 -15q-190 0 -217 84q-81 -86 -262 -86q-168 0 -264.5 78.5t-96.5 229.5zM219 1106v276h291v-276h-291zM401 289q0 -48 29.5 -75.5t87.5 -27.5q64 0 98.5 29.5t34.5 85.5v129q-45 -18 -110 -33q-75 -17 -107.5 -38.5t-32.5 -69.5zM614 1106 v276h291v-276h-291z" />
<glyph unicode="&#xe5;" horiz-adv-x="1118" d="M51 283q0 71 24.5 123.5t73.5 86.5t109 55t143 36l199 30q35 6 43 14t8 31v21q0 90 -116 90q-129 0 -129 -125l-330 2q-1 75 24.5 134.5t70.5 99t108 65.5t133.5 37.5t150.5 11.5q49 0 89.5 -2.5t86.5 -10.5t82 -21t70 -36t56.5 -54t36 -76t13.5 -101v-432q0 -48 9.5 -65 t40.5 -17h10v-188q-84 -15 -166 -15q-190 0 -217 84q-81 -86 -262 -86q-168 0 -264.5 78.5t-96.5 229.5zM328 1286q0 100 67.5 167t167.5 67t168 -67t68 -167q0 -99 -68 -166t-168 -67t-167.5 66.5t-67.5 166.5zM401 289q0 -48 29.5 -75.5t87.5 -27.5q64 0 98.5 29.5 t34.5 85.5v129q-45 -18 -110 -33q-75 -17 -107.5 -38.5t-32.5 -69.5zM494 1286q0 -30 18.5 -48.5t48.5 -18.5t49 18.5t19 48.5t-19 49t-49 19q-29 0 -48 -19t-19 -49z" />
<glyph unicode="&#xe6;" horiz-adv-x="1722" d="M51 283q0 71 24.5 123.5t73.5 86.5t109 55t143 36l199 30q35 6 43 14t8 31v21q0 90 -116 90q-129 0 -129 -125l-330 2q-1 75 24.5 134.5t70.5 99t108 65.5t133.5 37.5t150.5 11.5q210 0 316 -67q135 73 284 73q163 0 279 -71t171.5 -191t55.5 -276q0 -37 -2 -60h-672 q7 -81 61 -121t136 -40q141 0 213 116l248 -157q-28 -38 -66 -72.5t-97.5 -71.5t-144 -59.5t-182.5 -22.5q-211 0 -356 117q-51 -45 -145.5 -81t-235.5 -36q-180 0 -277.5 77.5t-97.5 230.5zM401 289q0 -48 29.5 -75.5t87.5 -27.5q64 0 98.5 29.5t34.5 85.5v129 q-45 -18 -110 -33q-75 -17 -107.5 -38.5t-32.5 -69.5zM993 608h334q-3 80 -46 125t-118 45q-77 0 -122 -45.5t-48 -124.5z" />
<glyph unicode="&#xe7;" horiz-adv-x="1077" d="M53 481q0 238 142 379t380 141q201 0 319 -91t157 -234l-312 -88q-17 70 -52.5 109.5t-102.5 39.5q-162 0 -162 -256q0 -241 162 -241q62 0 95 31.5t54 93.5l320 -84q-14 -51 -43.5 -98t-78 -91.5t-124 -74.5t-168.5 -37l-41 -41q75 -2 122.5 -42t47.5 -114 q0 -89 -67.5 -135.5t-161.5 -46.5q-63 0 -121 22l14 103q38 -15 76 -15q80 0 80 60q0 55 -72 55q-48 0 -80 -21l-39 95l92 80q-202 22 -319 153.5t-117 347.5z" />
<glyph unicode="&#xe8;" horiz-adv-x="1130" d="M53 498q0 230 145 366.5t373 136.5q163 0 279 -71t171.5 -191t55.5 -276q0 -37 -2 -60h-672q7 -81 61 -121t136 -40q141 0 213 116l248 -157q-28 -38 -66 -72.5t-97.5 -71.5t-144 -59.5t-182.5 -22.5q-236 0 -377 139t-141 384zM209 1393h434l139 -297h-319zM401 608h334 q-3 80 -46 125t-118 45q-77 0 -122 -45t-48 -125z" />
<glyph unicode="&#xe9;" horiz-adv-x="1130" d="M53 498q0 230 145 366.5t373 136.5q163 0 279 -71t171.5 -191t55.5 -276q0 -37 -2 -60h-672q7 -81 61 -121t136 -40q141 0 213 116l248 -157q-28 -38 -66 -72.5t-97.5 -71.5t-144 -59.5t-182.5 -22.5q-236 0 -377 139t-141 384zM383 1096l139 297h434l-254 -297h-319z M401 608h334q-3 80 -46 125t-118 45q-77 0 -122 -45t-48 -125z" />
<glyph unicode="&#xea;" horiz-adv-x="1130" d="M53 498q0 230 145 366.5t373 136.5q163 0 279 -71t171.5 -191t55.5 -276q0 -37 -2 -60h-672q7 -81 61 -121t136 -40q141 0 213 116l248 -157q-28 -38 -66 -72.5t-97.5 -71.5t-144 -59.5t-182.5 -22.5q-236 0 -377 139t-141 384zM203 1096l239 297h267l254 -297h-312 l-73 88l-72 -88h-303zM401 608h334q-3 80 -46 125t-118 45q-77 0 -122 -45t-48 -125z" />
<glyph unicode="&#xeb;" horiz-adv-x="1130" d="M53 498q0 230 145 366.5t373 136.5q163 0 279 -71t171.5 -191t55.5 -276q0 -37 -2 -60h-672q7 -81 61 -121t136 -40q141 0 213 116l248 -157q-28 -38 -66 -72.5t-97.5 -71.5t-144 -59.5t-182.5 -22.5q-236 0 -377 139t-141 384zM233 1106v276h291v-276h-291zM401 608h334 q-3 80 -46 125t-118 45q-77 0 -122 -45t-48 -125zM629 1106v276h291v-276h-291z" />
<glyph unicode="&#xec;" horiz-adv-x="608" d="M-78 1393h434l140 -297h-320zM117 0v975h375v-975h-375z" />
<glyph unicode="&#xed;" horiz-adv-x="608" d="M117 0v975h375v-975h-375zM133 1096l139 297h435l-254 -297h-320z" />
<glyph unicode="&#xee;" horiz-adv-x="608" d="M-61 1096l239 297h266l254 -297h-311l-74 88l-71 -88h-303zM117 0v975h375v-975h-375z" />
<glyph unicode="&#xef;" horiz-adv-x="608" d="M-33 1106v276h291v-276h-291zM117 0v975h375v-975h-375zM362 1106v276h291v-276h-291z" />
<glyph unicode="&#xf0;" horiz-adv-x="1200" d="M53 483q0 244 148 380t397 136q59 0 86 -4q-24 66 -43 97q-273 -88 -291 -93l-71 213l217 66q-15 20 -60 61l281 117q55 -48 88 -86l235 72l68 -209l-160 -49q89 -139 144 -307t55 -349q0 -115 -29 -211t-91 -174.5t-171.5 -123t-257.5 -44.5q-250 0 -397.5 132.5 t-147.5 375.5zM430 487q0 -128 43.5 -198t124.5 -70t125.5 70.5t44.5 197.5q0 130 -43.5 200.5t-126.5 70.5q-82 0 -125 -71t-43 -200z" />
<glyph unicode="&#xf1;" horiz-adv-x="1232" d="M117 0v975h370v-107q41 58 117.5 94.5t175.5 36.5q169 0 254 -94q48 -55 67 -127t19 -227v-551h-375v553q0 40 -4 66t-16 50.5t-36 36t-62 11.5q-65 0 -100 -42t-35 -118v-557h-375zM223 1180q5 24 17.5 52t35 59t50.5 56t68 41.5t85 16.5q63 0 146 -37q9 -4 30 -13.5 t31.5 -13.5t26.5 -8t30 -4q60 0 91 80l223 -102q-19 -48 -40.5 -85t-53 -71.5t-76 -53t-99.5 -18.5q-73 0 -149 31q-19 8 -46 21.5t-43 19.5t-30 6q-53 0 -80 -76z" />
<glyph unicode="&#xf2;" horiz-adv-x="1169" d="M53 485q0 236 145 376t386 140t386.5 -140t145.5 -376q0 -238 -143.5 -374t-388.5 -136q-244 0 -387.5 136t-143.5 374zM213 1393h434l139 -297h-319zM424 489q0 -113 39 -181t121 -68t121.5 68t39.5 181t-39.5 181.5t-121.5 68.5t-121 -68.5t-39 -181.5z" />
<glyph unicode="&#xf3;" horiz-adv-x="1169" d="M53 485q0 236 145 376t386 140t386.5 -140t145.5 -376q0 -238 -143.5 -374t-388.5 -136q-244 0 -387.5 136t-143.5 374zM389 1096l139 297h435l-254 -297h-320zM424 489q0 -113 39 -181t121 -68t121.5 68t39.5 181t-39.5 181.5t-121.5 68.5t-121 -68.5t-39 -181.5z" />
<glyph unicode="&#xf4;" horiz-adv-x="1169" d="M53 485q0 236 145 376t386 140t386.5 -140t145.5 -376q0 -238 -143.5 -374t-388.5 -136q-244 0 -387.5 136t-143.5 374zM211 1096l240 297h266l254 -297h-312l-73 88l-72 -88h-303zM424 489q0 -113 39 -181t121 -68t121.5 68t39.5 181t-39.5 181.5t-121.5 68.5 t-121 -68.5t-39 -181.5z" />
<glyph unicode="&#xf5;" horiz-adv-x="1169" d="M53 485q0 236 145 376t386 140t386.5 -140t145.5 -376q0 -238 -143.5 -374t-388.5 -136q-244 0 -387.5 136t-143.5 374zM172 1176q5 24 17.5 52t35 59t50.5 56t68 41.5t85 16.5q62 0 145 -37q8 -3 30 -13t32 -14t26.5 -8t30.5 -4q59 0 90 80l224 -102q-19 -48 -40.5 -85 t-53 -71.5t-76 -53t-99.5 -18.5q-73 0 -149 31q-19 8 -46 21.5t-43 19.5t-30 6q-53 0 -80 -76zM424 489q0 -113 39 -181t121 -68t121.5 68t39.5 181t-39.5 181.5t-121.5 68.5t-121 -68.5t-39 -181.5z" />
<glyph unicode="&#xf6;" horiz-adv-x="1169" d="M53 485q0 236 145 376t386 140t386.5 -140t145.5 -376q0 -238 -143.5 -374t-388.5 -136q-244 0 -387.5 136t-143.5 374zM240 1106v276h290v-276h-290zM424 489q0 -113 39 -181t121 -68t121.5 68t39.5 181t-39.5 181.5t-121.5 68.5t-121 -68.5t-39 -181.5zM635 1106v276 h291v-276h-291z" />
<glyph unicode="&#xf7;" horiz-adv-x="1583" d="M109 342v295h1368v-295h-1368zM598 0v281h389v-281h-389zM598 694v281h389v-281h-389z" />
<glyph unicode="&#xf8;" horiz-adv-x="1169" d="M53 485q0 236 145 376t386 140q108 0 209 -32l114 149l185 -151l-99 -129q123 -139 123 -353q0 -238 -143.5 -374t-388.5 -136q-118 0 -224 37l-81 -106l-191 149l72 95q-107 128 -107 335zM418 455l219 284q-18 6 -49 6q-90 0 -130 -70t-40 -220zM526 246q20 -13 49 -13 q90 0 135 71t42 183l-2 54z" />
<glyph unicode="&#xf9;" horiz-adv-x="1220" d="M104 424v551h375v-551q0 -40 4 -66t15.5 -50.5t35.5 -36t62 -11.5q72 0 106 51q27 44 27 121v543h375v-975h-371v106q-39 -58 -114 -94.5t-175 -36.5q-168 0 -254 95q-48 55 -67 127t-19 227zM246 1393h434l139 -297h-319z" />
<glyph unicode="&#xfa;" horiz-adv-x="1220" d="M104 424v551h375v-551q0 -40 4 -66t15.5 -50.5t35.5 -36t62 -11.5q72 0 106 51q27 44 27 121v543h375v-975h-371v106q-39 -58 -114 -94.5t-175 -36.5q-168 0 -254 95q-48 55 -67 127t-19 227zM395 1096l140 297h434l-254 -297h-320z" />
<glyph unicode="&#xfb;" horiz-adv-x="1220" d="M104 424v551h375v-551q0 -40 4 -66t15.5 -50.5t35.5 -36t62 -11.5q72 0 106 51q27 44 27 121v543h375v-975h-371v106q-39 -58 -114 -94.5t-175 -36.5q-168 0 -254 95q-48 55 -67 127t-19 227zM233 1096l240 297h266l254 -297h-311l-74 88l-71 -88h-304z" />
<glyph unicode="&#xfc;" horiz-adv-x="1220" d="M104 424v551h375v-551q0 -40 4 -66t15.5 -50.5t35.5 -36t62 -11.5q72 0 106 51q27 44 27 121v543h375v-975h-371v106q-39 -58 -114 -94.5t-175 -36.5q-168 0 -254 95q-48 55 -67 127t-19 227zM272 1106v276h291v-276h-291zM668 1106v276h290v-276h-290z" />
<glyph unicode="&#xfd;" horiz-adv-x="1042" d="M-6 975h391l94 -414q25 -111 45 -233h2q20 125 43 231l90 416h390l-361 -1073q-55 -164 -115 -219q-43 -39 -109.5 -55.5t-180.5 -16.5q-90 0 -185 10v258q47 -4 84 -4q93 0 121 35q16 19 16 53q0 40 -22 107zM346 1096l139 297h435l-254 -297h-320z" />
<glyph unicode="&#xfe;" horiz-adv-x="1253" d="M117 -369v1762h375v-510q40 49 113 82.5t171 33.5q191 0 307.5 -137t116.5 -377q0 -237 -116.5 -373.5t-311.5 -136.5q-97 0 -167.5 33.5t-112.5 79.5v-457h-375zM485 489q0 -114 46 -181.5t128 -67.5q162 0 162 249q0 120 -40.5 185t-121.5 65q-82 0 -128 -67.5 t-46 -182.5z" />
<glyph unicode="&#xff;" horiz-adv-x="1042" d="M-6 975h391l94 -414q25 -111 45 -233h2q20 125 43 231l90 416h390l-361 -1073q-55 -164 -115 -219q-43 -39 -109.5 -55.5t-180.5 -16.5q-90 0 -185 10v258q47 -4 84 -4q93 0 121 35q16 19 16 53q0 40 -22 107zM197 1106v276h290v-276h-290zM592 1106v276h291v-276h-291z " />
<glyph unicode="&#x152;" horiz-adv-x="1996" d="M76 692q0 335 195.5 528t533.5 193q135 0 225 -20h860v-314h-647v-217h588v-309h-588v-238h688v-315h-901q-90 -20 -227 -20q-166 0 -299.5 46t-229 134.5t-147 223.5t-51.5 308zM451 696q0 -210 99 -321t257 -111q17 0 40 -1.5t27 1.5v856q-25 2 -69 2 q-166 0 -260 -107.5t-94 -318.5z" />
<glyph unicode="&#x153;" horiz-adv-x="1794" d="M53 485q0 236 145 376t386 140q191 0 331 -100q141 100 320 100q163 0 279 -71t171.5 -191t55.5 -276q0 -37 -2 -60h-672q7 -81 61 -121t136 -40q141 0 213 116l247 -157q-28 -38 -66 -72.5t-97 -71.5t-143.5 -59.5t-182.5 -22.5q-185 0 -320 95q-142 -95 -331 -95 q-244 0 -387.5 136t-143.5 374zM424 489q0 -113 39 -181t121 -68t121.5 68t39.5 181t-39.5 181.5t-121.5 68.5t-121 -68.5t-39 -181.5zM1065 606h334q-3 80 -46 125t-118 45q-77 0 -122 -45t-48 -125z" />
<glyph unicode="&#x178;" horiz-adv-x="1327" d="M-16 1393h415l265 -478l270 478h409l-503 -822v-571h-377v567zM319 1575v276h291v-276h-291zM715 1575v276h291v-276h-291z" />
<glyph unicode="&#x2c6;" horiz-adv-x="1024" d="M131 1096l240 297h266l254 -297h-311l-74 88l-72 -88h-303z" />
<glyph unicode="&#x2dc;" horiz-adv-x="1024" d="M92 1176q5 24 17.5 52t35 59t50.5 56t68 41.5t85 16.5q63 0 146 -37q9 -4 30 -13.5t31.5 -13.5t26.5 -8t30 -4q59 0 90 80l224 -102q-19 -48 -40.5 -85t-53 -71.5t-76 -53t-99.5 -18.5q-73 0 -149 31q-19 8 -46 21.5t-43 19.5t-30 6q-53 0 -80 -76z" />
<glyph unicode="&#x2000;" horiz-adv-x="982" />
<glyph unicode="&#x2001;" horiz-adv-x="1964" />
<glyph unicode="&#x2002;" horiz-adv-x="982" />
<glyph unicode="&#x2003;" horiz-adv-x="1964" />
<glyph unicode="&#x2004;" horiz-adv-x="654" />
<glyph unicode="&#x2005;" horiz-adv-x="491" />
<glyph unicode="&#x2006;" horiz-adv-x="327" />
<glyph unicode="&#x2007;" horiz-adv-x="327" />
<glyph unicode="&#x2008;" horiz-adv-x="245" />
<glyph unicode="&#x2009;" horiz-adv-x="392" />
<glyph unicode="&#x200a;" horiz-adv-x="109" />
<glyph unicode="&#x2010;" horiz-adv-x="733" d="M82 395v305h569v-305h-569z" />
<glyph unicode="&#x2011;" horiz-adv-x="733" d="M82 395v305h569v-305h-569z" />
<glyph unicode="&#x2012;" horiz-adv-x="733" d="M82 395v305h569v-305h-569z" />
<glyph unicode="&#x2013;" horiz-adv-x="1329" d="M143 455v297h1045v-297h-1045z" />
<glyph unicode="&#x2014;" horiz-adv-x="1583" d="M76 455v297h1433v-297h-1433z" />
<glyph unicode="&#x2018;" horiz-adv-x="552" d="M76 641v240q0 186 26 284q34 122 121 181.5t244 62.5v-184q-184 -13 -184 -178h184v-406h-391z" />
<glyph unicode="&#x2019;" horiz-adv-x="552" d="M84 625v184q184 13 184 178h-184v406h391v-240q0 -187 -26 -285q-34 -122 -121 -181t-244 -62z" />
<glyph unicode="&#x201a;" horiz-adv-x="1128" d="M123 0v406h391v-240q0 -183 -27 -285q-34 -122 -120.5 -181t-243.5 -62v184q184 13 184 178h-184zM614 0v406h392v-240q0 -183 -27 -285q-34 -122 -121 -181t-244 -62v184q185 13 185 178h-185z" />
<glyph unicode="&#x201c;" horiz-adv-x="1044" d="M78 643v240q0 186 26 284q34 122 121 181.5t244 62.5v-184q-184 -13 -184 -178h184v-406h-391zM569 643v240q0 182 27 284q34 122 121 181.5t244 62.5v-184q-185 -13 -185 -178h185v-406h-392z" />
<glyph unicode="&#x201d;" horiz-adv-x="1044" d="M84 625v184q184 13 184 178h-184v406h391v-240q0 -187 -26 -285q-34 -122 -121 -181t-244 -62zM575 625v184q185 13 185 178h-185v406h392v-240q0 -183 -27 -285q-34 -122 -121 -181t-244 -62z" />
<glyph unicode="&#x201e;" horiz-adv-x="636" d="M123 0v406h391v-240q0 -183 -27 -285q-34 -122 -120.5 -181t-243.5 -62v184q184 13 184 178h-184z" />
<glyph unicode="&#x2022;" horiz-adv-x="823" d="M49 651q0 152 106 258.5t257 106.5q152 0 257 -106t105 -259q0 -151 -105 -256.5t-257 -105.5q-151 0 -257 105.5t-106 256.5z" />
<glyph unicode="&#x2026;" horiz-adv-x="2021" d="M123 0v406h391v-406h-391zM815 0v406h391v-406h-391zM1507 0v406h391v-406h-391z" />
<glyph unicode="&#x202f;" horiz-adv-x="392" />
<glyph unicode="&#x2039;" horiz-adv-x="624" d="M72 381v305l417 342v-387l-131 -88l131 -104v-381z" />
<glyph unicode="&#x203a;" horiz-adv-x="624" d="M135 68v381l131 104l-131 88v387l418 -342v-305z" />
<glyph unicode="&#x205f;" horiz-adv-x="491" />
<glyph unicode="&#x20ac;" d="M-4 707l74 219h98q14 81 39.5 150.5t68.5 133.5t100.5 109t138.5 71.5t179 26.5q91 0 167.5 -22.5t130.5 -60.5t96 -91.5t67.5 -111t40.5 -123.5l-344 -111q-24 182 -154 182q-60 0 -98.5 -44t-46.5 -109h276l-73 -219h-224v-64h201l-74 -221h-96q30 -109 135 -109 q114 0 146 144l358 -78q-23 -89 -59 -158t-94.5 -126.5t-148 -88.5t-206.5 -31q-424 0 -520 447h-176l76 221h71v64h-149z" />
<glyph unicode="&#x2122;" horiz-adv-x="1904" d="M10 1135v258h727v-258h-213v-674h-301v674h-213zM807 461h270v436q19 -84 33 -137l82 -299h219l80 305l31 133v-438h268v932h-344l-86 -314q-19 -69 -33.5 -129.5t-18.5 -85.5l-5 -26q-19 87 -64 237l-96 318h-336v-932z" />
<glyph unicode="&#x25fc;" horiz-adv-x="972" d="M0 0v973h973v-973h-973z" />
</font>
</defs>
</svg>
